<?xml version="1.0" standalone="no"?>
<!DOCTYPE svg PUBLIC "-//W3C//DTD SVG 20010904//EN"
 "http://www.w3.org/TR/2001/REC-SVG-20010904/DTD/svg10.dtd">
<svg version="1.0" xmlns="http://www.w3.org/2000/svg"
 width="512.000000pt" height="512.000000pt" viewBox="0 0 512.000000 512.000000"
 preserveAspectRatio="xMidYMid meet">
<metadata>
Created by potrace 1.11, written by Peter Selinger 2001-2013
</metadata>
<g transform="translate(0.000000,512.000000) scale(0.100000,-0.100000)"
fill="#000000" stroke="none">
<path d="M2310 4810 c-35 -5 -100 -16 -145 -24 -44 -8 -109 -18 -145 -21 -231
-22 -501 -123 -719 -270 -487 -327 -869 -900 -986 -1478 -83 -412 -41 -851
122 -1267 213 -542 587 -945 1118 -1205 332 -163 625 -238 980 -252 598 -23
1172 205 1628 647 207 200 344 388 466 641 307 634 294 1377 -36 2022 -324
634 -911 1055 -1654 1187 -97 18 -172 23 -344 26 -121 1 -249 -1 -285 -6z
m570 -26 c144 -20 348 -72 476 -120 828 -307 1362 -998 1465 -1894 15 -132 6
-450 -16 -580 -64 -375 -222 -729 -459 -1025 -78 -96 -265 -284 -361 -362
-301 -243 -660 -405 -1035 -468 -133 -23 -428 -31 -573 -16 -350 36 -707 157
-999 338 -535 331 -895 835 -1032 1444 -104 463 -62 911 125 1348 131 306 311
564 557 802 246 238 496 383 787 459 61 15 137 31 170 35 33 4 117 16 187 26
70 11 165 24 210 29 114 12 360 4 498 -16z"/>
<path d="M2520 4169 c-235 -30 -477 -126 -671 -265 -99 -72 -249 -226 -316
-324 -149 -221 -215 -445 -215 -730 -1 -237 39 -423 133 -619 189 -398 520
-653 984 -758 162 -36 458 -44 599 -15 158 33 304 114 506 281 161 133 214
214 319 483 89 230 110 328 111 513 0 306 -95 573 -324 910 -161 236 -439 449
-651 499 -148 35 -327 44 -475 25z m431 -29 c175 -36 379 -159 537 -324 92
-97 172 -207 266 -369 183 -312 245 -653 176 -969 -23 -104 -145 -418 -198
-507 -62 -105 -204 -238 -390 -363 -160 -108 -287 -147 -498 -156 -502 -19
-969 187 -1238 545 -266 354 -349 856 -211 1270 63 190 145 323 292 474 188
194 412 321 680 385 56 14 138 29 180 34 107 12 292 3 404 -20z"/>
<path d="M2545 3497 c-186 -47 -355 -190 -431 -362 -25 -57 -30 -62 -91 -89
-126 -57 -218 -181 -243 -328 -39 -224 119 -451 348 -499 116 -24 256 7 347
77 43 32 48 33 88 24 232 -53 533 105 645 341 22 46 45 108 51 137 25 119 5
301 -44 409 -44 98 -192 227 -314 274 -70 27 -275 36 -356 16z m-227 -431
c193 -52 322 -216 322 -411 0 -129 -41 -226 -135 -314 -166 -157 -414 -157
-580 0 -94 88 -135 185 -135 314 0 275 265 481 528 411z"/>
</g>
</svg>
