<?xml version="1.0" encoding="utf-8"?>
<!-- Generator: Adobe Illustrator 19.2.1, SVG Export Plug-In . SVG Version: 6.00 Build 0)  -->
<svg version="1.0" id="Layer_1" width="100px" height="100px" xmlns="http://www.w3.org/2000/svg" xmlns:xlink="http://www.w3.org/1999/xlink" x="0px" y="0px"
	 viewBox="0 0 100 100" style="enable-background:new 0 0 100 100;" xml:space="preserve">
<style type="text/css">
	.st0{fill:#F42534;}
	.st1{fill:#262729;}
</style>
<g>
	<g>
		<g>
			<path class="st0" d="M49.3,41L37.5,29.2l11.8-11.8L61,29.2L49.3,41z M44,29.2l5.2,5.2l5.2-5.2L49.3,24L44,29.2z"/>
		</g>
		<g>
			<path class="st0" d="M49.3,58L20.5,29.2L40.7,8.9l8.5,8.5l8.5-8.5L78,29.2L49.3,58z M27,29.2l22.2,22.2l22.2-22.2L57.8,15.5
				l-5.2,5.2h0l0,0l8.5,8.5L49.3,41L37.5,29.2l8.5-8.5l-5.2-5.2L27,29.2z M44,29.2l5.2,5.2l5.2-5.2L49.3,24L44,29.2z"/>
		</g>
	</g>
	<g>
		<g>
			<path class="st1" d="M22,90.4h-5.4v-8.9c0-2.7,0-4.6-2.7-4.6c-2.2,0-3,1.8-3,4.2v9.3H5.5V72.8h5.3V75c0.9-1.4,2.7-2.6,5.1-2.6
				c2.7,0,4.6,1.1,5.5,3.2c0.8-1.5,2.9-3.2,5.7-3.2c2,0,3.5,0.6,4.5,1.7c1.1,1.3,1.6,2.5,1.6,6.4v10h-5.4v-8.9c0-2.7,0-4.6-2.7-4.6
				c-2.2,0-3.1,1.8-3.1,4.2V90.4z"/>
		</g>
		<g>
			<path class="st1" d="M44.7,72.4c5.6,0,9.4,3.4,9.4,9.3c0,6-3.8,9.2-9.4,9.2c-5.6,0-9.3-3.2-9.3-9.2
				C35.3,75.8,39.1,72.4,44.7,72.4z M44.7,86.8c2.5,0,3.9-1.9,3.9-5.1c0-3.3-1.4-5.2-3.9-5.2c-2.5,0-3.9,1.9-3.9,5.2
				C40.8,84.9,42.2,86.8,44.7,86.8z"/>
		</g>
		<g>
			<path class="st1" d="M73.3,90.4h-5.4v-8.9c0-2.7-0.1-4.6-2.8-4.6c-2.3,0-3.2,1.8-3.2,4.2v9.3h-5.4V72.8h5.3V75
				c0.9-1.4,2.8-2.6,5.3-2.6c2,0,3.6,0.6,4.6,1.7c1.1,1.3,1.6,2.5,1.6,6.4V90.4z"/>
		</g>
		<g>
			<path class="st1" d="M85.1,72.4c5.6,0,9.4,3.4,9.4,9.3c0,6-3.8,9.2-9.4,9.2c-5.6,0-9.3-3.2-9.3-9.2
				C75.8,75.8,79.6,72.4,85.1,72.4z M85.1,86.8c2.5,0,3.9-1.9,3.9-5.1c0-3.3-1.4-5.2-3.9-5.2c-2.5,0-3.9,1.9-3.9,5.2
				C81.3,84.9,82.7,86.8,85.1,86.8z"/>
		</g>
	</g>
</g>
</svg>
