<?xml version="1.0" encoding="utf-8"?>
<!-- Generator: Adobe Illustrator 16.0.3, SVG Export Plug-In . SVG Version: 6.00 Build 0)  -->
<!DOCTYPE svg PUBLIC "-//W3C//DTD SVG 1.0//EN" "http://www.w3.org/TR/2001/REC-SVG-20010904/DTD/svg10.dtd">
<svg version="1.0" id="Layer_1" xmlns="http://www.w3.org/2000/svg" xmlns:xlink="http://www.w3.org/1999/xlink" x="0px" y="0px"
	 width="100px" height="100px" viewBox="0 0 100 100" enable-background="new 0 0 100 100" xml:space="preserve">
<g>
	<path fill="#164194" d="M6.23,61.805V41.087c0-5.185,1.341-8.981,4.024-11.391c2.685-2.409,6.275-3.613,10.773-3.613
		c4.496,0,8.097,1.205,10.805,3.613c2.708,2.41,4.062,6.206,4.062,11.391v20.718c0,5.185-1.354,8.981-4.062,11.391
		c-2.708,2.408-6.309,3.613-10.805,3.613c-4.498,0-8.088-1.205-10.773-3.613C7.572,70.786,6.23,66.989,6.23,61.805z M12.012,61.805
		c0,6.516,3.004,9.772,9.016,9.772c2.89,0,5.126-0.813,6.709-2.443c1.583-1.628,2.375-4.071,2.375-7.329V41.087
		c0-3.257-0.791-5.701-2.375-7.33c-1.583-1.628-3.82-2.443-6.709-2.443c-6.012,0-9.016,3.259-9.016,9.773V61.805z M19.1,53.266
		c-0.506-0.508-0.757-1.136-0.757-1.886c0-0.751,0.25-1.369,0.757-1.855c0.505-0.485,1.171-0.729,1.997-0.729
		c0.778,0,1.421,0.244,1.926,0.729c0.505,0.487,0.757,1.104,0.757,1.855c0,0.75-0.252,1.378-0.757,1.886
		c-0.505,0.507-1.148,0.761-1.926,0.761C20.271,54.026,19.605,53.772,19.1,53.266z"/>
	<path fill="#164194" d="M42.5,69.307c0-0.734,0.264-1.446,0.791-2.135c0.528-0.688,1.112-1.031,1.755-1.031
		c0.414,0,0.94,0.287,1.583,0.859c0.643,0.575,1.308,1.217,1.997,1.928c0.688,0.712,1.765,1.354,3.234,1.927
		c1.469,0.574,3.12,0.86,4.956,0.86c2.98,0,5.322-0.723,7.02-2.168s2.547-3.567,2.547-6.366c0-2.522-0.78-4.576-2.339-6.16
		c-1.562-1.582-3.442-2.787-5.645-3.613c-2.203-0.826-4.418-1.708-6.642-2.649c-2.227-0.94-4.118-2.386-5.679-4.336
		c-1.561-1.95-2.339-4.462-2.339-7.537c0-2.411,0.458-4.51,1.375-6.295c0.918-1.785,2.145-3.13,3.682-4.035
		c1.538-0.904,3.132-1.566,4.784-1.983c1.652-0.417,3.417-0.625,5.301-0.625c2.844,0,5.562,0.413,8.155,1.237
		c2.591,0.824,3.889,1.967,3.889,3.428c0,0.646-0.229,1.337-0.688,2.074c-0.46,0.738-1.057,1.107-1.791,1.107
		c-0.183,0-1.239-0.435-3.165-1.307c-1.928-0.871-4.062-1.308-6.4-1.308c-2.8,0-5.059,0.575-6.78,1.72
		c-1.721,1.148-2.581,2.96-2.581,5.438c0,2.111,0.779,3.82,2.34,5.128c1.56,1.308,3.452,2.352,5.678,3.132
		c2.227,0.78,4.44,1.675,6.644,2.684c2.201,1.01,4.083,2.628,5.643,4.853c1.559,2.227,2.341,5.06,2.341,8.5
		c0,4.728-1.377,8.295-4.13,10.704c-2.753,2.408-6.402,3.612-10.943,3.612c-4.084,0-7.537-0.856-10.358-2.569
		C43.91,72.665,42.5,70.975,42.5,69.307z"/>
	<path fill="#164194" d="M77.36,51.557c-0.436-0.36-0.653-0.902-0.653-1.625s0.218-1.254,0.653-1.594
		c0.436-0.338,0.905-0.542,1.41-0.61c0.505-0.067,0.975-0.217,1.413-0.447c0.436-0.229,0.652-0.622,0.652-1.174
		c0-0.368-0.217-2.107-0.652-5.214c-0.438-3.109-0.655-5.055-0.655-5.837c0-3.089,1.343-5.815,4.026-8.179
		c2.686-2.364,5.77-3.545,9.259-3.545c1.054,0,1.833,0.263,2.338,0.788c0.505,0.526,0.758,1.146,0.758,1.862
		c0,0.669-0.183,1.268-0.55,1.792c-0.367,0.526-0.85,0.789-1.447,0.789c-2.247,0-4.242,0.691-5.986,2.072
		c-1.745,1.381-2.614,3.085-2.614,5.111c0,0.691,0.217,2.568,0.652,5.631c0.437,3.063,0.654,4.824,0.654,5.283
		c0,0.772-0.287,1.489-0.86,2.147c-0.573,0.659-1.113,1.057-1.617,1.193c0.504,0.135,1.044,0.509,1.617,1.121
		c0.573,0.609,0.86,1.323,0.86,2.14c0,0.499-0.218,2.646-0.654,6.438c-0.436,3.793-0.652,6.052-0.652,6.779
		c0,2.091,0.939,3.623,2.82,4.6c1.882,0.977,3.81,1.465,5.78,1.465c0.689,0,1.194,0.275,1.516,0.823
		c0.32,0.55,0.481,1.135,0.481,1.757c0,1.767-1.055,2.651-3.165,2.651c-3.579,0-6.677-1.023-9.292-3.07
		c-2.616-2.049-3.924-4.631-3.924-7.749c0-0.862,0.217-3.179,0.655-6.949c0.436-3.771,0.652-5.859,0.652-6.269
		c0-0.545-0.217-0.933-0.652-1.159c-0.438-0.227-0.908-0.362-1.413-0.408C78.266,52.123,77.796,51.919,77.36,51.557z"/>
</g>
</svg>
