<?xml version="1.0" encoding="utf-8"?>
<!-- Generator: Adobe Illustrator 19.2.1, SVG Export Plug-In . SVG Version: 6.00 Build 0)  -->
<svg version="1.0" id="Layer_1" width="100px" height="100px" xmlns="http://www.w3.org/2000/svg" xmlns:xlink="http://www.w3.org/1999/xlink" x="0px" y="0px"
	 viewBox="0 0 100 100" style="enable-background:new 0 0 100 100;" xml:space="preserve">
<style type="text/css">
	.st0{fill:#0000FF;}
</style>
<title>Artboard 2</title>
<path class="st0" d="M83.3,88.7H16.7V11.3h66.7V88.7z M87,7.6H13v84.7h74V7.6z"/>
<path class="st0" d="M54.2,26.9c0.6-1,0.8-2.1,0.8-3.2c0-0.9-0.1-1.8-0.5-2.6c-0.3-0.7-0.8-1.4-1.3-1.9c-0.6-0.5-1.3-0.9-2.1-1.2
	c-0.9-0.3-1.8-0.4-2.7-0.4h-7.7v18.5h4.8v-6.3h2.1l3.1,6.3H56l-4-7.1C52.9,28.5,53.6,27.8,54.2,26.9 M49.5,25.4
	c-0.4,0.4-1,0.6-1.6,0.6h-2.4v-4.5h2.4c0.6,0,1.2,0.2,1.6,0.6c0.4,0.5,0.6,1.1,0.6,1.7C50.1,24.4,49.9,25,49.5,25.4"/>
<path class="st0" d="M35.4,19.2c-0.6-0.5-1.3-0.9-2.1-1.2c-0.9-0.3-1.8-0.4-2.7-0.4H23v18.5h4.8V30h2.9c0.9,0,1.8-0.1,2.6-0.4
	c0.8-0.3,1.4-0.7,2-1.3c0.6-0.6,1-1.2,1.3-2c0.3-0.8,0.5-1.7,0.5-2.6c0-0.9-0.1-1.8-0.5-2.7C36.4,20.4,35.9,19.7,35.4,19.2
	 M31.7,25.5c-0.4,0.4-1,0.7-1.6,0.6h-2.3v-4.6h2.3c0.7,0,1.3,0.2,1.6,0.6c0.4,0.5,0.6,1.1,0.6,1.7C32.4,24.4,32.1,25,31.7,25.5"/>
<polygon class="st0" points="23,45.2 28.7,45.2 28.7,59.5 33.7,59.5 33.7,45.2 39.3,45.2 39.3,40.9 23,40.9 "/>
<path class="st0" d="M57.7,43.2c-0.9-0.9-1.9-1.6-3.1-2c-1.2-0.5-2.5-0.7-3.9-0.7c-1.3,0-2.6,0.2-3.9,0.7c-2.3,0.9-4.2,2.8-5.1,5.1
	c-1,2.5-1,5.3,0,7.8c0.5,1.2,1.1,2.2,2,3.1c0.9,0.9,1.9,1.6,3.1,2c1.2,0.5,2.5,0.8,3.9,0.7c1.3,0,2.6-0.2,3.9-0.7
	c2.3-0.9,4.2-2.8,5.1-5.1c1-2.5,1-5.3,0-7.8C59.2,45.1,58.5,44.1,57.7,43.2 M55,52.2c-0.2,0.6-0.5,1.2-0.9,1.6
	c-0.4,0.5-0.9,0.8-1.4,1.1c-1.2,0.5-2.6,0.5-3.9,0c-0.6-0.3-1-0.6-1.4-1.1c-0.4-0.5-0.7-1-0.9-1.6c-0.4-1.3-0.4-2.7,0-4
	c0.2-0.6,0.5-1.2,0.9-1.6c0.4-0.5,0.9-0.8,1.4-1.1c1.2-0.5,2.6-0.5,3.9,0c0.6,0.3,1,0.6,1.4,1.1c0.4,0.5,0.7,1,0.9,1.6
	C55.4,49.5,55.4,50.9,55,52.2"/>
<path class="st0" d="M74.7,19.9c-0.9-0.9-1.9-1.6-3.1-2c-1.2-0.5-2.5-0.7-3.9-0.7c-1.3,0-2.6,0.2-3.9,0.7c-2.3,0.9-4.2,2.8-5.1,5.1
	c-1,2.5-1,5.3,0,7.8c0.5,1.2,1.1,2.2,2,3.1c0.9,0.9,1.9,1.6,3.1,2c1.2,0.5,2.5,0.8,3.9,0.7c1.3,0,2.6-0.2,3.9-0.7
	c2.3-0.9,4.1-2.8,5.1-5.1c1-2.5,1-5.3,0-7.8C76.3,21.8,75.6,20.7,74.7,19.9 M72,28.9c-0.2,0.6-0.5,1.2-0.9,1.6
	c-0.4,0.5-0.9,0.8-1.4,1.1c-1.2,0.5-2.6,0.5-3.9,0c-0.6-0.3-1-0.6-1.4-1.1c-0.4-0.5-0.7-1-0.9-1.6c-0.4-1.3-0.4-2.7,0-4
	c0.2-0.6,0.5-1.2,0.9-1.6c0.4-0.5,0.9-0.8,1.4-1.1c1.2-0.5,2.6-0.5,3.9,0c0.6,0.3,1,0.6,1.4,1.1c0.4,0.5,0.7,1,0.9,1.6
	C72.4,26.2,72.4,27.6,72,28.9"/>
<path class="st0" d="M75.8,67.7c-0.3-0.7-0.7-1.4-1.3-1.9c-0.6-0.5-1.3-0.9-2.1-1.2c-0.9-0.3-1.8-0.4-2.7-0.4h-7.6v18.5H67v-6.2h2.9
	c0.9,0,1.8-0.1,2.6-0.4c0.8-0.3,1.4-0.7,2-1.3c0.6-0.6,1-1.2,1.3-2c0.3-0.8,0.5-1.7,0.5-2.6C76.3,69.5,76.2,68.6,75.8,67.7
	 M70.9,72.1c-0.4,0.4-1,0.7-1.6,0.6H67v-4.6h2.3c0.7,0,1.3,0.2,1.6,0.6c0.4,0.5,0.6,1.1,0.6,1.7C71.5,71.1,71.3,71.6,70.9,72.1"/>
<polygon class="st0" points="23,68.6 28.7,68.6 28.7,82.8 33.7,82.8 33.7,68.6 39.3,68.6 39.3,64.3 23,64.3 "/>
<path class="st0" d="M53.1,64.3l3,5.6l3.3-5.6L53.1,64.3L53.1,64.3z M47,64.3h-5.6L48,75.4v7.4h4.9V75L47,64.3z"/>
</svg>
