<?xml version="1.0" encoding="utf-8"?>
<!-- Generator: Adobe Illustrator 19.2.1, SVG Export Plug-In . SVG Version: 6.00 Build 0)  -->
<svg version="1.0" id="Layer_1" xmlns="http://www.w3.org/2000/svg" xmlns:xlink="http://www.w3.org/1999/xlink" x="0px" y="0px"
	 viewBox="0 0 100 100" width="100px" height="100px" style="enable-background:new 0 0 100 100;" xml:space="preserve">
<style type="text/css">
	.st0{fill:#3C2415;}
</style>
<path class="st0" d="M62.7,86.6c-0.1,0.1-2.1,0.2-6,0.2c-6.3,0-9.4-4.3-9.4-13V55.3V29.9c3.5,0.1,6.5-0.7,9.1-2.5
	c-6.6,0.7-12.9,0.4-10.7-14.3c0.5,0.1,1.2,0.1,2.1,0.2c0.9,0.1,2.9,0.1,6,0.2c3.1,0.1,6.3,0.1,9.7,0c4.1-0.1,7.1-0.1,8.9-0.1
	c1.9-0.1,4.1,0,6.6,0.1c5,0.4,5.8,0.5,8.3,2.1c2.5,1.5,2.4,2.5,3.2,5.8c1,3.3,0.7,5.8,0.7,11.4c0,12-0.3,19.1-0.7,21.5
	c-0.6,3.6-2.5,6-5.5,6.8c-2.2,0.7-7.8,1.1-16.7,1.1c-0.4,0-0.1,0.1,0.5,0.5c3.3,1.9,6.7,2.6,10.3,2.4h0.2c1.4,3.3,3,6.4,4.8,9.1
	c4,5.1,5.8,6.1,7.3,6.9c-0.9,1.6-2.5,3.1-5,4.3c-2.5,1.2-5.2,1.2-8.2,0.1C71,82.6,65.7,74.7,62.1,61.9
	C62.2,76.6,62.3,84.7,62.7,86.6z M62.2,52.1c6.7,0.2,10.8-0.4,12.3-1.9c1.2-1.2,1.9-4.2,1.9-9.1V39v-1.5v-4.3c0-1.6-1.1-4.3-1.7-4.7
	c-0.3-0.2-1.1-0.5-2.5-0.7c-2.9-0.6-4.1-0.5-9.9-0.5v24.8H62.2z"/>
<path class="st0" d="M20.1,35.2c0,0,2.6,8.2,4.8,9.8s10.8,1.6,10.8,1.6s-7,5-7.8,7.6s1.8,10.7,1.8,10.7s-6.9-5.1-9.6-5.1
	s-9.6,5.1-9.6,5.1s2.7-8.1,1.8-10.7c-0.8-2.6-7.8-7.6-7.8-7.6s8.6,0,10.8-1.6C17.5,43.3,20.1,35.2,20.1,35.2z"/>
</svg>
