<?xml version="1.0" encoding="utf-8"?>
<!-- Generator: Adobe Illustrator 19.2.1, SVG Export Plug-In . SVG Version: 6.00 Build 0)  -->
<svg version="1.0" id="Layer_1" xmlns="http://www.w3.org/2000/svg" xmlns:xlink="http://www.w3.org/1999/xlink" x="0px" y="0px"
	 viewBox="0 0 118 98" style="enable-background:new 0 0 118 98;" xml:space="preserve">
<style type="text/css">
	.st0{fill:#FFFFFF;}
	.st1{fill:#36A9E1;}
</style>
<g>
	<g>
		<path class="st0" d="M50.1,29.3c9,0.4,16.5,8.2,19.7,16.7c3.2,8.4,1.2,18.5-4.5,25.4c-6.2,7.5-16.7,11.3-26.3,9.3
			c-9-1.9-16.7-8.9-19.5-17.7c-2.8-8.7-0.6-18.9,5.6-25.7C31.1,30.5,41.1,27.3,50.1,29.3"/>
		<g>
			<g>
				<g>
					<path d="M49.6,28.2c-2.2-0.4-4.8-0.4-7-0.2c-1.4,0-5.2,0.5-8.8,1.9c-3.6,1.3-6.7,3.7-7.7,4.6c-0.9,0.8-2,2-3,3.3
						c-0.9,1.3-1.8,2.7-2.3,3.7c-0.3,0.6-0.5,0.9-0.6,1.2C20.1,42.8,20,43,20,43.2c-0.3,0.6-0.6,1.2-0.8,1.9
						c-0.3,0.6-0.5,1.3-0.7,1.9c-0.7,2.2-1,4.4-1.2,6.7c-0.2,1.1-0.2,2.7,0,4.5s0.6,3.7,1.2,5.5c1.2,3.7,3.4,7,5,8.9
						c1.1,1.2,2.3,2.4,3.7,3.3c0.7,0.5,1.5,1,2.2,1.5c0.3,0.2,0.8,0.5,1.1,0.7c1.4,0.9,2.7,1.5,4.2,2c0.8,0.3,1.6,0.5,2.3,0.8
						c0.7,0.2,1.3,0.4,1.9,0.5c1.3,0.3,2.5,0.6,4.4,0.6c2.6,0.1,5.7-0.3,8.6-1.2c2.9-0.9,5.7-2.2,7.9-3.6c2.4-1.4,4.8-3.5,6.4-5.7
						c1.5-2.1,2.9-4.4,3.8-6.8c0.7-1.8,1.8-5,2.1-8.3c0.4-3.3-0.1-6.7-0.5-8.6c-0.9-3.3-2.1-5.5-3.5-7.6c-1.4-2.1-3-4-5.4-6.3
						c-1.6-1.4-2.8-2.3-4.2-3.2c-1.3-0.8-2.7-1.6-4.8-2.2c-0.3-0.1-1.3-0.4-2.1-0.5c-0.8-0.1-1.6,0-1.5,0.3c0,0.1-0.2,1.3-0.2,1.3
						c1.3,0.2,3.2,0.6,4.5,1.1c1.4,0.6,3,1.3,4.4,2.2s2.8,2,3.9,3.2c1.1,1.2,2.1,2.6,3,4s1.7,2.9,2.4,4.4c1.4,3.2,2.1,6.6,2,10
						c0,3.1-0.5,6.1-1.6,9c-1,2.3-2.4,4.4-4,6.3c-1.6,2.1-3.5,4.1-5.7,5.7c-2,1.4-3.3,2.1-5.6,2.9c-2.6,0.9-6.3,1.4-9,1.3
						c-2.5-0.1-5-0.4-7.4-1.1c-1-0.3-2-0.7-2.9-1.1c-0.8,0-1.4-0.3-1.8-0.5c-0.4-0.2-0.7-0.3-1-0.5c-0.5-0.3-1.1-0.6-2.6-1.8
						c0-0.1-0.7-0.7-1.5-1.6c-0.4-0.4-0.8-0.9-1.1-1.3c-0.4-0.4-0.7-0.9-1-1.2c-1.1-1.3-2.1-2.7-3-4.2c-0.5-0.7-1.3-2.6-1.9-4.6
						s-0.8-4.1-0.8-4.9c-0.1-2,0.1-3.9,0.4-5.8c0.7-3.4,1.4-6.8,3.3-9.8c1.1-1.8,2.5-3.4,4.1-4.8c0.3-0.2,0.6-0.5,0.8-0.8
						c1.7-1.5,4.7-3.6,7.8-4.6c3-1.2,5.9-1.5,6.9-1.4c2.7,0.1,4.5,0.2,6.7,0.4C49.8,30,50.7,28.4,49.6,28.2z"/>
				</g>
			</g>
		</g>
	</g>
	<path class="st1" d="M37.7,69.1c3.9-0.1,7.8,0,11.7-0.3c2.3-0.1,5-1.1,7.4-1.2c-1,2-2.3,3.8-4,5.2c-3.2,2.6-7.3,3.9-11.4,3.9
		c-1.8,0-3.7-0.2-5.3-1.1c-1.3-0.7-3.8-2.6-4.8-3.8c-1.5-1.7-1.6-2.8-2.5-4.9c0-0.1,0-0.1-0.1-0.2C31.4,68.1,34.3,69.1,37.7,69.1z"
		/>
	<g>
		<g>
			<g>
				<g>
					<path d="M79.5,72.2c0.2-0.3,0.4-0.8,0.6-1.1c0.4-0.3,1.8-2.1,2.1-2.5c0.2-0.4,0.4-1.1,0.6-1.5c0.1-0.1,0.1-0.2,0.1-0.2
						s0-0.1,0.1-0.1c0.1-0.2,0.3-0.4,0.4-0.6c0.2-0.4,0.3-0.7,0.5-1.1c0.4-0.8,1.3-2.5,1.5-3.4c0.1-0.3,0.1-0.6,0.1-0.9
						c0-0.2,0-0.3,0-0.5c0-0.1,0-0.2,0.1-0.2c0.1-0.3,0.1-0.6,0.1-0.8c0-0.7,0.4-0.9,0.4-1.5c0-0.5,0-1.1,0.1-1.6
						c0-0.6,0-1.1,0.2-1.6c0.1-0.5,0.2-1.1,0.1-1.6c-0.1-0.5-0.1-0.9-0.2-1.4c0-0.7,0-2.4-0.1-3.1c-0.3-1.2-0.8-1.7-1.3-2.8
						c-0.2-0.7-0.3-1.1-0.5-1.9c0-0.1,0-0.8-0.6-0.4c0,0-0.3,0.2-0.6,0.3s-0.6,0.3-0.6,0.3c0,0.3,0.1,0.6,0.2,0.8
						c0,0.3,0.2,0.5,0.4,0.8s0.3,0.5,0.4,0.8c0,0.3,0.1,0.6,0.2,0.9c0,0.3,0.1,0.6,0.2,0.9c0.1,0.3,0.1,0.6,0.2,0.9l0.2,0.9
						c0,0.3,0.1,0.5,0.2,0.8c0.1,0.3,0.1,0.5,0.1,0.8c0,0.5-0.2,0.9-0.2,1.3c0,0.5,0.2,1,0.3,1.5c0.1,0.4,0.1,0.7,0,1.1
						c-0.1,0.5-0.4,1.1-0.6,1.6c-0.1,0.4-0.1,0.9-0.2,1.3c0,0.2,0,0.4-0.1,0.6c-0.1,0.7,0.2,0.5-0.1,1.1c0,0-0.5,0.6-0.6,0.8
						c-0.1,0.3-0.1,0.6-0.1,1c0,0.3-0.5,1.4-0.6,1.7c-0.2,0.3-0.4,0.6-0.6,0.9c-0.4,0.5-0.3,1.2-0.6,1.8c-0.2,0.3-0.4,0.6-0.7,1
						c0,0.1-0.1,0.1-0.1,0.2c-0.3,0.8-1.1,2.4-1.5,2.5c-0.5,0.2-0.7,0.5-0.7,1C78.1,71.1,79.5,72.3,79.5,72.2z"/>
				</g>
			</g>
		</g>
	</g>
	<g>
		<g>
			<g>
				<g>
					<path d="M90,69.3c0.1-0.3,0.1-0.7,0.3-0.9c0.2-0.3,1.3-1.7,1.4-2c0.1-0.3,0.1-0.9,0.2-1.2c0-0.1,0.1-0.1,0.1-0.2c0,0,0,0,0-0.1
						c0.1-0.2,0.2-0.3,0.3-0.5c0.1-0.3,0.2-0.6,0.3-0.9c0.2-0.6,0.8-1.9,0.9-2.6c0-0.2,0-0.5-0.1-0.7c0-0.1-0.1-0.3-0.1-0.4
						c0,0,0-0.1,0-0.2c0.1-0.2,0-0.4,0-0.6c0-0.5,0.3-0.6,0.3-1.1c0-0.7-0.1-1.7,0.1-2.3c0.1-0.4,0.1-0.8,0-1.2
						c-0.1-0.3-0.1-0.7-0.1-1c0-0.5,0.2-1.8,0.1-2.3c-0.1-0.9-0.6-1.3-0.8-2.1c-0.1-0.6,0-0.8,0-1.4c0-0.1,0.2-0.6-0.5-0.3
						c-0.1,0-1.3,0.3-1.3,0.3c-0.1,0.2,0,0.5-0.1,0.7c-0.1,0.5,0.4,0.8,0.4,1.3s0,0.9,0,1.4s0.1,0.9,0.2,1.4
						c0.1,0.4,0.3,0.8,0.2,1.2c0,0.3-0.3,0.7-0.3,1c0,0.4,0.2,0.7,0.3,1.1c0.1,0.3,0.1,0.5,0,0.8c-0.1,0.4-0.3,0.8-0.5,1.2
						c-0.1,0.3,0,0.7-0.1,1c0,0.1,0,0.3,0,0.4c0,0.5,0.2,0.4,0,0.9c0,0-0.4,0.4-0.5,0.7c0,0.2,0,0.5,0.1,0.7
						c0.1,0.2-0.3,1.1-0.4,1.3c-0.1,0.2-0.2,0.5-0.4,0.7c-0.3,0.4,0,1-0.2,1.4c-0.1,0.3-0.3,0.5-0.4,0.8c0,0,0,0.1,0,0.2
						c-0.1,0.6-0.5,1.9-0.8,2c-0.4,0.2-0.5,0.4-0.4,0.8C88.3,68.6,89.8,69.4,90,69.3z"/>
				</g>
			</g>
		</g>
	</g>
	<g>
		<g>
			<g>
				<g>
					<path d="M16.9,35.4c0.1-0.3,0.2-0.7,0.4-1c0.3-0.3,1.4-1.9,1.7-2.2c0.2-0.3,0.4-0.9,0.6-1.2c0.1-0.1,0.1-0.1,0.1-0.2
						c0,0,0,0,0.1-0.1c0.1-0.2,0.3-0.3,0.4-0.5c0.2-0.3,0.4-0.6,0.7-0.8c0.5-0.5,1.7-1.7,2.2-2.2c0.2-0.2,0.3-0.4,0.4-0.7
						c0.1-0.1,0.1-0.3,0.2-0.4l0.1-0.1c0.2-0.1,0.3-0.4,0.5-0.6c0.4-0.5,0.7-0.4,1.1-0.8c0.6-0.6,1.3-1.4,2.1-1.7
						c0.4-0.2,0.9-0.3,1.2-0.7c0.3-0.3,0.7-0.5,1-0.7c0.6-0.4,2.1-0.7,2.6-0.9c0.5-0.2,0.8-0.5,1.1-0.7c0.3-0.3,0.7-0.5,1.1-0.6
						c0.6-0.2,1-0.2,1.6-0.3c0.1,0,0.6,0.1,0.4-0.6c0-0.1-0.4-1.3-0.4-1.3c-0.2,0-0.6,0.1-0.8,0.1c-0.6,0-1.1,0.6-1.6,0.7
						c-0.3,0-0.6,0.1-0.9,0.2c-0.3,0.1-0.6,0.2-0.8,0.3c-0.6,0.2-1.1,0.5-1.6,0.8c-0.2,0.1-0.5,0.3-0.7,0.4
						c-0.2,0.2-0.4,0.3-0.7,0.5c-0.4,0.2-0.9,0.2-1.3,0.4c-0.4,0.3-0.7,0.7-1,1c-0.3,0.4-0.5,0.5-0.8,0.7c-0.4,0.2-1,0.5-1.5,0.7
						c-0.4,0.2-0.7,0.5-1,0.9c-0.1,0.1-0.2,0.3-0.4,0.4c-0.4,0.5-0.1,0.5-0.7,0.9c0,0-0.7,0.2-1,0.4c-0.2,0.2-0.4,0.5-0.5,0.8
						c-0.1,0.3-0.9,1.1-1.1,1.3s-0.5,0.5-0.8,0.7c-0.5,0.4-0.5,1.2-0.8,1.7c-0.2,0.3-0.5,0.6-0.7,0.9c0,0-0.1,0.1-0.1,0.2
						c-0.4,0.7-0.9,2.3-1.3,2.5c-0.5,0.3-0.6,0.6-0.6,1C15.3,34.8,16.9,35.5,16.9,35.4z"/>
				</g>
			</g>
		</g>
	</g>
	<g>
		<g>
			<g>
				<g>
					<path d="M19.2,63.3c0.6,0.3,1.4,0.7,2,1.1c0.3,0.3,1.4,0.9,2.4,1.6c1,0.7,2.1,1.2,2.5,1.4c0.7,0.3,1.9,0.6,2.7,0.9
						c0.2,0.1,0.3,0.1,0.4,0.1c0,0,0.1,0,0.2,0.1c0.4,0.2,0.8,0.3,1.2,0.5c0.7,0.3,1.4,0.4,2.1,0.6c0.8,0.2,1.9,0.6,3.1,0.9
						c1.2,0.3,2.4,0.6,3.2,0.6c0.5,0.1,1.1,0,1.6,0c0.3,0,0.6,0,0.9,0c0.1,0,0.3,0,0.4,0c0.5,0.1,1,0,1.5,0c1.2,0,1.6,0.3,2.8,0.2
						C47,71.2,48,71.2,49,71c1-0.1,1.9-0.2,2.8-0.2c0.9,0,1.9-0.2,2.7-0.4c0.9-0.3,1.6-0.5,2.4-0.7c1.2-0.3,4.1-1,5.3-1.5
						c1-0.5,1.7-0.9,2.3-1.4c0.7-0.4,1.3-1,2.2-1.6c1.2-0.7,1.7-1,2.9-1.7c0.2-0.1,1.2-0.5,0.6-1c0,0-0.2-0.3-0.4-0.5
						s-0.4-0.5-0.4-0.5c-0.4,0.2-0.9,0.6-1.3,0.8c-0.5,0.2-0.9,0.6-1.3,1c-0.4,0.4-0.9,0.7-1.3,0.9c-0.5,0.2-1,0.5-1.5,0.7
						c-0.5,0.2-1,0.4-1.5,0.7L61,66.3l-1.6,0.6c-0.5,0.2-0.9,0.4-1.4,0.6c-0.5,0.2-0.9,0.3-1.4,0.4c-0.8,0.2-1.6,0.2-2.4,0.3
						c-0.9,0.2-1.7,0.5-2.6,0.8c-0.8,0.2-1.2,0.3-2,0.3c-0.9,0.1-2.1-0.1-3-0.2c-0.8-0.1-1.7,0.1-2.5,0c-0.3,0-0.7,0-1,0
						c-1.2,0-0.8,0.3-2.1,0c-0.1,0-1.2-0.5-1.7-0.6c-0.3,0-0.6,0-0.9,0c-0.3,0-0.6,0-0.9,0c-0.6,0-2.7-0.5-3.2-0.7
						c-0.6-0.2-1.2-0.4-1.8-0.7c-1.1-0.5-2.2-0.4-3.3-0.8c-0.7-0.2-1.2-0.6-1.9-0.9c-0.1,0-0.2-0.1-0.4-0.1
						c-0.4-0.1-0.8-0.3-1.3-0.5s-1-0.5-1.5-0.7c-0.5-0.2-0.9-0.4-1.3-0.6c-0.3-0.2-0.6-0.4-0.7-0.5c-0.6-0.7-1.1-1-1.9-1.2
						C20.1,61.8,18.9,63.2,19.2,63.3z"/>
				</g>
			</g>
		</g>
	</g>
	<g>
		<g>
			<g>
				<g>
					<path d="M7.4,68.2c0.2-0.1,0.4-0.3,0.5-0.2c0.2,0,1.3,0.1,1.5,0.1s0.4-0.4,0.6-0.4c0.1,0,0.1,0,0.1,0l0,0c0.1,0,0.2,0,0.3,0
						c0.2,0,0.3-0.1,0.5-0.2c0.4-0.1,1.2-0.2,1.6-0.4c0.1-0.1,0.2-0.2,0.3-0.3c0.1-0.1,0.1-0.1,0.1-0.2H13c0.1,0,0.2-0.1,0.3-0.2
						c0.2-0.2,0.5,0,0.7-0.1c0.3-0.2,0.8-0.6,1.2-0.6c0.2,0,0.5,0,0.6-0.2s0.3-0.2,0.5-0.3c0.3-0.1,1-0.1,1.3-0.2
						c0.5-0.2,0.5-0.7,1-0.9c0.3-0.1,0.5,0,0.8,0c0.1,0,0.4,0.2,0.1-0.5c0-0.1-0.4-1.3-0.4-1.3c-0.1-0.1-0.3,0-0.4-0.1
						c-0.3-0.1-0.5,0.4-0.7,0.4c-0.3,0-0.6,0-0.8,0.1c-0.3,0.1-0.5,0.2-0.8,0.3c-0.2,0.1-0.4,0.4-0.6,0.4c-0.2,0-0.5-0.1-0.7,0
						s-0.3,0.4-0.5,0.6c-0.1,0.2-0.2,0.2-0.4,0.3c-0.2,0-0.6,0-0.8,0s-0.4,0.2-0.6,0.3c-0.1,0-0.1,0.1-0.2,0.1
						c-0.3,0.2-0.1,0.3-0.4,0.3c0,0-0.4-0.2-0.5-0.2c-0.1,0.1-0.2,0.2-0.3,0.4s-0.6,0.2-0.7,0.3c-0.2,0-0.3,0-0.5,0
						c-0.3-0.1-0.4,0.4-0.7,0.5c-0.2,0-0.3,0-0.5,0h0c-0.3,0.2-1,0.6-1.2,0.4c-0.3-0.3-0.4-0.2-0.6,0C7.1,66.4,7.3,68.2,7.4,68.2z"
						/>
				</g>
			</g>
		</g>
	</g>
	<g>
		<g>
			<g>
				<g>
					<path d="M20.3,77.7c0.2-0.1,0.4-0.2,0.6-0.2c0.1,0,0.4,0,0.8,0c0.3-0.1,0.6-0.1,0.8-0.2c0.2-0.1,0.3-0.5,0.5-0.6
						c0,0,0.1,0,0.1-0.1l0,0c0.1,0,0.2-0.1,0.3-0.2c0.1-0.1,0.3-0.2,0.4-0.3c0.2-0.1,0.4-0.3,0.7-0.5c0.2-0.2,0.5-0.4,0.6-0.5
						s0.1-0.3,0.1-0.4c0-0.1,0-0.2,0-0.2s0-0.1,0.1-0.1c0.1-0.1,0.1-0.2,0.1-0.3c0.1-0.3,0.4-0.2,0.5-0.5c0.1-0.4,0.2-0.9,0.5-1.2
						c0.2-0.2,0.3-0.3,0.3-0.6c0-0.2,0-0.4,0.1-0.6c0.1-0.3,0.6-0.9,0.6-1.2c0.1-0.5-0.3-0.8-0.3-1.3c0-0.3,0.1-0.5,0.2-0.8
						c0-0.1,0.3-0.4-0.4-0.2c-0.1,0-1.3,0.2-1.3,0.2c-0.1,0.1-0.1,0.2-0.2,0.3c-0.2,0.2,0.3,0.4,0.2,0.6c-0.1,0.2-0.2,0.4-0.2,0.6
						c-0.1,0.2-0.1,0.4-0.1,0.7c0,0.2,0.1,0.4,0,0.6c-0.1,0.1-0.4,0.2-0.4,0.4s0.1,0.4,0.1,0.6s0,0.3-0.1,0.4s-0.4,0.3-0.6,0.4
						c-0.2,0.1-0.2,0.3-0.3,0.4c0,0.1,0,0.1-0.1,0.2c-0.1,0.2,0.1,0.3-0.1,0.4c0,0-0.4,0-0.5,0.1c-0.1,0.1-0.1,0.2,0,0.4
						c0,0.2-0.4,0.4-0.4,0.5c-0.1,0.1-0.2,0.1-0.4,0.1c-0.3,0-0.1,0.5-0.3,0.6c-0.5,0.1-0.6,0.1-0.7,0.1c0,0,0,0-0.1,0
						c-0.2,0.2-0.7,0.6-0.8,0.5c-0.2-0.3-0.2-0.2-0.4,0C20.3,75.8,20.2,77.7,20.3,77.7z"/>
				</g>
			</g>
		</g>
	</g>
	<g>
		<g>
			<g>
				<g>
					<path d="M31.2,82.8c0.1-0.2,0.1-0.4,0.3-0.5c0.2-0.1,1.1-0.7,1.3-0.8c0.2-0.1,0.2-0.5,0.4-0.7l0.1-0.1l0,0
						c0.1-0.1,0.2-0.1,0.3-0.2s0.3-0.3,0.4-0.4c0.3-0.3,1.1-0.9,1.4-1.2c0.1-0.1,0.1-0.3,0.1-0.5c0-0.1,0-0.2,0-0.3
						c0,0,0-0.1,0.1-0.1c0.1-0.1,0.1-0.3,0.2-0.4c0.1-0.3,0.4-0.3,0.6-0.6c0.2-0.4,0.3-1.1,0.7-1.4c0.2-0.2,0.4-0.4,0.4-0.7
						c0-0.3,0.1-0.5,0.2-0.7c0-0.2,0.2-0.4,0.4-0.7c0.2-0.3,0.3-0.6,0.3-0.8c0.2-0.6-0.3-1-0.2-1.6c0-0.4,0.2-0.6,0.3-1
						c0-0.1,0.3-0.4-0.4-0.3c-0.1,0-1.3,0.1-1.3,0.1c-0.1,0.1-0.1,0.3-0.2,0.4c-0.2,0.3,0.3,0.6,0.1,0.8c-0.1,0.3-0.2,0.5-0.3,0.8
						c-0.1,0.3-0.1,0.6-0.2,0.8c-0.1,0.2,0,0.5-0.1,0.8c-0.1,0.2-0.4,0.3-0.5,0.5c-0.1,0.2,0,0.5,0,0.8c0,0.2,0,0.4-0.2,0.5
						c-0.2,0.2-0.5,0.3-0.7,0.5c-0.2,0.1-0.2,0.4-0.3,0.6c0,0.1-0.1,0.2-0.1,0.3c-0.1,0.3,0.1,0.3-0.2,0.5c0,0-0.5,0-0.6,0.1
						s-0.1,0.3-0.1,0.5s-0.5,0.6-0.6,0.7s-0.3,0.2-0.5,0.3c-0.3,0.1-0.2,0.7-0.5,0.9c-0.1,0.1-0.3,0.2-0.5,0.3c0,0,0,0.1-0.1,0.1
						c-0.2,0.4-0.7,1.2-1,1.2c-0.4,0-0.5,0.2-0.5,0.5C29.8,81.7,31.2,82.8,31.2,82.8z"/>
				</g>
			</g>
		</g>
	</g>
	<g>
		<g>
			<g>
				<g>
					<path d="M45.6,83.3c0-0.2,0-0.4,0.1-0.6s0.8-1,0.9-1.2c0.1-0.2,0-0.5,0-0.7v-0.1l0,0c0.1-0.1,0.1-0.2,0.2-0.3
						c0.1-0.2,0.1-0.3,0.2-0.5c0.2-0.4,0.6-1,0.7-1.4c0-0.1,0-0.3-0.1-0.4c0-0.1,0-0.2-0.1-0.2v-0.1c0.1-0.1,0-0.2,0-0.4
						c0-0.3,0.3-0.3,0.4-0.6c0-0.4,0-1,0.3-1.3c0.1-0.2,0.3-0.4,0.2-0.6c0-0.2,0-0.4,0.1-0.6c0.1-0.3,0.6-0.9,0.6-1.3
						c0.1-0.5-0.2-0.9-0.2-1.4c0-0.4,0.2-0.5,0.4-0.9c0-0.1,0.3-0.3-0.4-0.3c-0.1,0-1.3,0-1.3,0c-0.1,0.1-0.2,0.2-0.2,0.3
						c-0.2,0.2,0.2,0.5,0.1,0.8c-0.1,0.2-0.3,0.5-0.3,0.7c-0.1,0.3-0.1,0.5-0.2,0.8c-0.1,0.2,0.1,0.5,0,0.8
						c-0.1,0.2-0.4,0.3-0.4,0.5s0.1,0.5,0.1,0.7c0,0.2,0,0.3-0.1,0.5c-0.1,0.2-0.4,0.4-0.6,0.6c-0.1,0.2-0.1,0.4-0.2,0.6
						c0,0.1,0,0.2,0,0.3c0,0.3,0.2,0.3,0,0.5c0,0-0.4,0.2-0.5,0.3c0,0.1,0,0.3,0.1,0.5s-0.2,0.6-0.3,0.8c-0.1,0.1-0.2,0.3-0.3,0.4
						c-0.2,0.2,0.1,0.6,0,0.9c-0.1,0.2-0.2,0.3-0.3,0.4V81c0,0.4-0.1,1.2-0.4,1.3c-0.3,0.1-0.3,0.3-0.2,0.5
						C44.1,82.7,45.6,83.4,45.6,83.3z"/>
				</g>
			</g>
		</g>
	</g>
	<g>
		<g>
			<g>
				<g>
					<path d="M61.6,80c0-0.2-0.2-0.3-0.2-0.5s0.3-1.1,0.3-1.3c0-0.2-0.2-0.4-0.2-0.6v-0.1l0,0c0-0.1,0-0.2,0-0.3c0-0.2,0-0.3,0-0.5
						c0-0.3,0.2-1.1,0.1-1.4c0-0.1-0.1-0.2-0.2-0.3c0-0.1-0.1-0.1-0.1-0.2v-0.1c0.1-0.1-0.1-0.2-0.1-0.3c-0.1-0.2,0.2-0.4,0.1-0.6
						c-0.1-0.4-0.4-0.8-0.2-1.2c0.1-0.2,0.1-0.4,0-0.6c-0.1-0.2-0.1-0.4-0.2-0.5c0-0.3,0.2-1,0.1-1.2c-0.1-0.5-0.6-0.6-0.7-1.1
						c-0.1-0.3,0.1-0.5,0.1-0.8c0-0.1,0.2-0.4-0.5-0.1c-0.1,0-1.3,0.4-1.3,0.4c-0.1,0.1-0.1,0.3-0.1,0.4c-0.1,0.3,0.3,0.4,0.3,0.7
						c-0.1,0.3-0.1,0.5-0.1,0.7s0.1,0.5,0.1,0.7c0,0.2,0.3,0.4,0.2,0.6c0,0.2-0.3,0.4-0.2,0.6c0,0.2,0.2,0.4,0.4,0.5
						c0.1,0.2,0.2,0.3,0.1,0.4c0,0.2-0.2,0.5-0.3,0.7s0,0.4,0.1,0.5c0,0.1,0.1,0.1,0.1,0.2c0.1,0.3,0.3,0.2,0.2,0.4
						c0,0-0.3,0.3-0.3,0.4c0,0.1,0.1,0.2,0.3,0.4c0.1,0.1,0.1,0.6,0.1,0.7c0,0.1-0.1,0.3-0.2,0.4c-0.1,0.3,0.3,0.5,0.3,0.7
						s-0.1,0.3-0.1,0.5v0.1c0.1,0.3,0.4,1,0.2,1.2c-0.3,0.2-0.2,0.3,0,0.5C59.8,80.2,61.6,80.2,61.6,80z"/>
				</g>
			</g>
		</g>
	</g>
	<g>
		<g>
			<g>
				<g>
					<path d="M73.1,70.1c-0.1-0.1-0.3-0.1-0.3-0.2s0-0.7,0-0.8c0-0.1-0.3-0.1-0.4-0.2l0,0l0,0c0-0.1,0-0.1,0-0.2
						c0-0.1-0.1-0.2-0.1-0.3c-0.1-0.2-0.1-0.7-0.2-0.9c0-0.1-0.2-0.1-0.3-0.1s-0.1,0-0.2-0.1c0,0,0,0,0-0.1s-0.1-0.1-0.2-0.2
						c-0.2-0.1,0.1-0.3-0.1-0.4c-0.2-0.2-0.5-0.4-0.5-0.7c0-0.2,0-0.3-0.2-0.4c-0.2,0-0.2-0.2-0.3-0.2c-0.1-0.1-0.1-0.7-0.3-0.8
						c-0.2-0.2-0.6-0.1-0.9-0.3C69,64.1,69,63.8,69,63.5c0,0,0.1-0.4-0.4,0.2c-0.1,0.1-0.9,0.9-0.9,0.9c0,0.1,0,0.2,0,0.3
						c0,0.2,0.4,0.1,0.4,0.2c0,0.2,0.1,0.3,0.2,0.5c0.1,0.1,0.2,0.3,0.3,0.4c0.1,0.1,0.3,0.1,0.4,0.2c0,0.1-0.1,0.4,0,0.4
						c0.1,0.1,0.3,0.1,0.5,0.1c0.1,0,0.2,0.1,0.2,0.2s-0.1,0.4-0.1,0.5s0.1,0.2,0.2,0.3l0.1,0.1c0.1,0.1,0.3,0,0.3,0.2
						c0,0-0.2,0.3-0.2,0.4s0.2,0.1,0.3,0.1s0.2,0.3,0.2,0.4s0,0.2,0,0.3c-0.1,0.2,0.4,0.2,0.5,0.3c0,0.1,0,0.2,0.1,0.3l0,0
						c0.2,0.2,0.7,0.5,0.5,0.7c-0.1,0.3-0.1,0.3,0.2,0.3C71.6,71.1,73.1,70.1,73.1,70.1z"/>
				</g>
			</g>
		</g>
	</g>
</g>
</svg>
