<?xml version="1.0" encoding="utf-8"?>
<!-- Generator: Adobe Illustrator 19.2.1, SVG Export Plug-In . SVG Version: 6.00 Build 0)  -->
<svg version="1.0" id="Layer_1" xmlns="http://www.w3.org/2000/svg" xmlns:xlink="http://www.w3.org/1999/xlink" x="0px" y="0px"
	 viewBox="0 0 118 98" style="enable-background:new 0 0 118 98;" xml:space="preserve">
<style type="text/css">
	.st0{fill:#FFFFFF;}
	.st1{fill:#36A9E1;}
</style>
<g>
	<g>
		<path class="st0" d="M60,24.6c-11.8,0.6-21.7,10.8-25.8,21.9s-1.6,24.2,5.9,33.3c8.2,9.9,22,14.8,34.5,12.1
			c11.8-2.5,21.9-11.7,25.6-23.2S101,43.9,92.9,35C84.8,26.2,71.8,22,60,24.6"/>
		<g>
			<g>
				<g>
					<path d="M61,25.4c2.7-0.6,5.9-0.9,8.7-0.6c1.7,0.1,6.4,0.8,10.7,2.8c4.4,1.8,8,4.8,9.2,6c0.3,0.2,0.6,0.5,0.9,0.8
						s0.6,0.6,0.9,0.9c0.7,0.6,1.3,1.4,1.9,2.1c1.2,1.5,2.4,3.1,3.1,4.4c0.4,0.7,0.6,1.2,0.8,1.4c0.1,0.2,0.2,0.4,0.3,0.6L98,45
						l0.4,1.2c0.3,0.8,0.6,1.6,0.8,2.4c0.8,2.7,1.3,5.4,1.4,8.2c0.1,1.5,0,3.5-0.2,5.6c-0.3,2.1-0.8,4.4-1.6,6.7
						c-1.5,4.5-4.3,8.4-6.2,10.7c-1.3,1.5-2.6,3-4.2,4.4c-0.4,0.4-0.8,0.7-1.3,1.1c-0.4,0.3-0.9,0.7-1.3,1c-0.3,0.2-1,0.7-1.3,0.9
						c-1.8,1-3.3,1.9-5.2,2.6c-1,0.5-2,0.7-2.8,1c-0.9,0.2-1.6,0.4-2.4,0.5c-1.6,0.2-3.1,0.4-5.4,0.5c-3.2,0.2-7-0.2-10.7-1.2
						s-7.1-2.7-9.7-4.5c-2.8-1.9-5.6-4.5-7.8-7.1c-2.1-2.4-3.7-5.4-4.9-8.2c-0.9-2.2-2.1-6.2-2.3-10.3c-0.3-4.1,0.4-8.1,1-10.4
						c1-3.9,2.4-6.8,3.8-9.5c1.5-2.7,3.3-5.3,6.4-8.1c2-1.8,3.6-2.8,5.3-3.8c1.7-0.9,3.4-1.7,5.9-2.3c0.4-0.1,1.5-0.3,2.5-0.4
						s1.8-0.3,1.7-0.7c0-0.1,0.1-1.3,0-1.3c-1.8,0-4.7,0.5-6.5,1.1c-2.2,0.7-4.3,1.8-6.3,3.2c-1.9,1.4-3.7,3-5.3,4.6
						s-3.1,3.4-4.4,5.3c-1.3,1.9-2.4,4-3.4,6.1c-2,4.4-3,9.3-2.8,14.1c0.1,4.3,1.1,8.5,2.6,12.5c1.2,3.3,2.7,6.4,4.9,9.2
						c2.4,3,5.3,5.4,8.5,7.4c2.9,1.7,4.7,2.6,7.8,3.8c3.5,1.4,8.6,2.5,12.4,2.6C71,94,74.6,93.4,78,92.3c0.7-0.2,1.4-0.5,2.1-0.8
						s1.4-0.6,2-0.9c0.6-0.3,1.1-0.5,1.5-0.8c0.4-0.2,0.7-0.4,1-0.6c0.6-0.3,0.9-0.6,1.3-0.8c0.7-0.5,1.4-1,3.5-2.5
						c0.1-0.1,1.2-0.8,2.4-1.9c0.6-0.5,1.3-1.1,1.8-1.7c0.6-0.6,1.1-1.1,1.5-1.6c1.6-1.9,2.8-4,3.8-6.2c0.5-1,1.7-3.7,2.5-6.5
						s1.2-5.7,1.2-6.9c0.2-2.7,0.2-5.5-0.2-8.2c-0.7-5-2.8-9.3-5.3-13.5c-1.6-2.5-3.4-4.9-5.6-6.9c-0.4-0.3-0.8-0.7-1.2-1.1
						c-2.5-2.1-6.8-4.7-11-6.1c-4.2-1.5-8.2-1.9-9.5-2.1c-3.6-0.5-6.3-0.3-9.4,0.5C59.9,23.8,59.7,25.6,61,25.4z"/>
				</g>
			</g>
		</g>
	</g>
	<path class="st1" d="M75,34.5c-9.1-3-20,1.4-24.6,9.8s-2.3,19.9,5.1,25.9c4.1,3.4,9.5,5.1,14.9,5.1c2.4,0,4.8-0.3,6.9-1.4
		c1.8-1,5.1-3.4,6.5-5c2-2.2,2.1-3.7,3.3-6.4c2.4-5.5,1.6-12.1-1.4-17.4C82.7,39.9,80.4,37.2,75,34.5"/>
	<path d="M69.7,43.9c-4.7-0.5-9.5,3.2-10,7.9c-0.6,4.7,3.2,9.5,7.9,10c4.7,0.6,9.5-3.2,10.1-7.8c0.3-2.3-0.2-5.7-1.9-7.2
		C74.1,45.2,72.4,43.8,69.7,43.9"/>
	<ellipse transform="matrix(0.9012 -0.4334 0.4334 0.9012 -18.5071 32.348)" class="st0" cx="61.7" cy="56.8" rx="6.6" ry="6.6"/>
	<g>
		<g>
			<g>
				<g>
					<path d="M27.5,79.3c-0.3-0.4-0.8-0.8-1.1-1.2c-0.2-0.3-0.6-1-1-1.8c-0.4-0.7-0.8-1.5-0.9-1.8c-0.2-0.5-0.9-1.1-1.1-1.6
						c-0.1,0-0.1-0.1-0.1-0.1v-0.1c-0.1-0.3-0.2-0.6-0.4-0.8c-0.2-0.4-0.4-0.9-0.6-1.4c-0.4-1-1-3.3-1.4-4.3c-0.1-0.3-0.3-0.7-0.5-1
						c-0.1-0.2-0.2-0.4-0.3-0.5c0-0.1-0.1-0.2-0.1-0.3c0-0.4-0.2-0.7-0.3-1c-0.2-0.8-0.1-1.2-0.2-1.9c-0.1-0.6-0.3-1.2-0.4-1.9
						S19,58.2,19,57.7c0.1-0.6,0.1-1.3,0-1.9c-0.1-0.6,0-1.2,0-1.7c0-0.9,0.7-2.9,0.8-3.7c0.2-0.7,0.2-1.3,0.3-1.8
						c0-0.6,0.2-1.1,0.4-1.8c0.3-0.9,0.7-1.2,1.2-2c0.1-0.1,0.6-0.6-0.1-0.9c0,0-0.3-0.2-0.6-0.3c-0.3-0.2-0.6-0.3-0.6-0.3
						c-0.2,0.2-0.5,0.7-0.7,1c-0.3,0.3-0.4,0.7-0.5,1.2c-0.1,0.4-0.2,0.9-0.3,1.2c-0.2,0.4-0.4,0.8-0.6,1.1
						c-0.1,0.4-0.3,0.8-0.4,1.2s-0.2,0.8-0.3,1.3l-0.2,1.3c-0.1,0.4-0.1,0.8-0.1,1.2s0,0.8,0,1.2c-0.1,0.6-0.4,1.2-0.4,1.9
						s0.2,1.4,0.3,2c0.2,0.6,0.2,1,0.2,1.6c0,0.7-0.1,1.6-0.1,2.3c0,0.6,0.2,1.3,0.4,1.9c0.1,0.3,0.2,0.5,0.2,0.8
						c0.3,0.9,0.4,0.6,0.5,1.5c0,0-0.1,1,0,1.4s0.4,0.8,0.6,1.2c0.2,0.4,0.7,2,0.9,2.3c0.2,0.5,0.3,0.9,0.4,1.4
						c0.2,0.9,1,1.4,1.4,2.2c0.2,0.5,0.5,1,0.7,1.4c0,0.1,0.1,0.2,0.2,0.2c0.3,0.5,0.9,1.2,1.4,1.8c0.5,0.6,0.9,1.2,1,1.5
						c0.2,0.7,0.5,1,1,1.3C26.1,80.7,27.6,79.6,27.5,79.3z"/>
				</g>
			</g>
		</g>
	</g>
	<g>
		<g>
			<g>
				<g>
					<path d="M14,76c-0.2-0.3-0.5-0.6-0.7-1s-0.9-2.4-1-2.8s-0.6-0.9-0.7-1.3c0-0.1-0.1-0.2-0.1-0.2v-0.1c-0.1-0.2-0.1-0.4-0.2-0.7
						c-0.1-0.3-0.2-0.7-0.3-1.1c-0.2-0.8-0.5-2.5-0.6-3.3c-0.1-0.3-0.2-0.5-0.3-0.8c-0.1-0.1-0.2-0.3-0.2-0.4v-0.2
						c0-0.3-0.1-0.5-0.2-0.8c-0.2-0.6,0.1-0.9,0-1.5c-0.2-0.9-0.4-2-0.3-2.9c0.1-0.5,0.2-1,0.1-1.4c-0.3-0.3-0.2-0.7-0.2-1.1
						c-0.1-0.7,0.5-2.2,0.6-2.8c0.1-0.5,0-1,0-1.4s0-0.9,0.1-1.4c0.1-0.7,0.4-1,0.7-1.6c0-0.1,0.4-0.5-0.3-0.7c0,0-0.4-0.1-0.7-0.2
						C9.3,48.2,9,48.1,9,48.1c-0.2,0.2-0.3,0.6-0.4,0.8c-0.3,0.5-0.1,1.3-0.3,1.9C8.2,51,8.1,51.3,8,51.7c-0.1,0.3-0.1,0.6-0.2,0.9
						c-0.1,0.6-0.2,1.3-0.2,1.9c0,0.3,0,0.6,0,0.9c0,0.3,0.1,0.6,0,0.9c-0.1,0.5-0.3,0.9-0.3,1.4s0.2,1,0.3,1.5
						c0.1,0.4,0.2,0.7,0.2,1.2s-0.2,1.2-0.2,1.7c-0.1,0.5,0.1,1,0.2,1.4c0,0.2,0.1,0.4,0.2,0.6c0.2,0.7,0.3,0.4,0.4,1.1
						c0,0-0.2,0.8-0.2,1.1c0,0.3,0.2,0.6,0.4,0.9S9,68.7,9.1,69c0.1,0.4,0.1,0.7,0.1,1.1c0,0.7,0.7,1.1,1,1.7
						c0.1,0.4,0.2,0.8,0.3,1.1c0,0.1,0.1,0.1,0.1,0.2c0.2,0.4,0.6,1,0.9,1.5c0.3,0.5,0.6,1,0.6,1.2c0,0.6,0.2,0.9,0.6,1.1
						C12.5,77,14.1,76.1,14,76z"/>
				</g>
			</g>
		</g>
	</g>
	<g>
		<g>
			<g>
				<g>
					<path d="M105.5,31.6c-0.3-0.4-0.7-0.8-0.9-1.3c-0.3-0.5-1.2-3-1.6-3.5c-0.3-0.4-1-1-1.3-1.4c-0.1-0.1-0.1-0.2-0.2-0.2
						c0,0,0-0.1-0.1-0.1c-0.1-0.3-0.3-0.5-0.5-0.8c-0.3-0.4-0.6-0.8-0.9-1.1c-0.3-0.4-0.8-1.1-1.3-1.7c-0.5-0.7-1-1.3-1.4-1.7
						c-0.3-0.2-0.6-0.4-0.9-0.6c-0.2-0.1-0.3-0.2-0.5-0.3c-0.1,0-0.2-0.1-0.2-0.2c-0.2-0.3-0.5-0.4-0.8-0.6
						c-0.6-0.5-0.7-0.9-1.3-1.3c-0.9-0.6-2.2-1.4-3-2.2c-0.5-0.4-1-0.8-1.5-1s-1-0.5-1.5-0.8c-0.7-0.5-2.4-1.6-3.1-2
						c-0.6-0.3-1.2-0.4-1.7-0.6C82.3,10,81.7,9.9,81,9.8c-0.9-0.3-1.2-0.6-2-1c0,0-0.6-0.6-0.7,0.2c0,0-0.1,0.4-0.2,0.7
						c-0.1,0.3-0.2,0.6-0.2,0.6c0.2,0.2,0.7,0.4,0.9,0.5c0.6,0.4,1.5,0.3,2.1,0.6c0.3,0.2,0.7,0.3,1,0.5s0.7,0.4,1,0.5
						c0.7,0.3,1.4,0.7,2,1c0.3,0.1,0.6,0.2,1,0.3c0.3,0.1,0.6,0.3,0.9,0.5c0.4,0.3,0.8,0.8,1.2,1.1c0.5,0.3,1.1,0.5,1.7,0.7
						c0.5,0.2,0.7,0.4,1.1,0.8c0.4,0.4,1,1.1,1.4,1.5c0.4,0.4,0.9,0.7,1.3,1c0.2,0.2,0.4,0.3,0.5,0.4c0.6,0.5,0.6,0.2,1.1,0.8
						c0,0,0.3,0.8,0.6,1.1c0.3,0.2,0.6,0.5,1,0.7c0.3,0.2,1.2,1.4,1.4,1.6c0.3,0.3,0.5,0.7,0.7,1.1c0.4,0.7,1.1,1,1.6,1.7
						c0.3,0.4,0.5,0.8,0.7,1.2c0,0.1,0.1,0.1,0.2,0.2c0.4,0.4,0.8,1,1.2,1.6c0.4,0.6,0.7,1.1,0.7,1.4c0,0.6,0.3,1,0.7,1.3
						C103.9,32.5,105.6,31.8,105.5,31.6z"/>
				</g>
			</g>
		</g>
	</g>
	<g>
		<g>
			<g>
				<g>
					<path d="M108.4,15.9c-0.2-0.2-0.5-0.3-0.7-0.6s-1-1.7-1.3-1.9c-0.2-0.2-0.7-0.4-0.9-0.6c-0.1-0.1-0.1-0.1-0.1-0.1s0,0,0-0.1
						c-0.1-0.1-0.2-0.3-0.3-0.4c-0.2-0.2-0.4-0.4-0.6-0.6c-0.4-0.4-1.3-1.5-1.8-1.9c-0.2-0.1-0.4-0.2-0.6-0.2
						c-0.1,0-0.2-0.1-0.3-0.1l-0.1-0.1c-0.1-0.2-0.3-0.2-0.5-0.3c-0.4-0.2-0.4-0.6-0.8-0.8c-0.6-0.3-1.4-0.7-1.9-1.2
						c-0.2-0.3-0.5-0.5-0.9-0.6C97.3,6.2,97,6,96.7,5.9c-0.4-0.3-1.3-1.1-1.7-1.3c-0.7-0.4-1.3-0.3-2.1-0.6
						c-0.5-0.2-0.6-0.5-1.1-0.8c-0.3-0.1-0.5-0.5-0.8,0.2c0,0.1-0.5,1.2-0.5,1.2C90.6,4.9,90.8,5,91,5.2c0.3,0.3,0.9,0.2,1.2,0.4
						c0.3,0.3,0.7,0.5,1.1,0.8c0.4,0.2,0.8,0.4,1.2,0.6c0.3,0.2,0.7,0.2,1.1,0.5c0.3,0.2,0.4,0.6,0.7,0.8c0.3,0.2,0.7,0.2,1.1,0.3
						c0.3,0.1,0.5,0.2,0.7,0.4c0.3,0.3,0.5,0.7,0.8,1c0.2,0.3,0.5,0.4,0.8,0.6c0.1,0.1,0.2,0.1,0.4,0.2c0.4,0.3,0.4,0,0.7,0.4
						c0,0,0.2,0.6,0.3,0.7c0.2,0.1,0.4,0.2,0.7,0.3c0.2,0.1,0.8,0.7,1,0.9s0.3,0.4,0.4,0.6c0.2,0.4,0.8,0.4,1.2,0.7
						c0.2,0.2,0.3,0.4,0.5,0.7l0.1,0.1c0.5,0.3,1.5,1.1,1.5,1.4c0,0.4,0.2,0.6,0.6,0.7C107,17.1,108.5,16,108.4,15.9z"/>
				</g>
			</g>
		</g>
	</g>
</g>
</svg>
