<?xml version="1.0" encoding="utf-8"?>
<!-- Generator: Adobe Illustrator 19.2.1, SVG Export Plug-In . SVG Version: 6.00 Build 0)  -->
<svg version="1.0" id="Layer_1" xmlns="http://www.w3.org/2000/svg" xmlns:xlink="http://www.w3.org/1999/xlink" x="0px" y="0px"
	 viewBox="0 0 130 158" style="enable-background:new 0 0 130 158;" xml:space="preserve">
<style type="text/css">
	.st0{fill:#DD9F5B;}
	.st1{fill:#C02E66;}
	.st2{fill:#C18E6C;}
	.st3{fill:#EAB681;}
	.st4{fill:#FFFFFF;}
</style>
<g>
	<g>
		<path class="st0" d="M9.6,76.9c22.6-15,46.6-36.3,62.9-58c2.9-3.9,5.8-7.9,9.7-10.6c9.2-6.4,22.8-4.2,30.9,3.5
			c8.2,7.7,11.5,19.6,10.7,30.8c-0.7,11.2-5,21.9-9.9,32C100,102.8,73.2,133,49.1,153.1"/>
		<g>
			<g>
				<g>
					<path d="M74.8,18c-0.9,1.2-1.8,2.4-2.8,3.6s-2,2.4-3,3.7c-1.9,2.5-4.1,4.9-6.3,7.2c-1.1,1.2-2.1,2.4-3.2,3.6
						c-1.1,1.1-2.2,2.3-3.3,3.4c-1.1,1.1-2.2,2.3-3.3,3.4c-1.1,1.1-2.2,2.2-3.3,3.2c-2,1.9-4.2,4-6.6,6c-2.4,2-4.7,4-6.7,5.8
						c-1.8,1.6-3.7,3.1-5.6,4.7c-1,0.8-1.9,1.6-2.9,2.4s-2,1.5-2.9,2.2c-1.6,1.1-4.3,3.3-7.1,5.3s-5.6,3.9-7.3,5
						c-1.2,0.8,0.7-1,0.2-0.8c-0.4,0.1,1.1-2.6,1.8-3.1c1.4-1,3.4-2.4,5.3-3.8s3.9-2.9,5.3-4c3.1-2.3,5.5-4.4,7.9-6.3
						c1.2-1,2.5-2,3.7-3.1s2.5-2.3,4-3.5c1.7-1.6,4.1-3.6,6.6-6s5.4-5,8-7.8c1.3-1.4,2.7-2.8,4-4.1s2.5-2.8,3.7-4
						c2.3-2.6,4.4-4.9,5.8-6.8c2.9-3.7,3.9-4.9,4.9-6.1c0.5-0.6,1-1.2,1.7-2.2c0.7-0.9,1.7-2.2,3.3-4c1.6-1.8,3.3-3.4,5.3-4.7
						c2-1.4,4.3-2.3,6.6-2.9c2.3-0.6,4.7-0.8,7.1-0.7s4.7,0.5,7,1.2c2.7,0.8,5.2,1.8,7.7,3.4c6.5,4.4,11.1,11.6,13.5,20.6
						c0.5,2.4,0.9,4.5,1,6.6c0.2,2.1,0.2,4.3,0.1,6.7c-0.4,6.7-2.1,13.3-4.4,19.5c-2.6,7-6,13.6-9.6,20.1c-1.2,2.2-2.5,4.4-3.8,6.6
						c-0.7,1.1-1.3,2.2-1.9,3.3c-0.7,1.1-1.3,2.1-2,3.2c-4.2,6.5-8.8,12.8-13.6,18.9c-0.8,1-1.7,2.2-2.5,3.1
						c-1.9,2.2-3.9,4.2-5.9,6.4c-7.7,8.4-13.9,14.8-22.3,22.3c-1,0.9-2.9,2.5-4.8,4.2c-1.9,1.6-3.8,3.1-4.8,3.8
						c0.8-1,1.1-2.6,2.8-4.8c1.5-1.3,5.7-4.7,7.2-6.2l2.7-2.5l2.7-2.6c7.4-7.3,14.6-15.1,21.3-23.2l2.7-3.3l2.6-3.4
						c1.9-2.3,2.9-4.2,4.6-6.6c1.1-1.5,2.4-3.3,3.6-5c1.3-1.7,2.4-3.5,3.5-5.1c4-6.2,7.6-12.6,10.8-19.3c0.8-1.7,1.6-3.5,2.3-5.3
						c0.7-1.8,1.4-3.5,2-5.3c1.3-3.6,2.3-7.3,3-11c0.1-0.8,0.3-1.6,0.4-2.4l0.2-1.2l0.2-1.2l0.3-2.4c0.1-0.8,0.1-1.6,0.2-2.4
						c0.2-6.2-1-12.4-3.5-18c-2.1-4.7-5.3-8.9-9.5-11.9c-4.1-3.1-10.2-4.8-15.7-4.5c-1.2,0.1-2.1,0.2-2.9,0.3
						c-0.8,0.1-1.6,0.3-2.3,0.5c-0.7,0.2-1.4,0.5-2.2,0.8c-0.7,0.4-1.6,0.7-2.6,1.4c-3.5,2.1-6.3,5.4-8.9,9L74.8,18z"/>
				</g>
			</g>
		</g>
	</g>
	<g>
		<path class="st1" d="M12.6,75.7C6.9,76.7,4,83.2,3,88.9c-3.4,20.1,5.6,41,20.4,55c5.6,5.2,12.3,9.8,19.9,10.2c2,0.1,4-0.1,5.7-1
			c2.8-1.6,4-4.9,4.6-8c3.8-18.2-4.4-36.7-13.9-52.7c-3.1-5.3-6.6-10.6-12-13.6C20.9,74.8,20.5,74.6,12.6,75.7"/>
		<g>
			<g>
				<g>
					<path d="M10.7,130.4c-2.2-3.6-4.2-7.6-5.7-11.7c-1.6-4.2-2.6-8.5-3.2-12.7c-0.6-3.7-0.6-8.6-0.3-12.3c0-0.8,0.1-1.7,0.2-2.5
						c0.1-0.9,0.2-1.7,0.3-2.6c0.3-1.7,0.7-3.4,1.4-5c0.5-1.3,1.5-3.6,3.2-5.5c0.8-1,1.8-1.8,2.9-2.4c1-0.6,2-0.9,2.7-1
						c1.1-0.2-0.8,0.6-0.3,0.7c0.2,0-0.2,0.5-0.5,1c-0.4,0.5-0.7,1-0.9,1.2c-0.9,0.6-2,1.5-2.9,2.7S6,82.9,5.6,84
						c-0.8,2.3-1.3,4.4-1.5,6.5c-0.3,2.1-0.5,4.2-0.4,6.8c0,3.1,0.4,8.3,1.6,13.3c1.2,5.1,3.2,9.9,4.6,12.7c0.3,0.7,0.6,1.3,0.9,1.8
						c0.3,0.5,0.5,0.9,0.7,1.2c0.4,0.7,0.6,1.2,0.8,1.7c0.2,0.5,0.5,0.9,0.9,1.6s0.9,1.6,1.8,2.9c0.9,1.3,1.8,2.5,2.8,3.7
						c0.5,0.6,1,1.2,1.5,1.8l1.6,1.7c0.5,0.6,1,1.1,1.6,1.7l1.7,1.6c1.1,1,2.3,2.1,3.5,3c0.4,0.3,0.7,0.6,1.1,0.8s0.8,0.5,1.1,0.7
						l1.1,0.7c0.4,0.2,0.8,0.4,1.2,0.7c2.1,1.3,4.4,2.3,6.8,3.1c0.6,0.2,1.3,0.3,1.9,0.5c0.7,0.1,1.3,0.2,2,0.2
						c1.4,0.2,2.7,0.1,4-0.2c2.7-0.6,4-2.4,5.1-5.2c0.7-1.9,1-4.2,1.4-6.3c0.1-1.1,0.2-2.2,0.3-3.3c0-1.1,0.1-2.2,0.1-3.3
						c-0.1-4.9-0.8-9.8-2.1-14.6c-0.8-3.2-2.2-6.5-3.6-9.5c-2.1-4.8-4.6-9.4-7.3-13.8c-0.5-0.8-1-1.6-1.4-2.3
						c-0.9-1.8-1.8-3.4-2.8-5.1c-2-3.2-4.1-5.8-6.7-7.8c-1.3-1-2.7-1.8-4.2-2.7c-1.5-0.8-3.1-1.8-4.7-2.2c-1.5-0.7-6.4,0-8.1,0
						c0.8-0.4,1.5-1.5,3.4-2.3c0.4,0,0.8-0.1,1.4-0.1s1.3,0,2,0.1s1.4,0.2,2,0.4c0.6,0.2,1.1,0.3,1.4,0.5l1.2,0.5l1.1,0.6
						c0.8,0.4,1.5,0.8,2.2,1.2c0.8,0.4,1.6,0.9,2.4,1.4c0.4,0.2,0.8,0.5,1.1,0.8l1.1,0.9c0.7,0.6,1.4,1.3,2,1.9
						c0.6,0.7,1.3,1.4,1.8,2.1c2.3,2.9,4.2,6.1,5.9,9.2c1,1.7,1.9,3.4,2.9,5.2c1,1.8,1.8,3,2.7,4.8c0.6,1.2,1.2,2.6,1.7,3.9
						c0.5,1.4,1.1,2.7,1.6,4c1.9,4.8,3.3,9.7,4.2,14.8c0.9,5.3,1.3,10.7,0.5,16.1c-0.4,2.2-0.9,4.5-1.9,6.7c-0.5,1.1-1.1,2.1-1.9,3
						c-0.8,0.9-1.8,1.7-3,2.2c-1.1,0.5-2.3,0.7-3.5,0.7c-0.6,0-1.2,0-1.7,0c-0.6,0-1.1-0.1-1.7-0.2c-3.8-0.5-7.3-1.9-10.5-3.8
						c-3.5-2-7-4.6-9.9-7.4c-0.6-0.6-1.1-1.1-1.6-1.5c-0.4-0.5-0.8-0.9-1.2-1.3c-0.7-0.8-1.5-1.6-2.6-3c-0.5-0.6-1-1.2-1.4-1.8
						l-1.3-1.9C12.4,133.1,11.6,131.7,10.7,130.4L10.7,130.4z"/>
				</g>
			</g>
		</g>
	</g>
	<g>
		<g>
			<g>
				<g>
					<path class="st2" d="M65.8,63.1c-0.8-0.8-1.6-1.8-2.4-2.5c-0.4-0.3-0.7-1-1.1-1.2c-0.4-0.2-0.9-0.4-1.2-0.7s-1-0.7-1.3-1
						c-0.1-0.1,0.3-0.2,0.4-0.4c0-0.1,1-1.1,1.1-1c0.3,0.1,0.7,0.6,1,0.7c0.7,0.4,1,0.8,1.6,1.1c0.8,0.5,2.2,2,2.9,2.6
						c0.7,0.6,0.3,0.6,0.9,1.2c0.6,0.7,1.2,1.3,1.9,1.9c0.2,0.2,0.5,0.2,0.7,0.4c0.5,0.5,0.9,1.1,1.7,1.7c0.3,0.4,0.4,0.7,0.7,1.1
						c0.3,0.5,0.7,1.1,1.1,1.6c0.4,0.6,0.6,1.3,1,1.9c0.2,0.4,0.6,0.8,1,1.1c0.5,0.6,1,1.2,1.4,1.8c0.1,0.1,0.2,0.2,0.2,0.3
						c0.1,0.3,0.1,0.6,0.2,0.9c0.4,1,0.8,1.8,1.1,2.8c0.1,0.3,0.3,0.9,0.2,1.2c-0.3,0-1.3,0.3-1.9,0.3c-0.1-0.2-0.1-0.7-0.2-0.9
						c-0.1-0.2-0.2-0.4-0.3-0.6c-0.2-0.4-0.4-0.9-0.7-1.3c-0.2-0.4-0.5-0.9-0.7-1.3c-0.1-0.2-0.2-0.5-0.4-0.7
						c-0.1-0.2-0.4-0.3-0.6-0.5c-0.2-0.3-0.3-0.8-0.5-1.1c-0.4-0.6-0.7-1.2-1.2-1.7c-0.4-0.6-1-1.1-1.4-1.6
						c-0.2-0.2-0.2-0.6-0.4-0.9c-0.3-0.5-0.7-1-1-1.4s-0.6-0.7-1-1.1s-0.9-0.7-1.3-1c-0.3-0.3-0.5-0.3-0.8-0.7
						C66.3,63.7,66.1,63.4,65.8,63.1L65.8,63.1z"/>
				</g>
			</g>
		</g>
	</g>
	<g>
		<g>
			<g>
				<g>
					<path class="st2" d="M61.1,67.4c-0.9-1-1.8-2.1-2.8-3.1c-0.4-0.4-0.8-1.2-1.3-1.5s-1-0.5-1.3-0.9c-0.3-0.3-1.2-0.9-1.5-1.3
						c-0.1-0.1,0.3-0.2,0.4-0.4c0.1-0.1,1.1-1,1.2-0.9c0.4,0.2,0.8,0.7,1.2,0.9c0.7,0.5,1.1,0.9,1.8,1.4c0.8,0.7,2.6,2.5,3.3,3.2
						c0.8,0.8,0.3,0.7,1,1.5s1.4,1.6,2.1,2.4c0.2,0.2,0.6,0.3,0.8,0.6c0.6,0.6,1,1.4,1.9,2.1c0.3,0.5,0.5,0.8,0.8,1.3
						c0.4,0.7,0.8,1.3,1.2,1.9c0.4,0.7,0.7,1.5,1.1,2.3c0.3,0.5,0.7,0.9,1,1.4c0.6,0.7,1,1.5,1.5,2.2c0.1,0.1,0.2,0.3,0.2,0.4
						c0.1,0.3,0.1,0.7,0.2,1c0.4,1.2,0.9,2.2,1.2,3.4c0.1,0.3,0.3,1.1,0.2,1.4c-0.3,0-1.3,0.2-2,0.1c-0.1-0.2-0.1-0.8-0.2-1
						c-0.1-0.3-0.2-0.5-0.3-0.8c-0.2-0.5-0.5-1.1-0.7-1.6c-0.3-0.5-0.5-1-0.8-1.6c-0.1-0.3-0.3-0.6-0.4-0.9
						c-0.2-0.3-0.5-0.4-0.6-0.7c-0.2-0.4-0.3-0.9-0.5-1.3c-0.4-0.7-0.8-1.4-1.3-2.1c-0.4-0.7-1.1-1.4-1.6-2c-0.2-0.3-0.3-0.7-0.4-1
						c-0.4-0.6-0.7-1.2-1.2-1.7c-0.4-0.5-0.7-0.9-1.1-1.4s-1-0.9-1.5-1.3c-0.4-0.4-0.5-0.5-0.9-0.9C61.7,68.1,61.5,67.7,61.1,67.4
						L61.1,67.4z"/>
				</g>
			</g>
		</g>
	</g>
	<g>
		<path class="st3" d="M63.6,31.7c11.7,0.2,25.5,8.7,32.9,17.4c1.1,1.3,2.3,2.7,3.8,3.3c2.4,0.9,5.1-0.2,7.3-1.5
			c9-5.6,14.1-16.9,12.4-27.4v-0.1c-1.7-3.6-4-6.9-6.9-9.6c-8.2-7.7-21.7-10-30.9-3.5c-3.9,2.8-6.8,6.8-9.7,10.6
			C69.7,24.4,66.7,28.1,63.6,31.7"/>
	</g>
	<g>
		<g>
			<g>
				<g>
					<path class="st2" d="M84.3,40.4c-2.6-1.7-5.5-3.5-8.4-4.7c-1.3-0.5-2.8-1.4-4.2-1.7c-0.6-0.1-1.2-0.3-1.8-0.4
						c-0.6-0.1-1.2-0.2-1.8-0.4c-0.5-0.1-1.3-0.2-2.2-0.3c-0.9-0.1-1.7-0.1-2.2-0.2c-0.4-0.1,0.3-0.4,0.2-0.6
						c-0.1-0.2,0.7-1.4,0.9-1.4c1-0.1,2.6,0.3,3.6,0.4c2.1,0.3,3.4,0.8,5.3,1.3c1.2,0.3,3.2,1.1,5,2c0.9,0.4,1.9,0.9,2.7,1.4
						c0.8,0.4,1.5,0.9,2.1,1.2c1.1,0.6,1.4,0.9,1.7,1.2c0.3,0.3,0.7,0.5,1.7,1.3c2,1.4,3.9,3,5.8,4.5c0.5,0.5,1.2,0.8,1.8,1.3
						c0.7,0.7,1.5,1.4,2.2,2.2s1.4,1.7,2.3,2.3c0.8,0.8,1.4,1.3,2.3,1.5c1.2,0.4,2.8,0.1,4.2-0.5c1.6-0.7,3.2-1.7,4.7-2.9
						c0.9-0.8,1.8-1.9,2.5-2.9c1.1-1.6,2.1-3.3,2.9-5.1c0.1-0.3,0.3-0.6,0.4-0.9c0.4-0.6,0.8-1.2,1.1-1.9c1.2-2.6,1.7-4.8,2.2-7.6
						c0.1-0.3,0.2-1,0.3-1.6c0.1-0.6,0.2-1.2,0.3-1.5c0.3,0.3,1.3,0.7,1.8,1.4c0,0.6-0.4,2-0.5,2.5c-0.1,0.7-0.2,1.3-0.4,2
						c-0.6,2.8-1.5,5.5-2.8,8.1c-0.4,0.7-0.7,1.4-1.1,2c-0.4,0.7-0.5,1.3-1,2c-0.6,0.9-1.5,1.8-2.2,2.6c-1.3,1.5-2.9,2.9-4.5,4.1
						c-1.7,1.2-3.6,2.4-6,2.8c-1,0.1-2.1-0.2-3.1-0.5c-1.9-0.8-3.1-2.2-4.2-3.5c-0.9-1-1.8-2-2.8-3c-1.1-1-2.4-1.9-3.6-2.8
						c-1-0.8-1.3-0.9-2.3-1.7C86.2,41.7,85.3,41,84.3,40.4L84.3,40.4z"/>
				</g>
			</g>
		</g>
	</g>
	<g>
		<path class="st4" d="M23.2,101.2c-2.3-1.1-4.8,1.1-5.4,3.8c-0.6,2.7,0.2,5.7,1.3,8.4c1.3,3.3,2.8,6.5,4.7,9.4
			c1.2,1.9,2.6,3.8,4.3,4.9c1.8,1.1,4,1.3,5.6,0c1.3-1.2,1.8-3.3,2-5.2c0.8-9.6-5.6-19.7-13.7-21.7"/>
		<g>
			<g>
				<g>
					<path d="M19.8,118.5c-0.6-1.4-1.2-2.8-1.8-4.3c-0.5-1.5-1-3-1.3-4.5c-0.3-1.4-0.1-3.2,0.1-4.6c0.1-1.3,0.7-2.7,1.7-3.7
						c0.4-0.4,1.2-1.1,2.2-1.4c1.1-0.3,2.3-0.1,2.8,0.2c0.4,0.2-0.5,0.2-0.4,0.5c0,0.1-0.3,0.4-0.5,0.7c-0.3,0.3-0.4,0.6-0.5,0.6
						c-0.3,0-0.6,0.1-1,0.2s-0.8,0.4-1,0.7c-0.5,0.5-0.8,1.1-1,1.7s-0.3,1.2-0.3,2c0,1,0.2,2.7,0.7,4.4c0.5,1.7,1.2,3.4,1.7,4.4
						s0.6,1.4,0.7,1.7c0.1,0.4,0.2,0.8,0.7,1.7c1.1,1.9,2,3.9,3.3,5.5c0.2,0.2,0.4,0.4,0.7,0.6c0.2,0.2,0.5,0.3,0.7,0.6
						c0.1,0.1,0.3,0.3,0.4,0.4l0.5,0.3c0.3,0.2,0.6,0.5,1,0.7c0.7,0.4,1.5,0.6,2.3,0.4c0.8,0,1.3-0.3,1.8-0.9
						c0.8-0.9,1.1-2.3,1.3-3.8c0.2-1.6,0.3-3.3,0.1-5c-0.1-1.1-0.6-2.3-1-3.3c-0.7-1.6-1.5-3.2-2.5-4.6c-0.2-0.3-0.4-0.5-0.5-0.7
						c-0.2-0.3-0.3-0.6-0.4-0.9c-0.2-0.3-0.3-0.6-0.5-0.8c-1.5-2.1-3.1-3.3-5.3-4.6c-0.3-0.1-0.8-0.4-1.3-0.7
						c-0.5-0.2-1-0.4-1.2-0.6c0.3-0.2,0.9-1.1,1.8-1.4c0.3,0.1,0.7,0.3,1.1,0.6c0.4,0.2,0.8,0.5,1,0.6c0.5,0.3,1.1,0.6,1.6,1
						c2.2,1.5,4.1,3.5,5.5,5.7c0.4,0.6,0.7,1.2,1.1,1.8c0.3,0.7,0.8,1,1.1,1.7c0.4,0.9,0.7,2.1,0.9,3c0.5,1.8,0.9,3.6,0.9,5.5
						c0.1,1.9,0.2,3.9-0.5,6c-0.3,0.9-0.9,1.6-1.6,2.3c-0.3,0.4-0.8,0.6-1.2,0.9c-0.4,0.2-0.9,0.4-1.4,0.5c-0.9,0.2-1.9,0.1-2.7-0.1
						c-0.7-0.2-1.4-0.5-2-0.9l-0.9-0.6l-0.4-0.3c-0.1-0.1-0.2-0.2-0.4-0.4c-0.3-0.3-0.5-0.5-0.8-0.8s-0.5-0.6-0.8-0.8
						c-0.5-0.6-1-1.2-1.4-1.8c-0.7-1-0.9-1.3-1.4-2.4C20.8,120.4,20.3,119.5,19.8,118.5L19.8,118.5z"/>
				</g>
			</g>
		</g>
	</g>
</g>
</svg>
