<?xml version="1.0" encoding="utf-8"?>
<!-- Generator: Adobe Illustrator 19.2.1, SVG Export Plug-In . SVG Version: 6.00 Build 0)  -->
<svg version="1.0" id="Layer_1" xmlns="http://www.w3.org/2000/svg" xmlns:xlink="http://www.w3.org/1999/xlink" x="0px" y="0px"
	 viewBox="0 0 150 119" style="enable-background:new 0 0 150 119;" xml:space="preserve">
<style type="text/css">
	.st0{fill:#ABA59E;}
	.st1{fill:#DFDBD3;}
	.st2{fill:#1D1D1B;}
</style>
<g>
	<g>
		<path class="st0" d="M117.2,74.2c2.5,8.4-2.3,17.3-10.6,19.8l-63.1,19c-8.4,2.5-17.3-2.3-19.8-10.6L5.6,42
			c-2.5-8.4,2.3-17.3,10.6-19.8l63.1-19c8.4-2.5,17.3,2.3,19.8,10.7L117.2,74.2z"/>
		<g>
			<g>
				<g>
					<path d="M117.8,72.7c-1.4-4.4-3.1-9.6-4.4-14c-1.6-5.5-8.8-30.5-10.4-36c-0.7-2.4-1.7-5.5-2.7-8.7c-0.5-1.6-1.2-3.3-2.2-4.6
						C97.2,8,96.2,6.9,95.2,6c-0.5-0.5-1-0.9-1.4-1.1c-0.4-0.3-0.7-0.5-0.9-0.6c-0.3-0.2-0.6-0.4-1.1-0.6c-2.7-1.4-5.7-2.2-8.7-2
						c-1.2,0-2.5,0.3-3.7,0.6S77.1,3,76,3.3l-6.7,2c-9.9,2.9-30.8,9-40.7,12c-3.3,1-6.5,2.1-9.8,3.1l-2.7,0.9
						c-0.9,0.3-1.9,0.7-2.7,1.1c-0.1,0.1-0.3,0.2-0.6,0.3c-0.2,0.1-0.4,0.3-0.7,0.4c-0.5,0.3-0.9,0.6-1.2,0.8
						c-1.5,1-2.7,2.3-3.7,3.7c-1,1.4-1.8,2.9-2.3,4.6C3.7,36,3.8,39,4.4,41.7c0.7,2.7,1.4,5.2,2.5,8.8c3.2,10.4,7.6,24.4,10.6,34.8
						c1.6,5.5,3.4,11.7,5.1,17.2c0.8,2.7,2.4,5.3,4.4,7.3c2.1,2,4.6,3.5,7.3,4.2c2,0.6,5,1,8.2,0.3c0.4-0.1,0.8-0.2,1.2-0.3
						s0.8-0.2,1.2-0.3c0.8-0.2,1.6-0.5,2.4-0.7c1.6-0.5,3.3-0.9,4.9-1.4c6.6-1.9,13.3-3.8,17.1-5c13.3-4,19.9-6.4,33.2-10.4
						c2.1-0.7,3.9-1.1,5.7-1.8c1.7-0.7,3.2-1.6,4.5-2.7c1.3-1.1,2.5-2.4,3.5-4c1-1.6,1.9-3.5,2.3-5.8c0.2-0.7,0.5-2.8,0.3-4.6
						s-0.8-3.3-1.1-2.9c-0.1,0.1-1.3,0.1-1.3,0.2c0.3,1.4,0.6,3.1,0.5,4.9s-0.5,3.5-1.1,4.8c-1.3,3.1-3.6,6.1-6.8,7.8
						c-0.8,0.4-1.6,0.8-2.5,1.1c-0.8,0.3-1.8,0.6-2.7,0.9c-1.8,0.6-3.6,1.1-5.3,1.6c-7.1,2-14.3,4.1-21.4,6.2L55,108.5
						c-3.3,1-6.5,2-9.8,3.1c-0.8,0.2-1.6,0.5-2.4,0.7l-1.2,0.3l-1.2,0.2c-1.6,0.2-3.3,0.1-4.8-0.3c-2.6-0.6-5-1.9-6.8-3.8
						c-1.9-1.8-3.2-4.1-4-6.6c-1.8-5.8-3.7-11.5-5.5-17.2c-1.7-5.2-2.6-8.2-4.1-13.4c-1.6-5.8-3.9-13.7-5.5-19.6
						c-0.8-2.7-1.6-5.4-2.4-8.2l-0.6-2c-0.2-0.7-0.4-1.3-0.5-1.9c-0.3-1.3-0.2-2.6-0.1-4c0.2-2.2,0.9-4.3,2.1-6.2
						c0.2-0.4,0.5-0.8,0.7-1.1c0.2-0.3,0.5-0.6,0.7-0.9s0.4-0.5,0.6-0.7c0.2-0.2,0.4-0.4,0.6-0.6c0.3-0.4,0.7-0.6,0.9-0.8
						c0.3-0.2,0.5-0.5,0.8-0.6c0.5-0.4,1.1-0.7,2-1.1c0.4-0.2,1-0.4,1.6-0.6c0.7-0.2,1.5-0.5,2.5-0.7c0.5-0.2,8.3-2.2,12-3.3
						s7.4-2.3,11.1-3.6c3.5-1.2,17.8-5.4,21.4-6.4c4.2-1.2,8.4-2.4,12.6-3.6c0.9-0.3,1.9-0.6,2.8-0.8c1-0.3,1.8-0.5,2.7-0.7
						C83,3.7,84.8,3.7,86.5,4c3.5,0.6,6.9,2.4,9.2,5.4c0.3,0.4,0.7,0.9,0.9,1.4c0.1,0.2,0.3,0.5,0.4,0.7l0.4,0.8
						c0.5,1,0.8,2.1,1.1,3.2c0.7,2.3,1.3,4.5,2,6.8c0.2,0.8,0.5,1.7,0.8,2.5c3.1,10,9.4,30.2,10.5,34.4c1.4,5.7,2.7,9.6,4.3,14.4
						C116.4,74.3,118.4,74.8,117.8,72.7z"/>
				</g>
			</g>
		</g>
	</g>
	<g>
		<path class="st1" d="M106.2,57.8c2.5,8.4-2.3,17.3-10.6,19.8l-43.1,13c-8.4,2.5-17.3-2.3-19.8-10.6L20,37.6
			c-2.5-8.3,2.3-17.3,10.7-19.8l43.1-13c8.4-2.4,17.3,2.3,19.8,10.7L106.2,57.8z"/>
		<g>
			<g>
				<g>
					<path class="st2" d="M107,56.6c-1.1-3.4-2.4-7.5-3.4-10.9c-1.2-4.3-6.8-23.7-8.1-28.1c-0.1-0.5-0.3-1-0.5-1.5s-0.3-1.1-0.6-1.7
						c-0.1-0.3-0.2-0.6-0.4-0.9c-0.1-0.3-0.3-0.6-0.4-0.9c-0.3-0.6-0.7-1.2-1-1.8c-1.5-2.3-3.7-4-5.4-5.1c-1-0.6-1.6-0.9-2-1
						c-0.3-0.1-0.6-0.2-0.9-0.4c-2.2-0.9-4.6-1.2-6.9-1.1c-1.9,0.1-3.9,0.6-5.6,1.2L66.6,6c-7.7,2.3-24,7-31.7,9.3
						c-1.3,0.4-2.5,0.8-3.8,1.2c-0.6,0.2-1.3,0.5-2,0.7s-1.3,0.6-1.9,0.9c-1.3,0.8-2.6,1.7-3.7,2.9c-0.4,0.3-1.1,1.2-1.5,1.6
						c-1.8,2.2-2.8,4.6-3.3,7.3c-0.5,3.1-0.3,5.3,0.2,7.5c0.5,2.1,1.1,4,2,6.9c2.5,8.1,6,19,8.2,27.1c0.6,2.2,1.3,4.4,1.9,6.7
						c0.3,1.1,0.6,2.3,1.1,3.4c0.4,1.2,1,2.2,1.7,3.2c1.3,1.8,2.9,3.4,4.8,4.7c1.9,1.2,4,2.1,6.1,2.5c1.6,0.3,3.9,0.5,6.4,0
						c0.6-0.1,1.3-0.3,1.9-0.5c0.6-0.2,1.2-0.4,1.9-0.5c1.3-0.4,2.5-0.7,3.8-1.1C63.9,88.3,69,86.9,72,86c5.2-1.6,9-2.8,12.9-4.1
						c1.9-0.6,3.9-1.3,6-1.9c1.1-0.3,2.1-0.7,3.3-1c0.6-0.2,1.2-0.4,1.8-0.6c0.6-0.2,1.3-0.4,1.9-0.7c3.3-1.5,5.2-3.5,6.8-5.6
						c0.4-0.5,0.7-1.1,1.1-1.7c0.3-0.6,0.7-1.2,0.9-1.9c0.6-1.3,1-2.9,1.2-4.7c0.1-0.6,0.2-2.2,0-3.6c-0.1-0.7-0.3-1.3-0.5-1.8
						c-0.2-0.4-0.4-0.6-0.5-0.5s-1.3,0.1-1.3,0.2c0.2,1.1,0.5,2.4,0.5,3.8c0,0.7,0,1.4-0.1,2c-0.1,0.6-0.2,1.2-0.3,1.8
						c-0.3,1.3-0.8,2.5-1.4,3.8c-0.7,1.2-1.4,2.4-2.4,3.4c-1.9,2.1-4.4,3.6-7,4.2c-5.6,1.5-11.1,3.2-16.7,4.8L61,87.1
						c-2.6,0.8-5.1,1.6-7.6,2.4l-1,0.3L51.5,90c-0.6,0.2-1.2,0.2-1.9,0.3c-1.3,0.1-2.5,0.1-3.8-0.1c-4.1-0.7-7.6-3.2-9.9-6.5
						c-0.3-0.5-0.6-0.9-0.9-1.4c-0.2-0.5-0.5-1-0.7-1.5s-0.4-1-0.6-1.6l-0.5-1.7c-0.7-2.2-1.5-4.5-2.2-6.7c-1.3-4-2-6.4-3.2-10.4
						c-1.3-4.5-2.9-10.7-4.2-15.3c-0.6-2.1-1.2-4.2-1.9-6.4l-0.6-1.4l-0.4-1.5l-0.2-1.5c0-0.5-0.1-1-0.1-1.5c0-1.7,0.3-3.4,0.9-5
						c0.2-0.7,0.6-1.3,0.8-1.8c0.3-0.5,0.5-0.9,0.7-1.2c0.4-0.6,0.7-1.1,1-1.5s0.6-0.8,1.2-1.3c0.3-0.3,0.6-0.6,1-0.9
						c0.2-0.2,0.5-0.3,0.7-0.5c0.3-0.2,0.6-0.3,0.9-0.5c0.1,0,0.4-0.2,1-0.5s1.4-0.5,2.3-0.8c1.9-0.5,4.2-1.1,5.6-1.5
						c2.9-0.9,5.8-1.9,8.6-2.8c2.8-1,13.8-4.2,16.7-5c3.3-1,6.6-1.9,9.9-2.8c0.7-0.2,1.5-0.4,2.2-0.6s1.4-0.4,2.1-0.5
						c1.4-0.3,2.8-0.3,4.2-0.2c1.4,0.1,2.8,0.5,4.1,1c1.3,0.5,2.5,1.3,3.7,2.2c1.3,1.1,2.5,2.5,3.3,4c0.9,1.5,1.4,3.1,1.9,4.9
						c0.2,0.6,0.4,1.3,0.6,1.9c2.4,7.8,7.4,23.5,8.2,26.7c1,4.5,2,7.5,3.4,11.2C105.5,57.9,107.5,58.2,107,56.6z"/>
				</g>
			</g>
		</g>
	</g>
	<g>
		<path d="M35.6,34.6c1.2-0.6,3.1-1.4,5.1-2.1c2.8-0.9,4.8-1,6.5-0.3c1.4,0.5,2.5,1.6,3,3.3c0.7,2.1-0.2,4.4-2.2,6v0.1
			c2.3-0.1,5.2,0.8,6.2,4.1c0.6,1.9,0.3,3.6-0.5,5c-1.1,1.9-3.4,3.3-7,4.4c-2,0.6-3.5,0.9-4.5,1.1L35.6,34.6z M41.3,42.7l2.6-0.8
			c3-0.9,4.3-3,3.6-5.2c-0.8-2.6-3.1-3-5.9-2.1c-1.3,0.4-2,0.7-2.5,1L41.3,42.7z M44.5,53.2c0.6-0.1,1.4-0.3,2.4-0.6
			c2.9-0.9,5.3-2.8,4.3-6c-0.9-3-3.9-3.4-7-2.5l-2.4,0.7L44.5,53.2z"/>
	</g>
	<g>
		<g>
			<g>
				<g>
					<path d="M129.9,82.8c0,0.3,0.1,0.7,0.1,1c-0.1,0.4-0.6,2-0.7,2.4c-0.1,0.3,0.1,0.9,0,1.2c0,0.1,0,0.1,0,0.2c0,0,0,0,0,0.1
						c-0.1,0.2-0.1,0.3-0.2,0.5c-0.1,0.3-0.2,0.6-0.3,0.9c-0.2,0.6-0.9,1.9-1.2,2.5c-0.1,0.2-0.1,0.4-0.1,0.7c0,0.1,0,0.3,0,0.4
						c0,0,0,0.1-0.1,0.2c-0.2,0.2-0.2,0.4-0.2,0.6c-0.2,0.5-0.5,0.5-0.7,0.9c-0.2,0.3-0.3,0.7-0.5,1.1c-0.2,0.3-0.5,0.7-0.7,0.9
						c-0.3,0.2-0.6,0.5-0.8,0.8c-0.1,0.3-0.4,0.6-0.7,0.8c-0.4,0.4-1.5,1-1.9,1.3c-0.7,0.5-0.9,1.1-1.6,1.5
						c-0.5,0.3-0.8,0.2-1.4,0.4c-0.1,0-0.6-0.1-0.3,0.6c0,0.1,0.5,1.2,0.5,1.2c0.2,0,0.5-0.1,0.8-0.1s0.5-0.2,0.7-0.4
						s0.4-0.4,0.7-0.5c0.3-0.1,0.5-0.2,0.8-0.3c0.2-0.1,0.5-0.3,0.7-0.4c0.5-0.3,0.9-0.6,1.3-1c0.4-0.3,0.6-0.8,1-1.1
						c0.3-0.2,0.8-0.3,1.1-0.6c0.3-0.3,0.4-0.8,0.6-1.2c0.1-0.4,0.3-0.6,0.5-0.8c0.3-0.3,0.8-0.7,1.1-1s0.4-0.7,0.6-1
						c0.1-0.2,0.1-0.3,0.2-0.5c0.2-0.5,0-0.5,0.3-0.9c0,0,0.6-0.4,0.7-0.6c0.1-0.3,0.1-0.6,0.1-0.9s0.5-1.2,0.5-1.5
						c0.1-0.3,0.3-0.6,0.5-0.8c0.3-0.5,0-1.1,0.1-1.7c0.1-0.3,0.2-0.7,0.3-1c0-0.1,0-0.1,0-0.2c0-0.7,0-2.2,0.2-2.5
						c0.3-0.4,0.3-0.7,0.1-1.1C131.8,82.8,129.9,82.7,129.9,82.8z"/>
				</g>
			</g>
		</g>
	</g>
	<g>
		<g>
			<g>
				<g>
					<path d="M134.9,89.8c0,0.2,0.1,0.5,0,0.7c-0.1,0.3-0.7,1.4-0.8,1.7c-0.1,0.2,0,0.7-0.1,0.9c0,0.1,0,0.1,0,0.1l0,0
						c-0.1,0.1-0.1,0.2-0.2,0.4c-0.1,0.2-0.2,0.4-0.3,0.6c-0.3,0.4-0.9,1.3-1.1,1.7c-0.1,0.1-0.1,0.3-0.1,0.5c0,0.1,0,0.2,0,0.3
						c0,0,0,0.1-0.1,0.1c-0.1,0.1-0.1,0.3-0.2,0.5c-0.1,0.4-0.4,0.3-0.6,0.7c-0.2,0.5-0.5,1.2-1,1.5c-0.3,0.2-0.5,0.3-0.6,0.6
						s-0.3,0.4-0.5,0.6c-0.2,0.3-1.2,0.7-1.5,1c-0.5,0.4-0.5,1-1,1.4c-0.3,0.3-0.6,0.2-1,0.4c-0.1,0-0.5,0,0,0.6
						c0,0.1,0.7,1.1,0.7,1.1c0.2,0,0.4-0.1,0.6-0.1c0.4-0.1,0.5-0.7,0.9-0.8c0.4-0.1,0.7-0.3,1-0.6s0.6-0.5,0.9-0.8
						c0.3-0.2,0.4-0.6,0.7-0.9c0.2-0.2,0.6-0.2,0.8-0.4c0.2-0.2,0.3-0.6,0.4-0.9c0.1-0.3,0.2-0.4,0.4-0.6s0.7-0.4,0.9-0.6
						c0.3-0.2,0.4-0.5,0.5-0.8c0.1-0.1,0.1-0.2,0.1-0.3c0.2-0.4-0.1-0.4,0.2-0.7c0,0,0.5-0.2,0.6-0.4c0.1-0.2,0.1-0.4,0.1-0.7
						c0-0.2,0.4-0.9,0.5-1.1s0.3-0.4,0.5-0.6c0.3-0.3,0-0.9,0.2-1.3c0.1-0.2,0.2-0.4,0.3-0.7v-0.1c0.1-0.6,0.1-1.7,0.4-1.9
						c0.3-0.2,0.3-0.5,0.2-0.8C136.7,90.1,134.9,89.7,134.9,89.8z"/>
				</g>
			</g>
		</g>
	</g>
</g>
</svg>
