<?xml version="1.0" encoding="utf-8"?>
<!-- Generator: Adobe Illustrator 19.2.1, SVG Export Plug-In . SVG Version: 6.00 Build 0)  -->
<svg version="1.0" id="Layer_1" xmlns="http://www.w3.org/2000/svg" xmlns:xlink="http://www.w3.org/1999/xlink" x="0px" y="0px"
	 viewBox="0 0 80 80" style="enable-background:new 0 0 80 80;" xml:space="preserve">
<style type="text/css">
	.st0{fill:#ABA59E;}
	.st1{fill:#FFD501;}
	.st2{fill:#DFDBD3;}
	.st3{fill:#1D1D1B;}
</style>
<g>
	<g>
		<g>
			<path class="st0" d="M55.5,70.5c-2.4,4.5-8.1,6.2-12.7,3.8l-35-18.9C3.3,53,1.6,47.3,4,42.7L22,9.2c2.4-4.5,8.1-6.2,12.7-3.8
				l35.1,18.8c4.5,2.4,6.2,8.1,3.8,12.7L55.5,70.5z"/>
			<g>
				<g>
					<g>
						<path class="st1" d="M56.8,70.2c1.3-2.5,2.7-5.4,4.1-7.8c1.7-3,9.3-16.6,11-19.7c0.7-1.3,1.6-3.1,2.5-4.9
							c0.2-0.4,0.4-0.9,0.7-1.4c0.2-0.5,0.4-1,0.4-1.5c0.2-1,0.3-2,0.3-2.8c0-0.9-0.2-1.5-0.2-1.8c-0.1-0.2-0.1-0.5-0.2-0.8
							C75,27.7,74,26,72.6,24.7c-0.6-0.5-1.2-1-1.9-1.4c-0.6-0.4-1.2-0.7-1.9-1l-3.7-2c-5.4-3-16.9-9.3-22.3-12.2
							c-1.8-1-3.7-1.8-5.5-2.7c-1-0.5-2-1-3.2-1.5c-0.4-0.2-1.3-0.4-1.7-0.5c-2.2-0.4-4.3-0.1-6.3,0.9c-2.2,1.1-3.5,2.5-4.4,3.9
							S20.1,11,19,13c-3,5.8-7,13.6-10.2,19.3c-1.7,3-3.6,6.4-5.1,9.5c-0.4,0.7-0.7,1.6-1,2.4c-0.2,0.9-0.4,1.8-0.4,2.7
							c0,1.8,0.4,3.6,1.3,5.1c0.6,1.2,1.7,2.7,3.5,3.8c0.2,0.1,0.4,0.3,0.7,0.4c0.2,0.1,0.4,0.2,0.6,0.4c0.4,0.2,0.9,0.5,1.3,0.7
							c0.9,0.5,1.8,1,2.7,1.5c3.6,2,7.2,4.1,9.4,5.2c7.3,3.9,11.3,5.6,18.6,9.5c4.3,2.6,8.1,4,13.2,1.1c0.4-0.2,1.5-1,2.2-1.9
							c0.7-0.9,1.1-1.8,0.7-1.9c-0.1,0-1.1-0.8-1.1-0.7c-0.4,0.7-1.1,1.5-1.8,2.2c-0.8,0.7-1.7,1.2-2.4,1.5
							c-1.8,0.7-3.9,0.9-5.9,0.3c-0.5-0.1-1-0.3-1.5-0.6s-1-0.5-1.5-0.8c-1-0.5-2-1-2.9-1.6c-3.9-2.2-7.8-4.4-11.7-6.5L15.5,58
							c-1.8-1-3.7-1.9-5.5-2.8c-0.4-0.2-0.9-0.5-1.3-0.7l-1.2-0.3l-0.6-0.4c-0.7-0.6-1.4-1.3-1.8-2.1c-0.4-0.7-0.7-1.4-0.9-2.1
							c-0.2-0.7-0.3-1.5-0.2-2.2c0-1.5,0.5-2.9,1.2-4.2c1.7-3.2,3.3-6.5,4.9-9.7c1.4-2.9,2.3-4.6,3.9-7.4c1.8-3.2,4.3-7.4,6.1-10.6
							c0.8-1.5,1.7-3,2.5-4.5l0.6-1.1c0.2-0.3,0.4-0.7,0.6-1c0.4-0.6,1-1.2,1.5-1.6c1-0.8,2.1-1.3,3.3-1.6c1.1-0.2,1.8-0.2,2.4-0.2
							s0.9,0,1.3,0.1s0.7,0.2,1.3,0.3c0.3,0.1,0.6,0.3,0.9,0.4c0.4,0.1,0.8,0.4,1.4,0.7c0.2,0.1,4.3,2.7,6.3,3.8
							c2.1,1.1,4.2,2.1,6.3,3.1c2,1,9.8,5.3,11.8,6.3c2.3,1.3,4.6,2.6,6.9,3.9c1,0.6,2.2,1.2,2.9,1.7c0.8,0.6,1.6,1.3,2.2,2.1
							c1.2,1.6,1.8,3.8,1.5,5.9c-0.1,0.6-0.3,1.2-0.5,1.8c-0.1,0.3-0.3,0.6-0.4,0.9l-0.5,0.9c-0.7,1.2-1.4,2.5-2.1,3.7
							c-0.2,0.4-0.5,0.9-0.7,1.4c-2.9,5.6-8.7,16.9-10.1,19.1c-1.9,3-3,5.2-4.3,8C54.9,70,56.2,71.4,56.8,70.2z"/>
					</g>
				</g>
			</g>
		</g>
		<g>
			<g>
				<g>
					<g>
						<path d="M56.8,70.2c1.3-2.5,2.7-5.4,4.1-7.8c1.7-3,9.3-16.6,11-19.7c0.7-1.3,1.6-3.1,2.5-4.9c0.2-0.4,0.4-0.9,0.7-1.4
							c0.2-0.5,0.4-1,0.4-1.5c0.2-1,0.3-2,0.3-2.8c0-0.9-0.2-1.5-0.2-1.8c-0.1-0.2-0.1-0.5-0.2-0.8C75,27.7,74,26,72.6,24.7
							c-0.6-0.5-1.2-1-1.9-1.4c-0.6-0.4-1.2-0.7-1.9-1l-3.7-2c-5.4-3-16.9-9.3-22.3-12.2c-1.8-1-3.7-1.8-5.5-2.7c-1-0.5-2-1-3.2-1.5
							c-0.4-0.2-1.3-0.4-1.7-0.5c-2.2-0.4-4.3-0.1-6.3,0.9c-2.2,1.1-3.5,2.5-4.4,3.9S20.1,11,19,13c-3,5.8-7,13.6-10.2,19.3
							c-1.7,3-3.6,6.4-5.1,9.5c-0.4,0.7-0.7,1.6-1,2.4c-0.2,0.9-0.4,1.8-0.4,2.7c0,1.8,0.4,3.6,1.3,5.1c0.6,1.2,1.7,2.7,3.5,3.8
							c0.2,0.1,0.4,0.3,0.7,0.4c0.2,0.1,0.4,0.2,0.6,0.4c0.4,0.2,0.9,0.5,1.3,0.7c0.9,0.5,1.8,1,2.7,1.5c3.6,2,7.2,4.1,9.4,5.2
							c7.3,3.9,11.3,5.6,18.6,9.5c4.3,2.6,8.1,4,13.2,1.1c0.4-0.2,1.5-1,2.2-1.9c0.7-0.9,1.1-1.8,0.7-1.9c-0.1,0-1.1-0.8-1.1-0.7
							c-0.4,0.7-1.1,1.5-1.8,2.2c-0.8,0.7-1.7,1.2-2.4,1.5c-1.8,0.7-3.9,0.9-5.9,0.3c-0.5-0.1-1-0.3-1.5-0.6s-1-0.5-1.5-0.8
							c-1-0.5-2-1-2.9-1.6c-3.9-2.2-7.8-4.4-11.7-6.5L15.5,58c-1.8-1-3.7-1.9-5.5-2.8c-0.4-0.2-0.9-0.5-1.3-0.7l-1.2-0.3l-0.6-0.4
							c-0.7-0.6-1.4-1.3-1.8-2.1c-0.4-0.7-0.7-1.4-0.9-2.1c-0.2-0.7-0.3-1.5-0.2-2.2c0-1.5,0.5-2.9,1.2-4.2c1.7-3.2,3.3-6.5,4.9-9.7
							c1.4-2.9,2.3-4.6,3.9-7.4c1.8-3.2,4.3-7.4,6.1-10.6c0.8-1.5,1.7-3,2.5-4.5l0.6-1.1c0.2-0.3,0.4-0.7,0.6-1
							c0.4-0.6,1-1.2,1.5-1.6c1-0.8,2.1-1.3,3.3-1.6c1.1-0.2,1.8-0.2,2.4-0.2s0.9,0,1.3,0.1s0.7,0.2,1.3,0.3
							c0.3,0.1,0.6,0.3,0.9,0.4c0.4,0.1,0.8,0.4,1.4,0.7c0.2,0.1,4.3,2.7,6.3,3.8c2.1,1.1,4.2,2.1,6.3,3.1c2,1,9.8,5.3,11.8,6.3
							c2.3,1.3,4.6,2.6,6.9,3.9c1,0.6,2.2,1.2,2.9,1.7c0.8,0.6,1.6,1.3,2.2,2.1c1.2,1.6,1.8,3.8,1.5,5.9c-0.1,0.6-0.3,1.2-0.5,1.8
							c-0.1,0.3-0.3,0.6-0.4,0.9l-0.5,0.9c-0.7,1.2-1.4,2.5-2.1,3.7c-0.2,0.4-0.5,0.9-0.7,1.4c-2.9,5.6-8.7,16.9-10.1,19.1
							c-1.9,3-3,5.2-4.3,8C54.9,70,56.2,71.4,56.8,70.2z"/>
					</g>
				</g>
			</g>
		</g>
	</g>
	<g>
		<path class="st2" d="M54.4,57.2c-2.4,4.5-8.1,6.2-12.7,3.8L17.6,48c-4.5-2.4-6.2-8.1-3.8-12.7l12.7-23.6c2.4-4.5,8.1-6.2,12.7-3.8
			l24.1,13c4.5,2.4,6.2,8.1,3.8,12.7L54.4,57.2z"/>
		<g>
			<g>
				<g>
					<path class="st3" d="M55.5,57.1c1-1.9,2.1-4.2,3.1-6.1c1.3-2.4,7.3-12.9,8.6-15.3c0.3-0.5,0.6-1.1,0.9-1.8s0.7-1.6,0.8-2.4
						c0.4-1.7,0.2-3.4-0.1-4.7c-0.2-0.7-0.3-1.1-0.4-1.3c-0.1-0.2-0.1-0.4-0.2-0.6c-0.6-1.4-1.4-2.6-2.5-3.6c-0.9-0.8-2-1.5-2.9-1.9
						L60,17.8c-4.2-2.3-13.1-7.3-17.4-9.6c-0.7-0.4-1.4-0.7-2.1-1.1c-0.7-0.3-1.5-0.7-2.4-1s-1.9-0.4-2.9-0.4c-0.3,0-1,0-1.4,0
						C32,5.8,30.5,6.5,29,7.4c-1.6,1.1-2.5,2.2-3.2,3.3s-1.3,2.2-2.1,3.8c-2.3,4.5-5.4,10.6-8,15c-0.7,1.2-1.4,2.4-2.1,3.6
						c-0.3,0.6-0.7,1.2-1,1.9c-0.2,0.3-0.3,0.7-0.4,1.1c-0.1,0.4-0.2,0.7-0.3,1.1c-0.6,2.7,0,5.7,1.5,8c0.6,0.9,1.5,2,2.8,2.9
						c0.3,0.2,0.7,0.4,1,0.6c0.3,0.2,0.7,0.4,1,0.6c0.7,0.4,1.4,0.8,2.1,1.2c2.8,1.6,5.6,3.2,7.3,4.1c2.9,1.5,5.1,2.6,7.3,3.7
						c1.1,0.5,2.2,1.1,3.4,1.7c0.6,0.3,1.2,0.6,1.8,0.9c0.6,0.3,1.3,0.7,2.1,1.1c2.1,0.8,3.8,0.9,5.4,0.7c1.6-0.2,3.3-0.7,5.1-2.1
						c0.3-0.2,1.1-0.8,1.6-1.6c0.5-0.7,0.8-1.5,0.4-1.5c-0.1,0-1.1-0.8-1.1-0.7c-0.7,1.1-2,2.5-3.2,3c-1.3,0.7-2.9,1.2-4.5,1.3
						c-0.8,0-1.6-0.1-2.4-0.3c-0.8-0.2-1.5-0.5-2.2-1c-3-1.7-6-3.4-9.1-5.1l-9.5-5.1c-1.4-0.8-2.8-1.5-4.3-2.2
						c-0.8-0.4-1.3-0.7-1.9-1.2s-1.1-1-1.5-1.6c-1.4-2-1.6-4.5-1.2-6.7c0.1-0.6,0.3-1.2,0.6-1.8l0.2-0.4l0.2-0.5l0.5-1
						c0.6-1.3,1.2-2.5,1.8-3.8c1.1-2.3,1.8-3.6,3-5.8c1.4-2.5,3.4-5.8,4.8-8.2c0.7-1.1,1.3-2.3,1.9-3.5l0.5-0.9l0.4-0.8
						c0.2-0.2,0.3-0.5,0.5-0.7s0.4-0.4,0.6-0.6c0.7-0.7,1.5-1.2,2.4-1.6c1.6-0.7,2.2-0.7,2.8-0.8c0.3,0,0.6-0.1,1,0
						c0.4,0,1,0.1,1.9,0.4c0.1,0,0.9,0.4,1.8,1c1,0.6,2.2,1.4,3,1.8c1.6,0.9,3.3,1.6,4.9,2.4c1.6,0.7,7.7,4.1,9.2,4.9
						c1.8,1,3.6,2,5.3,3.1c0.4,0.2,0.8,0.5,1.2,0.7s0.7,0.4,1,0.6c0.7,0.4,1.2,1,1.8,1.6c1,1.2,1.8,2.7,1.9,4.4c0.1,1,0,2-0.3,2.9
						c-0.2,0.5-0.3,0.9-0.6,1.4c-0.2,0.4-0.5,1-0.8,1.4c-0.2,0.3-0.4,0.7-0.6,1.1c-2.2,4.4-6.7,13.2-7.8,14.9
						c-1.5,2.3-2.4,4-3.3,6.2C53.8,56.7,55.1,58,55.5,57.1z"/>
				</g>
			</g>
		</g>
	</g>
	<g>
		<path d="M35.8,17.8l-2.7,5.1L39,26l2.7-5.1l1.6,0.8l-6.4,12.2l-1.6-0.7l3-5.7l-5.9-3.1l-3,5.7l-1.6-0.9L34.2,17L35.8,17.8z"/>
	</g>
</g>
</svg>
