<?xml version="1.0" encoding="utf-8"?>
<!-- Generator: Adobe Illustrator 19.2.1, SVG Export Plug-In . SVG Version: 6.00 Build 0)  -->
<svg version="1.1" id="Layer_1" xmlns="http://www.w3.org/2000/svg" xmlns:xlink="http://www.w3.org/1999/xlink" x="0px" y="0px"
	 width="408px" height="324px" viewBox="0 0 408 324" style="enable-background:new 0 0 408 324;" xml:space="preserve">
<style type="text/css">
	.st0{fill:#C3D8D7;}
	.st1{fill:none;stroke:#1D1D1B;stroke-width:2;stroke-miterlimit:10;}
	.st2{fill:none;stroke:#1D1D1B;stroke-width:2.1119;stroke-linecap:round;stroke-linejoin:round;stroke-miterlimit:10;}
	.st3{fill:#FFFFFF;}
	.st4{fill:#BD1622;}
	.st5{fill:#DC9E5B;}
	.st6{fill:#575756;}
	.st7{fill:#2887C9;}
	.st8{fill:#1D1D1B;}
	.st9{fill:none;stroke:#373735;stroke-width:0.2112;stroke-linecap:round;stroke-miterlimit:10;}
	.st10{fill:#014898;}
	.st11{fill:#2987C8;stroke:#1D1D1B;stroke-width:2;stroke-linejoin:round;stroke-miterlimit:10;}
	.st12{fill:#FFE400;stroke:#1D1D1B;stroke-width:2;stroke-linejoin:round;stroke-miterlimit:10;}
	.st13{fill:#E62178;stroke:#1D1D1B;stroke-width:2;stroke-miterlimit:10;}
</style>
<g>
	<g>
		<circle class="st0" cx="199.6" cy="148.2" r="113.9"/>
	</g>
	<circle class="st1" cx="201.7" cy="148.2" r="113.9"/>
	<g>
		<path class="st2" d="M149,77.2C149.5,77.7,149.5,77.7,149,77.2"/>
		<path class="st2" d="M293.9,207.5C294.4,208,294.4,208,293.9,207.5"/>
		<path class="st2" d="M128.9,80.6C129.4,81.1,129.4,81.1,128.9,80.6"/>
		<path class="st2" d="M283.2,95.3C283.8,95.8,283.8,95.8,283.2,95.3"/>
		<path class="st2" d="M153.7,54.8C154.2,55.3,154.2,55.3,153.7,54.8"/>
		<path class="st2" d="M169,69C169.5,69.5,169.5,69.5,169,69"/>
		<path class="st2" d="M137.7,71.4C138.2,71.9,138.2,71.9,137.7,71.4"/>
		<path class="st2" d="M139.9,90.6C140.4,91.1,140.4,91.1,139.9,90.6"/>
		<path class="st2" d="M145.3,65.2C145.8,65.7,145.8,65.7,145.3,65.2"/>
		<path class="st2" d="M153.9,85C154.4,85.5,154.4,85.5,153.9,85"/>
		<path class="st2" d="M164.2,58.7C164.7,59.2,164.7,59.2,164.2,58.7"/>
		<path class="st2" d="M161.9,77.4C162.4,77.9,162.4,77.9,161.9,77.4"/>
		<path class="st2" d="M164,118.6C164.5,119.1,164.5,119.1,164,118.6"/>
		<path class="st2" d="M274.1,68.8C274.7,69.3,274.7,69.3,274.1,68.8"/>
		<path class="st2" d="M177.7,62.5C178.2,63,178.2,63,177.7,62.5"/>
		<path class="st2" d="M205.8,47.3C206.3,47.8,206.3,47.8,205.8,47.3"/>
		<path class="st2" d="M202.5,36.7C203,37.2,203,37.2,202.5,36.7"/>
		<path class="st2" d="M217.7,50.9C218.2,51.4,218.2,51.4,217.7,50.9"/>
		<path class="st2" d="M186.4,53.3C187,53.8,187,53.8,186.4,53.3"/>
		<path class="st2" d="M176.3,51.1C176.8,51.6,176.8,51.6,176.3,51.1"/>
		<path class="st2" d="M188.6,72.5C189.1,73,189.1,73,188.6,72.5"/>
		<path class="st2" d="M194,47.1C194.5,47.6,194.5,47.6,194,47.1"/>
		<path class="st2" d="M166.1,44.5C166.6,45,166.6,45,166.1,44.5"/>
		<path class="st2" d="M185.4,40.4C185.9,40.9,185.9,40.9,185.4,40.4"/>
		<path class="st2" d="M202.7,66.9C203.2,67.4,203.2,67.4,202.7,66.9"/>
		<path class="st2" d="M212.9,40.6C213.4,41.1,213.4,41.1,212.9,40.6"/>
		<path class="st2" d="M210.7,59.3C211.2,59.8,211.2,59.8,210.7,59.3"/>
		<path class="st2" d="M210.9,97.1C211.4,97.6,211.4,97.6,210.9,97.1"/>
		<path class="st2" d="M167.7,90.4C168.2,90.9,168.2,90.9,167.7,90.4"/>
		<path class="st2" d="M237.3,44.3C237.8,44.8,237.8,44.8,237.3,44.3"/>
		<path class="st2" d="M227.2,46.9C227.7,47.4,227.7,47.4,227.2,46.9"/>
		<path class="st2" d="M212.5,83.6C213,84.1,213,84.1,212.5,83.6"/>
		<path class="st2" d="M182.4,91C182.9,91.5,182.9,91.5,182.4,91"/>
		<path class="st2" d="M159.7,100.4C160.2,100.9,160.2,100.9,159.7,100.4"/>
		<path class="st2" d="M177.8,77.8C178.4,78.3,178.4,78.3,177.8,77.8"/>
		<path class="st2" d="M178.9,103.3C179.4,103.9,179.4,103.9,178.9,103.3"/>
		<path class="st2" d="M205,77.6C205.6,78.1,205.6,78.1,205,77.6"/>
		<path class="st2" d="M195.5,100.2C196,100.7,196,100.7,195.5,100.2"/>
		<path class="st2" d="M241.3,73.7C241.8,74.2,241.8,74.2,241.3,73.7"/>
		<path class="st2" d="M232,76.9C232.5,77.4,232.5,77.4,232,76.9"/>
		<path class="st2" d="M221.2,77.1C221.7,77.6,221.7,77.6,221.2,77.1"/>
		<path class="st2" d="M249.4,61.9C249.9,62.4,249.9,62.4,249.4,61.9"/>
		<path class="st2" d="M246,51.3C246.5,51.8,246.5,51.8,246,51.3"/>
		<path class="st2" d="M261.3,65.5C261.8,66,261.8,66,261.3,65.5"/>
		<path class="st2" d="M230,67.9C230.5,68.4,230.5,68.4,230,67.9"/>
		<path class="st2" d="M219.9,65.7C220.4,66.2,220.4,66.2,219.9,65.7"/>
		<path class="st2" d="M232.2,87.1C232.7,87.6,232.7,87.6,232.2,87.1"/>
		<path class="st2" d="M237.6,61.7C238.1,62.2,238.1,62.2,237.6,61.7"/>
		<path class="st2" d="M197.4,85C197.9,85.5,197.9,85.5,197.4,85"/>
		<path class="st2" d="M229,55C229.5,55.5,229.5,55.5,229,55"/>
		<path class="st2" d="M246.2,81.5C246.7,82,246.7,82,246.2,81.5"/>
		<path class="st2" d="M256.4,55.2C257,55.7,257,55.7,256.4,55.2"/>
		<path class="st2" d="M254.2,73.9C254.7,74.4,254.7,74.4,254.2,73.9"/>
		<path class="st2" d="M282.8,122.1C282.2,121.5,282.2,121.5,282.8,122.1"/>
		<path class="st2" d="M292.1,118.8C291.6,118.3,291.6,118.3,292.1,118.8"/>
		<path class="st2" d="M302.9,118.6C302.4,118.1,302.4,118.1,302.9,118.6"/>
		<path class="st2" d="M274.7,133.9C274.2,133.4,274.2,133.4,274.7,133.9"/>
		<path class="st2" d="M262.8,130.3C262.3,129.8,262.3,129.8,262.8,130.3"/>
		<path class="st2" d="M294.1,127.8C293.6,127.3,293.6,127.3,294.1,127.8"/>
		<path class="st2" d="M291.9,108.7C291.4,108.2,291.4,108.2,291.9,108.7"/>
		<path class="st2" d="M286.5,134.1C286,133.6,286,133.6,286.5,134.1"/>
		<path class="st2" d="M277.9,114.3C277.4,113.8,277.4,113.8,277.9,114.3"/>
		<path class="st2" d="M290.3,81.7C289.8,81.2,289.8,81.2,290.3,81.7"/>
		<path class="st2" d="M267.6,140.5C267.1,140,267.1,140,267.6,140.5"/>
		<path class="st2" d="M269.9,121.9C269.4,121.3,269.4,121.3,269.9,121.9"/>
		<path class="st2" d="M234,140.1C233.5,139.6,233.5,139.6,234,140.1"/>
		<path class="st2" d="M243.4,136.9C242.8,136.4,242.8,136.4,243.4,136.9"/>
		<path class="st2" d="M254.1,136.7C253.6,136.2,253.6,136.2,254.1,136.7"/>
		<path class="st2" d="M269.7,83.8C269.2,83.3,269.2,83.3,269.7,83.8"/>
		<path class="st2" d="M229.1,132.4C228.6,131.8,228.6,131.8,229.1,132.4"/>
		<path class="st2" d="M221.1,140C220.6,139.4,220.6,139.4,221.1,140"/>
		<path class="st2" d="M220.9,102.1C220.4,101.6,220.4,101.6,220.9,102.1"/>
		<path class="st2" d="M264.1,108.9C263.6,108.3,263.6,108.3,264.1,108.9"/>
		<path class="st2" d="M194.6,59.9C194.1,59.4,194.1,59.4,194.6,59.9"/>
		<path class="st2" d="M168.3,108.7C167.8,108.2,167.8,108.2,168.3,108.7"/>
		<path class="st2" d="M147.3,102.1C146.8,101.6,146.8,101.6,147.3,102.1"/>
		<path class="st2" d="M101.1,121.8C101.6,122.3,101.6,122.3,101.1,121.8"/>
		<path class="st2" d="M114.2,81.9C114.7,82.4,114.7,82.4,114.2,81.9"/>
		<path class="st2" d="M144.8,115.5C145.3,116,145.3,116,144.8,115.5"/>
		<path class="st2" d="M105.8,99.4C106.3,99.9,106.3,99.9,105.8,99.4"/>
		<path class="st2" d="M121.1,113.6C121.6,114.1,121.6,114.1,121.1,113.6"/>
		<path class="st2" d="M120,90.2C120.5,90.7,120.5,90.7,120,90.2"/>
		<path class="st2" d="M92,135.2C92.5,135.7,92.5,135.7,92,135.2"/>
		<path class="st2" d="M103.7,110C104.2,110.5,104.2,110.5,103.7,110"/>
		<path class="st2" d="M106,129.6C106.5,130.1,106.5,130.1,106,129.6"/>
		<path class="st2" d="M116.2,103.3C116.8,103.8,116.8,103.8,116.2,103.3"/>
		<path class="st2" d="M114,122C114.5,122.5,114.5,122.5,114,122"/>
		<path class="st2" d="M129.7,107.1C130.3,107.7,130.3,107.7,129.7,107.1"/>
		<path class="st2" d="M136,99.4C136.5,99.9,136.5,99.9,136,99.4"/>
		<path class="st2" d="M119.8,135C120.3,135.5,120.3,135.5,119.8,135"/>
		<path class="st2" d="M134.5,135.6C135,136.1,135,136.1,134.5,135.6"/>
		<path class="st2" d="M111.8,145C112.3,145.5,112.3,145.5,111.8,145"/>
		<path class="st2" d="M129.9,122.4C130.4,122.9,130.4,122.9,129.9,122.4"/>
		<path class="st2" d="M150.2,131.8C150.7,132.3,150.7,132.3,150.2,131.8"/>
		<path class="st2" d="M99.4,146.7C98.9,146.2,98.9,146.2,99.4,146.7"/>
		<path class="st2" d="M219.3,115.7C218.8,115.2,218.8,115.2,219.3,115.7"/>
		<path class="st2" d="M249.4,108.3C248.9,107.8,248.9,107.8,249.4,108.3"/>
		<path class="st2" d="M272.1,98.8C271.6,98.3,271.6,98.3,272.1,98.8"/>
		<path class="st2" d="M253.9,121.5C253.4,121,253.4,121,253.9,121.5"/>
		<path class="st2" d="M252.9,95.9C252.4,95.4,252.4,95.4,252.9,95.9"/>
		<path class="st2" d="M226.8,121.7C226.2,121.2,226.2,121.2,226.8,121.7"/>
		<path class="st2" d="M258.3,87.3C257.8,86.8,257.8,86.8,258.3,87.3"/>
		<path class="st2" d="M294.3,95.9C293.8,95.4,293.8,95.4,294.3,95.9"/>
		<path class="st2" d="M241.5,125C241,124.5,241,124.5,241.5,125"/>
		<path class="st2" d="M236.3,99C235.8,98.5,235.8,98.5,236.3,99"/>
		<path class="st2" d="M190.5,125.6C190,125,190,125,190.5,125.6"/>
		<path class="st2" d="M199.8,122.3C199.3,121.8,199.3,121.8,199.8,122.3"/>
		<path class="st2" d="M210.6,122.1C210.1,121.6,210.1,121.6,210.6,122.1"/>
		<path class="st2" d="M182.4,137.4C181.9,136.9,181.9,136.9,182.4,137.4"/>
		<path class="st2" d="M170.5,133.8C170,133.3,170,133.3,170.5,133.8"/>
		<path class="st2" d="M281.1,82.1C280.5,81.5,280.5,81.5,281.1,82.1"/>
		<path class="st2" d="M211.9,133.6C211.4,133.1,211.4,133.1,211.9,133.6"/>
		<path class="st2" d="M205.2,109.1C204.7,108.5,204.7,108.5,205.2,109.1"/>
		<path class="st2" d="M194.2,137.6C193.7,137.1,193.7,137.1,194.2,137.6"/>
		<path class="st2" d="M234.4,114.2C233.9,113.7,233.9,113.7,234.4,114.2"/>
		<path class="st2" d="M185.6,117.8C185.1,117.3,185.1,117.3,185.6,117.8"/>
		<path class="st2" d="M177.6,125.4C177.1,124.9,177.1,124.9,177.6,125.4"/>
		<path class="st2" d="M147,145.3C147.5,145.8,147.5,145.8,147,145.3"/>
		<path class="st2" d="M137.7,148.5C138.2,149,138.2,149,137.7,148.5"/>
		<path class="st2" d="M121.2,158.5C121.8,159,121.8,159,121.2,158.5"/>
		<path class="st2" d="M96.7,171.2C97.2,171.8,97.2,171.8,96.7,171.2"/>
		<path class="st2" d="M105,157.9C105.5,158.4,105.5,158.4,105,157.9"/>
		<path class="st2" d="M130.1,168.7C130.6,169.2,130.6,169.2,130.1,168.7"/>
		<path class="st2" d="M282.1,158.5C282.6,159,282.6,159,282.1,158.5"/>
		<path class="st2" d="M137.9,158.7C138.4,159.2,138.4,159.2,137.9,158.7"/>
		<path class="st2" d="M151.9,153.1C152.4,153.6,152.4,153.6,151.9,153.1"/>
		<path class="st2" d="M159.9,145.5C160.4,146,160.4,146,159.9,145.5"/>
		<path class="st2" d="M162,186.7C162.5,187.2,162.5,187.2,162,186.7"/>
		<path class="st2" d="M208.9,165.2C209.4,165.7,209.4,165.7,208.9,165.2"/>
		<path class="st2" d="M165.7,158.5C166.2,159,166.2,159,165.7,158.5"/>
		<path class="st2" d="M210.5,151.7C211,152.2,211,152.2,210.5,151.7"/>
		<path class="st2" d="M180.4,159.1C180.9,159.6,180.9,159.6,180.4,159.1"/>
		<path class="st2" d="M157.7,168.5C158.2,169,158.2,169,157.7,168.5"/>
		<path class="st2" d="M175.8,145.9C176.4,146.4,176.4,146.4,175.8,145.9"/>
		<path class="st2" d="M176.9,171.4C177.4,172,177.4,172,176.9,171.4"/>
		<path class="st2" d="M203,145.7C203.5,146.2,203.5,146.2,203,145.7"/>
		<path class="st2" d="M193.5,168.3C194,168.8,194,168.8,193.5,168.3"/>
		<path class="st2" d="M191.1,177.8C191.6,178.3,191.6,178.3,191.1,177.8"/>
		<path class="st2" d="M289.3,146.1C289.8,146.6,289.8,146.6,289.3,146.1"/>
		<path class="st2" d="M308.7,136.3C309.2,136.9,309.2,136.9,308.7,136.3"/>
		<path class="st2" d="M219.9,154.8C220.4,155.3,220.4,155.3,219.9,154.8"/>
		<path class="st2" d="M230.2,155.2C230.7,155.7,230.7,155.7,230.2,155.2"/>
		<path class="st2" d="M195.4,153.1C195.9,153.6,195.9,153.6,195.4,153.1"/>
		<path class="st2" d="M130.3,65C130.8,65.5,130.8,65.5,130.3,65"/>
		<path class="st2" d="M244.2,149.6C244.7,150.1,244.7,150.1,244.2,149.6"/>
		<path class="st2" d="M304.6,155.8C304,155.2,304,155.2,304.6,155.8"/>
		<path class="st2" d="M290.1,186.9C289.6,186.4,289.6,186.4,290.1,186.9"/>
		<path class="st2" d="M300.9,186.7C300.4,186.2,300.4,186.2,300.9,186.7"/>
		<path class="st2" d="M272.7,202C272.2,201.5,272.2,201.5,272.7,202"/>
		<path class="st2" d="M260.8,198.4C260.3,197.8,260.3,197.8,260.8,198.4"/>
		<path class="st2" d="M292.1,195.9C291.6,195.4,291.6,195.4,292.1,195.9"/>
		<path class="st2" d="M289.9,176.8C289.4,176.3,289.4,176.3,289.9,176.8"/>
		<path class="st2" d="M284.5,202.2C284,201.7,284,201.7,284.5,202.2"/>
		<path class="st2" d="M275.9,182.4C275.4,181.9,275.4,181.9,275.9,182.4"/>
		<path class="st2" d="M265.6,208.6C265.1,208.1,265.1,208.1,265.6,208.6"/>
		<path class="st2" d="M267.9,190C267.4,189.4,267.4,189.4,267.9,190"/>
		<path class="st2" d="M232,208.2C231.5,207.7,231.5,207.7,232,208.2"/>
		<path class="st2" d="M241.3,205C240.8,204.5,240.8,204.5,241.3,205"/>
		<path class="st2" d="M252.1,204.8C251.6,204.3,251.6,204.3,252.1,204.8"/>
		<path class="st2" d="M267.7,151.9C267.2,151.3,267.2,151.3,267.7,151.9"/>
		<path class="st2" d="M227.1,200.5C226.6,199.9,226.6,199.9,227.1,200.5"/>
		<path class="st2" d="M219.1,208C218.6,207.5,218.6,207.5,219.1,208"/>
		<path class="st2" d="M218.9,170.2C218.4,169.7,218.4,169.7,218.9,170.2"/>
		<path class="st2" d="M262.1,177C261.6,176.4,261.6,176.4,262.1,177"/>
		<path class="st2" d="M166.3,176.8C165.7,176.3,165.7,176.3,166.3,176.8"/>
		<path class="st2" d="M145.3,170.2C144.8,169.7,144.8,169.7,145.3,170.2"/>
		<path class="st2" d="M111.7,171.3C112.2,171.8,112.2,171.8,111.7,171.3"/>
		<path class="st2" d="M104.2,191.5C104.7,192,104.7,192,104.2,191.5"/>
		<path class="st2" d="M111.9,181.5C112.4,182,112.4,182,111.9,181.5"/>
		<path class="st2" d="M119.4,193C118.9,192.5,118.9,192.5,119.4,193"/>
		<path class="st2" d="M217.3,183.8C216.8,183.3,216.8,183.3,217.3,183.8"/>
		<path class="st2" d="M247.4,176.4C246.9,175.9,246.9,175.9,247.4,176.4"/>
		<path class="st2" d="M272.2,170.4C271.7,169.9,271.7,169.9,272.2,170.4"/>
		<path class="st2" d="M303.1,170.6C302.6,170.1,302.6,170.1,303.1,170.6"/>
		<path class="st2" d="M251.9,189.6C251.4,189.1,251.4,189.1,251.9,189.6"/>
		<path class="st2" d="M250.9,164C250.4,163.5,250.4,163.5,250.9,164"/>
		<path class="st2" d="M224.7,189.8C224.2,189.3,224.2,189.3,224.7,189.8"/>
		<path class="st2" d="M256.3,155.4C255.8,154.9,255.8,154.9,256.3,155.4"/>
		<path class="st2" d="M265.1,163.1C264.6,162.6,264.6,162.6,265.1,163.1"/>
		<path class="st2" d="M292.3,164C291.8,163.5,291.8,163.5,292.3,164"/>
		<path class="st2" d="M296.7,151.7C296.2,151.2,296.2,151.2,296.7,151.7"/>
		<path class="st2" d="M239.5,193.1C239,192.6,239,192.6,239.5,193.1"/>
		<path class="st2" d="M234.3,167.1C233.8,166.6,233.8,166.6,234.3,167.1"/>
		<path class="st2" d="M188.5,193.7C187.9,193.1,187.9,193.1,188.5,193.7"/>
		<path class="st2" d="M197.8,190.4C197.3,189.9,197.3,189.9,197.8,190.4"/>
		<path class="st2" d="M208.6,190.2C208.1,189.7,208.1,189.7,208.6,190.2"/>
		<path class="st2" d="M180.4,205.5C179.9,205,179.9,205,180.4,205.5"/>
		<path class="st2" d="M168.5,201.9C168,201.4,168,201.4,168.5,201.9"/>
		<path class="st2" d="M279.1,150.1C278.5,149.6,278.5,149.6,279.1,150.1"/>
		<path class="st2" d="M299.2,137.8C298.6,137.3,298.6,137.3,299.2,137.8"/>
		<path class="st2" d="M209.9,201.7C209.4,201.2,209.4,201.2,209.9,201.7"/>
		<path class="st2" d="M203.2,177.2C202.7,176.6,202.7,176.6,203.2,177.2"/>
		<path class="st2" d="M192.2,205.7C191.7,205.2,191.7,205.2,192.2,205.7"/>
		<path class="st2" d="M232.4,182.3C231.9,181.8,231.9,181.8,232.4,182.3"/>
		<path class="st2" d="M183.6,185.9C183.1,185.4,183.1,185.4,183.6,185.9"/>
		<path class="st2" d="M256.5,233.6C257,234.1,257,234.1,256.5,233.6"/>
		<path class="st2" d="M258.1,220.1C258.6,220.6,258.6,220.6,258.1,220.1"/>
		<path class="st2" d="M228,227.5C228.5,228,228.5,228,228,227.5"/>
		<path class="st2" d="M250.7,214.1C251.2,214.6,251.2,214.6,250.7,214.1"/>
		<path class="st2" d="M241.1,236.7C241.6,237.2,241.6,237.2,241.1,236.7"/>
		<path class="st2" d="M267.5,223.2C268,223.7,268,223.7,267.5,223.2"/>
		<path class="st2" d="M277.8,223.6C278.3,224.1,278.3,224.1,277.8,223.6"/>
		<path class="st2" d="M243,221.5C243.5,222,243.5,222,243,221.5"/>
		<path class="st2" d="M286.1,217.8C286.6,218.3,286.6,218.3,286.1,217.8"/>
		<path class="st2" d="M145.7,185.4C145.2,184.9,145.2,184.9,145.7,185.4"/>
		<path class="st2" d="M200.5,242C200,241.5,200,241.5,200.5,242"/>
		<path class="st2" d="M211.3,241.8C210.7,241.3,210.7,241.3,211.3,241.8"/>
		<path class="st2" d="M186.3,237.4C185.7,236.9,185.7,236.9,186.3,237.4"/>
		<path class="st2" d="M192.4,254.1C191.9,253.6,191.9,253.6,192.4,254.1"/>
		<path class="st2" d="M132.8,185.2C132.3,184.7,132.3,184.7,132.8,185.2"/>
		<path class="st2" d="M266.6,238.6C266,238.1,266,238.1,266.6,238.6"/>
		<path class="st2" d="M226,236.9C225.5,236.4,225.5,236.4,226,236.9"/>
		<path class="st2" d="M206.5,213.3C206,212.8,206,212.8,206.5,213.3"/>
		<path class="st2" d="M211.1,226.5C210.6,226,210.6,226,211.1,226.5"/>
		<path class="st2" d="M224.4,218.5C223.8,218,223.8,218,224.4,218.5"/>
		<path class="st2" d="M183.9,226.7C183.4,226.2,183.4,226.2,183.9,226.7"/>
		<path class="st2" d="M198.6,230C198.1,229.5,198.1,229.5,198.6,230"/>
		<path class="st2" d="M279.6,209C279.1,208.5,279.1,208.5,279.6,209"/>
		<path class="st2" d="M151.4,196.4C150.8,195.8,150.8,195.8,151.4,196.4"/>
		<path class="st2" d="M217.1,249.6C216.6,249.1,216.6,249.1,217.1,249.6"/>
		<path class="st2" d="M173.4,214.7C172.9,214.1,172.9,214.1,173.4,214.7"/>
		<path class="st2" d="M143.3,208.2C142.8,207.7,142.8,207.7,143.3,208.2"/>
		<path class="st2" d="M123.6,178.9C123.1,178.3,123.1,178.3,123.6,178.9"/>
		<path class="st2" d="M136.1,200.3C135.6,199.8,135.6,199.8,136.1,200.3"/>
		<path class="st2" d="M250.9,245.5C250.3,245,250.3,245,250.9,245.5"/>
		<path class="st2" d="M155.1,208.4C154.6,207.9,154.6,207.9,155.1,208.4"/>
		<path class="st2" d="M162.5,219.1C162,218.6,162,218.6,162.5,219.1"/>
		<path class="st2" d="M171.3,228.1C170.8,227.6,170.8,227.6,171.3,228.1"/>
		<path class="st2" d="M134.3,226C133.7,225.5,133.7,225.5,134.3,226"/>
		<path class="st2" d="M131.9,215.3C131.4,214.8,131.4,214.8,131.9,215.3"/>
		<path class="st2" d="M119.3,216.7C118.8,216.2,118.8,216.2,119.3,216.7"/>
		<path class="st2" d="M114.8,202.4C114.3,201.9,114.3,201.9,114.8,202.4"/>
		<path class="st2" d="M153,221.8C152.4,221.3,152.4,221.3,153,221.8"/>
		<path class="st2" d="M177.8,247.7C177.3,247.2,177.3,247.2,177.8,247.7"/>
		<path class="st2" d="M157.6,231.9C157.1,231.4,157.1,231.4,157.6,231.9"/>
		<path class="st2" d="M166.3,240.9C165.8,240.4,165.8,240.4,166.3,240.9"/>
		<path class="st2" d="M148,234.6C147.5,234.1,147.5,234.1,148,234.6"/>
		<path class="st2" d="M127,204.6C126.4,204.1,126.4,204.1,127,204.6"/>
		<path class="st2" d="M191.5,219.3C191,218.8,191,218.8,191.5,219.3"/>
		<path class="st2" d="M231.2,254.3C230.7,253.8,230.7,253.8,231.2,254.3"/>
		<path class="st2" d="M175.6,193.5C175.1,192.9,175.1,192.9,175.6,193.5"/>
	</g>
	<g id="XMLID_2_">
		<g>
			<path class="st3" d="M226.5,141.2c4.1-0.5,8.2-1.7,11.8-3.7v0c-0.3,4.3-0.6,7.9-1.7,11.9c-3.3-0.3-6.7-0.5-10.1-0.7l0.1-1.3
				c0-2,0-3.9,0-5.9L226.5,141.2z"/>
			<path class="st4" d="M200.2,159.8c1.4-2.3,3.9-4,6.5-4.3c2.7-0.3,5.5,0.7,7.4,2.7c0.2,0.3,0.5,0.5,0.8,0.6c0.5,0.1,1-0.3,1.3-0.6
				c4-3.5,10.9-2.8,14.1,1.4l0.6,0.5c-1.1,1.2-2.3,2.3-3.6,3.2c-6.8,4.5-15.9,3.7-23.2,0.1c-1.6-0.8-3.3-1.8-4.5-3.1L200.2,159.8z"
				/>
			<path class="st3" d="M216.4,141.2c1.7,0.2,3.5,0.3,5.2,0.3c1.6,0,3.3-0.1,4.9-0.3l0,0.3c0,2,0,3.9,0,5.9l-0.1,1.3
				c-3.5-0.2-7-0.3-10.5-0.5l0-1.2c-0.1-1.8,0-3.7,0.3-5.5L216.4,141.2z"/>
			<path class="st5" d="M203.2,124.1c-2.1,0.1-4.2,0.5-6,1.2c-0.3,0.1-0.6,0.2-0.9,0.4c-4.5,1.9-7.7,4.3-10.3,7.5
				c-3.4-9.5-7.2-27.7-7.1-37.8c0.1-9.8,3.3-19.5,9.4-27.1c10.2-2,21.9-0.3,30.7,5.3c0.6,0.4,1.2,0.8,1.8,1.2v0c0,0,0,0,0,0
				c0,0,0,0,0,0c0,0,0,0,0,0l0.1,0.1c5.1-2,10.3-3.7,15.6-5c1.5,1,1.9,3.1,2.2,4.9c1.7,11.9,3.9,34.9,3.3,46.9
				c-0.3-0.1-0.6-0.2-0.9-0.3c-1.1-0.3-2.3-0.3-3.5-0.1c-0.5,0.1-1,0.2-1.5,0.4c-1.4,0.5-2.6,1.5-3.6,2.6c-1,1.1-1.4,1.4-2,2.8
				l-0.5-0.1c-0.1,1.3-0.8,2.5-1.7,3.4c-1.4,1.4-3.5,2.1-5.5,2.1c-2.2,0.1-4.5-0.5-6-2.1c-0.9-0.9-1.4-2.2-1.4-3.5h0
				C212.8,125.3,206.8,123.8,203.2,124.1z"/>
			<path class="st3" d="M203.9,148l0-0.9c0.6-2.3,1.2-6.1,1.2-8.5c3.7,1.2,7.5,2.1,11.3,2.6l0,0.3c-0.4,1.8-0.5,3.7-0.3,5.5l0,1.2
				C211.9,148.1,207.8,148,203.9,148z"/>
			<path class="st6" d="M206.8,155.5c-2.7,0.3-5.2,2-6.5,4.3l-0.5,0.4c-0.3-0.4-0.7-0.8-0.9-1.2c-0.9-1.4-1.4-3.1-1.7-4.8
				c-0.4-2.1-0.6-4.1-0.7-6.2l0.6,0c2.2,0,4.5,0,6.7,0c4,0,8,0.1,12.1,0.3c3.5,0.1,7,0.3,10.5,0.5c3.4,0.2,6.8,0.4,10.1,0.7
				c-0.2,0.6-0.4,1.3-0.6,1.9c-1.1,3.2-2.7,6.3-5,8.8l-0.6-0.5c-3.2-4.2-10.1-4.9-14.1-1.4c-0.4,0.3-0.8,0.7-1.3,0.6
				c-0.3-0.1-0.6-0.4-0.8-0.6C212.3,156.2,209.5,155.2,206.8,155.5z"/>
			<path class="st3" d="M203.9,147.1l0,0.9c-2.3,0-4.5,0-6.7,0l-0.6,0c-0.1-4,0.4-8,1.5-11.8c2.3,0.8,4.7,1.6,7,2.4
				C205,141,204.5,144.8,203.9,147.1z"/>
			<path class="st5" d="M176.2,126.4c-1.8,2.2-5.1,3.1-7.8,2c-2.7-1-4.5-3.9-4.4-6.8c0.1-1.1,0.4-2.3,0.3-3.4
				c-0.4-3.3-4.5-4.7-6-7.7c-0.7-1.4-0.7-3.1-0.7-4.6c0.1-1.6,0.2-3.2,1-4.6c1.1-1.8,3.1-2.9,5.2-3.3c2.4-0.5,6.1,0.6,6.1,0.6
				c0.6,2.7,0.2,5.5,1.1,7.9c1.1,2.9,3.2,5.5,3.2,8.6C174.2,117.3,175.5,124.2,176.2,126.4z"/>
			<path class="st7" d="M216.4,141.2c-3.8-0.5-7.6-1.5-11.3-2.6c-2.4-0.7-4.7-1.6-7-2.4c-1.1,3.8-1.6,7.8-1.5,11.8
				c0,2.1,0.3,4.2,0.7,6.2c0.3,1.7,0.8,3.4,1.7,4.8c0.3,0.4,0.6,0.8,0.9,1.2c1.2,1.3,2.8,2.3,4.5,3.1c7.2,3.6,16.4,4.4,23.2-0.1
				c1.3-0.9,2.5-2,3.6-3.2c2.3-2.5,3.9-5.6,5-8.8c0.2-0.7,0.4-1.3,0.6-1.9c1.1-4,1.5-7.5,1.7-11.9v0c-3.6,2-7.7,3.2-11.8,3.7
				c-1.6,0.2-3.3,0.3-4.9,0.3C219.8,141.6,218.1,141.4,216.4,141.2z M168.4,128.4c2.7,1,6,0.2,7.8-2c-0.7-2.1-2.1-9-2-11.3
				c0.1-3.1-2.1-5.7-3.2-8.6c-0.9-2.5-0.5-5.2-1.1-7.9c0,0-3.7-1.1-6.1-0.6c-2.1,0.4-4.1,1.5-5.2,3.3c-0.8,1.4-1,3-1,4.6
				c-0.1,1.6,0,3.2,0.7,4.6c1.5,3,5.6,4.4,6,7.7c0.1,1.1-0.2,2.3-0.3,3.4C163.9,124.5,165.7,127.4,168.4,128.4z M219,73.5
				c-8.9-5.6-20.5-7.3-30.7-5.3c-6.2,7.6-9.3,17.3-9.4,27.1c-0.1,10.1,3.7,28.3,7.1,37.8c2.6-3.2,5.8-5.6,10.3-7.5
				c0.3-0.1,0.6-0.3,0.9-0.4c1.8-0.7,3.9-1.1,6-1.2c3.6-0.2,9.6,1.2,12.1,3h0c0,1.3,0.6,2.5,1.4,3.5c1.5,1.6,3.8,2.2,6,2.1
				c2-0.1,4.1-0.7,5.5-2.1c0.9-0.9,1.6-2.1,1.7-3.4l0.5,0.1c0.7-1.4,1-1.7,2-2.8c1-1.1,2.2-2,3.6-2.6c0.5-0.2,1-0.3,1.5-0.4
				c1.2-0.2,2.3-0.2,3.5,0.1c0.3,0.1,0.6,0.2,0.9,0.3c0.6-12-1.7-35-3.3-46.9c-0.3-1.8-0.7-3.9-2.2-4.9c-5.3,1.3-10.5,3-15.6,5
				l-0.1-0.1c0,0,0,0,0,0c0,0,0,0,0,0c0,0,0,0,0,0c0,0,0,0,0,0v0c0,0,0,0,0,0C220.3,74.3,219.7,73.9,219,73.5z M156,70.6l0.1-1.2
				c0-0.1,0.1-0.2,0.1-0.4c3-12.3,7.3-24.3,13.8-35.1c6.8-11.2,16-21.1,27.4-27.4c5.7-3.2,12-5.4,18.5-5.8
				c13.6-0.8,27.3,7.8,32.5,20.4c4.4,10.7,2.3,23.7-4.8,32.8c3.9-0.9,8.2,1,10.6,4.3c2.5,3.5,3.1,8.1,2.2,12.3
				c-0.9,4.2-4.4,11.9-9.7,16.3c0.3,0.3,0.6,0.6,0.8,1c1.6,2.1,2.5,4.7,2.8,7.4c0.3,3.1-0.3,6.2-1.3,9.1c-0.6,1.8-1.3,3.6-2.2,5.2
				c8.5,1.7,14.8,6.3,18.7,14s3.2,17.8-2.6,24.3c7.9,3.6,15.6,10.1,16.5,18.7c0.5,4.2-0.8,8.5-2.8,12.3c-3.5,6.6-9.6,12-16.9,13.9
				l-0.5,0.1c1,5.1-0.4,10.5-3.5,14.6c-3.4,4.3-8.8,6.9-14.3,6.9c-2.5,0-5-0.5-7.5-1.2c-4-1-8.1-2.4-11.5-4.9l-1.1,1
				c-8.6,9.2-22.8,12.8-34.8,8.7c-2.5-0.9-6.4-3.2-10.6-9.3c-1.8,0.5-3.7,0.9-5.5,1.1c-8,0.9-16.3-1.1-22.8-5.9
				c-6.5-4.8-10.9-12.3-11.6-20.3c-0.7-8,2.5-16.3,8.6-21.6c0.1-0.1,0.3-0.2,0.3-0.4c0.2-0.4-0.1-0.8-0.4-1.2
				c-6.5-7.6-8.9-18.2-6.8-28c1.9-8.8,3.6-16.7,10.9-22c-0.4-4.9-1.5-9.1-3.5-13.6c-2.2-5-3-10.9-1.3-16.1S150.5,71.1,156,70.6z"/>
		</g>
		<g>
		</g>
	</g>
	<g>
		<g>
			<g>
				<g>
					<g>
						<path class="st8" d="M248.6,88.6c0.2,0.2,0.5,0.4,0.7,0.6c0.2,0.3,0.9,1.8,1,2.2c0.1,0.3,0.6,0.6,0.7,0.9c0,0.1,0,0.1,0.1,0.2
							c0,0,0,0,0,0.1c0,0.2,0.1,0.4,0.1,0.5c0.1,0.3,0.2,0.6,0.2,0.9c0.1,0.6,0.2,2,0.2,2.7c0,0.2,0.1,0.4,0.2,0.6
							c0,0.1,0.1,0.2,0.1,0.4c0,0,0,0.1,0,0.2c-0.1,0.2,0,0.4,0.1,0.6c0.1,0.5-0.2,0.7-0.2,1.2c0,0.7,0.1,1.7-0.3,2.3
							c-0.2,0.4-0.3,0.7-0.3,1.1c0,0.4-0.1,0.7-0.2,1.1c-0.1,0.5-0.8,1.6-1,2.1c-0.3,0.8-0.1,1.4-0.5,2.3c-0.2,0.5-0.5,0.7-0.9,1.2
							c-0.1,0.1-0.5,0.3,0.2,0.6c0.1,0,1.2,0.6,1.2,0.6c0.2-0.1,0.4-0.4,0.5-0.5c0.4-0.4,0.2-1.1,0.5-1.5c0.3-0.4,0.6-0.9,0.8-1.4
							c0.2-0.5,0.4-1,0.6-1.5c0.1-0.5,0.1-1,0.3-1.4c0.2-0.4,0.5-0.7,0.6-1.1c0.1-0.4,0-0.9,0-1.3c0-0.4,0-0.6,0.1-1
							c0.1-0.4,0.4-1,0.6-1.4c0.1-0.4,0.1-0.8,0.1-1.2c0-0.2,0-0.3,0-0.5c0-0.6-0.3-0.4-0.2-1c0,0,0.3-0.6,0.3-0.9
							c0-0.3-0.2-0.6-0.3-0.8c-0.1-0.3-0.2-1.3-0.3-1.6c0-0.3-0.1-0.6-0.1-1c0-0.6-0.6-1-0.8-1.5c-0.1-0.3-0.2-0.7-0.3-1
							c0-0.1-0.1-0.1-0.1-0.2c-0.4-0.7-1.5-1.8-1.5-2.1c-0.1-0.5-0.3-0.7-0.7-0.8C249.8,87.3,248.5,88.5,248.6,88.6z"/>
					</g>
				</g>
			</g>
		</g>
		<g>
			<g>
				<g>
					<g>
						<path class="st8" d="M246.5,55.9c0.5-0.1,1.1-0.4,1.6-0.3c0.3,0,1.2,0.1,2.1,0.4c0.8,0.3,1.6,0.7,1.9,0.9
							c0.5,0.3,1.4,0.5,1.8,0.9c0.1,0.1,0.2,0.2,0.2,0.2c0,0,0.1,0.1,0.1,0.1c0.2,0.2,0.5,0.5,0.7,0.7c0.4,0.4,0.7,0.8,1,1.2
							c0.3,0.5,0.8,1.3,1.1,2.1c0.3,0.8,0.5,1.7,0.7,2.3c0.1,0.4,0.3,0.7,0.4,1.1c0.1,0.2,0.2,0.4,0.2,0.6c0,0.1,0,0.2,0,0.3
							c0,0.4,0.1,0.7,0.1,1.1c0.1,0.9-0.2,1.2-0.3,2.1c0,1.3-0.3,3-0.9,4.2c-0.3,0.6-0.6,1.3-0.8,2c-0.2,0.6-0.5,1.2-0.7,1.8
							c-0.4,0.9-1.8,2.8-2.4,3.6c-0.9,1.4-1.1,2.3-2.2,3.6c-0.7,0.8-1.2,1-2,1.7c-0.1,0.1-0.9,0.4-0.4,0.9c0,0,0.2,0.3,0.4,0.5
							c0.2,0.3,0.4,0.5,0.4,0.5c0.4-0.2,0.8-0.5,1.1-0.7c0.4-0.3,0.7-0.6,1-1c0.3-0.4,0.5-0.8,0.9-1.1c0.7-0.6,1.3-1.4,1.9-2.1
							c0.6-0.8,1.1-1.6,1.6-2.5c0.4-0.8,0.7-1.6,1.1-2.4c0.4-0.6,0.9-1.1,1.2-1.8c0.3-0.7,0.4-1.5,0.5-2.3c0.1-0.7,0.2-1.1,0.5-1.7
							c0.3-0.7,0.7-1.7,0.9-2.5c0.2-0.7,0.1-1.5,0.1-2.2c0-0.3,0-0.6-0.1-0.9c-0.1-1.1-0.3-0.7-0.3-1.8c0,0,0.2-1.1,0-1.7
							c-0.1-0.5-0.4-1-0.7-1.4c-0.2-0.4-1-2.2-1.3-2.7c-0.3-0.5-0.6-1-0.9-1.6c-0.6-1-1.7-1.3-2.5-1.9c-0.5-0.4-1-0.8-1.6-1.1
							c-0.1,0-0.2-0.1-0.3-0.1c-0.7-0.3-1.7-0.5-2.6-0.7c-0.9-0.1-1.8-0.2-2.1-0.3c-0.8-0.3-1.4-0.1-2,0.2
							C246,54.2,246.3,56,246.5,55.9z"/>
					</g>
				</g>
			</g>
		</g>
		<g>
			<g>
				<path class="st9" d="M249.3,87.9"/>
			</g>
		</g>
		<g>
			<g>
				<g>
					<g>
						<path class="st8" d="M245.6,122.7c0-0.9-0.1-2-0.1-2.9c0.1-1.1,0.3-6.2,0.2-7.3c0-1-0.3-2.5-0.4-3.5c0-0.3,0-0.4,0-0.5
							c0-0.1,0-0.1,0-0.2c0-0.6,0-1.1,0-1.7c-0.1-0.9-0.1-1.8-0.2-2.7c-0.1-2-0.2-6.2-0.4-8.2c-0.1-0.7-0.2-1.3-0.4-2
							c-0.1-0.4-0.2-0.7-0.2-1.1c0-0.1,0-0.4,0-0.5c0-0.7-0.2-1.2-0.3-1.9c-0.2-1.5,0-2.1-0.2-3.5c-0.3-2.1-0.8-4.9-0.9-7
							c0-1.1-0.1-2.4-0.4-3.5c-0.2-1-0.4-2.2-0.8-3.2c-0.1-0.4-0.4-1-0.7-1.6c-0.1-0.2-0.2-0.3-0.3-0.5c-0.1-0.1-0.3-0.4-0.6-0.6
							c-0.1-0.1-0.2-0.2-0.3-0.3l-0.2-0.1l-0.1-0.1l-0.1,0c-0.3,0-0.6,0.1-0.9,0.2c-0.7,0.1-1.4,0.3-2,0.4c-0.6,0.1-1.1,0.3-1.5,0.4
							c-2.6,0.7-3.8,1.5-6.3,2.4c-1.6,0.6-2.4,0.7-4.1,1.2c-0.3,0.1-1.5,0.3-1.2,0.9c0,0.1,0.4,1.3,0.5,1.3c0.6-0.1,1.4-0.4,1.9-0.5
							c1.3-0.3,2.7-1.2,4-1.6c1.4-0.3,2.8-0.7,4.1-1.1c1.4-0.4,2.8-0.8,4.3-1.2l0.5-0.1l0.1,0l0,0l0.1,0c0.1-0.1,0.2,0,0.2,0.1
							c0.3,0.3,0.7,0.8,0.8,1.3c0.3,0.9,0.2,2,0.3,3c0.2,1.2,0.5,2.3,0.8,3.4c0.2,1,0.3,1.6,0.4,2.7c0.1,1.2,0,2.8,0.1,3.9
							c0,1.1,0.2,2.2,0.4,3.3c0.1,0.4,0.1,0.9,0.2,1.3c0.2,1.6,0.4,1,0.4,2.7c0,0.1-0.2,1.6-0.1,2.4c0.1,0.7,0.2,1.5,0.4,2.2
							c0.2,0.7,0.3,3.6,0.3,4.3c0,0.8,0,1.7,0,2.5c-0.1,1.5,0.5,2.9,0.5,4.5c0,0.9,0,1.8,0,2.7c0,0.2,0,0.3,0,0.5
							c0.2,2,0.5,6.1,0.3,6.9c-0.3,1.1-0.3,1.9-0.1,2.9C243.8,122.8,245.6,123.1,245.6,122.7z"/>
					</g>
				</g>
			</g>
		</g>
		<g>
			<g>
				<g>
					<g>
						<path class="st8" d="M234,128.7c0-0.2,0-0.4,0.1-0.5c0.1-0.2,0.8-0.7,1-0.8c0.1-0.1,0.1-0.5,0.3-0.6c0,0,0.1-0.1,0.1-0.1
							c0,0,0,0,0,0c0.1-0.1,0.2-0.1,0.3-0.2c0.1-0.1,0.2-0.3,0.4-0.4c0.3-0.2,1-0.6,1.2-0.8c0.1-0.1,0.1-0.2,0.2-0.4
							c0-0.1,0.1-0.2,0.1-0.2c0,0,0.1,0,0.1,0c0.1,0,0.2-0.2,0.3-0.2c0.2-0.2,0.4,0,0.6-0.2c0.3-0.3,0.7-0.6,1.1-0.5
							c0.2,0,0.4,0,0.6-0.1c0.2-0.1,0.4-0.1,0.5-0.2c0.3-0.1,1,0.2,1.2,0.3c0.5,0,0.7-0.3,1.2-0.2c0.3,0.1,0.4,0.3,0.7,0.5
							c0,0,0.1,0.4,0.4-0.3c0-0.1,0.5-1.2,0.5-1.2c-0.1-0.2-0.3-0.2-0.4-0.3c-0.3-0.3-0.7,0-1-0.1c-0.3-0.2-0.6-0.3-0.9-0.3
							c-0.3-0.1-0.7-0.1-1-0.1c-0.3,0-0.6,0.2-0.9,0.2c-0.2,0-0.5-0.3-0.8-0.2c-0.3,0.1-0.5,0.3-0.7,0.5c-0.2,0.2-0.3,0.2-0.6,0.2
							c-0.3,0-0.7,0-1,0c-0.3,0-0.5,0.2-0.7,0.4c-0.1,0.1-0.2,0.1-0.2,0.2c-0.3,0.2-0.1,0.3-0.4,0.5c0,0-0.5-0.1-0.6,0
							c-0.1,0.1-0.2,0.3-0.2,0.5c0,0.2-0.6,0.5-0.7,0.7c-0.1,0.1-0.3,0.2-0.5,0.3c-0.3,0.1-0.2,0.6-0.4,0.9
							c-0.1,0.1-0.3,0.2-0.5,0.4c0,0,0,0.1-0.1,0.1c-0.2,0.4-0.5,1.3-0.8,1.4c-0.4,0.1-0.4,0.3-0.3,0.6
							C232.3,127.9,234,128.8,234,128.7z"/>
					</g>
				</g>
			</g>
		</g>
		<g>
			<g>
				<g>
					<g>
						<path class="st8" d="M189.3,133.6c-0.5-1.2-1.1-2.6-1.4-3.9c-0.2-0.8-0.8-3-1.2-5.2c-0.5-2.2-0.9-4.4-1-5.2
							c-0.3-1.4-1-3.6-1.2-5c-0.1-0.4-0.1-0.6-0.1-0.8c0-0.1,0-0.2,0-0.3c-0.1-0.8-0.2-1.6-0.4-2.4c-0.2-1.3-0.4-2.6-0.6-3.9
							c-0.2-1.4-0.4-3.7-0.5-6c-0.1-2.3-0.1-4.5,0-5.9c0-0.9,0-1.9,0-2.9c0-0.5,0-1.1,0.1-1.6c0-0.2,0.1-0.6,0.1-0.7
							c0.2-0.9,0.3-1.8,0.4-2.7c0.4-2.1,0.9-2.8,1.5-4.9c0.5-1.5,1.1-3.1,1.8-4.7c0.8-1.6,1.6-3.2,2.5-4.4c0.5-0.6,1-1.3,1.5-2
							l0.4-0.5l0.2-0.3l0.1-0.1c0,0,0.1,0,0.1-0.1l0.5-0.1c0.7-0.2,1.5-0.3,2.2-0.4c0.8-0.1,1.5-0.2,2.2-0.2c1.1-0.1,3.1-0.1,5,0.1
							c1.9,0.2,3.8,0.5,4.9,0.7c1.9,0.3,3.3,0.6,4.8,0.8c1.4,0.3,2.9,0.7,4.7,1.4c1.1,0.5,1.9,0.9,2.7,1.4c0.8,0.4,1.5,1,2.5,1.7
							c0.3,0.2,1.6,1.5,1.9,0.8c0-0.1,0.9-1,0.8-1.1c-0.6-0.6-1.7-1.4-2.4-1.8c-1.7-1.3-4-1.9-5.9-2.8c-2-0.9-4-1.6-6.2-2.1
							c-2.2-0.5-4.4-0.8-6.7-1c-2-0.1-4,0.1-6,0.1c-1.6,0.1-3.3-0.1-4.9,0.3l-0.7,0.1l-0.6,0.1l-0.3,0.1c-0.1,0-0.1,0.1-0.2,0.2
							l-0.4,0.5l-0.2,0.3l-0.4,0.6c-0.5,0.7-0.9,1.5-1.4,2.3c-0.8,1.4-1.2,2.2-2,3.5c-0.9,1.5-2,3.6-2.7,5.3c-0.7,1.5-1,3.2-1.4,4.8
							c-0.1,0.7-0.3,1.3-0.4,2c-0.2,1.2-0.2,1.6-0.2,2c0,0.4-0.1,0.8-0.3,2c0,0.1-0.6,2.4-0.6,3.5c0,1.1,0.1,2.3,0.2,3.4
							c0.1,1.1,0.4,5.4,0.5,6.4c0.1,1.3,0.2,2.5,0.3,3.8c0.2,2.3,1,4.3,1.4,6.5c0.3,1.3,0.4,2.7,0.7,4c0,0.2,0.1,0.5,0.2,0.7
							c0.4,1.5,1,3.6,1.5,5.6c0.6,2,1.1,3.7,1.2,4.3c0.2,1.7,0.6,2.8,1.3,4.1C187.7,134.5,189.5,134.1,189.3,133.6z"/>
					</g>
				</g>
			</g>
		</g>
		<g>
			<g>
				<g>
					<g>
						<path class="st8" d="M218.3,127.3c-0.4-0.2-1-0.4-1.4-0.6c-0.5-0.3-2.7-1.5-3.2-1.6c-0.5-0.2-1.3-0.1-1.7-0.2
							c-0.1,0-0.2,0-0.2-0.1c0,0-0.1,0-0.1,0c-0.3-0.1-0.5-0.2-0.8-0.2c-0.4-0.1-0.9-0.1-1.3-0.2c-0.9-0.2-3-0.6-4.1-0.4
							c-0.3,0-0.6,0.2-1,0.3c-0.2,0.1-0.3,0.1-0.5,0.2c-0.1,0-0.2,0-0.3,0c-0.3,0-0.6,0.1-0.9,0.2c-0.7,0.2-1,0-1.7,0.2
							c-1,0.3-2.3,1-3.2,1.3c-0.5,0.1-1.1,0.3-1.5,0.7c-0.4,0.3-0.9,0.5-1.3,0.8c-0.7,0.4-2.4,1.1-3,1.6c-1.1,0.8-1.3,1.6-2.2,2.5
							c-0.6,0.6-1,0.8-1.6,1.3c-0.1,0.1-0.7,0.4-0.1,0.8c0,0,0.3,0.2,0.5,0.4c0.2,0.2,0.5,0.4,0.5,0.4c0.3-0.1,0.5-0.4,0.8-0.6
							c0.5-0.4,0.7-1.2,1.3-1.5c0.6-0.4,1.1-0.8,1.6-1.1c0.5-0.4,1.1-0.8,1.6-1.2c0.5-0.3,0.9-0.8,1.5-1.1c0.5-0.2,1-0.2,1.4-0.4
							c0.5-0.3,0.9-0.6,1.3-1c0.4-0.3,0.7-0.4,1.1-0.5c0.5-0.1,1.3-0.2,1.8-0.2c0.5,0,1-0.2,1.4-0.4c0.2-0.1,0.4-0.1,0.6-0.2
							c0.7-0.2,0.4-0.3,1.2-0.3c0,0,0.8,0.3,1.1,0.3c0.3,0,0.6-0.1,1-0.3c0.3-0.1,1.6,0.1,1.9,0.1c0.4,0.1,0.8,0.2,1.1,0.3
							c0.7,0.3,1.4-0.1,2.1,0.1c0.4,0.1,0.8,0.3,1.2,0.4c0.1,0,0.1,0,0.2,0c0.9,0.1,2.8,0.6,3,1c0.3,0.5,0.6,0.6,1.1,0.6
							C217.4,128.8,218.5,127.4,218.3,127.3z"/>
					</g>
				</g>
			</g>
		</g>
		<g>
			<g>
				<g>
					<g>
						<path class="st8" d="M205.6,78.5c-0.2,0-0.5,0.1-0.7,0.1c-0.2-0.1-1.4-0.4-1.6-0.4c-0.2,0-0.6,0.2-0.8,0.3c-0.1,0-0.1,0-0.1,0
							c0,0,0,0-0.1,0c-0.1,0-0.3,0-0.4,0c-0.2,0-0.4,0.1-0.6,0.1c-0.4,0-1.4,0.1-1.9,0.4c-0.1,0.1-0.2,0.2-0.3,0.3
							c-0.1,0.1-0.1,0.2-0.2,0.2c0,0-0.1,0-0.1,0c-0.2,0-0.2,0.2-0.3,0.3c-0.2,0.2-0.5,0-0.8,0.3c-0.4,0.3-0.8,0.8-1.2,1
							c-0.2,0.1-0.5,0.2-0.6,0.5c-0.1,0.2-0.3,0.4-0.4,0.6c-0.2,0.2-1,0.7-1.2,1c-0.4,0.5-0.2,1-0.4,1.5c-0.2,0.3-0.4,0.4-0.7,0.8
							c0,0-0.4,0.2,0.3,0.4c0.1,0,1.3,0.5,1.3,0.5c0.2-0.1,0.2-0.2,0.3-0.3c0.3-0.2,0-0.6,0.2-0.8c0.2-0.2,0.4-0.4,0.6-0.6
							c0.2-0.2,0.3-0.4,0.5-0.7c0.1-0.2,0.2-0.5,0.4-0.7c0.2-0.1,0.5-0.1,0.6-0.2c0.2-0.2,0.2-0.4,0.3-0.7c0.1-0.2,0.2-0.3,0.4-0.4
							c0.2-0.1,0.6-0.1,0.8-0.1c0.2,0,0.3-0.2,0.5-0.3c0.1,0,0.1-0.1,0.2-0.2c0.2-0.2,0.1-0.3,0.4-0.4c0,0,0.4,0.2,0.5,0.2
							c0.1-0.1,0.2-0.2,0.3-0.4c0.1-0.2,0.6-0.2,0.8-0.2c0.2,0,0.3,0,0.5,0.1c0.3,0.1,0.5-0.4,0.8-0.4c0.2,0,0.3,0.1,0.5,0.1
							c0,0,0.1,0,0.1,0c0.4-0.1,1.2-0.3,1.3-0.1c0.2,0.3,0.3,0.3,0.5,0.1C205.3,80.2,205.7,78.5,205.6,78.5z"/>
					</g>
				</g>
			</g>
		</g>
		<g>
			<g>
				<g>
					<g>
						<path class="st8" d="M238,84.2c-0.1-0.1-0.3-0.3-0.3-0.4c0-0.2-0.1-1.1-0.2-1.3c-0.1-0.2-0.4-0.3-0.5-0.4c0,0,0-0.1-0.1-0.1
							c0,0,0,0,0,0c0-0.1-0.1-0.2-0.1-0.3c-0.1-0.1-0.2-0.2-0.3-0.4c-0.2-0.3-0.6-0.9-0.9-1.1c-0.1-0.1-0.3,0-0.4-0.1
							c-0.1,0-0.2,0-0.2,0c0,0-0.1,0-0.1,0c-0.1-0.1-0.2-0.1-0.3-0.1c-0.2-0.1-0.2-0.4-0.4-0.4c-0.4-0.1-0.8-0.1-1.1-0.4
							c-0.1-0.1-0.3-0.3-0.5-0.2c-0.2,0-0.4,0-0.5,0c-0.2,0-0.8-0.4-1.1-0.4c-0.5,0-0.7,0.4-1.1,0.5c-0.3,0-0.4-0.1-0.8-0.1
							c0,0-0.3-0.2-0.1,0.5c0,0.1,0.4,1.3,0.4,1.3c0.1,0.1,0.2,0.1,0.3,0.1c0.2,0.1,0.3-0.3,0.5-0.2c0.2,0.1,0.4,0.1,0.5,0.2
							c0.2,0,0.4,0,0.5,0c0.2,0,0.3-0.2,0.5-0.1c0.1,0.1,0.2,0.4,0.3,0.4c0.1,0,0.3-0.1,0.5-0.2c0.2-0.1,0.2,0,0.3,0.1
							c0.1,0.1,0.2,0.4,0.3,0.5c0.1,0.1,0.2,0.1,0.4,0.2c0.1,0,0.1,0,0.2,0c0.2,0.1,0.3-0.2,0.4,0.1c0,0-0.1,0.4,0,0.5
							c0.1,0,0.2,0,0.4,0c0.1,0,0.4,0.3,0.4,0.4c0.1,0.1,0.1,0.2,0.1,0.3c0,0.2,0.4,0.1,0.6,0.3c0.1,0.1,0,0.2,0.1,0.3c0,0,0,0,0,0
							c0.2,0.1,0.7,0.5,0.5,0.7c-0.2,0.2-0.1,0.3,0.1,0.3C236.2,84.7,238,84.3,238,84.2z"/>
					</g>
				</g>
			</g>
		</g>
		<g>
			<g>
				<g>
					<g>
						<path class="st10" d="M243.5,33.4c0.2,0.6,0.4,1.3,0.4,1.9c0,0.4,0,1.4-0.2,2.5c-0.2,1-0.5,2-0.6,2.4
							c-0.2,0.6-0.3,1.7-0.6,2.3c-0.1,0.2-0.1,0.3-0.2,0.3c0,0,0,0.1-0.1,0.1c-0.2,0.3-0.4,0.7-0.6,1c-0.3,0.5-0.6,1.1-1,1.6
							c-0.7,1.2-2.7,3.3-3.7,4.2c-0.3,0.3-0.6,0.7-0.9,1.1c-0.2,0.2-0.3,0.4-0.5,0.6c-0.1,0.1-0.2,0.2-0.3,0.2
							c-0.4,0.3-0.7,0.6-1,0.9c-0.8,0.7-1.3,0.7-2.1,1.4c-0.6,0.5-1.3,1.1-2,1.7c-0.7,0.6-1.4,1.2-2,1.7c-0.7,0.5-1.3,1.1-1.8,1.8
							c-0.4,0.7-1,1.3-1.4,1.9c-0.4,0.5-1,1.2-1.6,2.1c-0.6,0.8-1.1,1.7-1.4,2.2c-0.4,0.9-0.6,1.7-0.7,2.5c-0.1,0.4-0.1,0.8-0.2,1.2
							c0,0.4-0.2,0.8-0.2,1.4c-0.2,1.3-0.4,1.9-0.4,3.2c0,0.2-0.2,1.2,0.5,1c0,0,0.4,0,0.7-0.1c0.3,0,0.6-0.1,0.6-0.1
							c0.1-0.4,0.1-1,0.1-1.4c0.1-0.5,0.1-1,0-1.5c0-0.5,0-1,0.1-1.5c0.3-0.9,0.6-1.9,1-2.8c0.4-0.9,0.8-1.9,1.3-2.8
							c0.4-0.8,0.8-1.7,1.4-2.4c0.5-0.6,1.2-1,1.6-1.6c0.5-0.6,0.9-1.3,1.5-2c0.5-0.6,0.8-0.9,1.4-1.3c0.7-0.5,1.6-1,2.4-1.4
							c0.7-0.4,1.3-1,1.9-1.5c0.3-0.2,0.5-0.4,0.8-0.7c0.9-0.8,0.4-0.7,1.4-1.4c0,0,1.1-0.5,1.5-1c0.4-0.4,0.7-0.9,1-1.4
							c0.3-0.5,1.7-2.1,2-2.6c0.4-0.5,0.8-1,1.2-1.5c0.7-0.9,0.8-2.1,1.3-3.1c0.3-0.6,0.6-1.3,0.8-1.9c0-0.1,0.1-0.3,0.1-0.4
							c0.2-0.8,0.3-1.9,0.3-3c0-1.1,0-2,0.1-2.3c0.2-0.9,0.1-1.5-0.3-2.2C245.2,32.9,243.4,33.1,243.5,33.4z"/>
					</g>
				</g>
			</g>
		</g>
		<g>
			<g>
				<g>
					<g>
						<path class="st8" d="M223.1,209.6c-0.4,0.5-0.9,1.1-1.4,1.6c-0.3,0.2-1.2,0.9-2.2,1.6c-1,0.6-1.9,1.2-2.3,1.4
							c-0.6,0.3-1.5,1.2-2.1,1.5c-0.2,0.1-0.3,0.1-0.3,0.2c0,0-0.1,0-0.2,0.1c-0.4,0.2-0.7,0.3-1.1,0.5c-0.6,0.3-1.2,0.5-1.8,0.8
							c-1.4,0.5-4.4,1.2-5.8,1.5c-0.5,0.1-0.9,0.3-1.4,0.4c-0.3,0.1-0.5,0.2-0.8,0.2c-0.1,0-0.3,0-0.4,0c-0.5,0-0.9,0.1-1.4,0.2
							c-0.5,0.1-0.9,0.1-1.3,0c-0.4,0-0.8-0.1-1.3-0.1c-1.5,0.1-3.6,0.1-5.1-0.3c-0.8-0.2-1.7-0.5-2.5-0.5c-0.8-0.1-1.5-0.4-2.2-0.6
							c-0.6-0.2-1.4-0.6-2.2-1.1c-0.8-0.5-1.5-1.1-1.9-1.5c-1.5-1.2-2.5-1.6-3.8-3.1c-0.8-0.9-1.1-1.5-1.7-2.6
							c-0.1-0.2-0.4-1.1-0.9-0.6c0,0-0.3,0.2-0.6,0.4c-0.3,0.2-0.5,0.4-0.5,0.4c0.2,0.4,0.5,1,0.7,1.4c0.5,1,1.6,1.6,2.2,2.5
							c0.7,0.9,1.4,1.7,2.3,2.5c0.9,0.8,1.8,1.5,2.8,2.1c0.9,0.5,2,0.8,3,1.2c0.8,0.3,1.5,0.8,2.3,1c0.9,0.2,1.8,0.2,2.7,0.2
							c0.8,0,1.3,0.1,2.1,0.2c0.9,0.1,2.1,0.5,3,0.5c0.9,0.1,1.7,0,2.6-0.1c0.3,0,0.7-0.1,1.1-0.1c1.2-0.2,0.8-0.4,2-0.4
							c0,0,0.4,0,0.7,0.1c0.4,0,0.8,0,1.1-0.1c0.6-0.1,1.1-0.3,1.7-0.6c0.3-0.1,0.9-0.3,1.6-0.5c0.7-0.2,1.3-0.4,1.6-0.5
							c0.6-0.2,1.3-0.3,1.9-0.5c0.6-0.2,1.1-0.5,1.6-0.8c0.5-0.4,0.9-0.7,1.5-1c0.6-0.3,1.3-0.7,1.9-1c0.1-0.1,0.2-0.1,0.3-0.2
							c0.6-0.5,1.5-1.3,2.4-1.9c0.8-0.7,1.5-1.3,1.8-1.5c0.8-0.4,1.2-0.9,1.6-1.6C224.6,210.8,223.3,209.4,223.1,209.6z"/>
					</g>
				</g>
			</g>
		</g>
		<g>
			<g>
				<g>
					<g>
						<path class="st8" d="M260.7,193.3c0.2,0.6,0.5,1.4,0.5,2c0,0.4,0,1.6-0.1,2.7c-0.1,1.1-0.4,2.2-0.5,2.6
							c-0.2,0.7-0.2,1.9-0.5,2.5c-0.1,0.2-0.1,0.3-0.1,0.4c0,0,0,0.1-0.1,0.1c-0.2,0.4-0.4,0.7-0.5,1.1c-0.3,0.6-0.6,1.2-1,1.7
							c-0.4,0.6-1.1,1.5-1.9,2.3c-0.8,0.8-1.7,1.5-2.3,1.9c-0.4,0.3-0.7,0.6-1.1,1c-0.2,0.2-0.4,0.4-0.6,0.5
							c-0.1,0.1-0.3,0.1-0.3,0.2c-0.5,0.2-0.8,0.5-1.2,0.7c-1,0.5-1.5,0.4-2.5,0.7c-1.5,0.5-3.6,0.9-5.1,0.7
							c-0.8-0.1-1.7-0.3-2.6-0.3c-0.8,0-1.6-0.2-2.3-0.4c-1.2-0.2-3.9-1.3-5-1.7c-1.9-0.6-3-0.6-4.9-1.5c-1.1-0.6-1.6-1.1-2.5-1.9
							c-0.2-0.1-0.7-0.9-1.1-0.3c0,0-0.2,0.3-0.5,0.5c-0.2,0.2-0.4,0.5-0.4,0.5c0.3,0.4,0.8,0.8,1.2,1.1c0.8,0.8,2.2,1.1,3.1,1.6
							c1,0.6,2,1.1,3.1,1.5c1.1,0.4,2.2,0.8,3.4,1.1c1,0.3,2.1,0.3,3.1,0.6c0.8,0.2,1.6,0.7,2.5,0.8c0.9,0.1,1.9,0.1,2.8,0
							c0.9-0.1,1.3-0.1,2.2-0.1c0.9,0,2.3,0,3.2-0.1c0.9-0.1,1.8-0.5,2.6-0.8c0.3-0.1,0.7-0.3,1-0.5c1.2-0.6,0.7-0.6,1.9-1.2
							c0,0,1.3-0.4,1.8-0.8c0.5-0.4,0.9-0.9,1.3-1.4c0.2-0.2,0.7-0.8,1.2-1.3c0.5-0.5,1-1.1,1.2-1.3c0.4-0.5,0.9-1.1,1.3-1.7
							c0.8-1,0.9-2.3,1.3-3.5c0.2-0.7,0.5-1.4,0.7-2.1c0-0.1,0.1-0.3,0.1-0.4c0.1-0.8,0.2-2.1,0.2-3.2c0-1.1-0.1-2.1,0-2.5
							c0.2-1,0-1.6-0.4-2.3C262.5,192.7,260.7,193,260.7,193.3z"/>
					</g>
				</g>
			</g>
		</g>
		<g>
			<g>
				<g>
					<g>
						<path class="st8" d="M263,194.5c1.4-0.4,3-1.2,4.4-1.8c0.9-0.4,3.1-1.6,5.2-3.1c2.1-1.5,3.8-3.5,4.4-4.2
							c1.1-1.2,2.3-3.6,3.1-5c0.2-0.4,0.3-0.6,0.4-0.8c0.1-0.1,0.1-0.2,0.2-0.3c0.4-0.8,0.8-1.7,1.1-2.5c0.5-1.4,0.9-2.9,1.2-4.4
							c0.3-1.7,0.5-4.4-0.1-7c-0.5-2.6-1.8-5.1-2.7-6.4c-0.3-0.5-0.7-0.9-1-1.3c-0.4-0.4-0.7-0.8-1.2-1.2c-0.4-0.4-0.9-0.8-1.3-1.2
							c-0.1-0.1-0.5-0.5-0.6-0.6c-0.8-0.8-1.6-1.3-2.5-2c-2-1.4-2.7-2.2-4.8-3.3c-0.4-0.2-0.8-0.4-1.2-0.6c-0.1,0-0.2-0.1-0.4-0.1
							c-0.1,0,0-0.1,0-0.1l0.1-0.2l0.7-1.1c1.1-1.8,1.9-3.7,2.5-5.3c0.7-1.8,1.1-3.8,1-5.7c0-1.7-0.1-3.6-0.4-5.2
							c-0.2-1.3-0.7-3.5-1.5-5.6c-0.8-2.1-1.9-4-2.7-5.1c-1.3-1.8-2.6-3-3.9-4.1c-1.3-1.1-2.7-2-4.7-3.1c-1.2-0.7-2.2-1.2-3.1-1.6
							c-0.9-0.4-1.9-0.9-3.3-1.3c-0.4-0.2-2.4-0.9-2.4-0.1c0,0.1-0.4,1.3-0.3,1.3c0.4,0.2,1,0.3,1.5,0.5c0.5,0.2,1.1,0.3,1.5,0.5
							c2,0.8,4.4,1.4,6.2,2.7c1.8,1.3,3.5,2.8,5,4.5c1.5,1.7,2.8,3.7,3.8,5.8c0.9,1.8,1.7,3.7,2.1,5.8c0.2,1.7,0.1,3.3,0,5
							c0,1.8-0.2,3.6-0.6,5.4c-0.4,1.6-0.7,2.5-1.6,3.9c-0.2,0.4-0.5,0.8-0.8,1.2c-0.2,0.2-0.3,0.4-0.5,0.6
							c-0.1,0.1-0.2,0.3-0.4,0.4l-0.5,0.5c-0.3,0.4-0.7,0.7-1,1.1l-0.1,0.1c0,0,0.1,0.1,0.1,0.1l0.3,0.2c0.2,0.1,0.4,0.2,0.6,0.3
							c0.4,0.2,0.8,0.4,1.2,0.6l0.3,0.1l0.2,0.1c0.1,0.1,0.2,0.1,0.3,0.2c1.5,0.9,3,1.7,4.4,2.7c0.6,0.4,1.2,0.8,1.7,1.2
							c1.9,1.6,1.5,0.9,3.1,2.8c0.1,0.1,1.4,2.1,1.9,3.1c0.3,0.5,0.6,1,0.9,1.4c0.3,0.5,0.6,1,0.8,1.5c0.1,0.2,0.3,0.7,0.5,1.2
							c0.1,0.6,0.4,1.2,0.4,1.9c0.3,1.3,0.2,2.7,0.2,3.3c-0.1,1.3-0.3,2.6-0.7,3.8c-0.7,2.2-1.2,4.5-2.4,6.5
							c-0.7,1.2-1.6,2.4-2.5,3.5c-0.1,0.2-0.3,0.4-0.5,0.6c-1,1.2-2.6,3-4.3,4.4c-1.7,1.4-3.4,2.3-4,2.5c-1.7,0.5-2.8,1-4.2,1.6
							C262.2,192.9,262.3,194.7,263,194.5z"/>
					</g>
				</g>
			</g>
		</g>
		<g>
			<g>
				<g>
					<g>
						<path class="st8" d="M177,209c-2.4,0.6-5,1-7.7,1c-2.7,0.1-5.4-0.3-7.8-0.9c-1.5-0.4-4.3-1.2-7.4-2.9
							c-3.1-1.7-6.4-4.4-8.9-7.8c-2.5-3.3-4.2-7.3-4.9-10.7c-0.7-3.4-0.6-6.3-0.4-7.8c0.3-2.6,1-6,2.6-9.1c0.8-1.6,1.7-3,2.7-4.3
							c0.5-0.6,1-1.2,1.6-1.8c0.3-0.3,0.5-0.5,0.8-0.7c0.2-0.2,0.4-0.4,0.6-0.5c0.2-0.2,0.4-0.5,0.5-0.7c0.2-0.6,0-1.2-0.4-1.7
							c-0.2-0.3-0.4-0.6-0.6-0.8c-0.3-0.4-0.5-0.6-0.7-0.8c-0.2-0.3-0.4-0.6-0.7-1c-1.7-2.5-3-5.2-3.9-8.1c-1.5-4.7-2-9.8-1.2-14.7
							c0.1-0.7,0.2-1.4,0.4-2.2c0.2-0.8,0.4-1.6,0.5-2.4c0.4-1.7,0.8-3.5,1.4-5.4c1.1-3.7,2.8-7.7,5.7-10.7c0.4-0.4,0.7-0.8,1.1-1.1
							c0.4-0.4,0.8-0.7,1.2-1l1.1-0.9c0.2-0.1,0.1-0.2,0.1-0.3l0-0.4l-0.1-0.7c-0.1-0.6-0.1-1.1-0.2-1.6c-0.3-2.2-0.7-4.3-1.3-6.3
							c-0.6-2-1.3-3.8-2-5.4c-0.7-1.5-1.1-3-1.5-4.3c-0.8-3.4-1-7.1,0-10.4c0.5-1.8,1.4-3.6,2.7-5.1c0.4-0.5,1.4-1.5,1.9-1.9
							c1.3-1,2.6-1.8,4.1-2.3c0.4-0.1,0.7-0.2,1.1-0.3l0.3-0.1c0.1,0,0.1,0,0.4-0.1l1-0.1l0.5-0.1c0-0.2,0-0.3,0-0.5l0.1-1.1
							c0-0.4,0-0.9,0.1-1.3l-1.8-0.2c0,0.2-0.1,0.5-0.1,0.8c-0.1,0.5-0.1,0.9-0.2,1.2l1.7,0.3c0.9-3.6,1.6-6.2,2.5-8.9
							c0.8-2.6,1.7-5.3,3.1-9c2-5.6,4.8-12,8.3-17.9c3.5-6,7.7-11.4,11.9-15.5c4.4-4.4,9.9-8.7,15.3-11.8c5-2.9,10.8-5.1,16.3-5.7
							c2.1-0.3,5.1-0.3,8.3,0.2c3.2,0.5,6.8,1.7,10,3.4c3.3,1.7,6.2,4,8.5,6.3c2.3,2.3,3.9,4.7,5,6.6c1.8,3.2,2.8,6.2,3.4,9.2
							c0.6,2.9,0.7,5.7,0.5,8.5c-0.2,2.8-0.7,5.5-1.7,8.4c-1,2.9-2.4,5.8-4.7,8.8c-2.9,3.8-5.8,5.8-8.7,7.7c-1.5,1-3,1.9-4.6,3
							c-1.6,1.1-3.4,2.3-5.2,4c-0.5,0.4-1.8,1.6-2.8,3c-0.5,0.7-1,1.4-1.3,2.1c-0.3,0.7-0.5,1.2-0.5,1.6l0-0.1l0,0l0,0
							c0,0,0,0,0.1,0l0.3,0.1l0.2,0.1l0.1,0.1c0,0,0,0,0.1,0c0,0.1,0.1,0,0.2,0.1c0.1,0,0.3,0.1,0.4,0.1l0.3,0.1l0,0l0,0l-0.1,0
							l-0.3-0.1c-0.2-0.1-0.3-0.2-0.4-0.2c-0.1,0-0.7-0.2-0.7-0.2c0.9,0.3,0.8,0.3,0.1,0c0,0,0,0,0.1,0c0,0,0.3,0.1,0.4,0.1l0.1,0
							l0,0l-0.3-0.1l0,0l0,0l0,0l0,0l0,0l0.1,0.1c0.1,0,0.2,0,0.2,0c0.2,0,0.3,0.1,0.4,0.1c0.1,0.1,0.2,0.1,0.2,0c0,0,0,0.1,0-0.1
							l0,0c0-0.1,0-0.1,0-0.2l0-0.1c0,0,0-0.1-0.1-0.4c-0.1-0.1-0.2-0.2-0.4-0.3c-0.2,0-0.4,0-0.4,0.1c-0.4,0.2-0.2,0.2-0.2,0.2
							c-0.1,0.2-0.1,0.2-0.1,0.2l0,0.1l0,0.1l0,0.1l0,0.1l0,0l0,0l0,0c0,0,0,0.1,0,0.1c0,0.1,0.1,0.4,0.4,0.6c0.4,0.1,0.5,0,0.6,0
							c0.1-0.1,0.1,0,0.1,0l0,0c0,0,0.1-0.1,0.1-0.1c0,0,0.1-0.1,0.1-0.1l0,0l0,0l0,0l0,0l0-0.1c0.6-1.4,1.6-2.9,2.9-4.3
							c1.3-1.4,2.7-2.6,3.9-3.5c3.1-2.3,6.7-4.4,10-7.1c1.7-1.3,3.3-2.8,4.6-4.4c1.4-1.6,2.5-3.3,3.6-5c4.3-7.1,5.9-15.9,4.3-24.1
							c-0.8-4.3-2.6-8.4-5.1-11.9c-2.5-3.6-5.7-6.6-9.3-9c-3.2-2.1-6.8-3.7-10.5-4.7c-3.7-1-7.6-1.3-11.5-1
							C211,1.6,205,3.5,199.5,6.6c-5.9,3.3-11.1,7.6-15.7,12.4c-4.1,4.4-6.2,7.2-9.6,12c-1.9,2.7-4,6.1-5.8,9.6
							c-1.9,3.5-3.5,7.1-4.8,10.1c-2.4,5.8-4.1,11.8-5.7,17.9l-0.6,2.6l2.2,0.4l0.3-1.9l-2.2-0.2l0,0.8l0,0.4l0,0.1c0,0,0,0.1,0,0.1
							l-0.1,0c-0.3,0.1-0.5,0.1-0.8,0.2c-0.3,0.1-0.5,0.1-0.8,0.2c-0.5,0.1-0.9,0.3-1.3,0.5c-0.8,0.4-1.4,0.7-1.9,1
							c-1,0.7-1.6,1.2-2.2,1.8c-0.6,0.6-1.1,1.1-1.9,2.1c-0.7,1-1.7,2.3-2.6,4.5c-0.1,0.2-1,2.4-1.3,5.4c-0.3,2.9,0.2,6.4,0.9,8.5
							c0.3,1.1,0.7,2.1,1.2,3.1c0.4,1,0.9,1.9,1.2,2.9c0.8,1.9,1.4,3.9,1.8,5.9c0.1,0.5,0.2,1.2,0.4,2c0.1,0.4,0.1,0.8,0.2,1.3
							c0,0.2,0.1,0.5,0.1,0.7c0,0,0,0.1,0,0.2c-0.1,0.1-0.2,0.2-0.3,0.2c-0.2,0.2-0.5,0.4-0.7,0.6c-0.4,0.4-0.9,0.8-1.4,1.3
							c-0.9,0.9-1.8,1.9-2.5,3c-1.5,2.2-2.6,4.6-3.3,6.7c-0.7,2.1-1.2,3.9-1.5,4.9c-0.3,1.2-0.6,2.4-0.8,3.5
							c-0.3,1.2-0.5,2.3-0.8,3.6c-0.4,2.4-0.6,4.9-0.5,7.4c0.2,4.5,1.3,8.8,3.2,12.7c1,2,2.1,3.8,3.4,5.5l1,1.3l0.3,0.4
							c0,0.1,0.1,0.1,0.1,0.2c0,0.1-0.1,0.1-0.1,0.2l-0.5,0.5c-0.4,0.4-0.8,0.8-1.2,1.2c-3.7,3.9-6.1,9-6.9,14.3
							c-0.1,0.4-0.1,0.9-0.2,1.4c0,0.5-0.1,1-0.1,1.5c-0.1,3,0.4,6.7,1.8,10.5c1.4,3.7,3.7,7.4,6.5,10.2c2.8,2.9,6,5,8.8,6.3
							c2.8,1.4,5.1,2,6.2,2.3c3.2,0.9,6,1.2,8.7,1.2c2.7,0,5.3-0.5,8-1.2C178.7,210.4,179.3,208.4,177,209z"/>
					</g>
				</g>
			</g>
		</g>
		<g>
			<g>
				<path class="st9" d="M179.3,127.4"/>
			</g>
		</g>
		<g>
			<g>
				<g>
					<g>
						<path class="st8" d="M177.9,127c-0.5,0.7-1.4,1.4-2.3,1.7c-0.5,0.2-2.2,0.5-3.7,0c-1.5-0.4-2.5-1.7-2.8-2.1
							c-0.3-0.4-0.7-0.9-1-1.5c-0.3-0.6-0.5-1.2-0.5-1.7c0-0.3,0-0.4,0-0.5c0-0.1,0-0.1,0-0.2c0.1-0.6,0.2-1.2,0.3-1.9
							c0.1-0.6,0.1-1.2,0-1.9c-0.1-0.7-0.3-1.3-0.6-1.9c-0.7-1.3-2.2-2.6-3.4-3.8c-0.6-0.6-1.2-1.2-1.5-1.8
							c-0.4-0.6-0.5-1.1-0.6-1.6c-0.2-0.6-0.3-1.3-0.4-2c0-0.4-0.1-0.8-0.1-1.2c0-0.1,0-0.4,0-0.6c0.1-0.7,0.1-1.4,0.2-2
							c0.2-0.7,0.5-1.2,0.8-1.6c0.3-0.4,0.7-0.7,1.3-1.2c0.8-0.7,2.1-1.2,3.3-1.5c1.2-0.2,2.7,0,3.8,0.3l0.5,0.1l0.2,0.1l0.1,0l0,0
							c0.1,0,0.2,0,0.1,0.1l0,0.1l0.1,0.5c0,0.3,0.1,0.6,0.1,1c0.2,1.2,0.2,2.5,0.4,3.7c0.1,0.5,0.2,1.2,0.4,1.9
							c0.2,0.7,0.5,1.5,0.9,2.2c0.7,1.5,1.3,2.8,1.5,3.6c0.2,0.7,0.4,1.2,0.5,1.8c0.1,0.3,0.1,0.5,0.1,0.8c0,0.3,0.1,0.7,0.1,1
							c0.2,1.2,0.5,2.4,0.8,4c0.4,2,0.4,3,0.7,5c0,0.3,0.2,1.9,0.9,1.5c0.1,0,1.3-0.3,1.3-0.4c-0.1-0.6-0.3-1.6-0.4-2.3
							c-0.2-1.6-1-3.3-1.1-4.9c-0.1-0.8-0.1-1.7-0.2-2.5c0-0.4-0.1-0.8,0-1.2c0-0.4,0-0.9-0.1-1.4c-0.3-2-1.2-3.7-2-5.2
							c-0.7-1.4-1.6-2.6-1.7-4c-0.2-1.2,0.1-2.4,0-3.7c0-0.4-0.1-0.7-0.1-1.1c0-0.2-0.1-0.4-0.1-0.5c0-0.2-0.1-0.6-0.2-0.9l-0.1-0.4
							l-0.1-0.2c-0.1,0-0.2,0-0.2-0.1l-0.9-0.2c-0.3-0.1-0.5-0.1-0.7-0.1l-0.5-0.1c-1.3-0.1-2-0.2-3.3-0.3c-1.6-0.1-3.6,0.4-5,1.1
							c-1.3,0.7-2.4,2-2.9,3.4c-0.2,0.6-0.4,1.2-0.4,1.8c-0.1,1-0.1,1.4-0.1,1.7c0,0.3,0,0.6,0,1.6c0,0-0.1,0.5-0.1,1.2
							c-0.1,0.6,0,1.4,0.1,1.9c0.3,1,0.9,2,1.7,2.6c0.3,0.4,1.1,1.2,1.9,1.9c0.8,0.7,1.5,1.4,1.7,1.7c0.6,0.7,1,1.4,1,2.1
							c0.1,0.6,0,1.3,0,2.2c-0.1,0.9,0,2,0.2,3c0.2,1.2,0.7,2.4,1.4,3.4c0.1,0.2,0.3,0.4,0.4,0.5c0.5,0.5,1.1,1,1.9,1.5
							c0.8,0.4,1.7,0.7,2.6,0.9c1.8,0.3,3.4-0.2,3.9-0.3c1.5-0.3,2.5-1,3.2-2.1C179.4,128,178.1,126.7,177.9,127z"/>
					</g>
				</g>
			</g>
		</g>
		<g>
			<g>
				<g>
					<g>
						<path class="st8" d="M245.6,134.2c-1.2,1.1-2.7,2.4-4.1,3.2c-0.9,0.5-3.5,1.8-6.2,2.5c-2.7,0.8-5.6,1.1-6.6,1.3
							c-1.8,0.2-4.7,0.6-6.5,0.4c-0.5,0-0.8,0-1-0.1c-0.1,0-0.3,0-0.4-0.1c-1-0.1-2-0.3-3.1-0.4c-1.7-0.3-3.3-0.6-5-1.1
							c-1.8-0.5-4.6-1.4-7.4-2.4c-1.8-0.6-3.5-1.3-5.2-1.8l-0.2-0.1l-0.1,0c0,0,0,0.1,0,0.1l-0.1,0.5c-0.1,0.3-0.2,0.6-0.3,0.9
							c-0.1,0.3-0.2,0.6-0.3,0.9c0,0.2-0.1,0.4-0.1,0.6c-0.2,0.6-0.3,1.1-0.4,1.6c-0.2,1.3-0.3,2.6-0.4,3.9c0,0.7,0,1.4,0,2.1
							c0,0.2,0,0.8,0,1c-0.1,1.3,0.1,2.5,0.2,3.7c0.1,1.4,0.2,2.4,0.3,3.4c0.1,1,0.2,2,0.7,3.5c0.3,1,0.9,2.1,1.6,3.2
							c0.8,1,1.8,1.9,2.8,2.6c2.1,1.4,4.3,2.3,6.2,3.1c2,0.8,4.5,1.4,6.7,1.5c2.1,0.1,4.2,0.1,6.2-0.3c1.5-0.2,4.2-0.8,6.6-2.1
							c2.4-1.2,4.4-3.1,5.4-4.3c1.7-2.1,2.7-3.9,3.4-5.8c0.8-1.9,1.3-3.8,2-6.3c0.8-3.2,1.1-4.8,1.5-8.1c0.1-0.5,0.5-2.9-0.2-2.7
							c-0.1,0-1.3-0.2-1.3-0.1c-0.2,1.1-0.3,2.7-0.5,3.8c-0.4,2.6-0.5,5.6-1.3,8c-0.9,2.6-1.9,5-3.3,7.2c-1.5,2.3-3.3,4.4-5.6,5.9
							c-2,1.3-4.2,2.4-6.6,2.8c-2,0.3-3.9,0.1-5.9-0.1c-2.1-0.2-4.3-0.5-6.4-1.1c-1.9-0.6-3-1-4.6-2c-0.9-0.6-1.9-1.3-2.7-2.2
							c-0.8-0.9-1.3-1.9-1.6-2.9c-0.6-1.8-1-3.9-1.2-5.9c-0.1-0.8-0.2-1.7-0.2-2.5c-0.1-1.5-0.1-2-0.2-2.5c0-0.5-0.1-1,0.1-2.5
							c0-0.1,0.7-3,1-4.3c0.1-0.3,0.1-0.7,0.2-1c0-0.1,0.1-0.4,0.1-0.4c0,0,0,0,0,0c-0.1-0.1,0.1-0.1,0.3-0.1
							c1.2,0.3,6.5,2.2,7.9,2.6c1.6,0.5,3.1,1,4.7,1.4c2.9,0.8,5.8,0.7,8.8,0.8c1.8,0.1,3.6,0,5.4-0.1c0.3,0,0.7-0.1,1-0.1
							c2-0.3,4.9-1,7.4-2c2.5-0.9,4.7-2.1,5.4-2.4c2.1-0.9,3.3-1.9,4.6-3.4C247.1,135.2,246.1,133.6,245.6,134.2z"/>
					</g>
				</g>
			</g>
		</g>
		<g>
			<g>
				<g>
					<g>
						<path class="st10" d="M215,174.5c-0.3,0.1-0.7,0.2-1,0.2c-0.2,0-0.8-0.1-1.3-0.1c-0.5-0.1-1.1-0.2-1.3-0.2
							c-0.3-0.1-0.9,0.2-1.3,0.1c-0.1,0-0.2,0-0.2,0c0,0,0,0-0.1,0c-0.2-0.1-0.4-0.1-0.6-0.1c-0.3,0-0.6-0.1-1-0.2
							c-0.7-0.1-2.1-0.7-2.8-0.9c-0.2-0.1-0.5,0-0.7,0c-0.1,0-0.3,0-0.4,0c0,0-0.1,0-0.2-0.1c-0.2-0.1-0.4-0.1-0.7-0.2
							c-0.5-0.1-0.6-0.5-1.1-0.7c-0.7-0.2-1.7-0.6-2.3-1.1c-0.3-0.3-0.6-0.6-1-0.7c-0.4-0.1-0.7-0.4-1-0.6c-0.5-0.3-1.3-1.4-1.7-1.8
							c-0.7-0.6-1.3-0.7-1.8-1.5c-0.3-0.5-0.3-0.8-0.4-1.3c0-0.1,0.2-0.5-0.5-0.3c-0.1,0-1.3,0.4-1.3,0.4c-0.1,0.3,0.1,0.6,0.1,0.9
							c0.1,0.6,0.8,1,1,1.5c0.2,0.5,0.6,1,1,1.5c0.4,0.4,0.8,0.8,1.3,1.2c0.4,0.3,0.9,0.5,1.3,0.9c0.3,0.3,0.5,0.8,0.8,1
							c0.4,0.3,0.9,0.3,1.3,0.5c0.4,0.1,0.6,0.2,0.9,0.5c0.4,0.3,0.8,0.7,1.2,1c0.3,0.3,0.8,0.4,1.2,0.5c0.2,0.1,0.3,0.1,0.5,0.1
							c0.6,0.2,0.5-0.1,1,0.2c0,0,0.5,0.6,0.8,0.6c0.3,0.1,0.6,0.1,0.9,0c0.3,0,1.4,0.3,1.6,0.4c0.3,0.1,0.6,0.2,0.9,0.4
							c0.6,0.3,1.2-0.1,1.8-0.1c0.4,0,0.7,0.1,1.1,0.2c0.1,0,0.1,0,0.2,0c0.8-0.1,2.4-0.4,2.7-0.2c0.5,0.2,0.8,0.1,1.1-0.1
							C215.3,176.2,215.2,174.4,215,174.5z"/>
					</g>
				</g>
			</g>
		</g>
		<g>
			<g>
				<g>
					<g>
						<path class="st10" d="M204.5,180c-0.2,0-0.4,0.1-0.5,0.1c-0.2-0.1-1.1-0.5-1.3-0.6c-0.2-0.1-0.5,0.1-0.7,0.1c0,0-0.1,0-0.1,0
							c0,0,0,0,0,0c-0.1-0.1-0.2-0.1-0.3-0.1c-0.2,0-0.3-0.1-0.5-0.1c-0.4-0.1-1-0.6-1.4-0.7c-0.1,0-0.3,0-0.4,0.1
							c-0.1,0-0.2,0-0.2,0.1c0,0-0.1,0-0.1,0c-0.1-0.1-0.2,0-0.4-0.1c-0.3,0-0.3-0.3-0.5-0.4c-0.4-0.1-1-0.1-1.2-0.5
							c-0.1-0.2-0.3-0.3-0.5-0.3c-0.2,0-0.4-0.1-0.6-0.2c-0.3-0.1-0.7-0.8-0.9-0.9c-0.4-0.3-0.9-0.1-1.3-0.4
							c-0.3-0.2-0.3-0.4-0.5-0.7c0,0,0-0.4-0.5,0.2c-0.1,0.1-0.8,1-0.8,1c0,0.2,0.1,0.3,0.2,0.4c0.1,0.3,0.6,0.2,0.8,0.4
							c0.2,0.3,0.4,0.5,0.6,0.7c0.2,0.2,0.5,0.3,0.8,0.5c0.2,0.1,0.6,0.1,0.8,0.3c0.2,0.1,0.2,0.5,0.4,0.6c0.2,0.1,0.5,0,0.8,0
							c0.2,0,0.4,0,0.5,0.2c0.2,0.2,0.4,0.5,0.6,0.7c0.2,0.2,0.4,0.2,0.6,0.2c0.1,0,0.2,0,0.3,0c0.3,0.1,0.3-0.2,0.6,0.1
							c0,0,0.2,0.5,0.3,0.5c0.1,0.1,0.3,0,0.5-0.1c0.2-0.1,0.7,0.2,0.8,0.2c0.2,0.1,0.3,0.2,0.4,0.3c0.3,0.2,0.7-0.2,1-0.1
							c0.2,0.1,0.3,0.2,0.5,0.2c0,0,0.1,0,0.1,0c0.4,0,1.3-0.1,1.4,0.1c0.2,0.3,0.4,0.3,0.6,0.1C204.4,181.8,204.6,180,204.5,180z"
							/>
					</g>
				</g>
			</g>
		</g>
		<g>
			<g>
				<g>
					<g>
						<path class="st8" d="M239.3,149.5c-0.5,0-1.1,0.1-1.6,0c-0.6-0.1-3.5-0.6-4.1-0.6c-0.6-0.1-1.5,0.1-2,0.1c-0.2,0-0.2,0-0.3,0
							c0,0-0.1,0-0.1,0c-0.3-0.1-0.6-0.1-0.9-0.1c-0.5,0-1-0.1-1.6-0.1c-1.1-0.1-3.6-0.4-4.7-0.4c-0.4,0-0.8,0.1-1.1,0.1
							c-0.2,0-0.4,0.1-0.6,0.1c-0.1,0-0.2,0-0.3,0c-0.4-0.1-0.7,0-1.1,0c-0.8,0.1-1.2-0.3-2-0.2c-1.2,0-2.8,0.2-4,0
							c-0.6-0.1-1.4-0.2-2-0.1c-0.6,0.1-1.2,0.1-1.8,0.1c-0.9,0-3.1-0.4-4-0.4c-1.5,0-2.3,0.4-3.9,0.4c-1,0-1.4-0.2-2.4-0.3
							c-0.2,0-0.9-0.3-0.8,0.4c0,0,0,0.4,0,0.7c0,0.3,0,0.6,0,0.6c0.3,0.1,0.8,0.1,1.2,0.2c0.8,0.2,1.7-0.3,2.5-0.1
							c0.8,0.1,1.6,0.2,2.5,0.2c0.9,0,1.7,0,2.6,0c0.8,0,1.5-0.2,2.3-0.1c0.6,0.1,1.2,0.3,1.8,0.3c0.7,0,1.3-0.2,2-0.3
							c0.6-0.1,1-0.1,1.6,0c0.7,0.1,1.6,0.3,2.2,0.4c0.6,0.1,1.3,0,1.9,0c0.3,0,0.5,0,0.8,0c0.9,0,0.6-0.2,1.5-0.1
							c0,0,0.9,0.4,1.3,0.4c0.4,0,0.9-0.1,1.3-0.2c0.4-0.1,2.1,0.1,2.5,0.1c0.5,0,1,0.1,1.4,0.3c0.9,0.2,1.7-0.2,2.6-0.1
							c0.5,0,1,0.1,1.6,0.2c0.1,0,0.2,0,0.3,0c1.2,0,3.5-0.1,4,0.1c0.6,0.3,1.1,0.3,1.7,0.1C239.3,151.3,239.5,149.5,239.3,149.5z"
							/>
					</g>
				</g>
			</g>
		</g>
		<g>
			<g>
				<g>
					<g>
						<path class="st8" d="M207.9,148.3c0-0.1-0.1-0.3-0.1-0.4c0.1-0.1,0.4-0.7,0.5-0.9c0-0.1-0.2-0.3-0.2-0.5c0,0,0-0.1,0-0.1l0,0
							c0-0.1,0.1-0.1,0.1-0.2c0-0.1,0-0.2,0-0.3c0.1-0.2,0.3-0.8,0.3-1c0-0.1-0.1-0.2-0.2-0.3c0,0-0.1-0.1-0.1-0.1c0,0,0,0,0-0.1
							c0.1-0.1,0-0.2-0.1-0.2c-0.1-0.2,0.2-0.3,0.2-0.4c-0.1-0.3-0.3-0.6-0.1-0.9c0.1-0.1,0.2-0.3,0-0.4c-0.1-0.1-0.1-0.3-0.1-0.4
							c0-0.2,0.3-0.7,0.3-0.9c0-0.3-0.4-0.5-0.5-0.8c0-0.2,0.1-0.3,0.2-0.6c0,0,0.3-0.2-0.4-0.1c-0.1,0-1.3,0.1-1.3,0.1
							c-0.1,0.1-0.1,0.2-0.2,0.3c-0.2,0.2,0.3,0.3,0.2,0.5c-0.1,0.2-0.2,0.4-0.2,0.5c0,0.2,0,0.4,0,0.5c0,0.2,0.2,0.3,0.2,0.5
							c0,0.1-0.3,0.3-0.3,0.4c0,0.1,0.2,0.3,0.3,0.4c0.1,0.1,0.1,0.2,0.1,0.3c-0.1,0.1-0.3,0.3-0.4,0.5c-0.1,0.1,0,0.3,0,0.4
							c0,0.1,0,0.1,0.1,0.2c0,0.2,0.3,0.1,0.1,0.3c0,0-0.4,0.2-0.4,0.3c0,0.1,0.1,0.2,0.2,0.3c0.1,0.1,0,0.4,0,0.5
							c0,0.1-0.1,0.2-0.2,0.3c-0.2,0.2,0.3,0.4,0.2,0.6c0,0.1-0.1,0.2-0.1,0.3c0,0,0,0,0,0.1c0.1,0.3,0.3,0.8,0.1,0.8
							c-0.3,0.1-0.2,0.2,0,0.3C206.1,148.1,207.9,148.4,207.9,148.3z"/>
					</g>
				</g>
			</g>
		</g>
		<g>
			<g>
				<g>
					<g>
						<path class="st8" d="M231.4,149.9c0-0.1-0.2-0.2-0.1-0.3c0.1-0.1,0.4-0.6,0.5-0.8c0-0.1-0.2-0.3-0.2-0.4c0,0,0,0,0-0.1l0,0
							c0-0.1,0.1-0.1,0.1-0.2c0-0.1,0-0.2,0-0.3c0.1-0.2,0.3-0.7,0.3-0.9c0-0.1-0.1-0.2-0.2-0.2c0,0-0.1-0.1-0.1-0.1c0,0,0,0,0-0.1
							c0.1-0.1,0-0.1-0.1-0.2c-0.1-0.2,0.2-0.2,0.2-0.4c-0.1-0.2-0.3-0.6-0.1-0.8c0.1-0.1,0.2-0.3,0-0.4c-0.1-0.1-0.1-0.2-0.1-0.3
							c0-0.2,0.3-0.6,0.3-0.8c0-0.3-0.4-0.4-0.5-0.7c0-0.2,0.1-0.3,0.2-0.5c0,0,0.3-0.2-0.4-0.1c-0.1,0-1.3,0.1-1.3,0.1
							c-0.1,0.1-0.1,0.2-0.2,0.2c-0.2,0.2,0.3,0.3,0.2,0.4c-0.1,0.2-0.2,0.3-0.2,0.5c0,0.2,0,0.3,0,0.5c0,0.1,0.2,0.3,0.2,0.4
							c0,0.1-0.3,0.2-0.3,0.3c0,0.1,0.2,0.2,0.3,0.4c0.1,0.1,0.1,0.2,0.1,0.3c-0.1,0.1-0.3,0.3-0.4,0.4c-0.1,0.1,0,0.2,0,0.3
							c0,0,0,0.1,0.1,0.1c0,0.2,0.3,0.1,0.1,0.3c0,0-0.4,0.2-0.4,0.2c0,0.1,0.1,0.2,0.2,0.2c0.1,0.1,0,0.4,0,0.5
							c0,0.1-0.1,0.2-0.2,0.3c-0.2,0.1,0.3,0.3,0.2,0.5c0,0.1-0.1,0.2-0.1,0.3c0,0,0,0,0,0.1c0.1,0.2,0.3,0.7,0.1,0.7
							c-0.3,0.1-0.2,0.2,0,0.3C229.7,149.7,231.5,150,231.4,149.9z"/>
					</g>
				</g>
			</g>
		</g>
		<g>
			<g>
				<g>
					<g>
						<path class="st8" d="M219.8,149.2c0-0.1-0.2-0.2-0.1-0.3c0.1-0.1,0.4-0.5,0.4-0.6c0-0.1-0.2-0.3-0.2-0.4c0,0,0,0,0,0l0,0
							c0,0,0.1-0.1,0.1-0.2c0-0.1,0-0.2,0-0.3c0.1-0.2,0.3-0.6,0.3-0.8c0-0.1-0.1-0.1-0.2-0.2c0,0-0.1-0.1-0.1-0.1c0,0,0,0,0,0
							c0.1-0.1,0-0.1-0.1-0.2c-0.1-0.1,0.2-0.2,0.2-0.3c-0.1-0.2-0.3-0.5-0.1-0.7c0.1-0.1,0.2-0.2,0-0.3c-0.1-0.1-0.1-0.2-0.1-0.3
							c0-0.1,0.3-0.5,0.3-0.7c0-0.3-0.4-0.4-0.5-0.6c0-0.2,0.1-0.3,0.2-0.4c0,0,0.3-0.2-0.4-0.1c-0.1,0-1.3,0.1-1.3,0.1
							c-0.1,0.1-0.1,0.1-0.2,0.2c-0.2,0.1,0.3,0.2,0.2,0.4c-0.1,0.1-0.2,0.3-0.2,0.4c0,0.1,0,0.3,0,0.4c0,0.1,0.2,0.2,0.2,0.3
							c0,0.1-0.3,0.2-0.3,0.3c0,0.1,0.2,0.2,0.3,0.3c0.1,0.1,0.1,0.1,0.1,0.2c-0.1,0.1-0.3,0.2-0.4,0.3c-0.1,0.1,0,0.2,0,0.3
							c0,0,0,0.1,0.1,0.1c0,0.1,0.3,0.1,0.1,0.2c0,0-0.4,0.1-0.4,0.2c0,0.1,0.1,0.1,0.2,0.2c0.1,0.1,0,0.3,0,0.4
							c0,0.1-0.1,0.1-0.2,0.2c-0.2,0.1,0.3,0.3,0.2,0.4c0,0.1-0.1,0.2-0.1,0.2c0,0,0,0,0,0c0.1,0.2,0.3,0.6,0.1,0.6
							c-0.3,0.1-0.2,0.1,0,0.3C218.1,149,219.9,149.3,219.8,149.2z"/>
					</g>
				</g>
			</g>
		</g>
		<g>
			<g>
				<g>
					<g>
						<path class="st8" d="M233.6,160c-0.4-0.4-0.8-0.7-1.2-1c-0.2-0.2-0.8-0.8-1.5-1.3c-0.3-0.3-0.7-0.5-1-0.7
							c-0.3-0.2-0.6-0.3-0.7-0.4c-0.5-0.2-1.4-0.2-1.9-0.3c-0.1,0-0.2,0-0.3,0c0,0-0.1,0-0.1,0c-0.3-0.1-0.6-0.1-0.9-0.2
							c-0.5,0-1,0-1.5,0c-0.5,0-1.4,0-2.3,0.2c-0.9,0.2-1.7,0.5-2.2,0.7c-0.3,0.2-0.6,0.5-0.9,0.7c-0.2,0.1-0.3,0.3-0.4,0.5
							c0,0-0.2,0.1-0.2,0.2c-0.3,0.2-0.5,0.5-0.6,0.6c-0.1,0.1-0.2,0.1-0.2,0c-0.1-0.1-0.1-0.2-0.1-0.2c-0.4-0.3-1-0.8-1.5-1.2
							c-0.6-0.4-1.2-0.7-1.6-1c-0.5-0.3-1.2-0.6-1.8-0.7c-0.6,0-1.2-0.1-1.7-0.2c-0.4,0-1.2-0.1-1.9-0.1c-0.8,0-1.5,0.2-1.9,0.3
							c-1.4,0.6-1.9,1.3-3,2.2c-0.7,0.6-1.1,0.8-1.8,1.5c-0.1,0.1-0.7,0.6-0.1,0.9c0,0,0.3,0.2,0.6,0.4c0.3,0.2,0.6,0.3,0.6,0.3
							c0.2-0.2,0.5-0.5,0.7-0.6c0.5-0.4,0.7-1.2,1.3-1.5c0.6-0.3,1.2-0.6,1.7-0.9c0.6-0.3,1.2-0.5,1.9-0.6c0.6-0.1,1.1-0.3,1.8-0.3
							c0.5,0.1,0.9,0.4,1.4,0.5c0.5,0.1,1,0.1,1.6,0.2c0.5,0.1,0.7,0.2,1.1,0.5c0.4,0.3,0.8,1,1.1,1.4c0,0.1,0.1,0.1,0.1,0.2
							c0.1,0.1,0.2,0.2,0.3,0.3c0.2,0.2,0.4,0.3,0.7,0.4c0.5,0.2,1,0.2,1.5,0c0.4-0.1,0.8-0.5,0.9-0.6c0.3-0.3,0.3-0.4,0.4-0.5
							c0.1-0.1,0.1-0.2,0.5-0.4c0,0,0.8-0.1,1.1-0.2c0.3-0.1,0.5-0.4,0.8-0.6c0.3-0.3,1.6-0.4,1.9-0.4c0.4,0,0.8,0.1,1.1,0.1
							c0.7,0.2,1.3-0.2,2-0.1c0.4,0.1,0.8,0.3,1.2,0.4c0.1,0,0.1,0,0.2,0.1c0.4,0.1,1.1,0.3,1.7,0.6c0.5,0.3,1,0.7,1.1,0.9
							c0.2,0.5,0.4,0.8,0.9,1C232.3,161.1,233.8,160.1,233.6,160z"/>
					</g>
				</g>
			</g>
		</g>
		<g>
			<g>
				<g>
					<g>
						<path class="st10" d="M229.1,27.5c0.1,0.6,0.2,1.3,0.1,1.9c0,0.4-0.2,1.4-0.4,2.4c-0.2,1-0.5,2-0.6,2.4
							c-0.2,0.6-0.2,1.7-0.4,2.3c-0.1,0.2-0.1,0.3-0.1,0.3c0,0,0,0.1-0.1,0.1c-0.1,0.3-0.3,0.7-0.4,1c-0.2,0.6-0.4,1.1-0.7,1.7
							c-0.5,1.2-2,3.6-2.8,4.7c-0.2,0.4-0.4,0.8-0.6,1.2c-0.1,0.2-0.2,0.5-0.3,0.7c0,0.1-0.2,0.2-0.2,0.3c-0.3,0.3-0.5,0.7-0.8,1
							c-0.6,0.8-1.1,0.9-1.7,1.7c-0.9,1.1-2.1,2.7-3.2,3.7c-0.6,0.5-1.2,1.1-1.6,1.8c-0.4,0.6-0.9,1.2-1.3,1.8
							c-0.3,0.5-0.9,1.2-1.5,2c-0.5,0.8-1,1.7-1.2,2.2c-0.4,0.9-0.5,1.7-0.6,2.4c-0.1,0.8-0.1,1.5-0.2,2.5c-0.1,1.3-0.2,1.9-0.1,3.2
							c0,0.2,0,1.2,0.7,0.9c0,0,0.4-0.1,0.7-0.2c0.3-0.1,0.6-0.2,0.6-0.2c0-0.4-0.1-0.9-0.1-1.3c0-0.9-0.4-1.9-0.2-2.8
							c0.2-0.9,0.5-1.8,0.8-2.7c0.3-0.9,0.7-1.8,1.2-2.7c0.4-0.8,0.7-1.6,1.3-2.3c0.4-0.6,1.1-1,1.6-1.5c0.5-0.6,0.9-1.3,1.3-2
							c0.4-0.6,0.7-0.9,1.2-1.4c0.6-0.5,1.5-1.2,2.1-1.8c0.6-0.5,1-1.1,1.5-1.7c0.2-0.3,0.4-0.5,0.6-0.8c0.7-0.9,0.3-0.8,1.1-1.6
							c0,0,1-0.7,1.3-1.2c0.3-0.5,0.5-1,0.7-1.5c0.2-0.5,1.2-2.3,1.4-2.7c0.3-0.6,0.6-1.1,0.9-1.6c0.6-1,0.4-2.1,0.8-3.2
							c0.2-0.6,0.4-1.2,0.6-1.9c0-0.1,0-0.2,0.1-0.4c0.2-1.4,0.3-4.4,0.5-4.9c0.3-0.8,0.2-1.4,0-2.1
							C230.9,27.3,229.1,27.2,229.1,27.5z"/>
					</g>
				</g>
			</g>
		</g>
		<g>
			<g>
				<g>
					<g>
						<path class="st10" d="M209,40.7c0.1,0.3,0.4,0.6,0.3,0.9c0,0.2,0,0.8-0.2,1.3c-0.1,0.5-0.4,1.1-0.4,1.2
							c-0.1,0.3-0.1,1-0.3,1.3c0,0.1-0.1,0.1-0.1,0.2c0,0,0,0,0,0.1c-0.1,0.2-0.2,0.4-0.3,0.5c-0.2,0.3-0.3,0.6-0.5,0.9
							c-0.4,0.7-1.6,2-2,2.7c-0.1,0.2-0.2,0.5-0.3,0.8c0,0.2-0.1,0.3-0.1,0.5c0,0-0.1,0.1-0.1,0.2c-0.2,0.2-0.2,0.5-0.3,0.8
							c-0.2,0.6-0.6,0.7-0.8,1.3c-0.3,0.9-0.5,2.1-0.9,2.9c-0.2,0.4-0.4,0.9-0.4,1.4c0,0.5-0.1,0.9-0.2,1.3
							c-0.1,0.7-0.6,2.2-0.6,2.9c0,1.2,0.4,1.8,0.5,2.9c0.1,0.7-0.1,1.1-0.1,1.8c0,0.1-0.2,0.7,0.5,0.5c0,0,0.4-0.1,0.7-0.1
							c0.3-0.1,0.6-0.1,0.6-0.1c0.1-0.2,0-0.6,0.1-0.8c0.1-0.6-0.4-1.1-0.3-1.7c0.1-0.6,0.1-1.2,0.2-1.7c0-0.6,0.1-1.2,0.1-1.8
							c0-0.5-0.1-1.1,0.1-1.6c0.1-0.4,0.5-0.8,0.5-1.2c0.1-0.4,0-0.9,0-1.4c0-0.4,0.1-0.7,0.3-1.1c0.2-0.4,0.6-0.9,0.9-1.3
							c0.3-0.4,0.3-0.8,0.5-1.2c0.1-0.2,0.1-0.3,0.2-0.5c0.3-0.6,0-0.5,0.4-1c0,0,0.6-0.4,0.8-0.6c0.2-0.3,0.2-0.6,0.3-0.9
							c0.1-0.3,0.8-1.3,1-1.5c0.2-0.3,0.5-0.6,0.7-0.8c0.5-0.5,0.4-1.3,0.7-1.9c0.2-0.4,0.4-0.7,0.5-1.1c0-0.1,0-0.1,0-0.2
							c0.1-0.5,0.1-1.2,0.1-1.8c0-0.6,0-1.2,0-1.4c0.2-0.6,0.1-1-0.3-1.4C210.7,40,209,40.6,209,40.7z"/>
					</g>
				</g>
			</g>
		</g>
		<g>
			<g>
				<g>
					<g>
						<path class="st10" d="M203.8,18.8c0.4-0.2,0.9-0.4,1.3-0.5c0.3,0,1-0.1,1.7-0.2c0.7,0,1.5-0.1,1.7-0.1c0.4,0,1.2-0.3,1.6-0.3
							c0.1,0,0.2,0,0.2,0c0,0,0.1,0,0.1,0c0.3,0,0.5,0.1,0.8,0.1c0.4,0.1,0.8,0.1,1.2,0.2c0.4,0.1,1.1,0.4,1.7,0.7
							c0.6,0.3,1.1,0.7,1.5,1c0.2,0.2,0.5,0.3,0.8,0.4c0.1,0.1,0.3,0.2,0.4,0.3c0,0,0.1,0.1,0.1,0.2c0.1,0.3,0.4,0.4,0.6,0.6
							c0.4,0.5,0.3,0.9,0.7,1.5c0.5,0.8,1.1,2.1,1.1,3.1c0,0.5,0,1.1,0.1,1.6c0.1,0.5,0.1,1,0.1,1.5c0,0.8-0.6,2.5-0.7,3.2
							c-0.3,1.2,0,2-0.4,3.3c-0.2,0.8-0.5,1.1-0.9,1.9c-0.1,0.1-0.5,0.6,0.2,0.8c0,0,0.4,0.1,0.7,0.2c0.3,0.1,0.6,0.2,0.6,0.2
							c0.2-0.2,0.4-0.6,0.5-0.9c0.4-0.6,0.2-1.5,0.5-2.1c0.3-0.7,0.6-1.4,0.8-2.1c0.2-0.7,0.3-1.5,0.4-2.3c0.1-0.7,0-1.4,0.1-2.1
							c0.1-0.6,0.4-1.1,0.3-1.7c0-0.6-0.3-1.2-0.5-1.8c-0.2-0.5-0.3-0.8-0.4-1.4c-0.1-0.6-0.2-1.5-0.4-2.1c-0.2-0.6-0.5-1.1-0.9-1.6
							c-0.1-0.2-0.3-0.4-0.5-0.6c-0.6-0.7-0.6-0.3-1.1-1c0,0-0.4-0.9-0.8-1.1c-0.3-0.3-0.8-0.4-1.2-0.5c-0.4-0.1-1.8-0.8-2.2-0.9
							c-0.4-0.1-0.8-0.3-1.3-0.5c-0.8-0.3-1.7,0.1-2.4,0.1c-0.5,0-1-0.1-1.5,0c-0.1,0-0.2,0-0.3,0c-1.1,0.2-3.1,0.9-3.5,0.8
							c-0.6-0.1-1,0.1-1.4,0.4C203.1,17.2,203.6,18.9,203.8,18.8z"/>
					</g>
				</g>
			</g>
		</g>
		<g>
			<g>
				<g>
					<g>
						<path class="st8" d="M221.7,123.5c-0.9-0.2-1.9,0.2-2.5,0.6c-0.2,0.1-0.6,0.3-1,0.7c-0.4,0.4-0.8,0.9-1,1.5
							c-0.5,1.2-0.4,2.5-0.3,3c0.1,0.8,0.9,1.9,1.3,2.5c0.1,0.2,0.2,0.3,0.3,0.3c0,0,0.1,0.1,0.1,0.1c0.3,0.3,0.6,0.6,0.9,0.9
							c0.6,0.4,1.2,0.7,1.8,1c0.7,0.3,1.8,0.7,3,0.8c1.2,0.1,2.3,0,3.1-0.1c0.5-0.1,0.9-0.4,1.4-0.6c0.2-0.1,0.5-0.3,0.7-0.4
							c0.1,0,0.3-0.1,0.3-0.2c0.5-0.2,0.8-0.5,1.2-0.9c0.4-0.4,0.7-0.6,1-0.9c0.3-0.3,0.6-0.6,0.8-1.1c0.4-0.8,0.6-1.7,0.6-2.7
							c0-1-0.2-2-0.5-2.7c-0.3-0.8-0.9-1.6-1.4-2.1c-0.5-0.5-1-1-1.4-1.5c-0.3-0.4-0.7-1.1-1.1-1.9c-0.4-0.8-0.7-1.6-0.9-2
							c-0.7-1.5-1.3-2.3-1.7-4c-0.2-1.1-0.1-1.6-0.1-2.7c0-0.2,0.3-1-0.5-0.9c0,0-0.4,0-0.7,0c-0.3,0-0.6,0-0.6,0
							c-0.1,0.4-0.1,1-0.1,1.4c-0.1,1,0.5,2,0.6,3c0.1,1,0.3,2,0.7,2.9c0.3,1,0.8,1.9,1.3,2.9c0.5,0.8,1.1,1.5,1.6,2.3
							c0.4,0.6,0.7,1.4,1.2,1.9c0.5,0.6,1.1,1,1.5,1.5c0.4,0.5,0.5,0.8,0.5,1.4c0,0.7-0.4,1.5-0.8,2c-0.3,0.5-0.6,1-1,1.4
							c-0.2,0.2-0.4,0.4-0.6,0.5c-0.8,0.5-0.4,0.6-1.3,0.9c0,0-1,0-1.4,0c-0.4,0.1-0.9,0.2-1.3,0.4c-0.2,0.1-0.8,0.1-1.3,0
							c-0.5-0.1-1.1-0.2-1.3-0.3c-0.5-0.2-0.9-0.4-1.3-0.7c-0.6-0.5-1.6-0.7-2-1.4c-0.3-0.4-0.4-0.9-0.5-1.4c0-0.1,0-0.2-0.1-0.3
							c-0.2-0.5-0.2-1.4,0-2.1c0.3-0.7,0.8-1.1,1-1.1c0.6,0,0.8-0.1,1.2-0.2C221.3,125.2,222.1,123.6,221.7,123.5z"/>
					</g>
				</g>
			</g>
		</g>
		<g>
			<g>
				<g>
					<g>
						<path class="st10" d="M229.2,18.8c-0.1-0.2-0.3-0.3-0.3-0.5c0-0.2,0-1.2-0.1-1.4c0-0.2-0.4-0.4-0.5-0.5c0,0,0-0.1,0-0.1
							c0,0,0,0,0,0c0-0.1,0-0.2-0.1-0.3c-0.1-0.2-0.2-0.3-0.2-0.5c-0.1-0.3-0.4-1.1-0.7-1.4c-0.1-0.1-0.3-0.1-0.4-0.2
							c-0.1,0-0.2,0-0.2-0.1c0,0-0.1-0.1-0.1-0.1c0-0.1-0.2-0.1-0.3-0.2c-0.2-0.1-0.1-0.4-0.3-0.6c-0.3-0.2-0.9-0.4-1.1-0.8
							c-0.1-0.2-0.3-0.4-0.5-0.4c-0.2,0-0.4-0.2-0.5-0.3c-0.2-0.2-0.7-0.8-1-0.9c-0.5-0.2-0.9,0-1.3-0.1c-0.3-0.1-0.4-0.3-0.7-0.5
							c0,0-0.2-0.4-0.4,0.3c0,0.1-0.3,1.3-0.3,1.3c0.1,0.1,0.2,0.2,0.3,0.3c0.2,0.2,0.5-0.1,0.7,0.1c0.2,0.2,0.4,0.3,0.6,0.4
							c0.2,0.1,0.4,0.2,0.6,0.3c0.2,0.1,0.5,0,0.6,0.2c0.1,0.1,0.1,0.4,0.3,0.5c0.2,0.1,0.4,0.1,0.6,0.1c0.2,0,0.3,0.1,0.4,0.2
							c0.1,0.2,0.2,0.5,0.2,0.7c0.1,0.2,0.2,0.2,0.4,0.4c0.1,0,0.1,0.1,0.2,0.1c0.2,0.2,0.3-0.1,0.4,0.2c0,0-0.1,0.4-0.1,0.5
							c0.1,0.1,0.2,0.1,0.4,0.1c0.2,0,0.3,0.5,0.4,0.6c0,0.1,0.1,0.3,0,0.4c0,0.3,0.5,0.3,0.6,0.5c0.1,0.1,0,0.3,0.1,0.4
							c0,0,0,0,0,0.1c0.2,0.2,0.7,0.8,0.5,1c-0.2,0.2-0.1,0.3,0.1,0.4C227.4,19.2,229.2,18.9,229.2,18.8z"/>
					</g>
				</g>
			</g>
		</g>
		<g>
			<g>
				<g>
					<g>
						<path class="st10" d="M181.6,57.1c0.2,0.1,0.5,0,0.6,0.2c0.2,0.1,1,1,1.2,1.1c0.2,0.1,0.6,0.1,0.8,0.3c0,0,0.1,0.1,0.1,0.1
							c0,0,0,0,0,0c0.1,0.1,0.2,0.2,0.3,0.3c0.2,0.1,0.3,0.3,0.4,0.4c0.3,0.3,0.8,1.1,1.1,1.5c0.1,0.1,0.3,0.1,0.4,0.2
							c0.1,0,0.2,0.1,0.3,0.1c0,0,0.1,0.1,0.1,0.1c0,0.2,0.2,0.2,0.3,0.3c0.3,0.2,0.1,0.5,0.3,0.7c0.3,0.3,0.8,0.8,0.9,1.3
							c0,0.3,0.1,0.5,0.3,0.7c0.2,0.2,0.3,0.4,0.3,0.6c0.2,0.3,0.1,1.2,0.2,1.6c0.1,0.6,0.6,0.8,0.7,1.4c0.1,0.4-0.1,0.6-0.2,1
							c0,0.1-0.3,0.3,0.4,0.3c0.1,0,1.3-0.1,1.3-0.1c0.1-0.1,0.1-0.4,0.2-0.5c0.2-0.4-0.3-0.7-0.3-1.1c0.1-0.4,0.1-0.8,0-1.1
							c-0.1-0.4-0.2-0.7-0.3-1.1c-0.1-0.3-0.4-0.6-0.5-0.9c-0.1-0.3,0.1-0.6,0-0.9c-0.1-0.3-0.4-0.5-0.7-0.7
							c-0.2-0.2-0.3-0.3-0.4-0.6c-0.1-0.3-0.1-0.7-0.2-1c-0.1-0.3-0.3-0.5-0.5-0.7c-0.1-0.1-0.2-0.2-0.2-0.2
							c-0.3-0.3-0.4-0.1-0.5-0.5c0,0,0-0.5-0.1-0.7c-0.1-0.2-0.3-0.2-0.6-0.3c-0.2-0.1-0.6-0.6-0.8-0.8c-0.1-0.2-0.3-0.4-0.3-0.6
							c-0.2-0.4-0.8-0.3-1.1-0.5c-0.2-0.2-0.3-0.3-0.5-0.5c0,0-0.1,0-0.1-0.1c-0.5-0.2-1.5-0.5-1.6-0.8c-0.1-0.4-0.3-0.4-0.7-0.3
							C182.3,55.5,181.5,57.1,181.6,57.1z"/>
					</g>
				</g>
			</g>
		</g>
		<g>
			<g>
				<g>
					<g>
						<path class="st8" d="M198.5,106c0.1,0.4,0.2,0.8,0.2,1.2c0,0.5,0,2.7,0.1,3.2c0.1,0.4,0.5,1,0.6,1.4c0,0.1,0.1,0.2,0.1,0.2
							c0,0,0,0.1,0,0.1c0.1,0.2,0.1,0.5,0.2,0.7c0.1,0.4,0.3,0.7,0.5,1.1c0.2,0.4,0.5,1.1,0.8,1.7c0.4,0.6,0.8,1.2,1.2,1.5
							c0.2,0.2,0.6,0.3,0.9,0.5c0.2,0.1,0.4,0.1,0.5,0.2c0.1,0,0.2,0.1,0.2,0.1c0.3,0.2,0.6,0.2,0.9,0.2c0.7,0.1,1.1,0.4,1.8,0.2
							c1.1-0.3,2.2-1.2,2.9-1.8c0.4-0.3,0.8-0.7,1-1.2c0.2-0.5,0.4-0.9,0.6-1.3c0.3-0.6,1.2-2.1,1.3-2.8c0.3-1.2,0-1.8,0.1-3
							c0.1-0.7,0.3-1.1,0.4-1.8c0-0.1,0.3-0.7-0.4-0.6c0,0-0.4,0-0.7,0c-0.3,0-0.6,0-0.6,0c-0.1,0.2-0.2,0.6-0.2,0.8
							c-0.2,0.5,0.2,1.2,0,1.7c-0.2,0.6-0.3,1.1-0.5,1.6c-0.2,0.6-0.3,1.1-0.5,1.7c-0.2,0.5-0.2,1-0.4,1.5c-0.2,0.4-0.7,0.6-0.9,0.9
							c-0.2,0.4-0.3,0.8-0.5,1.2c-0.2,0.3-0.3,0.5-0.7,0.7c-0.4,0.2-0.9,0.3-1.3,0.2c-0.3,0-0.6,0.1-0.9,0.1c-0.1,0-0.3,0-0.4,0
							c-0.2,0-0.3,0-0.4,0c-0.1,0-0.2,0-0.4-0.2c0,0-0.2-0.6-0.4-0.8c-0.2-0.1-0.4-0.3-0.7-0.4c-0.1-0.1-0.3-0.3-0.5-0.6
							c-0.2-0.3-0.3-0.6-0.4-0.7c-0.1-0.3-0.2-0.6-0.2-0.9c-0.1-0.6-0.7-0.9-0.9-1.5c-0.1-0.4-0.1-0.7-0.2-1.1c0-0.1,0-0.1-0.1-0.2
							c-0.3-0.7-0.7-2.3-0.5-2.7c0.3-0.5,0.2-0.8,0-1.2C200.3,105.9,198.5,105.8,198.5,106z"/>
					</g>
				</g>
			</g>
		</g>
		<g>
			<g>
				<g>
					<g>
						<path class="st8" d="M226.3,104.6c0.1,0.4,0.2,0.8,0.2,1.1c0,0.4-0.1,2.5,0,3c0,0.4,0.5,1,0.6,1.3c0,0.1,0.1,0.2,0.1,0.2
							c0,0,0,0.1,0,0.1c0,0.2,0.1,0.4,0.2,0.7c0.1,0.4,0.3,0.7,0.4,1c0.2,0.4,0.4,1,0.8,1.6c0.3,0.6,0.8,1.2,1.2,1.4
							c0.2,0.2,0.6,0.3,0.9,0.4c0.2,0.1,0.3,0.1,0.5,0.2c0.1,0,0.2,0.1,0.2,0.1c0.3,0.2,0.6,0.2,0.9,0.2c0.7,0,1,0.3,1.7,0.2
							c1.1-0.3,2-1.2,2.8-1.7c0.4-0.3,0.8-0.7,1-1.1c0.1-0.4,0.4-0.8,0.6-1.2c0.3-0.6,1.1-1.9,1.3-2.6c0.3-1.1,0-1.7,0.1-2.8
							c0-0.7,0.3-1,0.4-1.7c0-0.1,0.3-0.6-0.4-0.6c-0.1,0-1.3,0-1.3,0c-0.1,0.2-0.2,0.5-0.2,0.7c-0.2,0.5,0.2,1.1,0,1.6
							c-0.2,0.5-0.3,1-0.5,1.5c-0.1,0.5-0.3,1-0.4,1.5c-0.1,0.4-0.1,1-0.4,1.4c-0.2,0.3-0.6,0.5-0.8,0.8c-0.2,0.3-0.3,0.7-0.5,1.1
							c-0.2,0.3-0.3,0.5-0.6,0.6c-0.3,0.2-0.9,0.2-1.2,0.2c-0.3,0-0.5,0.1-0.8,0.1c-0.1,0-0.2,0-0.4,0c-0.4-0.1-0.4,0.1-0.8-0.2
							c0,0-0.2-0.6-0.3-0.7c-0.2-0.1-0.4-0.3-0.7-0.4c-0.1,0-0.3-0.3-0.5-0.5c-0.1-0.3-0.3-0.6-0.3-0.7c-0.1-0.3-0.2-0.6-0.2-0.9
							c-0.1-0.5-0.7-0.9-0.8-1.4c-0.1-0.3-0.1-0.7-0.1-1c0-0.1,0-0.1-0.1-0.2c-0.3-0.7-0.7-2.2-0.5-2.5c0.3-0.4,0.2-0.7,0-1.1
							C228.1,104.5,226.2,104.5,226.3,104.6z"/>
					</g>
				</g>
			</g>
		</g>
	</g>
</g>
<g>
	<g>
		<g>
			<path class="st11" d="M16,286.9v-113h42.3c5,0,9.6,0.5,13.7,1.5c4.2,1.1,7.7,2.7,10.7,5s5.2,5.3,6.8,9.1
				c1.6,3.8,2.4,8.3,2.4,13.7c0,5.1-0.7,9.7-2.5,13.7c-1.9,4-5.5,7.2-9.5,9.5v0.3c8,1.1,13.8,4.2,17.4,9.3
				c3.7,5.1,5.4,11.6,5.4,19.5c0,5.9-1.2,10.9-3.6,14.9c-2.4,4.1-5.5,7.3-9.3,9.8s-8.2,4.1-13.1,5.2s-10,1.5-15.2,1.5H16z M46,217.9
				h3c1.9,0,3.8,0.1,5.7-0.2c1.9-0.2,3.6-0.7,5.1-1.4c1.5-0.8,2.7-1.8,3.7-3.3s1.4-3.4,1.4-5.8c0-2.6-0.5-4.6-1.6-6.1
				c-1.1-1.4-2.4-2.5-4.1-3.3c-1.7-0.8-3.5-1.4-5.5-1.6c-2-0.1-4-0.4-6-0.4H46V217.9z M46,264.9h3.5c2.2,0,4.7-0.2,7.4-0.3
				c2.7-0.1,5.3-0.6,7.7-1.3c2.4-0.7,4.4-1.9,6-3.6c1.6-1.7,2.4-4.1,2.4-7.2c0-3.4-0.8-6-2.4-7.7c-1.6-1.7-3.6-3.1-6.1-3.8
				c-2.5-0.7-5.1-1.2-7.9-1.2c-2.8,0-5.4,0-7.8,0H46V264.9z"/>
			<path class="st11" d="M131,261.9h35v25h-65v-113h16.6l13.4,8.3V261.9z"/>
			<path class="st11" d="M195,286.9h-30v-113h30V286.9z"/>
			<path class="st11" d="M194,173.9h17.4l18.7,7.8l47.8,61.2h0.1v-69h30v113h-29.8l-53.9-69H224v65.8l-13,3.2h-17V173.9z"/>
			<path class="st11" d="M307,173.9h42.1c7.9,0,15.4,1.4,22.3,4.3c7,2.9,13,6.9,18.3,12c5.2,5.1,9.3,11.1,12.4,18
				c3.1,6.9,4.6,14.3,4.6,22.2c0,8-1.5,15.4-4.6,22.3s-7.2,12.8-12.4,18c-5.2,5.1-11.3,9-18.3,11.9s-14.4,4.3-22.2,4.3H307V173.9z
				 M337,261.9h6.4c4.4,0,8.6-0.5,12.5-1.8c4-1.3,7.4-3.1,10.4-5.7s5.3-5.8,7.1-9.8c1.8-4,2.6-8.8,2.6-14.3c0-5.1-0.8-9.6-2.4-13.5
				s-3.8-7.2-6.7-9.9c-2.9-2.7-6.3-4.7-10.2-6.1c-4-1.4-8.3-2-13-2H337V261.9z"/>
		</g>
	</g>
	<g>
		<g>
			<path class="st12" d="M2,286.9v-113h42.4c5,0,9.6,0.5,13.8,1.5c4.2,1.1,7.7,2.7,10.7,5s5.2,5.3,6.8,9.1c1.6,3.8,2.4,8.3,2.4,13.7
				c0,5.1-0.8,9.7-2.6,13.7c-1.9,4-5.5,7.2-9.5,9.5v0.3c8,1.1,13.8,4.2,17.5,9.3c3.7,5.1,5.4,11.6,5.4,19.5c0,5.9-1.2,10.9-3.6,14.9
				c-2.4,4.1-5.5,7.3-9.3,9.8s-8.2,4.1-13.1,5.2s-10,1.5-15.2,1.5H2z M32,217.9h3.1c1.9,0,3.8,0.1,5.7-0.2c1.9-0.2,3.6-0.7,5.1-1.4
				c1.5-0.8,2.7-1.8,3.7-3.3s1.4-3.4,1.4-5.8c0-2.6-0.5-4.6-1.6-6.1c-1.1-1.4-2.4-2.5-4.1-3.3c-1.7-0.8-3.5-1.4-5.5-1.6
				c-2-0.1-4-0.4-6-0.4H32V217.9z M32,264.9h3.6c2.2,0,4.7-0.2,7.4-0.3c2.7-0.1,5.3-0.6,7.7-1.3s4.4-1.9,6-3.6
				c1.6-1.7,2.4-4.1,2.4-7.2c0-3.4-0.8-6-2.4-7.7c-1.6-1.7-3.6-3.1-6.1-3.8c-2.5-0.7-5.1-1.2-7.9-1.2c-2.8,0-5.4,0-7.8,0H32V264.9z"
				/>
			<path class="st12" d="M117,261.9h35v25H88v-113h29V261.9z"/>
			<path class="st12" d="M181,286.9h-30v-113h30V286.9z"/>
			<path class="st12" d="M181,173.9h29.1l53.9,69l0,0v-69h30v113h-29.7l-53.9-69H210v69h-29V173.9z"/>
			<path class="st12" d="M293,173.9h42.2c7.9,0,15.4,1.4,22.3,4.3c7,2.9,13,6.9,18.3,12c5.2,5.1,9.3,11.1,12.4,18
				c3.1,6.9,4.6,14.3,4.6,22.2c0,8-1.5,15.4-4.6,22.3s-7.2,12.8-12.4,18c-5.2,5.1-11.3,9-18.3,11.9s-14.4,4.3-22.2,4.3H293V173.9z
				 M323,261.9h6.5c4.4,0,8.6-0.5,12.5-1.8c4-1.3,7.4-3.1,10.4-5.7s5.3-5.8,7.1-9.8c1.7-4,2.6-8.8,2.6-14.3c0-5.1-0.8-9.6-2.4-13.5
				s-3.8-7.2-6.7-9.9c-2.9-2.7-6.3-4.7-10.2-6.1c-4-1.4-8.3-2-13-2H323V261.9z"/>
		</g>
	</g>
	<g>
		<path class="st13" d="M82.9,310.7c-1.3,0-2.2-0.2-2.9-0.6c-0.9-0.5-1.6-1.4-2.1-2.6v-0.2l0,0c0-0.1-0.1-0.6-0.6-2.5l-1.6-5.7
			c-0.8-2.8-1.2-4.7-1.2-5.7c0-0.3,0.2-0.7,0.3-1.2c0.1-0.5,0.2-0.8,0.2-1v-0.3c0-1.3-0.6-6.5-1.3-15.3c0-0.6-0.3-1.8-0.6-3.7
			c-0.2-1.6-0.4-2.9-0.4-3.9c0-5.8,3.5-6.7,5.5-6.7c2.1,0,3.5,1,4.3,2.8c0.5,1.2,0.8,2.8,1,4.6c0,1.5,0.1,3,0.1,4.5
			c0.3,3.4,0.7,7.9,1.3,13.3c0.9-0.4,2.1-0.8,3.5-1.2h0.1c0.5-0.1,1.4-0.4,3.2-1.2c1.2-0.6,2.1-1,2.9-1.2c0-1.1-0.2-2.7-0.3-4.7
			c-0.2-2.5-0.3-4.5-0.3-5.8v-4.1c0-1.2,0-3.1-0.2-5.8c-0.2-2.6-0.2-4.6-0.2-6c0-1.1,0.1-2.7,0.2-5c0.1-2.2,0.2-3.8,0.2-4.8
			c0-3.9,1.9-6,5.5-6c1.4,0,3.3,0.6,4,3.2c0.3,1,0.4,2.5,0.4,4.6c0,1.8-0.1,4.6-0.3,8.1c-0.2,3.5-0.3,6.2-0.3,8
			c0,3.1,0.1,5.9,0.3,8.4c0.3,6.3,1,15.7,2.1,28c1,1.6,1.4,2.9,1.4,4.1c0,1.4-0.7,3.7-5.3,3.7c-4.5,0-5.1-2.8-5.1-4.4
			c0-0.3,0-0.8,0.2-1.5c0.1-0.7,0.1-1.1,0.1-1.3c0-1.2-0.2-3.2-0.6-5.8c-0.3-2-0.6-3.6-0.9-4.8c-1.5,0.5-3.8,1.5-6.9,3
			c-0.5,0.3-1.3,0.7-2.3,1.1l-0.3,0.1c-0.3,0-0.6,0.1-1,0.3c-0.1,0.1-0.2,0.5-0.2,1.5c0,1.7,0.2,3.3,0.7,4.8c0,0.2,0.2,0.8,1.1,3.1
			c0.9,2.4,1,2.9,1,3.3C87.7,310.7,84.2,310.7,82.9,310.7z"/>
		<path class="st13" d="M129.1,322.6c-2.2,0-3.9-0.8-5-2.5c-0.4-0.7-0.8-1.5-1-2.5l-0.4-2.2c-0.4-0.9-0.9-2.3-1.6-4.2V311
			c-0.2-1.1-0.5-2.7-0.8-4.7c-0.7,0.9-1,1.3-1.2,1.5c-1.3,1.3-2.8,1.9-4.3,1.9s-3.2-0.7-5.2-2.1c-2.6-1.9-3.8-6.7-3.8-14.8
			c0-3.7,0.3-7.8,0.9-12.1c0.8-5.7,1.9-9.5,3.3-11.7c0.5-0.8,1.4-1.6,2.5-2.2c1.1-0.6,2.3-0.8,3.3-0.8c0.9,0,1.9,0.3,3.2,0.9
			c0.9,0.4,1.6,0.8,2.2,1.3c0.4-0.2,0.8-0.3,1.3-0.3c1.1,0,2.5,0.6,4.3,1.7l0.3,0.3c0.3,0.5,0.7,1.1,0.7,1.9
			c0.6,0.6,1.1,1.3,1.1,2.2v0.8l-0.2,0.2c0,0.2,0.1,0.3,0.1,0.3l0.1,0.2v0.4c0,5.1,0.1,6,0.1,6.3c0,1.3-0.2,3.3-0.3,6
			c-0.1,2.5-0.2,4.5-0.2,5.8c0,1.8,0.3,4.2,0.9,7.1c0.8,3.9,1.2,6.3,1.4,7.2l0.3,3.4c0.2,1.6,0.6,2.3,0.8,2.5c1,1,1.5,2.3,1.5,3.8
			C133.4,321,131.9,322.6,129.1,322.6z M117.5,276.7c-1.7,3.7-2.5,9-2.5,15.6c0,0.8,0,1.6,0.1,2.4c0.6-1.6,1-2.9,1.2-4.1
			c0.2-2.6,0.4-5.3,0.6-7.9c0.1-0.5,0.2-1.4,0.6-2.7c0.3-1,0.4-1.8,0.4-2.4s-0.1-0.7-0.1-0.8l0,0
			C117.8,276.9,117.8,276.8,117.5,276.7z"/>
		<path class="st13" d="M142.3,311.6c-1.5,0-3.1-0.6-4.7-1.7c-4.7-3-7-7.7-7-14c0-4.2,0.7-9.3,1.9-15.1c1.8-7.9,4.1-12.1,7.1-12.9
			c0.5-0.1,1.1-0.2,1.7-0.2c1.3,0,3.1,0.6,4.1,3.6c0.5,0.5,1.1,1.6,2,4.5c0.8,2.6,1.2,4.3,1.2,5.3c0,2.4-1.1,4.6-3.3,6.6l-1.1,0.1
			c-1.4-0.8-2.3-1.4-2.7-2c-0.1,0.1-0.5,0.2-0.5,0.3v0.1c0,0.4,0.1,0.9,0,1.5c-0.5,2.5-0.6,5.1-0.6,7.6c0,2.6,0.3,7.1,2.2,7.2
			c0.1,0,0.5-0.2,1.5-1c1.2-1,2.6-1.5,4-1.5c2.1,0,3.3,1.2,3.3,3.1c0,0.6-0.1,1.2-0.3,1.9c-0.2,0.5-0.6,1.4-2.6,3.3
			c-1.5,1.4-2.5,2.2-3.2,2.6C144.3,311.3,143.3,311.6,142.3,311.6z"/>
		<path class="st13" d="M161,323c-1.3,0-3.1-0.6-4-3.3c-0.3-0.8-0.5-2.3-0.8-4.7c-0.4-6.5-1.2-16.3-2.4-29.1
			c-0.1-1.1-0.3-4.8-0.3-7.7c-0.1-3.1-0.7-5.6-1.2-7.4l-0.3-0.3v-1.6c0-1.9-0.1-4.6-0.7-8c-0.6-3.7-0.8-6.5-0.9-8.2
			c0-1.6-0.3-3.9-0.9-6.6c-0.7-3.1-1.2-5.3-1.4-6.6c-0.3-0.3-0.5-0.8-0.5-1.4c0-1.4,0.6-2.6,1.7-3.5c1.1-0.9,2.3-1.3,3.6-1.3
			c1.4,0,2.5,0.5,3.2,1.6c0.1,0.2,0.3,0.5,1.2,2.6c0.2,0.3,0.4,1.1,1,3.8c0.6,2.4,1.4,6,2.3,11v0.1c0.1,1.8,0.3,4.6,0.6,8.4
			c0.4,6,1.1,14.6,2,25.9c0.6-1,1.1-2,1.8-3.2c1.9-3.6,3-5.6,3.2-6l0.1-0.1c0.9-1,2-2.7,3.3-5c0.3-0.8,0.8-1.8,1.6-3l0.2-0.2
			c1-0.9,2.3-1.4,3.9-1.4c3.9,0,4.5,2.5,4.5,4c0,0.4-0.1,0.9-0.2,1.4c0.5-1.6,1.1-2.9,1.7-3.9c0.5-0.8,1.4-1.6,2.6-2.2
			c1.1-0.6,2.3-0.8,3.3-0.8c0.9,0,1.9,0.3,3.2,0.9c0.9,0.4,1.6,0.8,2.2,1.3c0.4-0.2,0.8-0.3,1.3-0.3c1.1,0,2.5,0.6,4.3,1.7l0.3,0.3
			c0.3,0.5,0.5,1.1,0.5,1.9c0.6,0.6,0.9,1.3,0.9,2.2v0.8v0.2c0,0.2,0,0.3,0,0.3v0.3v0.4c0,2.6,0.3,5.8,0.3,6.3c0,1.4-0.1,3.4-0.2,6
			c-0.1,2.5-0.2,4.5-0.2,5.8c0,1.8,0.3,4.2,0.9,7.1c0.8,4,1.3,6.3,1.4,7.2c0.1,1.2,0.2,2.3,0.3,3.4c0.2,1.6,0.6,2.3,0.8,2.5
			c1,1,1.5,2.3,1.5,3.8c0,3-1.5,4.6-4.3,4.6c-2.2,0-3.9-0.8-5-2.5c-0.4-0.7-0.8-1.5-1-2.5l-0.4-2.2c-0.4-1-1-2.4-1.6-4.2v-0.2
			c-0.2-1.1-0.5-2.7-0.8-4.7c-0.6,0.7-1,1.2-1.2,1.5c-1.3,1.3-2.8,1.9-4.3,1.9s-3.2-0.7-5.2-2.1c-1.1-0.8-1.9-2.1-2.5-3.9l-4.2,0.1
			c-2.1,0.4-5.2,0.8-9.5,1.3c-0.4,0-1,0.1-1.6,0.2c0,0.2,0,0.6,0,1.2c0,1.6,0.1,2.5,0.2,3c0.8,0.8,1.2,1.9,1.2,3.4
			c0,2-0.3,4-0.9,5.8C164.5,321.6,163,323,161,323z M168.3,296.4c0.8,0.1,1.7,0.1,2.5,0.1c1.9,0,4.1-0.2,6.5-0.5
			c0.7-0.1,1.3-0.1,1.8-0.2c0-0.9-0.1-1.9-0.1-3c0-3.7,0.3-7.8,0.9-12.1c0.4-2.8,0.9-5.2,1.4-7.1c-0.2,0.6-0.5,1.3-1,2.1
			c-0.2,0.4-1.2,2.1-6.8,11C171.2,290.5,169.4,293.8,168.3,296.4z M190.9,276.7c-1.7,3.7-2.5,9-2.5,15.6c0,0.8,0,1.6,0.1,2.4
			c0.6-1.6,1-2.9,1.2-4.1c0.2-2.4,0.4-5,0.6-7.9c0.1-0.5,0.2-1.4,0.6-2.7c0.3-1,0.4-1.8,0.4-2.4s-0.1-0.8-0.1-0.8l0,0
			C191.2,276.9,191.1,276.8,190.9,276.7z"/>
		<path class="st13" d="M262.2,318c-1.6,0-3.7-0.7-5.1-3.9c-1-2.3-1.8-5.1-2.5-8.4c-0.1-0.5-0.6-3.4-1.4-8.6c-0.1-0.5-0.1-0.8-0.1-1
			c0-0.6,0.1-1,0.3-1.3c-0.1-0.5-0.3-1.4-0.4-3c0-0.3-0.1-0.5-0.1-0.7c-0.2,0.6-0.3,1.4-0.5,2.7c-0.9,5.2-1,5.5-1.2,5.8
			c-0.2,0.3-0.5,1.2-1,3.6c-0.4,2.1-0.9,3.5-1.4,4.4c-0.9,1.5-2.3,2.3-4.1,2.3c-1.7,0-3.1-0.6-4.3-1.7c-0.9-0.4-1.8-1.3-1.8-3.3
			c0-0.3,0-0.7,0.1-1.2c0-0.4,0.1-0.8,0.1-1c0-0.4-0.1-2.2-0.6-9c-0.3-3.7-0.5-7.1-0.7-10.2c-1.3,0.6-3.7,1.5-7.1,2.8
			c-0.8,0.4-1.9,1-3.5,1.6l-0.3,0.1c-0.9,0.1-2,0.4-3.4,1c-0.1,0.3-0.2,0.9-0.2,2.5c0,0.5,0,1.2,0.1,2c0.2,0.3,0.4,0.7,0.4,1.2
			c0,0.3-0.1,0.6-0.2,1c-0.1,0.3-0.1,0.4-0.1,0.4c-0.5,6-1,10-1.3,11.9c-0.8,4.2-2.3,9.7-6,9.7c-1.3,0-2.5-0.5-3.7-1.5
			s-1.9-2.2-1.9-3.6c0-1.1,0.6-2.2,1.8-3.3c0,0-0.1-0.2,0.1-0.8c0.8-3,1-5.2,1-6.7v-3.4c0-0.9,0.3-2.2,0.4-4
			c0.1-1.6,0.2-2.9,0.2-3.7c-0.5,0-1,0.1-1.7,0.1c-1.2,0.1-2.1,0.2-2.9,0.2c-6.2,0-7.5-2.7-7.5-5c0-1.8,1.1-4.1,6.1-4.8l6.7-0.5
			c0-0.2,0-0.5,0-0.8c0-0.8-0.1-1.9-0.2-3.3c-0.1-1.7-0.2-2.8-0.2-3.4c-0.3-6.8-0.4-11.7-0.4-14.5c0-6.2,0.4-10.2,1.2-12.4
			c0.5-1.2,1.7-2.6,4.7-2.6c2.2,0,3.9,0.9,5.1,2.7c1,1.5,1.4,3.3,1.4,5.5c0,1-0.1,1.9-0.2,2.8l-0.1,0.3c-0.2,0.4-0.6,1.3-1.1,3.1
			c0,2.3-0.2,5.7-0.4,10.3c-0.1,0.6-0.2,2.3-0.5,4.8c-0.2,1.9-0.4,3.4-0.4,4.6c0,0.5,0,1,0.1,1.4c3.3-0.4,6.1-1.2,8.4-2.3
			c1.8-0.8,3.7-1.3,5.4-1.5c-0.1-1.8,0-3.6,0-5.4v-0.5c0-0.5-0.2-1.2-0.1-2c0.1-0.8,0-1.3,0-1.6c0-1.1-0.2-2.8-0.6-5.3
			c-0.4-2.5-0.6-4.5-0.6-5.8c0-2.1,0.3-3.6,0.8-4.6c0.8-1.4,2.3-2.1,4.4-2.1c2.7,0,4.5,1.4,5.2,4c0.3,1,0.5,3,0.5,6.2
			c0,8.4,0.3,16.3,0.8,23.7c1.9-2.3,4-3.5,6.3-3.5c1.6,0,2.8,0.4,3.6,1.1c0.5,0.5,0.9,0.9,1.4,1.3c1.6,0.9,2,1.3,2.2,1.5
			c0.6,0.6,0.9,1.6,0.9,3c0,2.1,0.3,4.9,1,8.1c0.9,4.5,1.4,7.2,1.6,8.4c0.3,3.2,0.5,4.4,0.6,4.9c0.3,1.8,0.7,3.4,1.2,4.7
			c0.3,0.6,0.4,1.5,0.4,2.7c0,1-0.5,2-1.5,3C264.3,317.5,263.2,318,262.2,318z"/>
		<path class="st13" d="M272.5,308c-1.8,0-3.9-0.8-6.3-2.4c-2.1-1.4-3.1-4.2-3.1-8.7c0-5.5,0.9-11,2.8-16.2l0.1-0.2
			c0.6-1,1.4-2.6,2.1-4.8l0.1-1.9c0.1-0.8,0.3-1.6,0.6-2.3c0.6-1.1,2-2.1,4.2-3.2c2.1-1.1,3.8-1.6,5.1-1.6c2.3,0,3.9,0.8,4.8,2.4
			c1.7,3,2.5,9.1,2.5,18.7c0,0.3,0,0.7,0.1,1.3c0.1,0.6,0.1,1.1,0.1,1.4c0,1.3-0.3,2.3-1,2.9c-0.2,0.9-0.4,2.1-0.7,3.6
			c-0.8,2.5-2.2,4.9-4.1,7.1C277.4,306.7,275,308,272.5,308z M276.4,279.8c-1.5,3.3-2.9,8.5-4.1,15.4c-0.2,1.1-0.3,1.9-0.3,2.5
			c0,0.9,0.1,1.2,0.2,1.3c0.1-0.1,0.1-0.1,0.2-0.3c0.4-0.6,1-1,1.6-1.2c0.9-1.3,1.6-3.3,2.2-6c0.5-2.5,0.7-4.8,0.7-7
			C276.9,282.6,276.7,281,276.4,279.8z"/>
		<path class="st13" d="M294.6,314.1c-2.8,0-4.6-1.5-4.6-4.3v-0.7l0.2-0.2c0-0.2,0.1-0.3,0.1-0.4c0-0.8,0.1-2-0.2-3.7
			c-0.3-1.8-0.2-3.1-0.2-4v-2c0-2.7-0.6-6.2-1.2-10.5c-0.8-5.9-1.4-9.4-1.6-10.8c0-0.2-0.2-0.8-0.4-2c-0.2-1.1-0.4-1.9-0.4-2.5
			c0-0.7,0.1-1.3,0.3-1.9c0.2-0.7,0.8-1.4,1.8-2.1s1.8-1,2.7-1c1.8,0,3.2,0.6,4.3,1.9c1.1,1.2,1.6,2.7,1.6,4.5
			c0,0.6-0.1,1.5-0.3,2.6c-0.2,1-0.3,1.7-0.3,2.2c0,0.3,0,0.7,0.1,1.6c1.2-4.4,3-9.4,5.2-15c0.1-0.5,0.3-1,0.4-1.6
			c0.2-0.8,0.6-1.4,1.2-1.8c1.1-0.8,2.5-1.2,4.2-1.2c1.6,0,2.8,0.8,3.5,2.2c0.1,0.1,0.2,0.3,0.8,3.3c0.3,0.8,0.7,2,1.1,3.5
			c0.4,1.9,0.5,4.2,0.5,6.8c0,1.3-0.1,3.3-0.2,6c-0.1,2.6-0.2,4.6-0.2,5.9c0,3.4,0.3,6.5,1,9.1c0.4,1.2,0.9,2.9,1.5,5.9h0.1
			c0.9,0,3,0.3,3,3.9c0,1.2-0.4,2.5-1.2,3.7c-1,1.5-2.2,2.2-3.5,2.2c-0.7,0-1.5-0.2-2.5-0.6c-1.1-0.4-1.8-0.9-2.3-1.4
			c-0.2-0.2-0.3-0.4-1.3-3.3c-2.6-7.3-4-13.3-4-18.1c0-1.2,0.1-3,0.2-5.4c0-0.4,0-0.8,0.1-1.2c-0.2,0.7-0.4,1.4-0.6,2.1
			c0,0.1-0.1,0.6-0.1,2.5c0,1.2-0.3,2.1-0.7,2.8c-0.2,1.7-0.5,4.3-1,7.5v0.2c-0.3,0.9-0.7,2.4-1.3,4.5c-0.1,1.7-0.3,4.1-0.8,7.2
			l-0.1,0.1C299.1,312.3,297.8,314.1,294.6,314.1z"/>
	</g>
</g>
</svg>
