<?xml version="1.0" encoding="utf-8"?>
<!-- Generator: Adobe Illustrator 16.0.3, SVG Export Plug-In . SVG Version: 6.00 Build 0)  -->
<!DOCTYPE svg PUBLIC "-//W3C//DTD SVG 1.0//EN" "http://www.w3.org/TR/2001/REC-SVG-20010904/DTD/svg10.dtd">
<svg version="1.0" id="Layer_1" xmlns="http://www.w3.org/2000/svg" xmlns:xlink="http://www.w3.org/1999/xlink" x="0px" y="0px"
	 width="300px" height="180px" viewBox="0 0 300 180" enable-background="new 0 0 300 180" xml:space="preserve">
<g>
	<g>
		<g>
			<path fill="#2987C8" stroke="#1D1D1B" stroke-width="1.5" stroke-linejoin="round" stroke-miterlimit="10" d="M15.662,145.066
				V64.211h30.025c3.573,0,6.845,0.376,9.81,1.126c2.966,0.751,5.507,1.949,7.616,3.592c2.107,1.646,3.733,3.807,4.878,6.488
				c1.143,2.681,1.716,5.952,1.716,9.812c0,3.646-0.662,6.9-1.984,9.758c-1.322,2.86-3.629,5.112-6.917,6.756v0.214
				c5.792,0.789,9.991,3.003,12.603,6.648c2.605,3.646,3.912,8.295,3.912,13.941c0,4.219-0.841,7.773-2.52,10.669
				c-1.68,2.896-3.879,5.22-6.596,6.971c-2.716,1.753-5.826,3.003-9.327,3.753c-3.505,0.752-7.115,1.127-10.832,1.127H15.662z
				 M36.68,95.953h2.357c1.359,0,2.717-0.09,4.076-0.27c1.357-0.178,2.574-0.535,3.646-1.072c1.073-0.535,1.949-1.322,2.627-2.358
				c0.68-1.036,1.019-2.413,1.019-4.129c0-1.858-0.375-3.306-1.125-4.343c-0.75-1.035-1.716-1.823-2.895-2.359
				c-1.182-0.535-2.485-0.857-3.916-0.965c-1.429-0.106-2.857-0.161-4.287-0.161H36.68V95.953z M36.68,128.98h2.68
				c1.572,0,3.325-0.035,5.255-0.107c1.933-0.07,3.753-0.356,5.468-0.857c1.719-0.499,3.147-1.34,4.291-2.521
				c1.143-1.181,1.716-2.877,1.716-5.093c0-2.43-0.573-4.253-1.716-5.47c-1.144-1.215-2.592-2.072-4.344-2.573
				c-1.753-0.5-3.628-0.752-5.63-0.752s-3.859,0-5.575,0H36.68V128.98z"/>
			<path fill="#2987C8" stroke="#1D1D1B" stroke-width="1.5" stroke-linejoin="round" stroke-miterlimit="10" d="M97.479,127.265
				h25.201v17.802H76.463V64.211h11.475l9.542,6.008V127.265z"/>
			<path fill="#2987C8" stroke="#1D1D1B" stroke-width="1.5" stroke-linejoin="round" stroke-miterlimit="10" d="M143.053,145.066
				h-21.018V64.211h21.018V145.066z"/>
			<path fill="#2987C8" stroke="#1D1D1B" stroke-width="1.5" stroke-linejoin="round" stroke-miterlimit="10" d="M142.839,64.211
				h12.088l13.312,5.629l34.115,43.806h0.213V64.211h21.021v80.855h-21.021L164.07,95.523h-0.214v47.139l-9.229,2.404h-11.788
				V64.211z"/>
			<path fill="#2987C8" stroke="#1D1D1B" stroke-width="1.5" stroke-linejoin="round" stroke-miterlimit="10" d="M223.369,64.211
				h29.812c5.647,0,10.956,1.038,15.926,3.11c4.968,2.074,9.311,4.933,13.028,8.578c3.717,3.646,6.665,7.937,8.848,12.869
				c2.179,4.932,3.27,10.225,3.27,15.871c0,5.721-1.091,11.028-3.27,15.924c-2.183,4.897-5.131,9.168-8.848,12.814
				c-3.718,3.646-8.08,6.506-13.083,8.579c-5.005,2.073-10.296,3.11-15.871,3.11h-29.812V64.211z M244.389,127.265h4.719
				c3.144,0,6.129-0.445,8.953-1.341c2.821-0.893,5.289-2.252,7.398-4.074c2.108-1.822,3.789-4.164,5.041-7.023
				c1.249-2.859,1.876-6.256,1.876-10.188c0-3.646-0.572-6.863-1.716-9.651s-2.733-5.147-4.772-7.077
				c-2.037-1.931-4.466-3.395-7.292-4.396c-2.823-1-5.915-1.501-9.273-1.501h-4.934V127.265z"/>
		</g>
	</g>
	<g>
		<g>
			<path fill="#FFE400" stroke="#1D1D1B" stroke-width="1.5" stroke-linejoin="round" stroke-miterlimit="10" d="M5.748,145.066
				V64.211h30.024c3.574,0,6.846,0.376,9.813,1.126c2.968,0.751,5.505,1.949,7.616,3.592c2.105,1.646,3.731,3.807,4.878,6.488
				c1.143,2.681,1.716,5.952,1.716,9.812c0,3.646-0.664,6.9-1.986,9.758c-1.322,2.86-3.627,5.112-6.914,6.756v0.214
				c5.791,0.789,9.988,3.003,12.601,6.648c2.606,3.646,3.911,8.295,3.911,13.941c0,4.219-0.841,7.773-2.518,10.669
				c-1.682,2.896-3.88,5.22-6.596,6.971c-2.718,1.753-5.828,3.003-9.329,3.753c-3.505,0.752-7.115,1.127-10.831,1.127H5.748z
				 M26.765,95.953h2.362c1.355,0,2.713-0.09,4.072-0.27c1.358-0.178,2.573-0.535,3.647-1.072c1.071-0.535,1.946-1.322,2.626-2.358
				s1.018-2.413,1.018-4.129c0-1.858-0.373-3.306-1.123-4.343c-0.752-1.035-1.717-1.823-2.895-2.359
				c-1.184-0.535-2.486-0.857-3.916-0.965c-1.431-0.106-2.859-0.161-4.288-0.161h-1.504V95.953z M26.765,128.98h2.681
				c1.574,0,3.326-0.035,5.255-0.107c1.933-0.07,3.753-0.356,5.469-0.857c1.718-0.499,3.146-1.34,4.291-2.521
				c1.144-1.181,1.714-2.877,1.714-5.093c0-2.43-0.57-4.253-1.714-5.47c-1.145-1.215-2.592-2.072-4.343-2.573
				c-1.753-0.5-3.63-0.752-5.629-0.752c-2.003,0-3.862,0-5.579,0h-2.145V128.98z"/>
			<path fill="#FFE400" stroke="#1D1D1B" stroke-width="1.5" stroke-linejoin="round" stroke-miterlimit="10" d="M87.567,127.265
				h25.199v17.802H66.548V64.211h21.02V127.265z"/>
			<path fill="#FFE400" stroke="#1D1D1B" stroke-width="1.5" stroke-linejoin="round" stroke-miterlimit="10" d="M133.141,145.066
				h-21.018V64.211h21.018V145.066z"/>
			<path fill="#FFE400" stroke="#1D1D1B" stroke-width="1.5" stroke-linejoin="round" stroke-miterlimit="10" d="M132.924,64.211
				h21.021l38.495,49.436h0.214V64.211h21.021v80.855h-21.021l-38.496-49.543h-0.213v49.543h-21.021V64.211z"/>
			<path fill="#FFE400" stroke="#1D1D1B" stroke-width="1.5" stroke-linejoin="round" stroke-miterlimit="10" d="M213.457,64.211
				h29.812c5.646,0,10.954,1.038,15.924,3.11c4.969,2.074,9.311,4.933,13.028,8.578c3.717,3.646,6.664,7.937,8.848,12.869
				c2.179,4.932,3.271,10.225,3.271,15.871c0,5.721-1.093,11.028-3.271,15.924c-2.184,4.897-5.131,9.168-8.848,12.814
				c-3.718,3.646-8.079,6.506-13.083,8.579c-5.003,2.073-10.292,3.11-15.869,3.11h-29.812V64.211z M234.476,127.265h4.718
				c3.146,0,6.129-0.445,8.953-1.341c2.824-0.893,5.29-2.252,7.4-4.074c2.107-1.822,3.787-4.164,5.041-7.023
				c1.247-2.859,1.876-6.256,1.876-10.188c0-3.646-0.573-6.863-1.717-9.651c-1.146-2.788-2.732-5.147-4.772-7.077
				c-2.037-1.931-4.469-3.395-7.292-4.396c-2.823-1-5.916-1.501-9.275-1.501h-4.932V127.265z"/>
		</g>
	</g>
	<g>
		<g>
			<path fill="#E62178" d="M63.205,161.922c-0.916,0-1.598-0.13-2.084-0.397c-0.663-0.352-1.173-0.979-1.507-1.86l-0.027-0.146
				l-0.012,0.002c-0.023-0.121-0.173-0.727-0.444-1.817l-1.11-4.038c-0.563-2.005-0.837-3.331-0.837-4.051
				c0-0.217,0.028-0.503,0.085-0.875c0.043-0.288,0.066-0.523,0.066-0.697v-0.203c-0.034-0.936-0.307-4.626-0.809-10.942
				c-0.03-0.4-0.16-1.255-0.397-2.617c-0.179-1.183-0.265-2.099-0.265-2.816c0-4.182,2.504-4.806,3.996-4.806
				c1.484,0,2.565,0.702,3.125,2.029c0.368,0.854,0.609,1.975,0.714,3.327l0.105,3.227c0.185,2.438,0.486,5.624,0.896,9.455
				c0.652-0.269,1.459-0.556,2.436-0.867c0.445-0.085,1.124-0.287,2.384-0.896c0.818-0.396,1.496-0.677,2.051-0.847
				c-0.022-0.813-0.087-1.924-0.192-3.314c-0.137-1.833-0.203-3.194-0.203-4.164v-2.94c0-0.885-0.058-2.238-0.176-4.137
				c-0.121-1.914-0.179-3.314-0.179-4.28c0-0.792,0.042-1.95,0.129-3.539c0.083-1.533,0.125-2.68,0.125-3.407
				c0-2.772,1.401-4.299,3.944-4.299c1.443,0,2.473,0.823,2.902,2.317c0.189,0.693,0.281,1.77,0.281,3.3
				c0,1.335-0.069,3.285-0.204,5.795c-0.133,2.515-0.2,4.438-0.2,5.715c0,2.176,0.083,4.199,0.249,6.015
				c0.235,4.465,0.742,11.184,1.508,20.002c0.693,1.116,1.03,2.076,1.03,2.932c0,1-0.499,2.678-3.842,2.678
				c-3.211,0-3.69-1.994-3.69-3.184c0-0.237,0.034-0.568,0.109-1.073c0.076-0.492,0.092-0.763,0.092-0.903
				c0-0.848-0.142-2.244-0.421-4.151c-0.212-1.438-0.419-2.564-0.617-3.359c-1.075,0.333-2.707,1.052-4.868,2.146
				c-0.374,0.205-0.926,0.464-1.667,0.781l-0.201,0.055c-0.195,0.024-0.443,0.1-0.72,0.218c0.027,0.006-0.094,0.25-0.094,1.015
				c0,1.208,0.161,2.365,0.477,3.438c0.042,0.173,0.198,0.64,0.794,2.229c0.653,1.714,0.708,2.108,0.708,2.344
				C66.645,161.922,64.146,161.922,63.205,161.922z"/>
			<path fill="#1D1D1B" d="M75.019,112.753c1.116,0,1.842,0.592,2.181,1.774c0.167,0.609,0.252,1.641,0.252,3.093
				c0,1.285-0.065,3.204-0.203,5.755c-0.135,2.553-0.201,4.47-0.201,5.755c0,2.196,0.083,4.226,0.252,6.083
				c0.236,4.496,0.744,11.223,1.523,20.18c0.674,1.049,1.012,1.944,1.012,2.686c0,1.286-1.031,1.928-3.092,1.928
				c-1.96,0-2.94-0.811-2.94-2.434c0-0.203,0.035-0.523,0.101-0.963c0.068-0.439,0.101-0.777,0.101-1.014
				c0-0.879-0.142-2.299-0.429-4.26c-0.289-1.959-0.568-3.346-0.838-4.158c-1.082,0.203-2.99,0.998-5.729,2.384
				c-0.372,0.203-0.912,0.456-1.623,0.761c-0.27,0.034-0.583,0.127-0.938,0.279c-0.355,0.152-0.532,0.718-0.532,1.697
				c0,1.287,0.169,2.502,0.508,3.65c0.032,0.17,0.305,0.93,0.812,2.281c0.438,1.15,0.66,1.844,0.66,2.08
				c0,0.574-0.897,0.861-2.689,0.861c-0.778,0-1.354-0.102-1.723-0.305c-0.506-0.269-0.898-0.76-1.167-1.469
				c0-0.034-0.153-0.66-0.456-1.877c-0.373-1.352-0.744-2.705-1.115-4.056c-0.541-1.927-0.811-3.211-0.811-3.853
				c0-0.17,0.024-0.424,0.076-0.761c0.051-0.337,0.075-0.61,0.075-0.812v-0.203c-0.035-0.98-0.306-4.646-0.812-11.002
				c-0.032-0.438-0.17-1.334-0.406-2.687c-0.169-1.116-0.254-2.012-0.254-2.688c0-2.704,1.082-4.056,3.246-4.056
				c1.182,0,1.992,0.523,2.435,1.571c0.336,0.778,0.558,1.808,0.657,3.093c0.032,1.048,0.067,2.112,0.104,3.194
				c0.201,2.67,0.537,6.185,1.012,10.546c0.711-0.372,1.81-0.795,3.297-1.269c0.574-0.102,1.402-0.413,2.483-0.937
				c1.082-0.524,1.91-0.838,2.483-0.938c0-0.845-0.067-2.163-0.203-3.954c-0.134-1.792-0.201-3.16-0.201-4.107
				c0-0.305,0-0.787,0-1.445s0-1.158,0-1.495c0-0.913-0.061-2.308-0.178-4.184c-0.118-1.876-0.178-3.286-0.178-4.233
				c0-0.777,0.043-1.943,0.128-3.498c0.084-1.555,0.126-2.704,0.126-3.448C71.824,113.937,72.887,112.753,75.019,112.753
				 M75.019,111.253c-2.983,0-4.694,1.84-4.694,5.049c0,0.714-0.042,1.847-0.124,3.367c-0.087,1.602-0.13,2.772-0.13,3.579
				c0,0.981,0.059,2.397,0.181,4.328c0.118,1.882,0.175,3.22,0.175,4.089v1.495v1.445c0,0.988,0.067,2.368,0.205,4.219
				c0.083,1.089,0.14,2.002,0.171,2.73c-0.473,0.176-1.007,0.409-1.609,0.701c-1.244,0.603-1.844,0.766-2.09,0.809l-0.194,0.048
				c-0.578,0.185-1.098,0.36-1.565,0.53c-0.355-3.378-0.621-6.216-0.79-8.46c-0.036-1.069-0.07-2.122-0.102-3.158l-0.004-0.07
				c-0.113-1.455-0.367-2.623-0.776-3.571c-0.672-1.593-2.028-2.477-3.812-2.477c-1.427,0-4.746,0.541-4.746,5.556
				c0,0.756,0.088,1.708,0.271,2.912c0.236,1.353,0.366,2.207,0.393,2.572c0.498,6.258,0.77,9.929,0.808,10.92v0.175
				c0,0.061-0.006,0.238-0.059,0.588c-0.062,0.406-0.093,0.729-0.093,0.984c0,0.503,0.09,1.492,0.866,4.258l0.269,0.979l0.845,3.071
				c0.1,0.405,0.393,1.58,0.427,1.746l0.023-0.005l0.049,0.268c0.4,1.056,1.028,1.817,1.867,2.263
				c0.58,0.319,1.38,0.479,2.426,0.479c1.036,0,4.189,0,4.189-2.361c0-0.405-0.121-0.941-0.758-2.614
				c-0.589-1.57-0.724-1.979-0.752-2.082l0.012,0.056l-0.035-0.146c-0.296-1.004-0.446-2.089-0.446-3.226
				c0-0.2,0.009-0.351,0.021-0.46c0.063-0.017,0.108-0.024,0.138-0.028l0.402-0.109c0.763-0.327,1.335-0.596,1.751-0.823
				c1.825-0.923,3.08-1.479,3.94-1.808c0.124,0.608,0.266,1.415,0.424,2.484c0.341,2.329,0.413,3.483,0.413,4.041
				c0,0.075-0.008,0.303-0.083,0.783c-0.082,0.553-0.118,0.918-0.118,1.193c0,2.463,1.66,3.934,4.44,3.934
				c4.145,0,4.592-2.397,4.592-3.428c0-0.957-0.343-1.997-1.048-3.172c-0.757-8.723-1.258-15.374-1.489-19.772l-0.004-0.057
				c-0.163-1.793-0.246-3.794-0.246-5.947c0-1.264,0.067-3.174,0.199-5.676c0.136-2.521,0.205-4.485,0.205-5.834
				c0-1.599-0.1-2.739-0.305-3.489C78.12,112.296,76.8,111.253,75.019,111.253L75.019,111.253z"/>
		</g>
		<g>
			<path fill="#E62178" d="M96.161,170.439c-1.58,0-2.78-0.608-3.568-1.808c-0.321-0.483-0.563-1.101-0.715-1.83l-0.291-1.551
				c-0.303-0.682-0.681-1.653-1.151-2.965l-0.035-0.14c-0.123-0.798-0.313-1.881-0.579-3.287c-0.374,0.497-0.644,0.825-0.838,1.019
				c-0.963,0.923-1.991,1.386-3.065,1.386c-1.08,0-2.299-0.493-3.728-1.509c-1.853-1.349-2.75-4.813-2.75-10.6
				c0-2.656,0.223-5.574,0.663-8.673c0.562-4.073,1.346-6.813,2.396-8.374c0.356-0.6,0.98-1.132,1.833-1.548
				c0.822-0.404,1.623-0.609,2.376-0.609c0.622,0,1.379,0.215,2.315,0.655c0.637,0.3,1.149,0.596,1.548,0.896
				c0.282-0.121,0.595-0.182,0.937-0.182c0.794,0,1.805,0.405,3.088,1.238l0.229,0.234c0.208,0.335,0.323,0.782,0.355,1.388
				c0.437,0.401,0.666,0.944,0.666,1.595v0.56l-0.011,0.125c-0.023,0.141-0.012,0.198-0.012,0.198l0.023,0.184v0.305
				c0.186,3.004,0.255,4.228,0.255,4.469c0,0.952-0.042,2.342-0.128,4.249c-0.084,1.807-0.127,3.194-0.127,4.126
				c0,1.291,0.216,2.981,0.643,5.026c0.583,2.823,0.903,4.506,0.976,5.146l0.205,2.459c0.149,1.148,0.402,1.6,0.54,1.764
				c0.71,0.75,1.085,1.675,1.085,2.715C99.293,169.254,98.181,170.439,96.161,170.439z M87.939,137.69
				c-1.18,2.659-1.777,6.392-1.777,11.111c0,0.54,0.013,1.06,0.039,1.556c0.405-1.045,0.674-1.979,0.803-2.789
				c0.126-1.833,0.279-3.73,0.449-5.627c0.04-0.362,0.175-0.977,0.429-1.948c0.185-0.71,0.278-1.278,0.278-1.687
				c0-0.382-0.058-0.509-0.063-0.519c0,0,0,0.001,0,0.001C88.093,137.789,88.052,137.756,87.939,137.69z"/>
			<path fill="#1D1D1B" d="M86.708,130.701c0.505,0,1.171,0.195,1.995,0.584c0.826,0.389,1.424,0.768,1.795,1.14
				c0.269-0.236,0.605-0.354,1.01-0.354c0.64,0,1.533,0.373,2.68,1.117c0.168,0.271,0.252,0.729,0.252,1.37
				c0.437,0.271,0.656,0.677,0.656,1.218c0,0.104,0,0.289,0,0.56c-0.034,0.202-0.034,0.372,0,0.507v0.305
				c0.168,2.742,0.255,4.231,0.255,4.469c0,0.947-0.043,2.352-0.127,4.215c-0.087,1.86-0.128,3.248-0.128,4.16
				c0,1.356,0.221,3.081,0.658,5.18c0.574,2.776,0.896,4.469,0.965,5.078c0.068,0.813,0.135,1.623,0.202,2.436
				c0.136,1.049,0.372,1.777,0.712,2.184c0.606,0.643,0.91,1.387,0.91,2.233c0,1.726-0.794,2.589-2.382,2.589
				c-1.317,0-2.298-0.49-2.941-1.47c-0.271-0.407-0.474-0.931-0.607-1.571c-0.103-0.541-0.202-1.082-0.305-1.623
				c-0.306-0.677-0.692-1.673-1.166-2.992c-0.171-1.115-0.476-2.787-0.912-5.02c-0.882,1.252-1.471,2.029-1.775,2.333
				c-0.813,0.778-1.657,1.167-2.536,1.167c-0.912,0-2.01-0.458-3.293-1.37c-1.625-1.183-2.435-4.512-2.435-9.988
				c0-2.636,0.219-5.491,0.655-8.567c0.541-3.921,1.298-6.607,2.275-8.061c0.303-0.508,0.815-0.939,1.54-1.293
				C85.385,130.879,86.066,130.701,86.708,130.701 M85.766,153.16c1.083-2.162,1.743-3.986,1.979-5.475
				c0.134-1.893,0.286-3.785,0.455-5.678c0.033-0.305,0.169-0.912,0.407-1.825c0.202-0.777,0.303-1.403,0.303-1.876
				c0-0.508-0.084-0.846-0.255-1.015c-0.167-0.169-0.522-0.371-1.064-0.608c-1.452,2.807-2.179,6.846-2.179,12.118
				C85.412,150.458,85.529,151.91,85.766,153.16 M86.708,129.201c-0.869,0-1.78,0.231-2.708,0.687
				c-0.967,0.472-1.689,1.089-2.145,1.834c-1.104,1.662-1.92,4.496-2.495,8.661c-0.444,3.128-0.669,6.081-0.669,8.772
				c0,6.127,0.97,9.686,3.052,11.201c1.573,1.118,2.935,1.657,4.176,1.657c1.227,0,2.388-0.494,3.452-1.47
				c0.122,0.678,0.217,1.248,0.289,1.717l0.071,0.279c0.458,1.277,0.832,2.241,1.136,2.935l0.12,0.638l0.153,0.815
				c0.177,0.851,0.455,1.556,0.832,2.122c0.918,1.397,2.369,2.14,4.191,2.14c2.431,0,3.882-1.528,3.882-4.089
				c0-1.214-0.427-2.293-1.269-3.209c-0.043-0.064-0.233-0.397-0.361-1.367l-0.06-0.723l-0.14-1.68
				c-0.08-0.707-0.402-2.412-0.991-5.256c-0.416-1.997-0.627-3.637-0.627-4.876c0-0.92,0.042-2.296,0.126-4.09
				c0.086-1.921,0.128-3.321,0.128-4.285c0-0.229-0.041-1.017-0.255-4.515v-0.259l-0.046-0.369c0.023,0.092,0.02,0.147,0.02,0.148
				l0.026-0.286v-0.56c0-0.747-0.24-1.406-0.689-1.922c-0.06-0.598-0.205-1.07-0.444-1.455l-0.459-0.469
				c-1.428-0.928-2.539-1.359-3.496-1.359c-0.283,0-0.556,0.034-0.814,0.102c-0.38-0.251-0.829-0.498-1.352-0.744
				C88.305,129.439,87.443,129.201,86.708,129.201L86.708,129.201z"/>
		</g>
		<g>
			<path fill="#E62178" d="M105.592,162.581c-1.064,0-2.196-0.401-3.362-1.192c-3.343-2.157-5.045-5.543-5.045-10.053
				c0-3.041,0.466-6.661,1.386-10.76c1.262-5.62,2.929-8.639,5.099-9.229c0.387-0.088,0.783-0.128,1.209-0.128
				c0.938,0,2.205,0.458,2.979,2.604c0.347,0.362,0.793,1.143,1.44,3.22c0.577,1.859,0.845,3.066,0.845,3.799
				c0,1.74-0.801,3.328-2.382,4.721l-0.861,0.093c-0.983-0.548-1.539-0.978-1.802-1.398c-0.076,0.059-0.152,0.108-0.228,0.151
				c0,0.011,0,0.022,0,0.033c0,0.28-0.036,0.636-0.109,1.085c-0.332,1.813-0.498,3.626-0.498,5.405c0,3.227,0.576,5.078,1.58,5.081
				c-0.047-0.001,0.209-0.093,1.005-0.725c0.876-0.697,1.836-1.051,2.852-1.051c1.485,0,2.372,0.85,2.372,2.271
				c0,0.402-0.069,0.854-0.204,1.342c-0.11,0.391-0.42,1.009-1.859,2.351c-1.04,0.968-1.789,1.568-2.289,1.836
				C107.036,162.398,106.321,162.581,105.592,162.581z"/>
			<path fill="#1D1D1B" d="M104.879,131.969c1.048,0,1.828,0.76,2.333,2.281c0.373,0.271,0.828,1.277,1.37,3.016
				c0.54,1.742,0.811,2.934,0.811,3.575c0,1.522-0.709,2.908-2.128,4.158c-0.913-0.509-1.438-0.913-1.572-1.217
				c-0.069-0.609-0.136-1.198-0.203-1.774c-0.169,0.404-0.322,0.795-0.458,1.165c-0.236,0.44-0.556,0.676-0.961,0.71
				c0.032,0.169,0.049,0.354,0.049,0.558c0,0.238-0.033,0.559-0.1,0.964c-0.34,1.858-0.508,3.7-0.508,5.526
				c0,3.886,0.778,5.831,2.332,5.831c0.235,0,0.725-0.297,1.469-0.887c0.744-0.592,1.539-0.889,2.386-0.889
				c1.08,0,1.622,0.508,1.622,1.521c0,0.338-0.06,0.719-0.177,1.141c-0.119,0.424-0.668,1.09-1.647,2.003
				c-0.981,0.913-1.692,1.488-2.132,1.724c-0.574,0.305-1.165,0.456-1.772,0.456c-0.914,0-1.896-0.354-2.941-1.063
				c-3.145-2.029-4.716-5.172-4.716-9.432c0-3.008,0.458-6.54,1.368-10.596c1.184-5.273,2.705-8.164,4.563-8.67
				C104.171,132.002,104.508,131.969,104.879,131.969 M104.879,130.469c-0.482,0-0.933,0.047-1.341,0.138l-0.066,0.017
				c-2.497,0.68-4.287,3.79-5.633,9.789c-0.932,4.152-1.405,7.828-1.405,10.924c0,4.781,1.818,8.379,5.402,10.692
				c1.264,0.857,2.537,1.303,3.755,1.303c0.854,0,1.687-0.212,2.476-0.631c0.361-0.193,1.002-0.603,2.45-1.95
				c1.247-1.162,1.866-1.969,2.07-2.695c0.155-0.558,0.233-1.076,0.233-1.547c0-1.836-1.226-3.021-3.122-3.021
				c-1.189,0-2.306,0.408-3.319,1.215c-0.294,0.233-0.5,0.381-0.639,0.473c-0.225-0.259-0.729-1.206-0.729-4.243
				c0-1.734,0.163-3.503,0.483-5.257c0-0.002,0-0.004,0.001-0.006c0.288,0.203,0.63,0.414,1.039,0.642l1.722-0.185
				c1.749-1.541,2.636-3.319,2.636-5.284c0-0.51-0.091-1.481-0.878-4.02c-0.605-1.942-1.066-2.874-1.504-3.394
				C107.53,130.863,105.83,130.469,104.879,130.469L104.879,130.469z"/>
		</g>
		<g>
			<path fill="#E62178" d="M118.926,170.744c-0.966,0-2.252-0.415-2.897-2.395c-0.188-0.601-0.358-1.661-0.538-3.346
				c-0.258-4.604-0.833-11.588-1.711-20.797c-0.087-0.819-0.182-3.456-0.245-5.521c-0.096-2.189-0.333-3.955-0.706-5.24l-0.03-0.209
				v-1.115c0-1.351-0.218-3.269-0.647-5.701c-0.443-2.655-0.686-4.634-0.721-5.888c-0.031-1.165-0.264-2.756-0.692-4.73
				c-0.533-2.227-0.859-3.77-0.991-4.686c-0.187-0.234-0.345-0.574-0.345-1.05c0-1.007,0.417-1.859,1.238-2.533
				c0.777-0.634,1.653-0.955,2.604-0.955c0.988,0,1.78,0.394,2.291,1.137c0.085,0.112,0.247,0.385,0.838,1.871
				c0.109,0.239,0.323,0.818,0.748,2.698c0.426,1.673,0.976,4.24,1.676,7.828l0.013,0.105c0.067,1.333,0.2,3.284,0.404,5.965
				c0.28,4.225,0.746,10.383,1.386,18.333c0.38-0.662,0.784-1.396,1.208-2.199c1.498-2.807,2.162-4.046,2.296-4.279l0.073-0.106
				c0.608-0.738,1.391-1.929,2.326-3.539c0.202-0.564,0.586-1.277,1.174-2.175l0.13-0.151c0.749-0.663,1.684-0.999,2.779-0.999
				c2.054,0,3.232,1.05,3.232,2.88c0,0.146-0.009,0.294-0.027,0.446c0.322-0.935,0.681-1.692,1.078-2.283
				c0.362-0.604,0.987-1.136,1.838-1.55c0.823-0.403,1.622-0.608,2.374-0.608c0.621,0,1.378,0.215,2.315,0.655
				c0.639,0.302,1.151,0.598,1.549,0.896c0.283-0.121,0.596-0.182,0.937-0.182c0.794,0,1.804,0.405,3.085,1.238l0.226,0.229
				c0.211,0.335,0.328,0.783,0.36,1.393c0.438,0.401,0.667,0.945,0.667,1.595v0.56l-0.012,0.132
				c-0.023,0.13-0.013,0.184-0.013,0.184l0.025,0.191v0.305c0.113,1.826,0.25,4.13,0.25,4.469c0,0.996-0.042,2.426-0.127,4.249
				c-0.082,1.812-0.123,3.199-0.123,4.126c0,1.297,0.215,2.988,0.641,5.026c0.586,2.827,0.904,4.511,0.975,5.149l0.205,2.456
				c0.149,1.146,0.403,1.601,0.54,1.767c0.709,0.745,1.085,1.67,1.085,2.712c0,2.153-1.112,3.339-3.132,3.339
				c-1.583,0-2.784-0.608-3.568-1.81c-0.322-0.482-0.564-1.101-0.715-1.829l-0.291-1.551c-0.316-0.713-0.703-1.709-1.151-2.964
				l-0.035-0.14c-0.121-0.794-0.315-1.896-0.578-3.287c-0.374,0.497-0.644,0.825-0.838,1.019c-0.962,0.923-1.99,1.386-3.065,1.386
				c-1.078,0-2.298-0.493-3.73-1.508c-0.784-0.573-1.382-1.492-1.824-2.805c-0.006,0-2.963,0.102-2.963,0.102
				c-1.489,0.27-3.763,0.592-6.759,0.959c-0.287,0.027-0.663,0.071-1.135,0.132c-0.014,0.175-0.026,0.43-0.026,0.798
				c0,1.189,0.065,1.792,0.123,2.093c0.559,0.58,0.842,1.393,0.842,2.42c0,1.457-0.217,2.865-0.646,4.186
				C121.485,169.701,120.394,170.744,118.926,170.744z M124.167,151.645c0.561,0.038,1.147,0.057,1.754,0.057
				c1.322,0,2.893-0.117,4.667-0.35c0.5-0.062,0.924-0.098,1.267-0.105c-0.029-0.665-0.043-1.365-0.043-2.091
				c0-2.661,0.224-5.579,0.665-8.673c0.237-1.724,0.514-3.209,0.834-4.468c-0.126,0.284-0.276,0.579-0.451,0.887
				c-0.275,0.517-1.877,3.086-4.887,7.838C126.259,147.496,124.981,149.813,124.167,151.645z M140.313,137.69
				c-1.18,2.66-1.778,6.393-1.778,11.111c0,0.54,0.013,1.059,0.039,1.556c0.405-1.045,0.673-1.979,0.802-2.789
				c0.127-1.833,0.28-3.73,0.451-5.628c0.039-0.355,0.169-0.951,0.424-1.944c0.233-0.881,0.282-1.404,0.282-1.689
				c0-0.373-0.055-0.504-0.063-0.519c0,0,0,0,0,0C140.466,137.788,140.424,137.755,140.313,137.69z"/>
			<path fill="#1D1D1B" d="M113.245,107.328c0.744,0,1.302,0.271,1.673,0.812c0.103,0.136,0.356,0.71,0.76,1.724
				c0.169,0.372,0.407,1.233,0.713,2.586c0.438,1.723,0.992,4.326,1.671,7.807c0.068,1.354,0.204,3.348,0.405,5.983
				c0.305,4.597,0.828,11.476,1.572,20.636c0.712-1.082,1.521-2.484,2.433-4.208c1.389-2.603,2.149-4.022,2.284-4.259
				c0.642-0.778,1.452-2.01,2.433-3.702c0.17-0.506,0.54-1.198,1.116-2.079c0.608-0.539,1.368-0.811,2.281-0.811
				c1.655,0,2.482,0.711,2.482,2.13c0,0.71-0.286,1.571-0.86,2.585c-0.271,0.508-1.894,3.111-4.868,7.807
				c-2.063,3.315-3.479,5.968-4.26,7.961c0.881,0.102,1.827,0.152,2.842,0.152c1.352,0,2.939-0.117,4.765-0.355
				c0.539-0.067,0.98-0.102,1.317-0.102c0.199,0,0.422,0.029,0.647,0.064c-0.059-0.891-0.089-1.855-0.089-2.903
				c0-2.636,0.219-5.491,0.657-8.567c0.538-3.921,1.296-6.607,2.271-8.061c0.306-0.508,0.817-0.939,1.544-1.293
				c0.725-0.355,1.405-0.533,2.046-0.533c0.507,0,1.17,0.195,1.996,0.584c0.824,0.389,1.425,0.768,1.794,1.14
				c0.271-0.236,0.606-0.354,1.011-0.354c0.641,0,1.532,0.373,2.677,1.117c0.171,0.271,0.255,0.729,0.255,1.37
				c0.437,0.271,0.657,0.677,0.657,1.218c0,0.104,0,0.289,0,0.56c-0.036,0.202-0.036,0.372,0,0.507v0.305
				c0.168,2.742,0.25,4.231,0.25,4.469c0,0.947-0.04,2.352-0.126,4.215c-0.084,1.86-0.124,3.248-0.124,4.16
				c0,1.356,0.219,3.081,0.656,5.18c0.575,2.776,0.896,4.469,0.964,5.078c0.069,0.813,0.136,1.623,0.203,2.436
				c0.136,1.049,0.373,1.777,0.71,2.184c0.609,0.643,0.912,1.387,0.912,2.233c0,1.726-0.793,2.589-2.382,2.589
				c-1.32,0-2.301-0.49-2.94-1.47c-0.271-0.407-0.476-0.931-0.608-1.571c-0.101-0.541-0.204-1.082-0.305-1.623
				c-0.304-0.677-0.694-1.673-1.166-2.992c-0.17-1.115-0.474-2.787-0.911-5.02c-0.882,1.252-1.471,2.029-1.775,2.333
				c-0.812,0.778-1.656,1.167-2.536,1.167c-0.913,0-2.01-0.458-3.297-1.37c-0.745-0.544-1.317-1.548-1.72-2.997
				c-0.193,0.022-0.389,0.045-0.6,0.057c-0.979,0.033-1.971,0.068-2.981,0.102c-1.481,0.271-3.741,0.592-6.771,0.963
				c-0.372,0.035-0.928,0.102-1.668,0.203c-0.102,0.203-0.152,0.693-0.152,1.471c0,1.217,0.064,2.045,0.195,2.484
				c0.512,0.438,0.77,1.115,0.77,2.028c0,1.386-0.203,2.703-0.609,3.954c-0.574,1.724-1.42,2.586-2.533,2.586
				c-1.051,0-1.776-0.626-2.184-1.877c-0.169-0.54-0.336-1.605-0.506-3.193c-0.259-4.631-0.83-11.56-1.71-20.788
				c-0.064-0.606-0.148-2.433-0.242-5.474c-0.099-2.264-0.343-4.073-0.735-5.426c0-0.236,0-0.609,0-1.115
				c0-1.386-0.217-3.33-0.658-5.831c-0.44-2.637-0.676-4.563-0.71-5.779c-0.032-1.218-0.269-2.839-0.709-4.868
				c-0.574-2.399-0.913-4.021-1.013-4.867c-0.205-0.168-0.307-0.405-0.307-0.709c0-0.778,0.323-1.428,0.964-1.953
				C111.758,107.59,112.466,107.328,113.245,107.328 M138.14,153.16c1.082-2.162,1.741-3.986,1.978-5.475
				c0.134-1.893,0.287-3.785,0.457-5.678c0.033-0.305,0.169-0.912,0.403-1.825c0.206-0.777,0.306-1.403,0.306-1.876
				c0-0.508-0.084-0.846-0.254-1.015c-0.169-0.169-0.522-0.371-1.064-0.608c-1.452,2.807-2.18,6.846-2.18,12.118
				C137.785,150.458,137.903,151.91,138.14,153.16 M113.245,105.828c-1.128,0-2.164,0.378-3.077,1.123
				c-0.993,0.813-1.516,1.891-1.516,3.115c0,0.496,0.132,0.954,0.38,1.338c0.15,0.958,0.473,2.468,0.98,4.588
				c0.412,1.897,0.639,3.441,0.668,4.559c0.037,1.309,0.275,3.266,0.73,5.986c0.424,2.402,0.638,4.276,0.638,5.584v1.115l0.06,0.418
				c0.356,1.228,0.584,2.935,0.677,5.073c0.092,3.005,0.177,4.884,0.249,5.566c0.875,9.184,1.449,16.158,1.704,20.714l0.006,0.075
				c0.186,1.735,0.366,2.842,0.566,3.482c0.83,2.55,2.621,2.929,3.615,2.929c1.256,0,2.962-0.627,3.956-3.611
				c0.457-1.406,0.687-2.893,0.687-4.429c0-1.317-0.421-2.19-0.886-2.752c-0.038-0.288-0.079-0.821-0.079-1.761
				c0-0.046,0-0.09,0-0.131c0.201-0.023,0.352-0.039,0.461-0.05c3.015-0.368,5.285-0.69,6.79-0.961l1.805-0.061l0.561-0.02
				c0.474,1.189,1.098,2.057,1.89,2.636c1.58,1.12,2.942,1.658,4.181,1.658c1.228,0,2.389-0.494,3.452-1.469
				c0.121,0.676,0.217,1.249,0.288,1.714l0.07,0.279c0.438,1.226,0.82,2.212,1.137,2.936l0.12,0.642l0.152,0.808
				c0.177,0.854,0.456,1.56,0.835,2.129c0.632,0.969,1.88,2.138,4.188,2.138c2.431,0,3.882-1.528,3.882-4.089
				c0-1.214-0.427-2.292-1.268-3.206c-0.047-0.07-0.234-0.408-0.362-1.37l-0.043-0.513l-0.158-1.892
				c-0.05-0.459-0.203-1.459-0.989-5.255c-0.415-1.99-0.625-3.63-0.625-4.875c0-0.915,0.041-2.292,0.122-4.093
				c0.085-1.834,0.128-3.274,0.128-4.282c0-0.106,0-0.431-0.25-4.515v-0.259l-0.051-0.389c0.028,0.106,0.023,0.173,0.023,0.174
				l0.027-0.292v-0.56c0-0.747-0.24-1.406-0.69-1.922c-0.062-0.604-0.209-1.078-0.453-1.465l-0.452-0.459
				c-1.426-0.928-2.537-1.359-3.494-1.359c-0.283,0-0.556,0.034-0.814,0.102c-0.379-0.25-0.827-0.497-1.351-0.743
				c-1.041-0.49-1.902-0.728-2.636-0.728c-0.867,0-1.778,0.23-2.707,0.687c-0.965,0.47-1.689,1.087-2.148,1.833
				c-0.052,0.078-0.104,0.159-0.155,0.243c-0.631-1.056-1.839-1.647-3.486-1.647c-1.284,0-2.386,0.399-3.276,1.188l-0.261,0.302
				c-0.597,0.913-1,1.656-1.228,2.267c-0.9,1.546-1.647,2.684-2.223,3.382l-0.146,0.211c-0.137,0.241-0.805,1.485-2.304,4.296
				c-0.538-6.749-0.936-12.058-1.185-15.821c-0.205-2.688-0.337-4.633-0.404-5.96l-0.026-0.211c-0.702-3.602-1.255-6.183-1.689-7.89
				c-0.41-1.818-0.636-2.462-0.784-2.8c-0.59-1.48-0.772-1.808-0.923-2.015C115.674,106.604,114.799,105.828,113.245,105.828
				L113.245,105.828z M125.322,150.944c0.791-1.619,1.893-3.565,3.291-5.814c1.428-2.253,2.438-3.858,3.157-5.006
				c-0.012,0.086-0.024,0.173-0.037,0.26c-0.445,3.122-0.671,6.075-0.671,8.771c0,0.474,0.006,0.938,0.019,1.388
				c-0.181,0.018-0.374,0.038-0.581,0.064c-1.75,0.229-3.289,0.344-4.579,0.344C125.72,150.951,125.52,150.949,125.322,150.944
				L125.322,150.944z"/>
		</g>
		<g>
			<path fill="#E62178" d="M191.121,167.145c-1.126,0-2.682-0.487-3.702-2.808c-0.714-1.615-1.318-3.637-1.798-6.008
				c-0.07-0.388-0.409-2.437-1.02-6.163c-0.042-0.338-0.061-0.573-0.061-0.729c0-0.41,0.094-0.722,0.221-0.954
				c-0.084-0.374-0.185-1.012-0.315-2.156c-0.018-0.119-0.035-0.228-0.053-0.327c-0.101,0.407-0.216,0.968-0.34,1.732
				c-0.63,3.729-0.743,3.949-0.834,4.126c-0.118,0.221-0.356,0.826-0.69,2.539c-0.287,1.477-0.615,2.516-1.004,3.178
				c-0.644,1.073-1.672,1.638-2.976,1.638c-1.202,0-2.235-0.416-3.073-1.237c-0.639-0.307-1.329-0.969-1.329-2.403
				c0-0.222,0.02-0.516,0.056-0.884c0.029-0.306,0.046-0.535,0.046-0.688c0-0.37-0.07-1.786-0.403-6.436
				c-0.199-2.649-0.362-5.035-0.496-7.253c-0.958,0.432-2.619,1.092-5.029,2.001c-0.564,0.313-1.387,0.696-2.509,1.174l-0.191,0.053
				c-0.63,0.086-1.445,0.313-2.426,0.675c-0.048,0.195-0.12,0.666-0.12,1.726c0,0.379,0.014,0.859,0.039,1.443
				c0.173,0.254,0.263,0.538,0.263,0.838c0,0.215-0.043,0.461-0.132,0.752c-0.063,0.203-0.07,0.273-0.07,0.276
				c-0.376,4.269-0.688,7.121-0.929,8.529c-0.58,2.997-1.655,6.96-4.313,6.96c-0.926,0-1.824-0.356-2.672-1.06
				c-0.891-0.735-1.343-1.621-1.343-2.631c0-0.814,0.439-1.601,1.308-2.336c0.03-0.063,0.095-0.219,0.195-0.562
				c0.584-2.12,0.882-3.725,0.882-4.758v-2.435c0-0.631,0.043-1.603,0.127-2.888c0.073-1.12,0.101-2.003,0.083-2.631
				c-0.316,0.022-0.722,0.05-1.239,0.082c-0.842,0.103-1.535,0.154-2.076,0.154c-4.475,0-5.414-1.979-5.414-3.641
				c0-1.292,0.755-2.937,4.351-3.431c1.629-0.122,3.202-0.243,4.76-0.362c0.01-0.155,0.017-0.342,0.017-0.566
				c0-0.584-0.051-1.377-0.149-2.358c-0.104-1.23-0.155-2.031-0.155-2.459c-0.203-4.94-0.303-8.334-0.303-10.343
				c0-4.428,0.278-7.317,0.853-8.834c0.341-0.873,1.2-1.904,3.372-1.904c1.564,0,2.806,0.656,3.689,1.95
				c0.69,1.043,1.037,2.358,1.037,3.921c0,0.692-0.055,1.366-0.163,2.003l-0.077,0.227c-0.236,0.443-0.497,1.18-0.776,2.188
				c-0.033,1.617-0.115,4.016-0.253,7.326c-0.036,0.438-0.153,1.561-0.356,3.396c-0.17,1.364-0.252,2.429-0.252,3.266
				c0,0.335,0.014,0.649,0.042,0.94c2.33-0.313,4.325-0.857,5.938-1.618c1.302-0.584,2.532-0.942,3.675-1.073
				c-0.059-1.3-0.108-2.57-0.15-3.803v-0.43c-0.036-0.283-0.02-0.771,0.056-1.407c0.08-0.678,0.097-0.987,0.097-1.128
				c0-0.754-0.125-2.023-0.371-3.774c-0.259-1.794-0.391-3.187-0.391-4.135c0-1.502,0.199-2.571,0.61-3.271
				c0.573-1.016,1.646-1.536,3.182-1.536c1.93,0,3.232,0.995,3.766,2.879c0.139,0.44,0.332,1.402,0.332,4.411
				c0,5.966,0.197,11.604,0.587,16.798c1.334-1.62,2.823-2.438,4.443-2.438c1.134,0,2.004,0.271,2.586,0.808
				c0.332,0.331,0.658,0.645,1.001,0.955c1.119,0.647,1.429,0.895,1.573,1.06c0.444,0.431,0.66,1.131,0.66,2.137
				c0,1.511,0.233,3.458,0.693,5.786c0.667,3.232,1.025,5.137,1.126,5.989c0.245,2.272,0.379,3.15,0.447,3.489
				c0.228,1.313,0.521,2.443,0.878,3.379c0.195,0.383,0.301,1.021,0.301,1.94c0,0.757-0.372,1.48-1.105,2.151
				C192.634,166.814,191.884,167.145,191.121,167.145z"/>
			<path fill="#1D1D1B" d="M160.527,114.527c1.307,0,2.331,0.541,3.07,1.623c0.604,0.912,0.906,2.078,0.906,3.498
				c0,0.643-0.049,1.268-0.152,1.877c-0.27,0.506-0.558,1.317-0.862,2.433c-0.032,1.656-0.118,4.124-0.254,7.403
				c-0.034,0.404-0.151,1.52-0.353,3.345c-0.169,1.354-0.257,2.468-0.257,3.348c0,0.677,0.053,1.267,0.155,1.774
				c2.737-0.305,5.036-0.896,6.896-1.774c1.518-0.681,2.896-1.024,4.138-1.055c-0.073-1.553-0.135-3.064-0.184-4.524v-0.404
				c-0.034-0.305-0.018-0.744,0.051-1.318c0.067-0.574,0.102-0.98,0.102-1.217c0-0.811-0.129-2.104-0.379-3.879
				c-0.256-1.774-0.383-3.118-0.383-4.03c0-1.353,0.169-2.315,0.507-2.891c0.438-0.776,1.285-1.166,2.535-1.166
				c1.588,0,2.604,0.778,3.044,2.333c0.202,0.643,0.304,2.045,0.304,4.207c0,6.828,0.253,13.15,0.76,18.963
				c1.488-2.568,3.161-3.854,5.021-3.854c0.943,0,1.637,0.203,2.078,0.609c0.337,0.337,0.69,0.676,1.064,1.013
				c0.879,0.507,1.369,0.829,1.469,0.964c0.305,0.271,0.459,0.812,0.459,1.623c0,1.553,0.233,3.531,0.708,5.932
				c0.642,3.11,1.017,5.088,1.116,5.932c0.201,1.859,0.354,3.043,0.457,3.55c0.234,1.352,0.54,2.519,0.912,3.497
				c0.169,0.338,0.252,0.896,0.252,1.674c0,0.539-0.287,1.072-0.861,1.598c-0.575,0.522-1.148,0.785-1.725,0.785
				c-1.318,0-2.323-0.785-3.016-2.359c-0.693-1.57-1.277-3.521-1.749-5.854c-0.067-0.372-0.405-2.417-1.015-6.136
				c-0.033-0.269-0.051-0.473-0.051-0.607c0-0.372,0.103-0.643,0.305-0.811c-0.102-0.135-0.238-0.93-0.404-2.385
				c-0.171-1.182-0.441-1.824-0.813-1.926c-0.373,0.102-0.728,1.201-1.065,3.297c-0.405,2.399-0.657,3.701-0.761,3.902
				c-0.236,0.439-0.489,1.352-0.76,2.738c-0.27,1.387-0.577,2.367-0.914,2.941c-0.507,0.845-1.283,1.268-2.329,1.268
				c-1.05,0-1.928-0.373-2.64-1.116c-0.676-0.271-1.013-0.861-1.013-1.774c0-0.203,0.019-0.473,0.052-0.811s0.05-0.592,0.05-0.762
				c0-0.539-0.134-2.703-0.405-6.489c-0.219-2.913-0.408-5.696-0.561-8.36c-0.168,0.082-0.331,0.168-0.505,0.248
				c-0.812,0.406-2.654,1.15-5.524,2.231c-0.543,0.305-1.371,0.692-2.485,1.166c-0.744,0.102-1.69,0.372-2.84,0.811
				c-0.237,0.171-0.354,0.947-0.354,2.333c0,0.439,0.018,1.014,0.051,1.724c0.168,0.169,0.251,0.354,0.251,0.558
				c0,0.136-0.032,0.313-0.1,0.533c-0.068,0.219-0.103,0.379-0.103,0.48c-0.374,4.227-0.681,7.031-0.918,8.417
				c-0.818,4.226-2.008,6.337-3.573,6.337c-0.747,0-1.479-0.295-2.192-0.887c-0.717-0.592-1.072-1.275-1.072-2.054
				c0-0.607,0.373-1.217,1.116-1.825c0.101-0.102,0.218-0.389,0.356-0.861c0.605-2.197,0.912-3.854,0.912-4.969
				c0-0.271,0-0.676,0-1.217c0-0.542,0-0.946,0-1.218c0-0.608,0.041-1.554,0.125-2.839c0.084-1.283,0.11-2.264,0.075-2.941v-0.557
				c-0.271,0.035-0.945,0.084-2.026,0.152c-0.847,0.102-1.522,0.152-2.029,0.152c-3.109,0-4.664-0.963-4.664-2.891
				c0-1.451,1.234-2.349,3.702-2.688c1.79-0.133,3.565-0.27,5.322-0.404c0.068-0.305,0.103-0.727,0.103-1.268
				c0-0.609-0.051-1.42-0.153-2.434c-0.101-1.183-0.151-1.978-0.151-2.384c-0.201-4.899-0.303-8.349-0.303-10.343
				c0-4.291,0.267-7.148,0.804-8.568C158.227,115.001,159.115,114.527,160.527,114.527 M160.527,113.027
				c-2.731,0-3.721,1.487-4.067,2.373c-0.621,1.641-0.907,4.532-0.907,9.115c0,2.016,0.099,5.409,0.303,10.376
				c0.002,0.46,0.053,1.25,0.157,2.478c0.091,0.906,0.14,1.631,0.146,2.177c-1.335,0.103-2.681,0.205-4.035,0.306l-0.093,0.01
				c-4.349,0.598-4.998,2.871-4.998,4.174c0,1.64,0.801,4.391,6.164,4.391c0.563,0,1.271-0.052,2.166-0.158
				c0.142-0.009,0.274-0.018,0.4-0.025c-0.01,0.496-0.038,1.091-0.083,1.779c-0.085,1.302-0.128,2.289-0.128,2.937v1.218v1.217
				c0,0.966-0.289,2.504-0.858,4.57c-0.04,0.137-0.072,0.234-0.097,0.302c-0.949,0.852-1.43,1.786-1.43,2.783
				c0,0.855,0.28,2.106,1.617,3.21c0.982,0.815,2.042,1.23,3.147,1.23c3.212,0,4.418-4.31,5.046-7.552
				c0.254-1.48,0.56-4.272,0.939-8.57l0.001-0.029c0.009-0.038,0.022-0.083,0.039-0.136c0.114-0.373,0.168-0.69,0.168-0.98
				c0-0.377-0.093-0.737-0.271-1.063c-0.021-0.499-0.03-0.9-0.03-1.218c0-0.559,0.021-0.929,0.043-1.17
				c0.744-0.257,1.366-0.421,1.854-0.487l0.384-0.105c1.114-0.474,1.943-0.861,2.529-1.182c1.712-0.646,3.049-1.168,4.032-1.575
				c0.121,1.918,0.263,3.967,0.431,6.203c0.35,4.866,0.401,6.084,0.401,6.377c0,0.067-0.006,0.237-0.043,0.615
				c-0.04,0.409-0.059,0.713-0.059,0.957c0,1.797,0.919,2.638,1.64,3.021c0.967,0.909,2.146,1.37,3.513,1.37
				c1.582,0,2.832-0.69,3.615-1.996c0.439-0.748,0.797-1.865,1.101-3.427c0.345-1.767,0.567-2.237,0.608-2.313
				c0.062-0.121,0.119-0.231,0.209-0.587c0.483,2.943,0.738,4.481,0.798,4.809c0.495,2.453,1.117,4.526,1.853,6.192
				c1.183,2.689,3.039,3.254,4.388,3.254c0.955,0,1.875-0.396,2.733-1.175c0.898-0.822,1.353-1.732,1.353-2.708
				c0-0.989-0.118-1.712-0.37-2.262c-0.33-0.881-0.604-1.945-0.816-3.165c-0.061-0.306-0.188-1.101-0.443-3.455
				c-0.104-0.889-0.466-2.813-1.139-6.073c-0.448-2.269-0.677-4.166-0.677-5.629c0-1.208-0.284-2.078-0.869-2.656
				c-0.231-0.254-0.63-0.545-1.669-1.149c-0.293-0.267-0.587-0.548-0.894-0.854l-0.045-0.043c-0.725-0.668-1.766-1.006-3.094-1.006
				c-1.369,0-2.644,0.494-3.813,1.476c-0.311-4.71-0.468-9.767-0.468-15.085c0-3.077-0.199-4.105-0.373-4.657
				c-0.613-2.167-2.207-3.383-4.475-3.383c-2.274,0-3.345,1.049-3.841,1.929c-0.475,0.807-0.701,1.966-0.701,3.628
				c0,0.998,0.13,2.387,0.398,4.244c0.241,1.712,0.363,2.946,0.363,3.665c0,0.079-0.009,0.34-0.092,1.042
				c-0.076,0.642-0.096,1.156-0.061,1.566v0.331l0.001,0.05c0.034,1.021,0.074,2.068,0.12,3.137
				c-1.016,0.186-2.083,0.528-3.189,1.024c-1.376,0.649-3.027,1.132-4.937,1.445c0-0.025,0-0.052,0-0.077
				c0-0.794,0.082-1.858,0.245-3.162c0.203-1.837,0.322-2.975,0.359-3.404l0.004-0.063c0.135-3.252,0.217-5.626,0.251-7.247
				c0.315-1.128,0.548-1.68,0.69-1.946l0.154-0.454c0.115-0.678,0.174-1.394,0.174-2.128c0-1.712-0.389-3.167-1.155-4.326
				C163.818,113.814,162.328,113.027,160.527,113.027L160.527,113.027z"/>
		</g>
		<g>
			<path fill="#E62178" d="M198.524,160.046c-1.316,0-2.797-0.573-4.528-1.752c-1.483-1.002-2.205-3.046-2.205-6.249
				c0-3.953,0.662-7.856,1.969-11.603l0.08-0.162c0.457-0.702,0.966-1.86,1.511-3.441l0.087-1.283
				c0.045-0.697,0.195-1.246,0.451-1.715c0.466-0.768,1.444-1.507,3.008-2.289c1.539-0.771,2.727-1.145,3.633-1.145
				c1.674,0,2.834,0.575,3.448,1.71c1.219,2.153,1.814,6.52,1.814,13.338c0,0.221,0.018,0.521,0.049,0.899
				c0.036,0.435,0.052,0.776,0.052,1.026c0,0.94-0.24,1.64-0.716,2.084c-0.108,0.632-0.278,1.483-0.517,2.588
				c-0.554,1.814-1.545,3.512-2.962,5.105C202.004,159.074,200.263,160.046,198.524,160.046z M201.271,139.982
				c-1.068,2.374-2.032,6.033-2.871,10.911c-0.162,0.756-0.241,1.336-0.241,1.755c0,0.524,0.076,0.773,0.124,0.877
				c0.034-0.038,0.079-0.094,0.133-0.174c0.295-0.439,0.686-0.746,1.144-0.9c0.607-0.938,1.123-2.377,1.534-4.284
				c0.354-1.765,0.535-3.443,0.535-4.978C201.628,141.903,201.508,140.831,201.271,139.982z"/>
			<path fill="#1D1D1B" d="M202.529,131.157c1.384,0,2.314,0.44,2.789,1.317c1.148,2.029,1.724,6.356,1.724,12.98
				c0,0.236,0.018,0.559,0.052,0.963c0.033,0.406,0.049,0.728,0.049,0.963c0,0.846-0.22,1.404-0.658,1.673
				c-0.102,0.644-0.288,1.591-0.558,2.841c-0.508,1.656-1.437,3.244-2.789,4.766c-1.555,1.758-3.092,2.636-4.613,2.636
				c-1.151,0-2.518-0.54-4.106-1.622c-1.251-0.845-1.877-2.721-1.877-5.629c0-3.886,0.642-7.67,1.927-11.355
				c0.507-0.777,1.046-2.01,1.624-3.701c0.031-0.473,0.065-0.964,0.101-1.471c0.032-0.507,0.151-0.945,0.354-1.317
				c0.37-0.608,1.269-1.269,2.686-1.978C200.652,131.512,201.752,131.157,202.529,131.157 M198.313,154.327
				c0.232,0,0.477-0.187,0.726-0.558c0.251-0.374,0.578-0.596,0.979-0.662c0.738-1.018,1.34-2.61,1.809-4.782
				c0.367-1.829,0.552-3.542,0.552-5.136c0-2.238-0.352-3.883-1.054-4.934c-1.404,2.306-2.626,6.477-3.664,12.511
				c-0.168,0.78-0.252,1.407-0.252,1.882C197.408,153.77,197.71,154.327,198.313,154.327 M202.529,129.657
				c-1.025,0-2.323,0.4-3.969,1.225c-1.717,0.858-2.764,1.665-3.295,2.539l-0.035,0.061c-0.31,0.566-0.489,1.219-0.535,1.941
				l-0.006,0.081l-0.081,1.184c-0.512,1.475-0.981,2.545-1.397,3.183l-0.159,0.325c-1.334,3.826-2.011,7.813-2.011,11.85
				c0,3.471,0.83,5.719,2.537,6.872c1.855,1.264,3.475,1.879,4.946,1.879c1.963,0,3.893-1.058,5.737-3.142
				c1.486-1.673,2.53-3.464,3.1-5.32l0.032-0.123c0.213-0.989,0.372-1.78,0.482-2.396c0.42-0.485,0.767-1.247,0.767-2.435
				c0-0.283-0.019-0.648-0.054-1.085c-0.039-0.458-0.047-0.71-0.047-0.841c0-6.951-0.627-11.438-1.918-13.719
				C206.118,130.801,204.984,129.657,202.529,129.657L202.529,129.657z M198.979,151.879c0.033-0.22,0.08-0.482,0.148-0.797
				l0.012-0.062c0.534-3.105,1.115-5.702,1.739-7.773c-0.005,1.47-0.181,3.078-0.522,4.783c-0.36,1.668-0.799,2.953-1.304,3.814
				C199.027,151.855,199.003,151.867,198.979,151.879L198.979,151.879z"/>
		</g>
		<g>
			<path fill="#E62178" d="M214.431,164.408c-1.994,0-3.138-1.103-3.219-3.104l-0.001-0.487l0.014-0.143
				c0.021-0.108,0.035-0.195,0.035-0.262c0-0.56-0.107-1.445-0.318-2.632c-0.229-1.283-0.34-2.229-0.34-2.894v-1.421
				c0-1.911-0.22-4.435-0.652-7.5c-0.594-4.269-0.917-6.71-1.017-7.685c-0.031-0.239-0.121-0.71-0.268-1.39
				c-0.164-0.768-0.243-1.35-0.243-1.779c0-0.494,0.073-0.96,0.218-1.383c0.169-0.511,0.593-1,1.295-1.489
				c0.694-0.482,1.323-0.717,1.924-0.717c1.267,0,2.309,0.452,3.097,1.343c0.765,0.864,1.152,1.944,1.152,3.21
				c0,0.461-0.08,1.074-0.244,1.873c-0.142,0.692-0.213,1.222-0.213,1.574c0,0.161,0.013,0.438,0.052,0.909
				c0.886-3.07,2.115-6.606,3.674-10.564c0.075-0.296,0.185-0.689,0.306-1.102c0.163-0.563,0.45-1.003,0.854-1.304
				c0.82-0.574,1.818-0.858,2.984-0.858c1.18,0,2.048,0.558,2.512,1.613c0.047,0.092,0.124,0.246,0.588,2.348
				c0.242,0.566,0.51,1.391,0.817,2.514c0.258,1.386,0.382,2.998,0.382,4.854c0,0.942-0.041,2.336-0.127,4.26
				c-0.082,1.78-0.126,3.229-0.126,4.193c0,2.401,0.231,4.573,0.688,6.454c0.268,0.889,0.633,2.288,1.079,4.134h0.017
				c0.652,0,2.169,0.275,2.169,2.829c0,0.896-0.299,1.788-0.89,2.652c-0.718,1.058-1.575,1.595-2.546,1.595
				c-0.498,0-1.097-0.131-1.83-0.4c-0.79-0.291-1.331-0.637-1.654-1.06c-0.085-0.075-0.111-0.102-0.875-2.288
				c-1.877-5.184-2.83-9.534-2.83-12.922c0-0.851,0.052-2.136,0.152-3.82c0.011-0.174,0.021-0.344,0.03-0.509
				c-0.104,0.378-0.212,0.771-0.323,1.18c-0.003,0.03-0.031,0.337-0.073,1.754c-0.036,0.873-0.21,1.539-0.531,2.03
				c-0.147,1.272-0.396,3.073-0.737,5.357l-0.031,0.126c-0.223,0.667-0.524,1.704-0.923,3.171c-0.042,1.219-0.23,2.958-0.561,5.171
				C217.583,163.056,216.743,164.408,214.431,164.408z"/>
			<path fill="#1D1D1B" d="M223.52,127.354c0.879,0,1.484,0.39,1.825,1.165c0.067,0.135,0.253,0.895,0.558,2.277
				c0.237,0.54,0.506,1.367,0.811,2.48c0.236,1.281,0.355,2.834,0.355,4.656c0,0.945-0.043,2.354-0.126,4.227
				c-0.087,1.873-0.127,3.282-0.127,4.227c0,2.465,0.234,4.674,0.71,6.631c0.303,1.012,0.708,2.58,1.217,4.707
				c0.331,0,0.523,0,0.607,0c0.946,0,1.419,0.693,1.419,2.079c0,0.744-0.252,1.487-0.759,2.229
				c-0.574,0.846-1.218,1.268-1.927,1.268c-0.405,0-0.931-0.119-1.571-0.354c-0.643-0.236-1.084-0.506-1.318-0.812
				c-0.034-0.034-0.289-0.726-0.762-2.079c-1.859-5.136-2.788-9.362-2.788-12.675c0-0.844,0.051-2.104,0.151-3.775
				c0.102-1.674,0.153-2.934,0.153-3.777c0-0.676-0.034-1.302-0.102-1.877c-0.471,1.318-1.076,3.346-1.817,6.084
				c-0.032,0.101-0.064,0.744-0.1,1.928c-0.033,0.811-0.202,1.402-0.504,1.773c-0.137,1.217-0.387,3.059-0.757,5.525
				c-0.237,0.71-0.556,1.81-0.959,3.297c-0.034,1.183-0.218,2.908-0.556,5.172c-0.336,1.283-1.244,1.928-2.724,1.928
				c-1.581,0-2.405-0.797-2.47-2.385c0-0.102,0-0.254,0-0.457c0.032-0.167,0.049-0.303,0.049-0.404c0-0.608-0.11-1.529-0.33-2.764
				c-0.22-1.233-0.328-2.154-0.328-2.762c0-0.17,0-0.407,0-0.711c0-0.305,0-0.542,0-0.71c0-1.96-0.221-4.495-0.66-7.604
				c-0.573-4.124-0.912-6.676-1.013-7.656c-0.035-0.271-0.128-0.762-0.28-1.471c-0.151-0.71-0.227-1.25-0.227-1.622
				c0-0.406,0.057-0.786,0.178-1.141c0.117-0.354,0.455-0.727,1.014-1.116c0.557-0.387,1.056-0.582,1.495-0.582
				c1.046,0,1.893,0.363,2.535,1.09s0.964,1.631,0.964,2.713c0,0.404-0.076,0.98-0.229,1.723c-0.152,0.745-0.229,1.318-0.229,1.725
				c0,0.642,0.169,2.35,0.508,5.12c0.811-3.819,2.362-8.653,4.666-14.5c0.1-0.372,0.208-0.76,0.327-1.166
				c0.117-0.405,0.31-0.71,0.582-0.913C221.659,127.592,222.507,127.354,223.52,127.354 M223.52,125.854
				c-1.323,0-2.466,0.33-3.396,0.98c-0.574,0.428-0.953,0.999-1.164,1.726c-0.112,0.384-0.216,0.755-0.313,1.112
				c-0.707,1.796-1.346,3.507-1.916,5.127c-0.191-0.918-0.598-1.732-1.214-2.431c-0.924-1.044-2.189-1.596-3.659-1.596
				c-0.759,0-1.527,0.278-2.351,0.851c-0.842,0.587-1.358,1.2-1.582,1.877c-0.167,0.487-0.254,1.034-0.254,1.611
				c0,0.482,0.085,1.116,0.26,1.935c0.186,0.863,0.242,1.217,0.26,1.352c0.096,0.943,0.42,3.394,1.015,7.669
				c0.429,3.034,0.646,5.521,0.646,7.398v0.71v0.711c0,0.708,0.115,1.697,0.352,3.024c0.253,1.425,0.307,2.146,0.307,2.501
				c-0.002,0.018-0.011,0.064-0.021,0.12l-0.027,0.284v0.457l0.001,0.061c0.098,2.395,1.581,3.824,3.969,3.824
				c2.146,0,3.668-1.111,4.175-3.048l0.032-0.158c0.327-2.189,0.517-3.927,0.565-5.168c0.384-1.409,0.675-2.406,0.889-3.047
				l0.061-0.253c0.12-0.803,0.229-1.546,0.326-2.229c0.433,2.715,1.283,5.83,2.543,9.311c0.753,2.157,0.823,2.333,1.052,2.569
				c0.415,0.497,1.045,0.896,1.921,1.219c0.818,0.3,1.501,0.446,2.089,0.446c0.849,0,2.088-0.334,3.168-1.925
				c0.675-0.988,1.018-2.022,1.018-3.072c0-2.274-1.12-3.287-2.332-3.523c-0.391-1.593-0.707-2.796-0.963-3.654
				c-0.437-1.813-0.658-3.913-0.658-6.239c0-0.952,0.043-2.39,0.125-4.157c0.086-1.938,0.128-3.342,0.128-4.296
				c0-1.902-0.128-3.56-0.38-4.929l-0.028-0.123c-0.306-1.114-0.575-1.949-0.823-2.545c-0.445-2.014-0.544-2.271-0.635-2.457
				C226.113,126.573,224.984,125.854,223.52,125.854L223.52,125.854z"/>
		</g>
	</g>
</g>
<g>
	<path fill="#FFFFFF" d="M160.13,14.952c-4.574,0.526-9.725-0.916-14.33-0.919c-3.112-0.002-6.268,1.24-8.322,3.578
		c-1.957,2.228-2.793,5.221-3.254,8.15c-0.457,2.897-0.564,6.034,0.885,8.584c1.394,2.453,3.979,3.943,6.454,5.294
		c1.867,1.019,3.765,2.034,5.823,2.569c2.552,0.664,5.257,0.56,7.841,0.032c4.525-0.925,8.861-3.232,11.689-6.883
		s3.971-8.709,2.426-13.061C167.796,17.946,165.181,14.371,160.13,14.952z"/>
	<path fill="none" stroke="#1D1D1B" stroke-width="1.5" stroke-linecap="round" stroke-linejoin="round" stroke-miterlimit="10" d="
		M157.765,12.604c-4.576,0.526-9.726-0.916-14.332-0.919c-3.112-0.002-6.268,1.24-8.322,3.578c-1.957,2.228-2.792,5.221-3.254,8.15
		c-0.456,2.897-0.563,6.034,0.885,8.584c1.394,2.453,3.979,3.943,6.454,5.294c1.868,1.019,3.765,2.034,5.824,2.569
		c2.552,0.664,5.256,0.56,7.84,0.032c4.525-0.925,8.861-3.232,11.689-6.883c2.83-3.65,3.971-8.708,2.426-13.061
		C165.429,15.598,162.813,12.023,157.765,12.604z"/>
	<path fill="none" stroke="#1D1D1B" stroke-width="1.5" stroke-linecap="round" stroke-linejoin="round" stroke-miterlimit="10" d="
		M128.878,12.023c-2.426,1.402-3.956,4.224-3.809,7.021"/>
	<path fill="none" stroke="#1D1D1B" stroke-width="1.5" stroke-linecap="round" stroke-linejoin="round" stroke-miterlimit="10" d="
		M121.992,11.438c-1.13,1.25-1.717,2.975-1.584,4.655"/>
	<path fill="none" stroke="#1D1D1B" stroke-width="1.5" stroke-linecap="round" stroke-linejoin="round" stroke-miterlimit="10" d="
		M169.483,13.586c3.342,2.235,5.1,6.606,4.236,10.533"/>
	<path fill="none" stroke="#1D1D1B" stroke-width="1.5" stroke-linecap="round" stroke-linejoin="round" stroke-miterlimit="10" d="
		M177.339,14.918c1.34,2.04,2.133,4.437,2.271,6.874"/>
	<path fill="none" stroke="#1D1D1B" stroke-width="1.5" stroke-linecap="round" stroke-linejoin="round" stroke-miterlimit="10" d="
		M131.395,28.431c-1.646,0.889-3.194,1.959-4.608,3.184"/>
	<path fill="none" stroke="#1D1D1B" stroke-width="1.5" stroke-linecap="round" stroke-linejoin="round" stroke-miterlimit="10" d="
		M134.148,33.438c-1.082,1.471-2.025,3.042-2.814,4.689"/>
	<path fill="none" stroke="#1D1D1B" stroke-width="1.5" stroke-linecap="round" stroke-linejoin="round" stroke-miterlimit="10" d="
		M138.751,37.645c-0.646,1.669-1.293,3.339-1.939,5.008"/>
	<path fill="none" stroke="#1D1D1B" stroke-width="1.5" stroke-linecap="round" stroke-linejoin="round" stroke-miterlimit="10" d="
		M145.616,40.758c-0.339,1.498-0.679,2.995-1.018,4.492"/>
	<path fill="none" stroke="#1D1D1B" stroke-width="1.5" stroke-linecap="round" stroke-linejoin="round" stroke-miterlimit="10" d="
		M153.198,41.307c0.145,1.44,0.289,2.881,0.434,4.322"/>
	<path fill="none" stroke="#1D1D1B" stroke-width="1.5" stroke-linecap="round" stroke-linejoin="round" stroke-miterlimit="10" d="
		M158.821,38.687c0.092,1.204,0.42,2.39,0.959,3.47"/>
	<path fill="none" stroke="#1D1D1B" stroke-width="1.5" stroke-linecap="round" stroke-linejoin="round" stroke-miterlimit="10" d="
		M163.183,34.457c0.854,1.284,1.895,2.444,3.078,3.433"/>
	<path fill="none" stroke="#1D1D1B" stroke-width="1.5" stroke-linecap="round" stroke-linejoin="round" stroke-miterlimit="10" d="
		M166.735,30.763c1.537,0.835,2.963,1.878,4.225,3.091"/>
	<path fill="none" stroke="#1D1D1B" stroke-width="1.5" stroke-linecap="round" stroke-linejoin="round" stroke-miterlimit="10" d="
		M135.956,7.908c2.869-1.223,6.056-1.692,9.156-1.347c1.303,0.145,2.588,0.431,3.891,0.571c4.781,0.515,9.969-0.868,14.215,1.388"/>
</g>
</svg>
