<?xml version="1.0" encoding="utf-8"?>
<!-- Generator: Adobe Illustrator 19.2.1, SVG Export Plug-In . SVG Version: 6.00 Build 0)  -->
<svg version="1.1" id="Layer_1" xmlns="http://www.w3.org/2000/svg" xmlns:xlink="http://www.w3.org/1999/xlink" x="0px" y="0px"
	 width="408px" height="153px" viewBox="0 0 408 153" style="enable-background:new 0 0 408 153;" xml:space="preserve">
<style type="text/css">
	.st0{fill:#2987C8;stroke:#1D1D1B;stroke-width:2;stroke-linejoin:round;stroke-miterlimit:10;}
	.st1{fill:#FFE400;stroke:#1D1D1B;stroke-width:2;stroke-linejoin:round;stroke-miterlimit:10;}
	.st2{fill:#E62178;stroke:#000000;stroke-width:2;stroke-miterlimit:10;}
</style>
<g>
	<g>
		<g>
			<path class="st0" d="M16,115.5V2.5h42.3c5,0,9.6,0.5,13.7,1.5c4.2,1.1,7.7,2.7,10.7,5s5.2,5.3,6.8,9.1c1.6,3.8,2.4,8.3,2.4,13.7
				c0,5.1-0.7,9.7-2.5,13.7c-1.9,4-5.5,7.2-9.5,9.5v0.3c8,1.1,13.8,4.2,17.4,9.3c3.7,5.1,5.4,11.6,5.4,19.5c0,5.9-1.2,10.9-3.6,14.9
				c-2.4,4.1-5.5,7.3-9.3,9.8s-8.2,4.1-13.1,5.2s-10,1.5-15.2,1.5H16z M46,46.5h3c1.9,0,3.8,0.1,5.7-0.2c1.9-0.2,3.6-0.7,5.1-1.4
				c1.5-0.8,2.7-1.8,3.7-3.3s1.4-3.4,1.4-5.8c0-2.6-0.5-4.6-1.6-6.1c-1.1-1.4-2.4-2.5-4.1-3.3c-1.7-0.8-3.5-1.4-5.5-1.6
				c-2-0.1-4-0.4-6-0.4H46V46.5z M46,93.5h3.5c2.2,0,4.7-0.2,7.4-0.3c2.7-0.1,5.3-0.6,7.7-1.3c2.4-0.7,4.4-1.9,6-3.6
				s2.4-4.1,2.4-7.2c0-3.4-0.8-6-2.4-7.7s-3.6-3.1-6.1-3.8c-2.5-0.7-5.1-1.2-7.9-1.2c-2.8,0-5.4,0-7.8,0H46V93.5z"/>
			<path class="st0" d="M131,90.5h35v25h-65V2.5h16.6l13.4,8.3V90.5z"/>
			<path class="st0" d="M195,115.5h-30V2.5h30V115.5z"/>
			<path class="st0" d="M194,2.5h17.4l18.7,7.8l47.8,61.2h0.1v-69h30v113h-29.8l-53.9-69H224v65.8l-13,3.2h-17V2.5z"/>
			<path class="st0" d="M307,2.5h42.1c7.9,0,15.4,1.4,22.3,4.3c7,2.9,13,6.9,18.3,12c5.2,5.1,9.3,11.1,12.4,18s4.6,14.3,4.6,22.2
				c0,8-1.5,15.4-4.6,22.3s-7.2,12.8-12.4,18c-5.2,5.1-11.3,9-18.3,11.9s-14.4,4.3-22.2,4.3H307V2.5z M337,90.5h6.4
				c4.4,0,8.6-0.5,12.5-1.8c4-1.3,7.4-3.1,10.4-5.7s5.3-5.8,7.1-9.8c1.8-4,2.6-8.8,2.6-14.3c0-5.1-0.8-9.6-2.4-13.5
				s-3.8-7.2-6.7-9.9c-2.9-2.7-6.3-4.7-10.2-6.1c-4-1.4-8.3-2-13-2H337V90.5z"/>
		</g>
	</g>
	<g>
		<g>
			<path class="st1" d="M2,115.5V2.5h42.4c5,0,9.6,0.5,13.8,1.5c4.2,1.1,7.7,2.7,10.7,5s5.2,5.3,6.8,9.1c1.6,3.8,2.4,8.3,2.4,13.7
				c0,5.1-0.8,9.7-2.6,13.7c-1.9,4-5.5,7.2-9.5,9.5v0.3c8,1.1,13.8,4.2,17.5,9.3s5.4,11.6,5.4,19.5c0,5.9-1.2,10.9-3.6,14.9
				c-2.4,4.1-5.5,7.3-9.3,9.8s-8.2,4.1-13.1,5.2s-10,1.5-15.2,1.5H2z M32,46.5h3.1c1.9,0,3.8,0.1,5.7-0.2c1.9-0.2,3.6-0.7,5.1-1.4
				c1.5-0.8,2.7-1.8,3.7-3.3s1.4-3.4,1.4-5.8c0-2.6-0.5-4.6-1.6-6.1c-1.1-1.4-2.4-2.5-4.1-3.3c-1.7-0.8-3.5-1.4-5.5-1.6
				c-2-0.1-4-0.4-6-0.4H32V46.5z M32,93.5h3.6c2.2,0,4.7-0.2,7.4-0.3c2.7-0.1,5.3-0.6,7.7-1.3c2.4-0.7,4.4-1.9,6-3.6
				s2.4-4.1,2.4-7.2c0-3.4-0.8-6-2.4-7.7c-1.6-1.7-3.6-3.1-6.1-3.8c-2.5-0.7-5.1-1.2-7.9-1.2c-2.8,0-5.4,0-7.8,0H32V93.5z"/>
			<path class="st1" d="M117,90.5h35v25H88V2.5h29V90.5z"/>
			<path class="st1" d="M181,115.5h-30V2.5h30V115.5z"/>
			<path class="st1" d="M181,2.5h29.1l53.9,69l0,0v-69h30v113h-29.7l-53.9-69H210v69h-29V2.5z"/>
			<path class="st1" d="M293,2.5h42.2c7.9,0,15.4,1.4,22.3,4.3c7,2.9,13,6.9,18.3,12c5.2,5.1,9.3,11.1,12.4,18s4.6,14.3,4.6,22.2
				c0,8-1.5,15.4-4.6,22.3s-7.2,12.8-12.4,18c-5.2,5.1-11.3,9-18.3,11.9s-14.4,4.3-22.2,4.3H293V2.5z M323,90.5h6.5
				c4.4,0,8.6-0.5,12.5-1.8c4-1.3,7.4-3.1,10.4-5.7s5.3-5.8,7.1-9.8c1.7-4,2.6-8.8,2.6-14.3c0-5.1-0.8-9.6-2.4-13.5
				s-3.8-7.2-6.7-9.9c-2.9-2.7-6.3-4.7-10.2-6.1c-4-1.4-8.3-2-13-2H323V90.5z"/>
		</g>
	</g>
	<g>
		<path class="st2" d="M82.9,139.3c-1.3,0-2.2-0.2-2.9-0.6c-0.9-0.5-1.6-1.4-2.1-2.6v-0.2l0,0c0-0.1-0.1-0.6-0.6-2.5l-1.6-5.7
			c-0.8-2.8-1.2-4.7-1.2-5.7c0-0.3,0.2-0.7,0.3-1.2c0.1-0.5,0.2-0.8,0.2-1v-0.3c0-1.3-0.6-6.5-1.3-15.3c0-0.6-0.3-1.8-0.6-3.7
			c-0.2-1.6-0.4-2.9-0.4-3.9c0-5.8,3.5-6.7,5.5-6.7c2.1,0,3.5,1,4.3,2.8c0.5,1.2,0.8,2.8,1,4.6c0,1.5,0.1,3,0.1,4.5
			c0.3,3.4,0.7,7.9,1.3,13.3c0.9-0.4,2.1-0.8,3.5-1.2h0.1c0.5-0.1,1.4-0.4,3.2-1.2c1.2-0.6,2.1-1,2.9-1.2c0-1.1-0.2-2.7-0.3-4.7
			c-0.2-2.5-0.3-4.5-0.3-5.8v-4.1c0-1.2,0-3.1-0.2-5.8c-0.2-2.6-0.2-4.6-0.2-6c0-1.1,0.1-2.7,0.2-5c0.1-2.2,0.2-3.8,0.2-4.8
			c0-3.9,1.9-6,5.5-6c1.4,0,3.3,0.6,4,3.2c0.3,1,0.4,2.5,0.4,4.6c0,1.8-0.1,4.6-0.3,8.1c-0.2,3.5-0.3,6.2-0.3,8
			c0,3.1,0.1,5.9,0.3,8.4c0.3,6.3,1,15.7,2.1,28c1,1.6,1.4,2.9,1.4,4.1c0,1.4-0.7,3.7-5.3,3.7c-4.5,0-5.1-2.8-5.1-4.4
			c0-0.3,0-0.8,0.2-1.5c0.1-0.7,0.1-1.1,0.1-1.3c0-1.2-0.2-3.2-0.6-5.8c-0.3-2-0.6-3.6-0.9-4.8c-1.5,0.5-3.8,1.5-6.9,3
			c-0.5,0.3-1.3,0.7-2.3,1.1l-0.3,0.1c-0.3,0-0.6,0.1-1,0.3c-0.1,0.1-0.2,0.5-0.2,1.5c0,1.7,0.2,3.3,0.7,4.8c0,0.2,0.2,0.8,1.1,3.1
			c0.9,2.4,1,2.9,1,3.3C87.7,139.3,84.2,139.3,82.9,139.3z"/>
		<path class="st2" d="M129.1,151.2c-2.2,0-3.9-0.8-5-2.5c-0.4-0.7-0.8-1.5-1-2.5l-0.4-2.2c-0.4-0.9-0.9-2.3-1.6-4.2v-0.2
			c-0.2-1.1-0.5-2.7-0.8-4.7c-0.7,0.9-1,1.3-1.2,1.5c-1.3,1.3-2.8,1.9-4.3,1.9s-3.2-0.7-5.2-2.1c-2.6-1.9-3.8-6.7-3.8-14.8
			c0-3.7,0.3-7.8,0.9-12.1c0.8-5.7,1.9-9.5,3.3-11.7c0.5-0.8,1.4-1.6,2.5-2.2s2.3-0.8,3.3-0.8c0.9,0,1.9,0.3,3.2,0.9
			c0.9,0.4,1.6,0.8,2.2,1.3c0.4-0.2,0.8-0.3,1.3-0.3c1.1,0,2.5,0.6,4.3,1.7l0.3,0.3c0.3,0.5,0.7,1.1,0.7,1.9
			c0.6,0.6,1.1,1.3,1.1,2.2v0.8l-0.2,0.2c0,0.2,0.1,0.3,0.1,0.3l0.1,0.2v0.4c0,5.1,0.1,6,0.1,6.3c0,1.3-0.2,3.3-0.3,6
			c-0.1,2.5-0.2,4.5-0.2,5.8c0,1.8,0.3,4.2,0.9,7.1c0.8,3.9,1.2,6.3,1.4,7.2l0.3,3.4c0.2,1.6,0.6,2.3,0.8,2.5c1,1,1.5,2.3,1.5,3.8
			C133.4,149.6,131.9,151.2,129.1,151.2z M117.5,105.3c-1.7,3.7-2.5,9-2.5,15.6c0,0.8,0,1.6,0.1,2.4c0.6-1.6,1-2.9,1.2-4.1
			c0.2-2.6,0.4-5.3,0.6-7.9c0.1-0.5,0.2-1.4,0.6-2.7c0.3-1,0.4-1.8,0.4-2.4s-0.1-0.7-0.1-0.8l0,0
			C117.8,105.5,117.8,105.4,117.5,105.3z"/>
		<path class="st2" d="M142.3,140.2c-1.5,0-3.1-0.6-4.7-1.7c-4.7-3-7-7.7-7-14c0-4.2,0.7-9.3,1.9-15.1c1.8-7.9,4.1-12.1,7.1-12.9
			c0.5-0.1,1.1-0.2,1.7-0.2c1.3,0,3.1,0.6,4.1,3.6c0.5,0.5,1.1,1.6,2,4.5c0.8,2.6,1.2,4.3,1.2,5.3c0,2.4-1.1,4.6-3.3,6.6l-1.1,0.1
			c-1.4-0.8-2.3-1.4-2.7-2c-0.1,0.1-0.5,0.2-0.5,0.3v0.1c0,0.4,0.1,0.9,0,1.5c-0.5,2.5-0.6,5.1-0.6,7.6c0,2.6,0.3,7.1,2.2,7.2
			c0.1,0,0.5-0.2,1.5-1c1.2-1,2.6-1.5,4-1.5c2.1,0,3.3,1.2,3.3,3.1c0,0.6-0.1,1.2-0.3,1.9c-0.2,0.5-0.6,1.4-2.6,3.3
			c-1.5,1.4-2.5,2.2-3.2,2.6C144.3,139.9,143.3,140.2,142.3,140.2z"/>
		<path class="st2" d="M161,151.6c-1.3,0-3.1-0.6-4-3.3c-0.3-0.8-0.5-2.3-0.8-4.7c-0.4-6.5-1.2-16.3-2.4-29.1
			c-0.1-1.1-0.3-4.8-0.3-7.7c-0.1-3.1-0.7-5.6-1.2-7.4l-0.3-0.3v-1.6c0-1.9-0.1-4.6-0.7-8c-0.6-3.7-0.8-6.5-0.9-8.2
			c0-1.6-0.3-3.9-0.9-6.6c-0.7-3.1-1.2-5.3-1.4-6.6c-0.3-0.3-0.5-0.8-0.5-1.4c0-1.4,0.6-2.6,1.7-3.5c1.1-0.9,2.3-1.3,3.6-1.3
			c1.4,0,2.5,0.5,3.2,1.6c0.1,0.2,0.3,0.5,1.2,2.6c0.2,0.3,0.4,1.1,1,3.8c0.6,2.4,1.4,6,2.3,11V81c0.1,1.8,0.3,4.6,0.6,8.4
			c0.4,6,1.1,14.6,2,25.9c0.6-1,1.1-2,1.8-3.2c1.9-3.6,3-5.6,3.2-6l0.1-0.1c0.9-1,2-2.7,3.3-5c0.3-0.8,0.8-1.8,1.6-3l0.2-0.2
			c1-0.9,2.3-1.4,3.9-1.4c3.9,0,4.5,2.5,4.5,4c0,0.4-0.1,0.9-0.2,1.4c0.5-1.6,1.1-2.9,1.7-3.9c0.5-0.8,1.4-1.6,2.6-2.2
			c1.1-0.6,2.3-0.8,3.3-0.8c0.9,0,1.9,0.3,3.2,0.9c0.9,0.4,1.6,0.8,2.2,1.3c0.4-0.2,0.8-0.3,1.3-0.3c1.1,0,2.5,0.6,4.3,1.7l0.3,0.3
			c0.3,0.5,0.5,1.1,0.5,1.9c0.6,0.6,0.9,1.3,0.9,2.2v0.8v0.2c0,0.2,0,0.3,0,0.3v0.3v0.4c0,2.6,0.3,5.8,0.3,6.3c0,1.4-0.1,3.4-0.2,6
			c-0.1,2.5-0.2,4.5-0.2,5.8c0,1.8,0.3,4.2,0.9,7.1c0.8,4,1.3,6.3,1.4,7.2c0.1,1.2,0.2,2.3,0.3,3.4c0.2,1.6,0.6,2.3,0.8,2.5
			c1,1,1.5,2.3,1.5,3.8c0,3-1.5,4.6-4.3,4.6c-2.2,0-3.9-0.8-5-2.5c-0.4-0.7-0.8-1.5-1-2.5l-0.4-2.2c-0.4-1-1-2.4-1.6-4.2V140
			c-0.2-1.1-0.5-2.7-0.8-4.7c-0.6,0.7-1,1.2-1.2,1.5c-1.3,1.3-2.8,1.9-4.3,1.9s-3.2-0.7-5.2-2.1c-1.1-0.8-1.9-2.1-2.5-3.9l-4.2,0.1
			c-2.1,0.4-5.2,0.8-9.5,1.3c-0.4,0-1,0.1-1.6,0.2c0,0.2,0,0.6,0,1.2c0,1.6,0.1,2.5,0.2,3c0.8,0.8,1.2,1.9,1.2,3.4
			c0,2-0.3,4-0.9,5.8C164.5,150.2,163,151.6,161,151.6z M168.3,125c0.8,0.1,1.7,0.1,2.5,0.1c1.9,0,4.1-0.2,6.5-0.5
			c0.7-0.1,1.3-0.1,1.8-0.2c0-0.9-0.1-1.9-0.1-3c0-3.7,0.3-7.8,0.9-12.1c0.4-2.8,0.9-5.2,1.4-7.1c-0.2,0.6-0.5,1.3-1,2.1
			c-0.2,0.4-1.2,2.1-6.8,11C171.2,119.1,169.4,122.4,168.3,125z M190.9,105.3c-1.7,3.7-2.5,9-2.5,15.6c0,0.8,0,1.6,0.1,2.4
			c0.6-1.6,1-2.9,1.2-4.1c0.2-2.4,0.4-5,0.6-7.9c0.1-0.5,0.2-1.4,0.6-2.7c0.3-1,0.4-1.8,0.4-2.4s-0.1-0.8-0.1-0.8l0,0
			C191.2,105.5,191.1,105.4,190.9,105.3z"/>
		<path class="st2" d="M262.2,146.6c-1.6,0-3.7-0.7-5.1-3.9c-1-2.3-1.8-5.1-2.5-8.4c-0.1-0.5-0.6-3.4-1.4-8.6
			c-0.1-0.5-0.1-0.8-0.1-1c0-0.6,0.1-1,0.3-1.3c-0.1-0.5-0.3-1.4-0.4-3c0-0.3-0.1-0.5-0.1-0.7c-0.2,0.6-0.3,1.4-0.5,2.7
			c-0.9,5.2-1,5.5-1.2,5.8c-0.2,0.3-0.5,1.2-1,3.6c-0.4,2.1-0.9,3.5-1.4,4.4c-0.9,1.5-2.3,2.3-4.1,2.3c-1.7,0-3.1-0.6-4.3-1.7
			c-0.9-0.4-1.8-1.3-1.8-3.3c0-0.3,0-0.7,0.1-1.2c0-0.4,0.1-0.8,0.1-1c0-0.4-0.1-2.2-0.6-9c-0.3-3.7-0.5-7.1-0.7-10.2
			c-1.3,0.6-3.7,1.5-7.1,2.8c-0.8,0.4-1.9,1-3.5,1.6l-0.3,0.1c-0.9,0.1-2,0.4-3.4,1c-0.1,0.3-0.2,0.9-0.2,2.5c0,0.5,0,1.2,0.1,2
			c0.2,0.3,0.4,0.7,0.4,1.2c0,0.3-0.1,0.6-0.2,1c-0.1,0.3-0.1,0.4-0.1,0.4c-0.5,6-1,10-1.3,11.9c-0.8,4.2-2.3,9.7-6,9.7
			c-1.3,0-2.5-0.5-3.7-1.5s-1.9-2.2-1.9-3.6c0-1.1,0.6-2.2,1.8-3.3c0,0-0.1-0.2,0.1-0.8c0.8-3,1-5.2,1-6.7V127c0-0.9,0.3-2.2,0.4-4
			c0.1-1.6,0.2-2.9,0.2-3.7c-0.5,0-1,0.1-1.7,0.1c-1.2,0.1-2.1,0.2-2.9,0.2c-6.2,0-7.5-2.7-7.5-5c0-1.8,1.1-4.1,6.1-4.8l6.7-0.5
			c0-0.2,0-0.5,0-0.8c0-0.8-0.1-1.9-0.2-3.3c-0.1-1.7-0.2-2.8-0.2-3.4c-0.3-6.8-0.4-11.7-0.4-14.5c0-6.2,0.4-10.2,1.2-12.4
			c0.5-1.2,1.7-2.6,4.7-2.6c2.2,0,3.9,0.9,5.1,2.7c1,1.5,1.4,3.3,1.4,5.5c0,1-0.1,1.9-0.2,2.8l-0.1,0.3c-0.2,0.4-0.6,1.3-1.1,3.1
			c0,2.3-0.2,5.7-0.4,10.3c-0.1,0.6-0.2,2.3-0.5,4.8c-0.2,1.9-0.4,3.4-0.4,4.6c0,0.5,0,1,0.1,1.4c3.3-0.4,6.1-1.2,8.4-2.3
			c1.8-0.8,3.7-1.3,5.4-1.5c-0.1-1.8,0-3.6,0-5.4v-0.5c0-0.5-0.2-1.2-0.1-2c0.1-0.8,0-1.3,0-1.6c0-1.1-0.2-2.8-0.6-5.3
			c-0.4-2.5-0.6-4.5-0.6-5.8c0-2.1,0.3-3.6,0.8-4.6c0.8-1.4,2.3-2.1,4.4-2.1c2.7,0,4.5,1.4,5.2,4c0.3,1,0.5,3,0.5,6.2
			c0,8.4,0.3,16.3,0.8,23.7c1.9-2.3,4-3.5,6.3-3.5c1.6,0,2.8,0.4,3.6,1.1c0.5,0.5,0.9,0.9,1.4,1.3c1.6,0.9,2,1.3,2.2,1.5
			c0.6,0.6,0.9,1.6,0.9,3c0,2.1,0.3,4.9,1,8.1c0.9,4.5,1.4,7.2,1.6,8.4c0.3,3.2,0.5,4.4,0.6,4.9c0.3,1.8,0.7,3.4,1.2,4.7
			c0.3,0.6,0.4,1.5,0.4,2.7c0,1-0.5,2-1.5,3C264.3,146.1,263.2,146.6,262.2,146.6z"/>
		<path class="st2" d="M272.5,136.6c-1.8,0-3.9-0.8-6.3-2.4c-2.1-1.4-3.1-4.2-3.1-8.7c0-5.5,0.9-11,2.8-16.2l0.1-0.2
			c0.6-1,1.4-2.6,2.1-4.8l0.1-1.9c0.1-0.8,0.3-1.6,0.6-2.3c0.6-1.1,2-2.1,4.2-3.2c2.1-1.1,3.8-1.6,5.1-1.6c2.3,0,3.9,0.8,4.8,2.4
			c1.7,3,2.5,9.1,2.5,18.7c0,0.3,0,0.7,0.1,1.3c0.1,0.6,0.1,1.1,0.1,1.4c0,1.3-0.3,2.3-1,2.9c-0.2,0.9-0.4,2.1-0.7,3.6
			c-0.8,2.5-2.2,4.9-4.1,7.1C277.4,135.3,275,136.6,272.5,136.6z M276.4,108.4c-1.5,3.3-2.9,8.5-4.1,15.4c-0.2,1.1-0.3,1.9-0.3,2.5
			c0,0.9,0.1,1.2,0.2,1.3c0.1-0.1,0.1-0.1,0.2-0.3c0.4-0.6,1-1,1.6-1.2c0.9-1.3,1.6-3.3,2.2-6c0.5-2.5,0.7-4.8,0.7-7
			C276.9,111.2,276.7,109.6,276.4,108.4z"/>
		<path class="st2" d="M294.6,142.7c-2.8,0-4.6-1.5-4.6-4.3v-0.7l0.2-0.2c0-0.2,0.1-0.3,0.1-0.4c0-0.8,0.1-2-0.2-3.7
			c-0.3-1.8-0.2-3.1-0.2-4v-2c0-2.7-0.6-6.2-1.2-10.5c-0.8-5.9-1.4-9.4-1.6-10.8c0-0.2-0.2-0.8-0.4-2c-0.2-1.1-0.4-1.9-0.4-2.5
			c0-0.7,0.1-1.3,0.3-1.9c0.2-0.7,0.8-1.4,1.8-2.1s1.8-1,2.7-1c1.8,0,3.2,0.6,4.3,1.9c1.1,1.2,1.6,2.7,1.6,4.5
			c0,0.6-0.1,1.5-0.3,2.6c-0.2,1-0.3,1.7-0.3,2.2c0,0.3,0,0.7,0.1,1.6c1.2-4.4,3-9.4,5.2-15c0.1-0.5,0.3-1,0.4-1.6
			c0.2-0.8,0.6-1.4,1.2-1.8c1.1-0.8,2.5-1.2,4.2-1.2c1.6,0,2.8,0.8,3.5,2.2c0.1,0.1,0.2,0.3,0.8,3.3c0.3,0.8,0.7,2,1.1,3.5
			c0.4,1.9,0.5,4.2,0.5,6.8c0,1.3-0.1,3.3-0.2,6c-0.1,2.6-0.2,4.6-0.2,5.9c0,3.4,0.3,6.5,1,9.1c0.4,1.2,0.9,2.9,1.5,5.9h0.1
			c0.9,0,3,0.3,3,3.9c0,1.2-0.4,2.5-1.2,3.7c-1,1.5-2.2,2.2-3.5,2.2c-0.7,0-1.5-0.2-2.5-0.6c-1.1-0.4-1.8-0.9-2.3-1.4
			c-0.2-0.2-0.3-0.4-1.3-3.3c-2.6-7.3-4-13.3-4-18.1c0-1.2,0.1-3,0.2-5.4c0-0.4,0-0.8,0.1-1.2c-0.2,0.7-0.4,1.4-0.6,2.1
			c0,0.1-0.1,0.6-0.1,2.5c0,1.2-0.3,2.1-0.7,2.8c-0.2,1.7-0.5,4.3-1,7.5v0.2c-0.3,0.9-0.7,2.4-1.3,4.5c-0.1,1.7-0.3,4.1-0.8,7.2
			l-0.1,0.1C299.1,140.9,297.8,142.7,294.6,142.7z"/>
	</g>
</g>
</svg>
