<?xml version="1.0" encoding="utf-8"?>
<!-- Generator: Adobe Illustrator 16.0.0, SVG Export Plug-In . SVG Version: 6.00 Build 0)  -->
<!DOCTYPE svg PUBLIC "-//W3C//DTD SVG 1.1//EN" "http://www.w3.org/Graphics/SVG/1.1/DTD/svg11.dtd">
<svg version="1.1" id="Layer_1" xmlns="http://www.w3.org/2000/svg" xmlns:xlink="http://www.w3.org/1999/xlink" x="0px" y="0px"
	 width="507.819px" height="385px" viewBox="0 0 507.819 385" enable-background="new 0 0 507.819 385" xml:space="preserve">
<g>
	<g>
		<path fill="#FFFFFF" d="M116.296,345.577v33.971H88.856c-19.164,0-33.252-4.43-42.248-13.283
			c-9.006-8.861-13.507-25.045-13.507-48.566c0-7.84,0.22-14.809,0.653-20.908c0.438-6.098,0.943-11.977,1.527-17.639
			c0.576-5.664,1.085-11.326,1.523-16.988c0.434-5.662,0.652-11.977,0.652-18.947c0-3.77-0.652-7.547-1.961-11.324
			c-1.305-3.77-3.413-7.186-6.312-10.236c-2.909-3.047-6.751-5.512-11.546-7.404c-4.787-1.885-10.673-2.975-17.64-3.268v-37.457
			c6.967-0.287,12.853-1.377,17.64-3.27c4.795-1.885,8.637-4.355,11.546-7.402c2.898-3.049,5.007-6.459,6.312-10.236
			c1.309-3.77,1.961-7.549,1.961-11.326c0-6.969-0.219-13.285-0.652-18.947c-0.438-5.662-0.947-11.324-1.523-16.986
			c-0.584-5.664-1.09-11.543-1.527-17.641c-0.434-6.098-0.653-13.066-0.653-20.908c0-23.52,4.501-39.705,13.507-48.566
			C55.604,9.388,69.692,4.958,88.856,4.958h27.439v33.977h-8.273c-9.008,0-15.105,2.109-18.293,6.314
			c-3.201,4.213-4.795,12.27-4.795,24.174c0,11.912,0.283,23.379,0.871,34.412c0.58,11.037,0.87,23.232,0.87,36.586
			c0,16.553-2.612,28.529-7.839,35.936c-5.229,7.404-13.358,12.414-24.388,15.027v1.742c11.029,2.615,19.159,7.621,24.388,15.027
			c5.227,7.404,7.839,19.383,7.839,35.934c0,13.361-0.29,25.555-0.87,36.586c-0.588,11.041-0.871,22.51-0.871,34.412
			c0,11.904,1.594,19.961,4.795,24.174c3.188,4.205,9.285,6.318,18.293,6.318H116.296z"/>
		<path fill="#FFFFFF" d="M339.306,79.878c-2.615-0.871-5.523-1.885-8.711-3.049c-3.201-1.156-6.971-1.744-11.326-1.744
			c-9.88,0-17.356,3.127-22.433,9.367c-5.085,6.246-8.206,14.449-9.368,24.609l-3.047,23.955h44.863v46.607h-50.088l-10.016,82.322
			c-1.459,13.068-3.781,25.262-6.972,36.588c-3.198,11.324-7.916,21.191-14.157,29.619c-6.247,8.418-14.305,15.025-24.174,19.816
			c-9.874,4.791-22.213,7.186-37.021,7.186c-8.428,0-15.977-0.582-22.649-1.742c-6.687-1.162-11.622-2.76-14.812-4.789l8.711-47.479
			c3.191,1.459,6.384,2.398,9.583,2.834c3.19,0.436,6.384,0.803,9.585,1.088c5.227-0.285,9.648-1.309,13.281-3.051
			c3.627-1.742,6.754-4.934,9.368-9.582c2.614-4.641,4.712-10.889,6.312-18.727c1.594-7.842,3.118-18.002,4.575-30.492l7.401-63.592
			h-32.666V135.63l32.234-2.613h5.661l2.178-18.729c1.744-15.967,4.643-29.688,8.714-41.16c4.059-11.469,9.582-20.836,16.549-28.096
			c6.972-7.256,15.608-12.559,25.919-15.9c10.3-3.334,22.717-5.008,37.241-5.008c5.511,0,12.041,0.803,19.599,2.395
			c7.549,1.6,13.504,3.42,17.859,5.447L339.306,79.878z"/>
		<path fill="#FFFFFF" d="M394.616,345.577c8.998,0,15.095-2.113,18.293-6.318c3.196-4.213,4.795-12.27,4.795-24.174
			c0-11.902-0.294-23.371-0.871-34.412c-0.585-11.031-0.869-23.225-0.869-36.586c0-16.551,2.611-28.529,7.838-35.934
			c5.229-7.406,13.354-12.412,24.389-15.027v-1.742c-11.035-2.613-19.159-7.623-24.389-15.027
			c-5.227-7.406-7.838-19.383-7.838-35.936c0-13.354,0.284-25.549,0.869-36.586c0.577-11.033,0.871-22.5,0.871-34.412
			c0-11.904-1.599-19.961-4.795-24.174c-3.198-4.205-9.295-6.314-18.293-6.314h-8.273V4.958h27.44
			c19.164,0,33.247,4.43,42.248,13.285c8.998,8.861,13.507,25.047,13.507,48.566c0,7.842-0.219,14.811-0.654,20.908
			c-0.437,6.098-0.945,11.977-1.526,17.641c-0.587,5.662-1.085,11.324-1.524,16.986c-0.435,5.662-0.651,11.979-0.651,18.947
			c0,3.777,0.651,7.557,1.961,11.326c1.305,3.777,3.407,7.188,6.312,10.236c2.898,3.047,6.75,5.518,11.546,7.402
			c4.787,1.893,10.672,2.982,17.64,3.27v37.457c-6.968,0.293-12.853,1.383-17.64,3.268c-4.796,1.893-8.647,4.357-11.546,7.404
			c-2.904,3.051-5.007,6.467-6.312,10.236c-1.31,3.777-1.961,7.555-1.961,11.324c0,6.971,0.217,13.285,0.651,18.947
			c0.439,5.662,0.938,11.324,1.524,16.988c0.581,5.662,1.09,11.541,1.526,17.639c0.436,6.1,0.654,13.068,0.654,20.908
			c0,23.521-4.509,39.705-13.507,48.566c-9.001,8.854-23.084,13.283-42.248,13.283h-27.44v-33.971H394.616z"/>
	</g>
</g>
</svg>
