<?xml version="1.0" encoding="utf-8"?>
<!-- Generator: Adobe Illustrator 19.2.1, SVG Export Plug-In . SVG Version: 6.00 Build 0)  -->
<svg version="1.0" id="Layer_1" xmlns="http://www.w3.org/2000/svg" xmlns:xlink="http://www.w3.org/1999/xlink" x="0px" y="0px"
	 viewBox="0 0 300 126" style="enable-background:new 0 0 300 126;" xml:space="preserve">
<style type="text/css">
	.st0{fill:#2987C8;stroke:#1D1D1B;stroke-width:1.5;stroke-linejoin:round;stroke-miterlimit:10;}
	.st1{fill:#FFE400;stroke:#1D1D1B;stroke-width:1.5;stroke-linejoin:round;stroke-miterlimit:10;}
	.st2{fill:#E62178;}
	.st3{fill:#1D1D1B;}
</style>
<g>
	<g>
		<g>
			<path class="st0" d="M15.7,91.1V10.2h30c3.6,0,6.8,0.4,9.8,1.1c3,0.8,5.5,1.9,7.6,3.6c2.1,1.6,3.7,3.8,4.9,6.5
				c1.1,2.7,1.7,6,1.7,9.8c0,3.6-0.7,6.9-2,9.8c-1.3,2.9-3.6,5.1-6.9,6.8V48c5.8,0.8,10,3,12.6,6.6c2.6,3.6,3.9,8.3,3.9,13.9
				c0,4.2-0.8,7.8-2.5,10.7c-1.7,2.9-3.9,5.2-6.6,7c-2.7,1.8-5.8,3-9.3,3.8c-3.5,0.8-7.1,1.1-10.8,1.1L15.7,91.1L15.7,91.1z
				 M36.7,42H39c1.4,0,2.7-0.1,4.1-0.3c1.4-0.2,2.6-0.5,3.6-1.1c1.1-0.5,1.9-1.3,2.6-2.4c0.7-1,1-2.4,1-4.1c0-1.9-0.4-3.3-1.1-4.3
				c-0.8-1-1.7-1.8-2.9-2.4c-1.2-0.5-2.5-0.9-3.9-1c-1.4-0.1-2.9-0.2-4.3-0.2h-1.5V42z M36.7,75h2.7c1.6,0,3.3,0,5.3-0.1
				c1.9-0.1,3.8-0.4,5.5-0.9c1.7-0.5,3.1-1.3,4.3-2.5c1.1-1.2,1.7-2.9,1.7-5.1c0-2.4-0.6-4.3-1.7-5.5c-1.1-1.2-2.6-2.1-4.3-2.6
				c-1.8-0.5-3.6-0.8-5.6-0.8s-3.9,0-5.6,0h-2.1V75z"/>
			<path class="st0" d="M97.5,73.3h25.2v17.8H76.5V10.2h11.5l9.5,6L97.5,73.3L97.5,73.3z"/>
			<path class="st0" d="M143.1,91.1h-21V10.2h21V91.1z"/>
			<path class="st0" d="M142.8,10.2h12.1l13.3,5.6l34.1,43.8h0.2V10.2h21v80.9h-21l-38.5-49.5h-0.2v47.1l-9.2,2.4h-11.8V10.2z"/>
			<path class="st0" d="M223.4,10.2h29.8c5.6,0,11,1,15.9,3.1c5,2.1,9.3,4.9,13,8.6c3.7,3.6,6.7,7.9,8.8,12.9
				c2.2,4.9,3.3,10.2,3.3,15.9c0,5.7-1.1,11-3.3,15.9c-2.2,4.9-5.1,9.2-8.8,12.8c-3.7,3.6-8.1,6.5-13.1,8.6
				c-5,2.1-10.3,3.1-15.9,3.1h-29.8V10.2z M244.4,73.3h4.7c3.1,0,6.1-0.4,9-1.3c2.8-0.9,5.3-2.3,7.4-4.1c2.1-1.8,3.8-4.2,5-7
				c1.2-2.9,1.9-6.3,1.9-10.2c0-3.6-0.6-6.9-1.7-9.7s-2.7-5.1-4.8-7.1c-2-1.9-4.5-3.4-7.3-4.4c-2.8-1-5.9-1.5-9.3-1.5h-4.9V73.3z"/>
		</g>
	</g>
	<g>
		<g>
			<path class="st1" d="M5.7,91.1V10.2h30c3.6,0,6.8,0.4,9.8,1.1c3,0.8,5.5,1.9,7.6,3.6c2.1,1.6,3.7,3.8,4.9,6.5
				c1.1,2.7,1.7,6,1.7,9.8c0,3.6-0.7,6.9-2,9.8c-1.3,2.9-3.6,5.1-6.9,6.8V48c5.8,0.8,10,3,12.6,6.6c2.6,3.6,3.9,8.3,3.9,13.9
				c0,4.2-0.8,7.8-2.5,10.7c-1.7,2.9-3.9,5.2-6.6,7c-2.7,1.8-5.8,3-9.3,3.8c-3.5,0.8-7.1,1.1-10.8,1.1L5.7,91.1L5.7,91.1z M26.8,42
				h2.4c1.4,0,2.7-0.1,4.1-0.3c1.4-0.2,2.6-0.5,3.6-1.1c1.1-0.5,1.9-1.3,2.6-2.4s1-2.4,1-4.1c0-1.9-0.4-3.3-1.1-4.3
				c-0.8-1-1.7-1.8-2.9-2.4c-1.2-0.5-2.5-0.9-3.9-1c-1.4-0.1-2.9-0.2-4.3-0.2h-1.5L26.8,42L26.8,42z M26.8,75h2.7
				c1.6,0,3.3,0,5.3-0.1c1.9-0.1,3.8-0.4,5.5-0.9c1.7-0.5,3.1-1.3,4.3-2.5c1.1-1.2,1.7-2.9,1.7-5.1c0-2.4-0.6-4.3-1.7-5.5
				c-1.1-1.2-2.6-2.1-4.3-2.6c-1.8-0.5-3.6-0.8-5.6-0.8c-2,0-3.9,0-5.6,0h-2.1C26.8,57.6,26.8,75,26.8,75z"/>
			<path class="st1" d="M87.6,73.3h25.2v17.8H66.5V10.2h21L87.6,73.3L87.6,73.3z"/>
			<path class="st1" d="M133.1,91.1h-21V10.2h21V91.1z"/>
			<path class="st1" d="M132.9,10.2h21l38.5,49.4h0.2V10.2h21v80.9h-21l-38.5-49.5h-0.2v49.5h-21V10.2z"/>
			<path class="st1" d="M213.5,10.2h29.8c5.6,0,11,1,15.9,3.1c5,2.1,9.3,4.9,13,8.6c3.7,3.6,6.7,7.9,8.8,12.9
				c2.2,4.9,3.3,10.2,3.3,15.9c0,5.7-1.1,11-3.3,15.9c-2.2,4.9-5.1,9.2-8.8,12.8c-3.7,3.6-8.1,6.5-13.1,8.6
				c-5,2.1-10.3,3.1-15.9,3.1h-29.8V10.2z M234.5,73.3h4.7c3.1,0,6.1-0.4,9-1.3c2.8-0.9,5.3-2.3,7.4-4.1c2.1-1.8,3.8-4.2,5-7
				c1.2-2.9,1.9-6.3,1.9-10.2c0-3.6-0.6-6.9-1.7-9.7c-1.1-2.8-2.7-5.1-4.8-7.1c-2-1.9-4.5-3.4-7.3-4.4c-2.8-1-5.9-1.5-9.3-1.5h-4.9
				L234.5,73.3L234.5,73.3z"/>
		</g>
	</g>
	<g>
		<g>
			<path class="st2" d="M63.2,107.9c-0.9,0-1.6-0.1-2.1-0.4c-0.7-0.4-1.2-1-1.5-1.9l0-0.1l0,0c0-0.1-0.2-0.7-0.4-1.8l-1.1-4
				c-0.6-2-0.8-3.3-0.8-4.1c0-0.2,0-0.5,0.1-0.9c0-0.3,0.1-0.5,0.1-0.7v-0.2c0-0.9-0.3-4.6-0.8-10.9c0-0.4-0.2-1.3-0.4-2.6
				c-0.2-1.2-0.3-2.1-0.3-2.8c0-4.2,2.5-4.8,4-4.8c1.5,0,2.6,0.7,3.1,2c0.4,0.9,0.6,2,0.7,3.3l0.1,3.2c0.2,2.4,0.5,5.6,0.9,9.5
				c0.7-0.3,1.5-0.6,2.4-0.9c0.4-0.1,1.1-0.3,2.4-0.9c0.8-0.4,1.5-0.7,2.1-0.8c0-0.8-0.1-1.9-0.2-3.3c-0.1-1.8-0.2-3.2-0.2-4.2v-2.9
				c0-0.9-0.1-2.2-0.2-4.1c-0.1-1.9-0.2-3.3-0.2-4.3c0-0.8,0-1.9,0.1-3.5c0.1-1.5,0.1-2.7,0.1-3.4c0-2.8,1.4-4.3,3.9-4.3
				c1.4,0,2.5,0.8,2.9,2.3c0.2,0.7,0.3,1.8,0.3,3.3c0,1.3-0.1,3.3-0.2,5.8c-0.1,2.5-0.2,4.4-0.2,5.7c0,2.2,0.1,4.2,0.2,6
				c0.2,4.5,0.7,11.2,1.5,20c0.7,1.1,1,2.1,1,2.9c0,1-0.5,2.7-3.8,2.7c-3.2,0-3.7-2-3.7-3.2c0-0.2,0-0.6,0.1-1.1
				c0.1-0.5,0.1-0.8,0.1-0.9c0-0.8-0.1-2.2-0.4-4.2c-0.2-1.4-0.4-2.6-0.6-3.4c-1.1,0.3-2.7,1.1-4.9,2.1c-0.4,0.2-0.9,0.5-1.7,0.8
				l-0.2,0.1c-0.2,0-0.4,0.1-0.7,0.2c0,0-0.1,0.2-0.1,1c0,1.2,0.2,2.4,0.5,3.4c0,0.2,0.2,0.6,0.8,2.2c0.7,1.7,0.7,2.1,0.7,2.3
				C66.6,107.9,64.1,107.9,63.2,107.9z"/>
			<path class="st3" d="M75,58.8c1.1,0,1.8,0.6,2.2,1.8c0.2,0.6,0.3,1.6,0.3,3.1c0,1.3-0.1,3.2-0.2,5.8c-0.1,2.6-0.2,4.5-0.2,5.8
				c0,2.2,0.1,4.2,0.3,6.1c0.2,4.5,0.7,11.2,1.5,20.2c0.7,1,1,1.9,1,2.7c0,1.3-1,1.9-3.1,1.9c-2,0-2.9-0.8-2.9-2.4
				c0-0.2,0-0.5,0.1-1c0.1-0.4,0.1-0.8,0.1-1c0-0.9-0.1-2.3-0.4-4.3c-0.3-2-0.6-3.3-0.8-4.2c-1.1,0.2-3,1-5.7,2.4
				c-0.4,0.2-0.9,0.5-1.6,0.8c-0.3,0-0.6,0.1-0.9,0.3c-0.4,0.2-0.5,0.7-0.5,1.7c0,1.3,0.2,2.5,0.5,3.6c0,0.2,0.3,0.9,0.8,2.3
				c0.4,1.1,0.7,1.8,0.7,2.1c0,0.6-0.9,0.9-2.7,0.9c-0.8,0-1.4-0.1-1.7-0.3c-0.5-0.3-0.9-0.8-1.2-1.5c0,0-0.2-0.7-0.5-1.9
				c-0.4-1.4-0.7-2.7-1.1-4.1c-0.5-1.9-0.8-3.2-0.8-3.9c0-0.2,0-0.4,0.1-0.8c0.1-0.3,0.1-0.6,0.1-0.8v-0.2c0-1-0.3-4.6-0.8-11
				c0-0.4-0.2-1.3-0.4-2.7c-0.2-1.1-0.3-2-0.3-2.7c0-2.7,1.1-4.1,3.2-4.1c1.2,0,2,0.5,2.4,1.6c0.3,0.8,0.6,1.8,0.7,3.1
				c0,1,0.1,2.1,0.1,3.2c0.2,2.7,0.5,6.2,1,10.5c0.7-0.4,1.8-0.8,3.3-1.3c0.6-0.1,1.4-0.4,2.5-0.9c1.1-0.5,1.9-0.8,2.5-0.9
				c0-0.8-0.1-2.2-0.2-4c-0.1-1.8-0.2-3.2-0.2-4.1c0-0.3,0-0.8,0-1.4s0-1.2,0-1.5c0-0.9-0.1-2.3-0.2-4.2c-0.1-1.9-0.2-3.3-0.2-4.2
				c0-0.8,0-1.9,0.1-3.5c0.1-1.6,0.1-2.7,0.1-3.4C71.8,59.9,72.9,58.8,75,58.8 M75,57.3c-3,0-4.7,1.8-4.7,5c0,0.7,0,1.8-0.1,3.4
				c-0.1,1.6-0.1,2.8-0.1,3.6c0,1,0.1,2.4,0.2,4.3c0.1,1.9,0.2,3.2,0.2,4.1v1.5v1.4c0,1,0.1,2.4,0.2,4.2c0.1,1.1,0.1,2,0.2,2.7
				c-0.5,0.2-1,0.4-1.6,0.7c-1.2,0.6-1.8,0.8-2.1,0.8l-0.2,0c-0.6,0.2-1.1,0.4-1.6,0.5c-0.4-3.4-0.6-6.2-0.8-8.5
				c0-1.1-0.1-2.1-0.1-3.2l0-0.1c-0.1-1.5-0.4-2.6-0.8-3.6c-0.7-1.6-2-2.5-3.8-2.5c-1.4,0-4.7,0.5-4.7,5.6c0,0.8,0.1,1.7,0.3,2.9
				c0.2,1.4,0.4,2.2,0.4,2.6c0.5,6.3,0.8,9.9,0.8,10.9V94c0,0.1,0,0.2-0.1,0.6c-0.1,0.4-0.1,0.7-0.1,1c0,0.5,0.1,1.5,0.9,4.3l0.3,1
				l0.8,3.1c0.1,0.4,0.4,1.6,0.4,1.7l0,0l0,0.3c0.4,1.1,1,1.8,1.9,2.3c0.6,0.3,1.4,0.5,2.4,0.5c1,0,4.2,0,4.2-2.4
				c0-0.4-0.1-0.9-0.8-2.6c-0.6-1.6-0.7-2-0.8-2.1l0,0.1l0-0.1c-0.3-1-0.4-2.1-0.4-3.2c0-0.2,0-0.4,0-0.5c0.1,0,0.1,0,0.1,0l0.4-0.1
				c0.8-0.3,1.3-0.6,1.8-0.8c1.8-0.9,3.1-1.5,3.9-1.8c0.1,0.6,0.3,1.4,0.4,2.5c0.3,2.3,0.4,3.5,0.4,4c0,0.1,0,0.3-0.1,0.8
				c-0.1,0.6-0.1,0.9-0.1,1.2c0,2.5,1.7,3.9,4.4,3.9c4.1,0,4.6-2.4,4.6-3.4c0-1-0.3-2-1-3.2c-0.8-8.7-1.3-15.4-1.5-19.8l0-0.1
				c-0.2-1.8-0.2-3.8-0.2-5.9c0-1.3,0.1-3.2,0.2-5.7c0.1-2.5,0.2-4.5,0.2-5.8c0-1.6-0.1-2.7-0.3-3.5C78.1,58.3,76.8,57.3,75,57.3
				L75,57.3z"/>
		</g>
		<g>
			<path class="st2" d="M96.2,116.4c-1.6,0-2.8-0.6-3.6-1.8c-0.3-0.5-0.6-1.1-0.7-1.8l-0.3-1.6c-0.3-0.7-0.7-1.7-1.2-3l0-0.1
				c-0.1-0.8-0.3-1.9-0.6-3.3c-0.4,0.5-0.6,0.8-0.8,1c-1,0.9-2,1.4-3.1,1.4c-1.1,0-2.3-0.5-3.7-1.5c-1.9-1.3-2.8-4.8-2.8-10.6
				c0-2.7,0.2-5.6,0.7-8.7c0.6-4.1,1.3-6.8,2.4-8.4c0.4-0.6,1-1.1,1.8-1.5c0.8-0.4,1.6-0.6,2.4-0.6c0.6,0,1.4,0.2,2.3,0.7
				c0.6,0.3,1.1,0.6,1.5,0.9c0.3-0.1,0.6-0.2,0.9-0.2c0.8,0,1.8,0.4,3.1,1.2l0.2,0.2c0.2,0.3,0.3,0.8,0.4,1.4
				c0.4,0.4,0.7,0.9,0.7,1.6v0.6l0,0.1c0,0.1,0,0.2,0,0.2l0,0.2v0.3c0.2,3,0.3,4.2,0.3,4.5c0,1,0,2.3-0.1,4.2
				c-0.1,1.8-0.1,3.2-0.1,4.1c0,1.3,0.2,3,0.6,5c0.6,2.8,0.9,4.5,1,5.1l0.2,2.5c0.1,1.1,0.4,1.6,0.5,1.8c0.7,0.8,1.1,1.7,1.1,2.7
				C99.3,115.3,98.2,116.4,96.2,116.4z M87.9,83.7c-1.2,2.7-1.8,6.4-1.8,11.1c0,0.5,0,1.1,0,1.6c0.4-1,0.7-2,0.8-2.8
				c0.1-1.8,0.3-3.7,0.4-5.6c0-0.4,0.2-1,0.4-1.9c0.2-0.7,0.3-1.3,0.3-1.7c0-0.4-0.1-0.5-0.1-0.5v0C88.1,83.8,88.1,83.8,87.9,83.7z"
				/>
			<path class="st3" d="M86.7,76.7c0.5,0,1.2,0.2,2,0.6c0.8,0.4,1.4,0.8,1.8,1.1c0.3-0.2,0.6-0.4,1-0.4c0.6,0,1.5,0.4,2.7,1.1
				c0.2,0.3,0.3,0.7,0.3,1.4c0.4,0.3,0.7,0.7,0.7,1.2c0,0.1,0,0.3,0,0.6c0,0.2,0,0.4,0,0.5v0.3c0.2,2.7,0.3,4.2,0.3,4.5
				c0,0.9,0,2.4-0.1,4.2c-0.1,1.9-0.1,3.2-0.1,4.2c0,1.4,0.2,3.1,0.7,5.2c0.6,2.8,0.9,4.5,1,5.1c0.1,0.8,0.1,1.6,0.2,2.4
				c0.1,1,0.4,1.8,0.7,2.2c0.6,0.6,0.9,1.4,0.9,2.2c0,1.7-0.8,2.6-2.4,2.6c-1.3,0-2.3-0.5-2.9-1.5c-0.3-0.4-0.5-0.9-0.6-1.6
				c-0.1-0.5-0.2-1.1-0.3-1.6c-0.3-0.7-0.7-1.7-1.2-3c-0.2-1.1-0.5-2.8-0.9-5c-0.9,1.3-1.5,2-1.8,2.3c-0.8,0.8-1.7,1.2-2.5,1.2
				c-0.9,0-2-0.5-3.3-1.4c-1.6-1.2-2.4-4.5-2.4-10c0-2.6,0.2-5.5,0.7-8.6c0.5-3.9,1.3-6.6,2.3-8.1c0.3-0.5,0.8-0.9,1.5-1.3
				C85.4,76.9,86.1,76.7,86.7,76.7 M85.8,99.2c1.1-2.2,1.7-4,2-5.5c0.1-1.9,0.3-3.8,0.5-5.7c0-0.3,0.2-0.9,0.4-1.8
				c0.2-0.8,0.3-1.4,0.3-1.9c0-0.5-0.1-0.8-0.3-1c-0.2-0.2-0.5-0.4-1.1-0.6c-1.5,2.8-2.2,6.8-2.2,12.1
				C85.4,96.5,85.5,97.9,85.8,99.2 M86.7,75.2c-0.9,0-1.8,0.2-2.7,0.7c-1,0.5-1.7,1.1-2.1,1.8c-1.1,1.7-1.9,4.5-2.5,8.7
				c-0.4,3.1-0.7,6.1-0.7,8.8c0,6.1,1,9.7,3.1,11.2c1.6,1.1,2.9,1.7,4.2,1.7c1.2,0,2.4-0.5,3.5-1.5c0.1,0.7,0.2,1.2,0.3,1.7l0.1,0.3
				c0.5,1.3,0.8,2.2,1.1,2.9l0.1,0.6l0.2,0.8c0.2,0.9,0.5,1.6,0.8,2.1c0.9,1.4,2.4,2.1,4.2,2.1c2.4,0,3.9-1.5,3.9-4.1
				c0-1.2-0.4-2.3-1.3-3.2c0-0.1-0.2-0.4-0.4-1.4l-0.1-0.7l-0.1-1.7c-0.1-0.7-0.4-2.4-1-5.3c-0.4-2-0.6-3.6-0.6-4.9
				c0-0.9,0-2.3,0.1-4.1c0.1-1.9,0.1-3.3,0.1-4.3c0-0.2,0-1-0.3-4.5v-0.3l0-0.4c0,0.1,0,0.1,0,0.1l0-0.3v-0.6c0-0.7-0.2-1.4-0.7-1.9
				c-0.1-0.6-0.2-1.1-0.4-1.5L95,77.9c-1.4-0.9-2.5-1.4-3.5-1.4c-0.3,0-0.6,0-0.8,0.1c-0.4-0.3-0.8-0.5-1.4-0.7
				C88.3,75.4,87.4,75.2,86.7,75.2L86.7,75.2z"/>
		</g>
		<g>
			<path class="st2" d="M105.6,108.6c-1.1,0-2.2-0.4-3.4-1.2c-3.3-2.2-5-5.5-5-10.1c0-3,0.5-6.7,1.4-10.8c1.3-5.6,2.9-8.6,5.1-9.2
				c0.4-0.1,0.8-0.1,1.2-0.1c0.9,0,2.2,0.5,3,2.6c0.3,0.4,0.8,1.1,1.4,3.2c0.6,1.9,0.8,3.1,0.8,3.8c0,1.7-0.8,3.3-2.4,4.7l-0.9,0.1
				c-1-0.5-1.5-1-1.8-1.4c-0.1,0.1-0.2,0.1-0.2,0.2c0,0,0,0,0,0c0,0.3,0,0.6-0.1,1.1c-0.3,1.8-0.5,3.6-0.5,5.4
				c0,3.2,0.6,5.1,1.6,5.1c0,0,0.2-0.1,1-0.7c0.9-0.7,1.8-1.1,2.9-1.1c1.5,0,2.4,0.9,2.4,2.3c0,0.4-0.1,0.9-0.2,1.3
				c-0.1,0.4-0.4,1-1.9,2.4c-1,1-1.8,1.6-2.3,1.8C107,108.4,106.3,108.6,105.6,108.6z"/>
			<path class="st3" d="M104.9,78c1,0,1.8,0.8,2.3,2.3c0.4,0.3,0.8,1.3,1.4,3c0.5,1.7,0.8,2.9,0.8,3.6c0,1.5-0.7,2.9-2.1,4.2
				c-0.9-0.5-1.4-0.9-1.6-1.2c-0.1-0.6-0.1-1.2-0.2-1.8c-0.2,0.4-0.3,0.8-0.5,1.2c-0.2,0.4-0.6,0.7-1,0.7c0,0.2,0,0.4,0,0.6
				c0,0.2,0,0.6-0.1,1c-0.3,1.9-0.5,3.7-0.5,5.5c0,3.9,0.8,5.8,2.3,5.8c0.2,0,0.7-0.3,1.5-0.9c0.7-0.6,1.5-0.9,2.4-0.9
				c1.1,0,1.6,0.5,1.6,1.5c0,0.3-0.1,0.7-0.2,1.1c-0.1,0.4-0.7,1.1-1.6,2c-1,0.9-1.7,1.5-2.1,1.7c-0.6,0.3-1.2,0.5-1.8,0.5
				c-0.9,0-1.9-0.4-2.9-1.1c-3.1-2-4.7-5.2-4.7-9.4c0-3,0.5-6.5,1.4-10.6c1.2-5.3,2.7-8.2,4.6-8.7C104.2,78,104.5,78,104.9,78
				 M104.9,76.5c-0.5,0-0.9,0-1.3,0.1l-0.1,0c-2.5,0.7-4.3,3.8-5.6,9.8c-0.9,4.2-1.4,7.8-1.4,10.9c0,4.8,1.8,8.4,5.4,10.7
				c1.3,0.9,2.5,1.3,3.8,1.3c0.9,0,1.7-0.2,2.5-0.6c0.4-0.2,1-0.6,2.4-1.9c1.2-1.2,1.9-2,2.1-2.7c0.2-0.6,0.2-1.1,0.2-1.5
				c0-1.8-1.2-3-3.1-3c-1.2,0-2.3,0.4-3.3,1.2c-0.3,0.2-0.5,0.4-0.6,0.5c-0.2-0.3-0.7-1.2-0.7-4.2c0-1.7,0.2-3.5,0.5-5.3
				c0,0,0,0,0,0c0.3,0.2,0.6,0.4,1,0.6l1.7-0.2c1.7-1.5,2.6-3.3,2.6-5.3c0-0.5-0.1-1.5-0.9-4c-0.6-1.9-1.1-2.9-1.5-3.4
				C107.5,76.9,105.8,76.5,104.9,76.5L104.9,76.5z"/>
		</g>
		<g>
			<path class="st2" d="M118.9,116.7c-1,0-2.3-0.4-2.9-2.4c-0.2-0.6-0.4-1.7-0.5-3.3c-0.3-4.6-0.8-11.6-1.7-20.8
				c-0.1-0.8-0.2-3.5-0.2-5.5c-0.1-2.2-0.3-4-0.7-5.2l0-0.2v-1.1c0-1.4-0.2-3.3-0.6-5.7c-0.4-2.7-0.7-4.6-0.7-5.9
				c0-1.2-0.3-2.8-0.7-4.7c-0.5-2.2-0.9-3.8-1-4.7c-0.2-0.2-0.3-0.6-0.3-1.1c0-1,0.4-1.9,1.2-2.5c0.8-0.6,1.7-1,2.6-1
				c1,0,1.8,0.4,2.3,1.1c0.1,0.1,0.2,0.4,0.8,1.9c0.1,0.2,0.3,0.8,0.7,2.7c0.4,1.7,1,4.2,1.7,7.8l0,0.1c0.1,1.3,0.2,3.3,0.4,6
				c0.3,4.2,0.7,10.4,1.4,18.3c0.4-0.7,0.8-1.4,1.2-2.2c1.5-2.8,2.2-4,2.3-4.3l0.1-0.1c0.6-0.7,1.4-1.9,2.3-3.5
				c0.2-0.6,0.6-1.3,1.2-2.2l0.1-0.2c0.7-0.7,1.7-1,2.8-1c2.1,0,3.2,1.1,3.2,2.9c0,0.1,0,0.3,0,0.4c0.3-0.9,0.7-1.7,1.1-2.3
				c0.4-0.6,1-1.1,1.8-1.6c0.8-0.4,1.6-0.6,2.4-0.6c0.6,0,1.4,0.2,2.3,0.7c0.6,0.3,1.2,0.6,1.5,0.9c0.3-0.1,0.6-0.2,0.9-0.2
				c0.8,0,1.8,0.4,3.1,1.2l0.2,0.2c0.2,0.3,0.3,0.8,0.4,1.4c0.4,0.4,0.7,0.9,0.7,1.6v0.6l0,0.1c0,0.1,0,0.2,0,0.2l0,0.2v0.3
				c0.1,1.8,0.2,4.1,0.2,4.5c0,1,0,2.4-0.1,4.2c-0.1,1.8-0.1,3.2-0.1,4.1c0,1.3,0.2,3,0.6,5c0.6,2.8,0.9,4.5,1,5.1l0.2,2.5
				c0.1,1.1,0.4,1.6,0.5,1.8c0.7,0.7,1.1,1.7,1.1,2.7c0,2.2-1.1,3.3-3.1,3.3c-1.6,0-2.8-0.6-3.6-1.8c-0.3-0.5-0.6-1.1-0.7-1.8
				l-0.3-1.6c-0.3-0.7-0.7-1.7-1.2-3l0-0.1c-0.1-0.8-0.3-1.9-0.6-3.3c-0.4,0.5-0.6,0.8-0.8,1c-1,0.9-2,1.4-3.1,1.4
				c-1.1,0-2.3-0.5-3.7-1.5c-0.8-0.6-1.4-1.5-1.8-2.8c0,0-3,0.1-3,0.1c-1.5,0.3-3.8,0.6-6.8,1c-0.3,0-0.7,0.1-1.1,0.1
				c0,0.2,0,0.4,0,0.8c0,1.2,0.1,1.8,0.1,2.1c0.6,0.6,0.8,1.4,0.8,2.4c0,1.5-0.2,2.9-0.6,4.2C121.5,115.7,120.4,116.7,118.9,116.7z
				 M124.2,97.6c0.6,0,1.1,0.1,1.8,0.1c1.3,0,2.9-0.1,4.7-0.4c0.5-0.1,0.9-0.1,1.3-0.1c0-0.7,0-1.4,0-2.1c0-2.7,0.2-5.6,0.7-8.7
				c0.2-1.7,0.5-3.2,0.8-4.5c-0.1,0.3-0.3,0.6-0.5,0.9c-0.3,0.5-1.9,3.1-4.9,7.8C126.3,93.5,125,95.8,124.2,97.6z M140.3,83.7
				c-1.2,2.7-1.8,6.4-1.8,11.1c0,0.5,0,1.1,0,1.6c0.4-1,0.7-2,0.8-2.8c0.1-1.8,0.3-3.7,0.5-5.6c0-0.4,0.2-1,0.4-1.9
				c0.2-0.9,0.3-1.4,0.3-1.7c0-0.4-0.1-0.5-0.1-0.5l0,0C140.5,83.8,140.4,83.8,140.3,83.7z"/>
			<path class="st3" d="M113.2,53.3c0.7,0,1.3,0.3,1.7,0.8c0.1,0.1,0.4,0.7,0.8,1.7c0.2,0.4,0.4,1.2,0.7,2.6c0.4,1.7,1,4.3,1.7,7.8
				c0.1,1.4,0.2,3.3,0.4,6c0.3,4.6,0.8,11.5,1.6,20.6c0.7-1.1,1.5-2.5,2.4-4.2c1.4-2.6,2.1-4,2.3-4.3c0.6-0.8,1.5-2,2.4-3.7
				c0.2-0.5,0.5-1.2,1.1-2.1c0.6-0.5,1.4-0.8,2.3-0.8c1.7,0,2.5,0.7,2.5,2.1c0,0.7-0.3,1.6-0.9,2.6c-0.3,0.5-1.9,3.1-4.9,7.8
				c-2.1,3.3-3.5,6-4.3,8c0.9,0.1,1.8,0.2,2.8,0.2c1.4,0,2.9-0.1,4.8-0.4c0.5-0.1,1-0.1,1.3-0.1c0.2,0,0.4,0,0.6,0.1
				c-0.1-0.9-0.1-1.9-0.1-2.9c0-2.6,0.2-5.5,0.7-8.6c0.5-3.9,1.3-6.6,2.3-8.1c0.3-0.5,0.8-0.9,1.5-1.3c0.7-0.4,1.4-0.5,2-0.5
				c0.5,0,1.2,0.2,2,0.6c0.8,0.4,1.4,0.8,1.8,1.1c0.3-0.2,0.6-0.4,1-0.4c0.6,0,1.5,0.4,2.7,1.1c0.2,0.3,0.3,0.7,0.3,1.4
				c0.4,0.3,0.7,0.7,0.7,1.2c0,0.1,0,0.3,0,0.6c0,0.2,0,0.4,0,0.5v0.3c0.2,2.7,0.2,4.2,0.2,4.5c0,0.9,0,2.4-0.1,4.2
				c-0.1,1.9-0.1,3.2-0.1,4.2c0,1.4,0.2,3.1,0.7,5.2c0.6,2.8,0.9,4.5,1,5.1c0.1,0.8,0.1,1.6,0.2,2.4c0.1,1,0.4,1.8,0.7,2.2
				c0.6,0.6,0.9,1.4,0.9,2.2c0,1.7-0.8,2.6-2.4,2.6c-1.3,0-2.3-0.5-2.9-1.5c-0.3-0.4-0.5-0.9-0.6-1.6c-0.1-0.5-0.2-1.1-0.3-1.6
				c-0.3-0.7-0.7-1.7-1.2-3c-0.2-1.1-0.5-2.8-0.9-5c-0.9,1.3-1.5,2-1.8,2.3c-0.8,0.8-1.7,1.2-2.5,1.2c-0.9,0-2-0.5-3.3-1.4
				c-0.7-0.5-1.3-1.5-1.7-3c-0.2,0-0.4,0-0.6,0.1c-1,0-2,0.1-3,0.1c-1.5,0.3-3.7,0.6-6.8,1c-0.4,0-0.9,0.1-1.7,0.2
				c-0.1,0.2-0.2,0.7-0.2,1.5c0,1.2,0.1,2,0.2,2.5c0.5,0.4,0.8,1.1,0.8,2c0,1.4-0.2,2.7-0.6,4c-0.6,1.7-1.4,2.6-2.5,2.6
				c-1.1,0-1.8-0.6-2.2-1.9c-0.2-0.5-0.3-1.6-0.5-3.2c-0.3-4.6-0.8-11.6-1.7-20.8c-0.1-0.6-0.1-2.4-0.2-5.5
				c-0.1-2.3-0.3-4.1-0.7-5.4c0-0.2,0-0.6,0-1.1c0-1.4-0.2-3.3-0.7-5.8c-0.4-2.6-0.7-4.6-0.7-5.8c0-1.2-0.3-2.8-0.7-4.9
				c-0.6-2.4-0.9-4-1-4.9c-0.2-0.2-0.3-0.4-0.3-0.7c0-0.8,0.3-1.4,1-2C111.8,53.6,112.5,53.3,113.2,53.3 M138.1,99.2
				c1.1-2.2,1.7-4,2-5.5c0.1-1.9,0.3-3.8,0.5-5.7c0-0.3,0.2-0.9,0.4-1.8c0.2-0.8,0.3-1.4,0.3-1.9c0-0.5-0.1-0.8-0.3-1
				c-0.2-0.2-0.5-0.4-1.1-0.6c-1.5,2.8-2.2,6.8-2.2,12.1C137.8,96.5,137.9,97.9,138.1,99.2 M113.2,51.8c-1.1,0-2.2,0.4-3.1,1.1
				c-1,0.8-1.5,1.9-1.5,3.1c0,0.5,0.1,1,0.4,1.3c0.2,1,0.5,2.5,1,4.6c0.4,1.9,0.6,3.4,0.7,4.6c0,1.3,0.3,3.3,0.7,6
				c0.4,2.4,0.6,4.3,0.6,5.6v1.1l0.1,0.4c0.4,1.2,0.6,2.9,0.7,5.1c0.1,3,0.2,4.9,0.2,5.6c0.9,9.2,1.4,16.2,1.7,20.7l0,0.1
				c0.2,1.7,0.4,2.8,0.6,3.5c0.8,2.6,2.6,2.9,3.6,2.9c1.3,0,3-0.6,4-3.6c0.5-1.4,0.7-2.9,0.7-4.4c0-1.3-0.4-2.2-0.9-2.8
				c0-0.3-0.1-0.8-0.1-1.8c0,0,0-0.1,0-0.1c0.2,0,0.4,0,0.5-0.1c3-0.4,5.3-0.7,6.8-1l1.8-0.1l0.6,0c0.5,1.2,1.1,2.1,1.9,2.6
				c1.6,1.1,2.9,1.7,4.2,1.7c1.2,0,2.4-0.5,3.5-1.5c0.1,0.7,0.2,1.2,0.3,1.7l0.1,0.3c0.4,1.2,0.8,2.2,1.1,2.9l0.1,0.6l0.2,0.8
				c0.2,0.9,0.5,1.6,0.8,2.1c0.6,1,1.9,2.1,4.2,2.1c2.4,0,3.9-1.5,3.9-4.1c0-1.2-0.4-2.3-1.3-3.2c0-0.1-0.2-0.4-0.4-1.4l0-0.5
				l-0.2-1.9c-0.1-0.5-0.2-1.5-1-5.3c-0.4-2-0.6-3.6-0.6-4.9c0-0.9,0-2.3,0.1-4.1c0.1-1.8,0.1-3.3,0.1-4.3c0-0.1,0-0.4-0.2-4.5v-0.3
				l-0.1-0.4c0,0.1,0,0.2,0,0.2l0-0.3v-0.6c0-0.7-0.2-1.4-0.7-1.9c-0.1-0.6-0.2-1.1-0.5-1.5l-0.5-0.5c-1.4-0.9-2.5-1.4-3.5-1.4
				c-0.3,0-0.6,0-0.8,0.1c-0.4-0.2-0.8-0.5-1.4-0.7c-1-0.5-1.9-0.7-2.6-0.7c-0.9,0-1.8,0.2-2.7,0.7c-1,0.5-1.7,1.1-2.1,1.8
				c-0.1,0.1-0.1,0.2-0.2,0.2c-0.6-1.1-1.8-1.6-3.5-1.6c-1.3,0-2.4,0.4-3.3,1.2l-0.3,0.3c-0.6,0.9-1,1.7-1.2,2.3
				c-0.9,1.5-1.6,2.7-2.2,3.4l-0.1,0.2c-0.1,0.2-0.8,1.5-2.3,4.3c-0.5-6.7-0.9-12.1-1.2-15.8c-0.2-2.7-0.3-4.6-0.4-6l0-0.2
				c-0.7-3.6-1.3-6.2-1.7-7.9c-0.4-1.8-0.6-2.5-0.8-2.8c-0.6-1.5-0.8-1.8-0.9-2C115.7,52.6,114.8,51.8,113.2,51.8L113.2,51.8z
				 M125.3,96.9c0.8-1.6,1.9-3.6,3.3-5.8c1.4-2.3,2.4-3.9,3.2-5c0,0.1,0,0.2,0,0.3c-0.4,3.1-0.7,6.1-0.7,8.8c0,0.5,0,0.9,0,1.4
				c-0.2,0-0.4,0-0.6,0.1c-1.8,0.2-3.3,0.3-4.6,0.3C125.7,97,125.5,96.9,125.3,96.9L125.3,96.9z"/>
		</g>
		<g>
			<path class="st2" d="M191.1,113.1c-1.1,0-2.7-0.5-3.7-2.8c-0.7-1.6-1.3-3.6-1.8-6c-0.1-0.4-0.4-2.4-1-6.2c0-0.3-0.1-0.6-0.1-0.7
				c0-0.4,0.1-0.7,0.2-1c-0.1-0.4-0.2-1-0.3-2.2c0-0.1,0-0.2-0.1-0.3c-0.1,0.4-0.2,1-0.3,1.7c-0.6,3.7-0.7,3.9-0.8,4.1
				c-0.1,0.2-0.4,0.8-0.7,2.5c-0.3,1.5-0.6,2.5-1,3.2c-0.6,1.1-1.7,1.6-3,1.6c-1.2,0-2.2-0.4-3.1-1.2c-0.6-0.3-1.3-1-1.3-2.4
				c0-0.2,0-0.5,0.1-0.9c0-0.3,0-0.5,0-0.7c0-0.4-0.1-1.8-0.4-6.4c-0.2-2.6-0.4-5-0.5-7.3c-1,0.4-2.6,1.1-5,2
				c-0.6,0.3-1.4,0.7-2.5,1.2l-0.2,0.1c-0.6,0.1-1.4,0.3-2.4,0.7c0,0.2-0.1,0.7-0.1,1.7c0,0.4,0,0.9,0,1.4c0.2,0.3,0.3,0.5,0.3,0.8
				c0,0.2,0,0.5-0.1,0.8c-0.1,0.2-0.1,0.3-0.1,0.3c-0.4,4.3-0.7,7.1-0.9,8.5c-0.6,3-1.7,7-4.3,7c-0.9,0-1.8-0.4-2.7-1.1
				c-0.9-0.7-1.3-1.6-1.3-2.6c0-0.8,0.4-1.6,1.3-2.3c0-0.1,0.1-0.2,0.2-0.6c0.6-2.1,0.9-3.7,0.9-4.8V99c0-0.6,0-1.6,0.1-2.9
				c0.1-1.1,0.1-2,0.1-2.6c-0.3,0-0.7,0.1-1.2,0.1c-0.8,0.1-1.5,0.2-2.1,0.2c-4.5,0-5.4-2-5.4-3.6c0-1.3,0.8-2.9,4.4-3.4
				c1.6-0.1,3.2-0.2,4.8-0.4c0-0.2,0-0.3,0-0.6c0-0.6-0.1-1.4-0.1-2.4c-0.1-1.2-0.2-2-0.2-2.5c-0.2-4.9-0.3-8.3-0.3-10.3
				c0-4.4,0.3-7.3,0.9-8.8c0.3-0.9,1.2-1.9,3.4-1.9c1.6,0,2.8,0.7,3.7,1.9c0.7,1,1,2.4,1,3.9c0,0.7-0.1,1.4-0.2,2l-0.1,0.2
				c-0.2,0.4-0.5,1.2-0.8,2.2c0,1.6-0.1,4-0.3,7.3c0,0.4-0.2,1.6-0.4,3.4c-0.2,1.4-0.3,2.4-0.3,3.3c0,0.3,0,0.6,0,0.9
				c2.3-0.3,4.3-0.9,5.9-1.6c1.3-0.6,2.5-0.9,3.7-1.1c-0.1-1.3-0.1-2.6-0.1-3.8v-0.4c0-0.3,0-0.8,0.1-1.4c0.1-0.7,0.1-1,0.1-1.1
				c0-0.8-0.1-2-0.4-3.8c-0.3-1.8-0.4-3.2-0.4-4.1c0-1.5,0.2-2.6,0.6-3.3c0.6-1,1.6-1.5,3.2-1.5c1.9,0,3.2,1,3.8,2.9
				c0.1,0.4,0.3,1.4,0.3,4.4c0,6,0.2,11.6,0.6,16.8c1.3-1.6,2.8-2.4,4.4-2.4c1.1,0,2,0.3,2.6,0.8c0.3,0.3,0.7,0.6,1,1
				c1.1,0.6,1.4,0.9,1.6,1.1c0.4,0.4,0.7,1.1,0.7,2.1c0,1.5,0.2,3.5,0.7,5.8c0.7,3.2,1,5.1,1.1,6c0.2,2.3,0.4,3.1,0.4,3.5
				c0.2,1.3,0.5,2.4,0.9,3.4c0.2,0.4,0.3,1,0.3,1.9c0,0.8-0.4,1.5-1.1,2.2C192.6,112.8,191.9,113.1,191.1,113.1z"/>
			<path class="st3" d="M160.5,60.5c1.3,0,2.3,0.5,3.1,1.6c0.6,0.9,0.9,2.1,0.9,3.5c0,0.6,0,1.3-0.2,1.9c-0.3,0.5-0.6,1.3-0.9,2.4
				c0,1.7-0.1,4.1-0.3,7.4c0,0.4-0.2,1.5-0.4,3.3c-0.2,1.4-0.3,2.5-0.3,3.3c0,0.7,0.1,1.3,0.2,1.8c2.7-0.3,5-0.9,6.9-1.8
				c1.5-0.7,2.9-1,4.1-1.1c-0.1-1.6-0.1-3.1-0.2-4.5v-0.4c0-0.3,0-0.7,0.1-1.3c0.1-0.6,0.1-1,0.1-1.2c0-0.8-0.1-2.1-0.4-3.9
				c-0.3-1.8-0.4-3.1-0.4-4c0-1.4,0.2-2.3,0.5-2.9c0.4-0.8,1.3-1.2,2.5-1.2c1.6,0,2.6,0.8,3,2.3c0.2,0.6,0.3,2,0.3,4.2
				c0,6.8,0.3,13.1,0.8,19c1.5-2.6,3.2-3.9,5-3.9c0.9,0,1.6,0.2,2.1,0.6c0.3,0.3,0.7,0.7,1.1,1c0.9,0.5,1.4,0.8,1.5,1
				c0.3,0.3,0.5,0.8,0.5,1.6c0,1.6,0.2,3.5,0.7,5.9c0.6,3.1,1,5.1,1.1,5.9c0.2,1.9,0.4,3,0.5,3.6c0.2,1.4,0.5,2.5,0.9,3.5
				c0.2,0.3,0.3,0.9,0.3,1.7c0,0.5-0.3,1.1-0.9,1.6c-0.6,0.5-1.1,0.8-1.7,0.8c-1.3,0-2.3-0.8-3-2.4c-0.7-1.6-1.3-3.5-1.7-5.9
				c-0.1-0.4-0.4-2.4-1-6.1c0-0.3-0.1-0.5-0.1-0.6c0-0.4,0.1-0.6,0.3-0.8c-0.1-0.1-0.2-0.9-0.4-2.4c-0.2-1.2-0.4-1.8-0.8-1.9
				c-0.4,0.1-0.7,1.2-1.1,3.3c-0.4,2.4-0.7,3.7-0.8,3.9c-0.2,0.4-0.5,1.4-0.8,2.7c-0.3,1.4-0.6,2.4-0.9,2.9
				c-0.5,0.8-1.3,1.3-2.3,1.3c-1.1,0-1.9-0.4-2.6-1.1c-0.7-0.3-1-0.9-1-1.8c0-0.2,0-0.5,0.1-0.8s0.1-0.6,0.1-0.8
				c0-0.5-0.1-2.7-0.4-6.5c-0.2-2.9-0.4-5.7-0.6-8.4c-0.2,0.1-0.3,0.2-0.5,0.2c-0.8,0.4-2.7,1.1-5.5,2.2c-0.5,0.3-1.4,0.7-2.5,1.2
				c-0.7,0.1-1.7,0.4-2.8,0.8c-0.2,0.2-0.4,0.9-0.4,2.3c0,0.4,0,1,0.1,1.7c0.2,0.2,0.3,0.4,0.3,0.6c0,0.1,0,0.3-0.1,0.5
				c-0.1,0.2-0.1,0.4-0.1,0.5c-0.4,4.2-0.7,7-0.9,8.4c-0.8,4.2-2,6.3-3.6,6.3c-0.7,0-1.5-0.3-2.2-0.9c-0.7-0.6-1.1-1.3-1.1-2.1
				c0-0.6,0.4-1.2,1.1-1.8c0.1-0.1,0.2-0.4,0.4-0.9c0.6-2.2,0.9-3.9,0.9-5c0-0.3,0-0.7,0-1.2c0-0.5,0-0.9,0-1.2c0-0.6,0-1.6,0.1-2.8
				c0.1-1.3,0.1-2.3,0.1-2.9v-0.6c-0.3,0-0.9,0.1-2,0.2c-0.8,0.1-1.5,0.2-2,0.2c-3.1,0-4.7-1-4.7-2.9c0-1.5,1.2-2.3,3.7-2.7
				c1.8-0.1,3.6-0.3,5.3-0.4c0.1-0.3,0.1-0.7,0.1-1.3c0-0.6-0.1-1.4-0.2-2.4c-0.1-1.2-0.2-2-0.2-2.4c-0.2-4.9-0.3-8.3-0.3-10.3
				c0-4.3,0.3-7.1,0.8-8.6C158.2,61,159.1,60.5,160.5,60.5 M160.5,59c-2.7,0-3.7,1.5-4.1,2.4c-0.6,1.6-0.9,4.5-0.9,9.1
				c0,2,0.1,5.4,0.3,10.4c0,0.5,0.1,1.2,0.2,2.5c0.1,0.9,0.1,1.6,0.1,2.2c-1.3,0.1-2.7,0.2-4,0.3l-0.1,0c-4.3,0.6-5,2.9-5,4.2
				c0,1.6,0.8,4.4,6.2,4.4c0.6,0,1.3-0.1,2.2-0.2c0.1,0,0.3,0,0.4,0c0,0.5,0,1.1-0.1,1.8c-0.1,1.3-0.1,2.3-0.1,2.9v1.2v1.2
				c0,1-0.3,2.5-0.9,4.6c0,0.1-0.1,0.2-0.1,0.3c-0.9,0.9-1.4,1.8-1.4,2.8c0,0.9,0.3,2.1,1.6,3.2c1,0.8,2,1.2,3.1,1.2
				c3.2,0,4.4-4.3,5-7.6c0.3-1.5,0.6-4.3,0.9-8.6l0,0c0,0,0-0.1,0-0.1c0.1-0.4,0.2-0.7,0.2-1c0-0.4-0.1-0.7-0.3-1.1
				c0-0.5,0-0.9,0-1.2c0-0.6,0-0.9,0-1.2c0.7-0.3,1.4-0.4,1.9-0.5l0.4-0.1c1.1-0.5,1.9-0.9,2.5-1.2c1.7-0.6,3-1.2,4-1.6
				c0.1,1.9,0.3,4,0.4,6.2c0.4,4.9,0.4,6.1,0.4,6.4c0,0.1,0,0.2,0,0.6c0,0.4-0.1,0.7-0.1,1c0,1.8,0.9,2.6,1.6,3
				c1,0.9,2.1,1.4,3.5,1.4c1.6,0,2.8-0.7,3.6-2c0.4-0.7,0.8-1.9,1.1-3.4c0.3-1.8,0.6-2.2,0.6-2.3c0.1-0.1,0.1-0.2,0.2-0.6
				c0.5,2.9,0.7,4.5,0.8,4.8c0.5,2.5,1.1,4.5,1.9,6.2c1.2,2.7,3,3.3,4.4,3.3c1,0,1.9-0.4,2.7-1.2c0.9-0.8,1.4-1.7,1.4-2.7
				c0-1-0.1-1.7-0.4-2.3c-0.3-0.9-0.6-1.9-0.8-3.2c-0.1-0.3-0.2-1.1-0.4-3.5c-0.1-0.9-0.5-2.8-1.1-6.1c-0.4-2.3-0.7-4.2-0.7-5.6
				c0-1.2-0.3-2.1-0.9-2.7c-0.2-0.3-0.6-0.5-1.7-1.1c-0.3-0.3-0.6-0.5-0.9-0.9l0,0c-0.7-0.7-1.8-1-3.1-1c-1.4,0-2.6,0.5-3.8,1.5
				c-0.3-4.7-0.5-9.8-0.5-15.1c0-3.1-0.2-4.1-0.4-4.7c-0.6-2.2-2.2-3.4-4.5-3.4c-2.3,0-3.3,1-3.8,1.9c-0.5,0.8-0.7,2-0.7,3.6
				c0,1,0.1,2.4,0.4,4.2c0.2,1.7,0.4,2.9,0.4,3.7c0,0.1,0,0.3-0.1,1c-0.1,0.6-0.1,1.2-0.1,1.6v0.3l0,0.1c0,1,0.1,2.1,0.1,3.1
				c-1,0.2-2.1,0.5-3.2,1c-1.4,0.6-3,1.1-4.9,1.4c0,0,0-0.1,0-0.1c0-0.8,0.1-1.9,0.2-3.2c0.2-1.8,0.3-3,0.4-3.4l0-0.1
				c0.1-3.3,0.2-5.6,0.3-7.2c0.3-1.1,0.5-1.7,0.7-1.9l0.2-0.5c0.1-0.7,0.2-1.4,0.2-2.1c0-1.7-0.4-3.2-1.2-4.3
				C163.8,59.8,162.3,59,160.5,59L160.5,59z"/>
		</g>
		<g>
			<path class="st2" d="M198.5,106c-1.3,0-2.8-0.6-4.5-1.8c-1.5-1-2.2-3-2.2-6.2c0-4,0.7-7.9,2-11.6l0.1-0.2c0.5-0.7,1-1.9,1.5-3.4
				l0.1-1.3c0-0.7,0.2-1.2,0.5-1.7c0.5-0.8,1.4-1.5,3-2.3c1.5-0.8,2.7-1.1,3.6-1.1c1.7,0,2.8,0.6,3.4,1.7c1.2,2.2,1.8,6.5,1.8,13.3
				c0,0.2,0,0.5,0,0.9c0,0.4,0.1,0.8,0.1,1c0,0.9-0.2,1.6-0.7,2.1c-0.1,0.6-0.3,1.5-0.5,2.6c-0.6,1.8-1.5,3.5-3,5.1
				C202,105.1,200.3,106,198.5,106z M201.3,86c-1.1,2.4-2,6-2.9,10.9c-0.2,0.8-0.2,1.3-0.2,1.8c0,0.5,0.1,0.8,0.1,0.9
				c0,0,0.1-0.1,0.1-0.2c0.3-0.4,0.7-0.7,1.1-0.9c0.6-0.9,1.1-2.4,1.5-4.3c0.4-1.8,0.5-3.4,0.5-5C201.6,87.9,201.5,86.8,201.3,86z"
				/>
			<path class="st3" d="M202.5,77.2c1.4,0,2.3,0.4,2.8,1.3c1.1,2,1.7,6.4,1.7,13c0,0.2,0,0.6,0.1,1c0,0.4,0,0.7,0,1
				c0,0.8-0.2,1.4-0.7,1.7c-0.1,0.6-0.3,1.6-0.6,2.8c-0.5,1.7-1.4,3.2-2.8,4.8c-1.6,1.8-3.1,2.6-4.6,2.6c-1.2,0-2.5-0.5-4.1-1.6
				c-1.3-0.8-1.9-2.7-1.9-5.6c0-3.9,0.6-7.7,1.9-11.4c0.5-0.8,1-2,1.6-3.7c0-0.5,0.1-1,0.1-1.5c0-0.5,0.2-0.9,0.4-1.3
				c0.4-0.6,1.3-1.3,2.7-2C200.7,77.5,201.8,77.2,202.5,77.2 M198.3,100.3c0.2,0,0.5-0.2,0.7-0.6c0.3-0.4,0.6-0.6,1-0.7
				c0.7-1,1.3-2.6,1.8-4.8c0.4-1.8,0.6-3.5,0.6-5.1c0-2.2-0.4-3.9-1.1-4.9c-1.4,2.3-2.6,6.5-3.7,12.5c-0.2,0.8-0.3,1.4-0.3,1.9
				C197.4,99.8,197.7,100.3,198.3,100.3 M202.5,75.7c-1,0-2.3,0.4-4,1.2c-1.7,0.9-2.8,1.7-3.3,2.5l0,0.1c-0.3,0.6-0.5,1.2-0.5,1.9
				l0,0.1l-0.1,1.2c-0.5,1.5-1,2.5-1.4,3.2l-0.2,0.3c-1.3,3.8-2,7.8-2,11.9c0,3.5,0.8,5.7,2.5,6.9c1.9,1.3,3.5,1.9,4.9,1.9
				c2,0,3.9-1.1,5.7-3.1c1.5-1.7,2.5-3.5,3.1-5.3l0-0.1c0.2-1,0.4-1.8,0.5-2.4c0.4-0.5,0.8-1.2,0.8-2.4c0-0.3,0-0.6-0.1-1.1
				c0-0.5,0-0.7,0-0.8c0-7-0.6-11.4-1.9-13.7C206.1,76.8,205,75.7,202.5,75.7L202.5,75.7z M199,97.9c0-0.2,0.1-0.5,0.1-0.8l0-0.1
				c0.5-3.1,1.1-5.7,1.7-7.8c0,1.5-0.2,3.1-0.5,4.8C200,95.7,199.6,97,199,97.9C199,97.9,199,97.9,199,97.9L199,97.9z"/>
		</g>
		<g>
			<path class="st2" d="M214.4,110.4c-2,0-3.1-1.1-3.2-3.1l0-0.5l0-0.1c0-0.1,0-0.2,0-0.3c0-0.6-0.1-1.4-0.3-2.6
				c-0.2-1.3-0.3-2.2-0.3-2.9v-1.4c0-1.9-0.2-4.4-0.7-7.5c-0.6-4.3-0.9-6.7-1-7.7c0-0.2-0.1-0.7-0.3-1.4c-0.2-0.8-0.2-1.4-0.2-1.8
				c0-0.5,0.1-1,0.2-1.4c0.2-0.5,0.6-1,1.3-1.5c0.7-0.5,1.3-0.7,1.9-0.7c1.3,0,2.3,0.5,3.1,1.3c0.8,0.9,1.2,1.9,1.2,3.2
				c0,0.5-0.1,1.1-0.2,1.9c-0.1,0.7-0.2,1.2-0.2,1.6c0,0.2,0,0.4,0.1,0.9c0.9-3.1,2.1-6.6,3.7-10.6c0.1-0.3,0.2-0.7,0.3-1.1
				c0.2-0.6,0.4-1,0.9-1.3c0.8-0.6,1.8-0.9,3-0.9c1.2,0,2,0.6,2.5,1.6c0,0.1,0.1,0.2,0.6,2.3c0.2,0.6,0.5,1.4,0.8,2.5
				c0.3,1.4,0.4,3,0.4,4.9c0,0.9,0,2.3-0.1,4.3c-0.1,1.8-0.1,3.2-0.1,4.2c0,2.4,0.2,4.6,0.7,6.5c0.3,0.9,0.6,2.3,1.1,4.1h0
				c0.7,0,2.2,0.3,2.2,2.8c0,0.9-0.3,1.8-0.9,2.7c-0.7,1.1-1.6,1.6-2.5,1.6c-0.5,0-1.1-0.1-1.8-0.4c-0.8-0.3-1.3-0.6-1.7-1.1
				c-0.1-0.1-0.1-0.1-0.9-2.3c-1.9-5.2-2.8-9.5-2.8-12.9c0-0.9,0.1-2.1,0.2-3.8c0-0.2,0-0.3,0-0.5c-0.1,0.4-0.2,0.8-0.3,1.2
				c0,0,0,0.3-0.1,1.8c0,0.9-0.2,1.5-0.5,2c-0.1,1.3-0.4,3.1-0.7,5.4l0,0.1c-0.2,0.7-0.5,1.7-0.9,3.2c0,1.2-0.2,3-0.6,5.2
				C217.6,109.1,216.7,110.4,214.4,110.4z"/>
			<path class="st3" d="M223.5,73.4c0.9,0,1.5,0.4,1.8,1.2c0.1,0.1,0.3,0.9,0.6,2.3c0.2,0.5,0.5,1.4,0.8,2.5
				c0.2,1.3,0.4,2.8,0.4,4.7c0,0.9,0,2.4-0.1,4.2c-0.1,1.9-0.1,3.3-0.1,4.2c0,2.5,0.2,4.7,0.7,6.6c0.3,1,0.7,2.6,1.2,4.7
				c0.3,0,0.5,0,0.6,0c0.9,0,1.4,0.7,1.4,2.1c0,0.7-0.3,1.5-0.8,2.2c-0.6,0.8-1.2,1.3-1.9,1.3c-0.4,0-0.9-0.1-1.6-0.4
				c-0.6-0.2-1.1-0.5-1.3-0.8c0,0-0.3-0.7-0.8-2.1c-1.9-5.1-2.8-9.4-2.8-12.7c0-0.8,0.1-2.1,0.2-3.8c0.1-1.7,0.2-2.9,0.2-3.8
				c0-0.7,0-1.3-0.1-1.9c-0.5,1.3-1.1,3.3-1.8,6.1c0,0.1-0.1,0.7-0.1,1.9c0,0.8-0.2,1.4-0.5,1.8c-0.1,1.2-0.4,3.1-0.8,5.5
				c-0.2,0.7-0.6,1.8-1,3.3c0,1.2-0.2,2.9-0.6,5.2c-0.3,1.3-1.2,1.9-2.7,1.9c-1.6,0-2.4-0.8-2.5-2.4c0-0.1,0-0.3,0-0.5
				c0-0.2,0-0.3,0-0.4c0-0.6-0.1-1.5-0.3-2.8c-0.2-1.2-0.3-2.2-0.3-2.8c0-0.2,0-0.4,0-0.7c0-0.3,0-0.5,0-0.7c0-2-0.2-4.5-0.7-7.6
				c-0.6-4.1-0.9-6.7-1-7.7c0-0.3-0.1-0.8-0.3-1.5c-0.2-0.7-0.2-1.2-0.2-1.6c0-0.4,0.1-0.8,0.2-1.1c0.1-0.4,0.5-0.7,1-1.1
				c0.6-0.4,1.1-0.6,1.5-0.6c1,0,1.9,0.4,2.5,1.1s1,1.6,1,2.7c0,0.4-0.1,1-0.2,1.7c-0.2,0.7-0.2,1.3-0.2,1.7c0,0.6,0.2,2.4,0.5,5.1
				c0.8-3.8,2.4-8.7,4.7-14.5c0.1-0.4,0.2-0.8,0.3-1.2c0.1-0.4,0.3-0.7,0.6-0.9C221.7,73.6,222.5,73.4,223.5,73.4 M223.5,71.9
				c-1.3,0-2.5,0.3-3.4,1c-0.6,0.4-1,1-1.2,1.7c-0.1,0.4-0.2,0.8-0.3,1.1c-0.7,1.8-1.3,3.5-1.9,5.1c-0.2-0.9-0.6-1.7-1.2-2.4
				c-0.9-1-2.2-1.6-3.7-1.6c-0.8,0-1.5,0.3-2.4,0.9c-0.8,0.6-1.4,1.2-1.6,1.9c-0.2,0.5-0.3,1-0.3,1.6c0,0.5,0.1,1.1,0.3,1.9
				c0.2,0.9,0.2,1.2,0.3,1.4c0.1,0.9,0.4,3.4,1,7.7c0.4,3,0.6,5.5,0.6,7.4v0.7v0.7c0,0.7,0.1,1.7,0.4,3c0.3,1.4,0.3,2.1,0.3,2.5
				c0,0,0,0.1,0,0.1l0,0.3v0.5l0,0.1c0.1,2.4,1.6,3.8,4,3.8c2.1,0,3.7-1.1,4.2-3l0-0.2c0.3-2.2,0.5-3.9,0.6-5.2
				c0.4-1.4,0.7-2.4,0.9-3l0.1-0.3c0.1-0.8,0.2-1.5,0.3-2.2c0.4,2.7,1.3,5.8,2.5,9.3c0.8,2.2,0.8,2.3,1.1,2.6c0.4,0.5,1,0.9,1.9,1.2
				c0.8,0.3,1.5,0.4,2.1,0.4c0.8,0,2.1-0.3,3.2-1.9c0.7-1,1-2,1-3.1c0-2.3-1.1-3.3-2.3-3.5c-0.4-1.6-0.7-2.8-1-3.7
				c-0.4-1.8-0.7-3.9-0.7-6.2c0-1,0-2.4,0.1-4.2c0.1-1.9,0.1-3.3,0.1-4.3c0-1.9-0.1-3.6-0.4-4.9l0-0.1c-0.3-1.1-0.6-1.9-0.8-2.5
				c-0.4-2-0.5-2.3-0.6-2.5C226.1,72.6,225,71.9,223.5,71.9L223.5,71.9z"/>
		</g>
	</g>
</g>
</svg>
