<?xml version="1.0" encoding="utf-8"?>
<!-- Generator: Adobe Illustrator 19.2.1, SVG Export Plug-In . SVG Version: 6.00 Build 0)  -->
<svg version="1.0" id="Layer_1" xmlns="http://www.w3.org/2000/svg" xmlns:xlink="http://www.w3.org/1999/xlink" x="0px" y="0px"
	 viewBox="0 0 235 268" style="enable-background:new 0 0 235 268;" xml:space="preserve">
<style type="text/css">
	.st0{fill:#C4D9D8;}
	.st1{fill:none;stroke:#000000;stroke-width:1.6152;stroke-linecap:round;stroke-linejoin:round;stroke-miterlimit:10;}
	.st2{fill:#2888CA;}
	.st3{fill:#DD9F5B;}
	.st4{fill:#FFFFFF;}
	.st5{fill:#575756;}
	.st6{fill:#BE1622;}
	.st7{fill:#004899;}
</style>
<g>
	<g>
		<polygon class="st0" points="229.9,150.6 230,155.7 229.4,160.8 228.8,165.9 228.2,171 227.1,176 225.9,181 224.5,185.9 
			222.7,190.7 220.8,195.5 218.6,200.1 216.5,204.8 213.9,209.2 211,213.5 208.2,217.8 205.1,221.9 201.9,225.8 198.3,229.6 
			194.7,233.2 191,236.7 186.9,239.8 182.8,242.9 178.6,245.9 174.4,248.8 169.9,251.3 165.4,253.6 160.7,255.8 155.9,257.5 
			151.1,259.4 146.1,260.7 141.2,262 136.1,263 131.1,263.9 126,264.5 120.9,264.7 115.7,264.7 110.6,264.9 105.5,264.4 
			100.4,263.9 95.3,263.1 90.3,262.1 85.4,260.6 80.4,259.3 75.6,257.5 70.8,255.7 66.1,253.6 61.6,251.2 57.2,248.5 52.8,245.9 
			48.5,243.1 44.5,239.9 40.7,236.5 36.9,233.1 33.2,229.5 29.7,225.7 26.5,221.8 23.2,217.8 20.3,213.6 17.8,209.1 15,204.8 
			12.9,200.1 10.7,195.5 8.9,190.7 7,185.9 5.5,181 4.4,176 3.4,171 2.5,165.9 2,160.8 1.7,155.7 1.6,150.6 1.6,145.5 2,140.4 
			2.6,135.3 3.2,130.2 4.5,125.2 5.5,120.2 7.2,115.3 8.7,110.4 10.7,105.7 12.7,101 15,96.4 17.6,91.9 20.5,87.7 23.4,83.5 
			26.4,79.3 29.6,75.4 33.2,71.7 36.9,68.1 40.6,64.6 44.6,61.3 48.6,58.1 52.9,55.3 57.2,52.6 61.6,50 66.2,47.6 70.8,45.5 
			75.6,43.7 80.4,41.9 85.3,40.4 90.3,39.3 95.3,38.1 100.4,37.3 105.5,36.9 110.6,36.5 115.7,36.3 120.9,36.6 126,36.7 131.1,37.5 
			136.2,38.2 141.2,39.3 146.2,40.4 151,42.1 155.9,43.5 160.6,45.7 165.3,47.8 169.9,49.9 174.3,52.6 178.7,55.2 183,58.1 
			186.9,61.4 191,64.5 194.7,68 198.3,71.7 201.8,75.4 204.9,79.5 208.2,83.4 211.2,87.6 213.9,92 216.3,96.5 218.8,101 
			220.7,105.7 222.6,110.5 224.5,115.3 225.8,120.2 227.2,125.2 228.2,130.2 229,135.3 229.4,140.4 229.8,145.5 		"/>
	</g>
	<g>
		<g>
			<g>
				<g>
					<path d="M232.9,148c0-0.9,0-1.8-0.1-2.8c-0.1-0.9-0.1-1.9-0.2-2.8c-0.1-1.9-0.3-3.9-0.5-5.8l-0.1-1.5l-0.2-1.5
						c-0.2-1-0.3-2-0.5-2.9c-0.3-2-0.8-3.8-1.1-5.8c-0.6-2.2-1.3-4.2-1.8-6.2c-0.2-0.6-0.3-1.3-1-3.7c-0.6-1.6-2.4-6.4-5.7-14.4
						c-0.5-0.9-1.5-2.8-2.8-5.2c-0.7-1.2-1.4-2.6-2.2-4s-1.7-2.9-2.6-4.3c-0.6-0.9-1.3-1.8-2-2.9c-0.4-0.5-0.7-1-1.1-1.6
						c-0.4-0.5-0.8-1-1.2-1.5c-1.7-2.1-3.3-4.3-4.9-6.4c-1.2-1.3-2.3-2.5-3.4-3.6c-1.1-1.1-2-2.1-2.9-3s-1.7-1.7-2.5-2.4
						c-0.8-0.7-1.5-1.4-2.1-2c-5-3.7-6.5-5.3-7.7-6.2c-0.1-0.1-0.2-0.2-0.3-0.2c-0.9-0.6-1.9-1.3-2.9-2c-0.5-0.3-1-0.7-1.6-1
						c-0.5-0.3-1.1-0.6-1.7-1c-1.1-0.7-2.3-1.3-3.5-2s-2.4-1.5-3.6-2.2c-4.9-2.2-9.9-4.4-14.2-6.3c-1-0.3-2-0.6-2.8-0.8
						c-0.9-0.3-1.7-0.5-2.4-0.7c-2.4-0.8-3.9-1.3-4.6-1.6c-0.4-0.1-0.6-0.1-0.7-0.2c-0.7-0.2-1.4-0.3-2.3-0.5
						c-2.4-0.6-4.7-1.1-7.1-1.6l-4.9-0.7l-4.9-0.7l-0.6-0.3l-5.2-0.1l-5.2-0.4c-5.3,0.1-10.3,0.8-15.5,1l-2.2,0.4
						c-0.9,0.1-1.8,0.3-2.7,0.4c-0.9,0.2-1.9,0.4-3,0.7c-2.1,0.5-4.5,1-7.3,1.6c-1.4,0.4-2.9,0.9-4.4,1.3c-1.5,0.5-3,1.1-4.6,1.7
						c-1.6,0.6-3.2,1.2-4.8,1.8c-1.6,0.6-3.2,1.4-4.9,2.1c-6.5,3.1-12.8,7-18.4,10.8c-8.5,6.7-14.5,12.7-19.1,17.6
						c-1.8,2.1-2.6,3.2-3.4,4.2c-3,4.2-5.8,8.3-8.6,12.6l-2.7,4.8c-0.8,1.7-1.7,3.4-2.5,5.1c-0.7,1.7-1.5,3.5-2.2,5.2
						c-0.3,0.8-1,2.4-1.5,3.5c-0.2,0.7-0.4,1.2-0.5,1.5c-0.5,1.4-0.9,2.8-1.4,4.2c-0.5,1.4-0.9,2.8-1.4,4.1c-0.3,1.7-0.6,3.4-0.9,5
						c-0.4,1.7-0.8,3.3-1.3,5c0,0.3-0.1,0.5-0.1,0.8c-0.3,2.9-0.7,5.6-0.9,7.9c-0.2,1.2-0.3,2.3-0.3,3.4c-0.1,1.1-0.2,2.2-0.3,3.3
						c0,1.6,0,3.2,0,4.7c0,1.6,0,3.1,0.1,4.8c0,1.6,0.1,3.4,0.2,5.2c0.1,1.8,0.3,3.7,0.5,5.9c0.1,0.4,0.2,1,0.3,1.6
						c0.5,2.9,1.1,5.9,1.8,9c0.4,1.6,0.7,3.1,1.1,4.7c0.5,1.6,0.9,3.2,1.4,4.8c0.6,1.6,1.3,3.2,1.9,4.8c0.6,1.6,1.2,3.2,1.8,4.9
						c0.8,1.5,1.5,3.1,2.3,4.6c0.7,1.6,1.4,3.1,2.1,4.7c0.9,1.5,1.8,2.9,2.8,4.4c0.9,1.5,1.7,3,2.5,4.4c1,1.5,2,2.9,2.9,4.3
						c2.1,2.5,4.1,4.9,6,7.3c2,2.3,4,4.5,6.1,6.5c1,1,2,2,3.1,3s2.1,2,3.3,3c1.1,1,2.2,2,3.4,3c1.2,0.9,2.4,1.9,3.6,2.8
						c4.4,3,8.8,5.5,13.1,8.2c0.9,0.5,1.8,0.9,2.7,1.3c0.6,0.3,1.3,0.7,2,1l2,0.9c1.4,0.6,2.7,1.2,4.1,1.7l4.1,1.5
						c1.4,0.5,2.8,1.1,4.1,1.6c1.7,0.4,3.4,0.9,5,1.3c1.6,0.5,3.3,1,4.9,1.5c1.6,0.3,3.2,0.6,4.7,0.9c1,0.2,2.1,0.3,3.3,0.5
						c1.2,0.2,2.4,0.4,3.8,0.5c1.3,0.1,2.7,0.3,4.2,0.4s3,0.3,4.6,0.4c4.9-0.2,10-0.1,15.5-0.3c1.7-0.2,3.4-0.4,5.2-0.5
						c3.5-0.6,6.8-1.2,10.2-1.9c1.8-0.5,3.5-0.9,5.2-1.4c1.7-0.4,3.3-0.8,4.8-1.2c1-0.4,1.9-0.7,2.8-1.1c0.9-0.3,1.7-0.7,2.5-1
						c1.6-0.6,3.1-1.1,4.4-1.6c2-0.9,3.2-1.5,4.3-2c1.7-0.9,3.4-1.7,5-2.6c1.6-0.9,3.1-1.7,4.6-2.5c1.6-1.1,3.1-2.2,4.5-3.2
						c1.5-1,2.9-2,4.3-3c1.3-1,2.6-2.1,3.9-3.1c1.3-1,2.6-2,3.9-3c1-1,2-1.9,3.1-2.9c1-0.9,1.9-2,2.9-3s1.9-2,2.9-3.1s2-2.1,2.9-3.2
						c0.9-1.1,1.9-2.3,2.8-3.5c0.9-1.2,1.8-2.5,2.8-3.8c1.8-2.6,3.6-5.4,5.6-8.4c0.4-0.6,0.9-1.5,1.4-2.4c0.4-0.7,0.8-1.4,1.2-2.1
						c0.8-1.7,1.5-3.4,2.3-4.9s1.5-3,2.2-4.4c1.3-3.4,2.5-6.5,3.8-9.6c1.3-4.6,2.6-9.2,3.9-15c0.2-1.5,0.4-3.4,0.7-5.5
						c0.1-0.8,0.3-2.3,0.5-4.1c0.1-0.9,0.2-1.9,0.3-2.8c0.1-1,0.2-2,0.3-2.9c0-0.7-0.1-1.5-0.1-2.1s-0.1-1.2-0.1-1.6
						c-0.1-0.9-0.2-1.3-0.4-1.1c-0.1,0.1-1.3-0.6-1.3-0.3c0,1.5,0,3.2,0,5c-0.6,5-1.3,11-1.8,15.2c0,0.1-0.1,0.2-0.1,0.4
						c-1.1,4.7-2.3,9.6-3.6,14.4c-1.2,3.2-2.4,6.3-3.6,9.5c-0.7,1.5-1.5,3.1-2.2,4.6c-0.7,1.6-1.4,3.1-2.1,4.6
						c-0.8,1.5-1.7,3-2.5,4.4c-0.8,1.2-1.7,2.5-2.5,3.7c-2.9,4.4-5.9,8.6-9.4,12.5c-3.5,3.8-7.2,7.6-11.1,11c-1.7,1.3-3.6,2.7-5.3,4
						l-2.6,2l-2.7,1.9l-5.8,4c-4.4,2.4-9,4.9-13.6,6.9l-4.8,1.7l-4.7,1.9l-4.9,1.3l-4.9,1.3l-3.3,0.7c-2.2,0.5-4.5,0.9-6.7,1.3
						c-1.7,0.2-3.4,0.4-5,0.6c-5,0.3-10.3,0.2-15.3,0.5c-2.2-0.2-4.6-0.3-6.9-0.6l-3.4-0.4l-3.4-0.5c-1.1-0.2-2.2-0.4-3.2-0.6
						c-1.1-0.2-2.1-0.4-3.2-0.7l-4.9-1.5l-4.9-1.4l-3.8-1.5c-1.3-0.5-2.6-1-3.9-1.5c-0.6-0.3-1.3-0.5-1.9-0.8l-1.9-0.9
						c-1.3-0.6-2.5-1.1-3.8-1.8c-1.1-0.6-2.2-1.1-3.3-1.7c-4.3-2.7-8.9-5.2-13-8l-3.4-2.6c-1.1-0.9-2.2-1.8-3.3-2.8
						c-1.1-0.9-2.1-1.9-3.2-2.8c-1.1-1-2.1-1.9-3.2-2.9c-1.3-1.2-2.5-2.4-3.6-3.6c-1.1-1.2-2.2-2.2-3.1-3.4
						c-1.9-2.3-3.7-4.5-5.7-6.8c-0.9-1.3-1.8-2.6-2.9-4.2c-0.6-1.1-1.4-2.4-2.1-3.7c-0.9-1.5-1.9-3.2-3.1-5.1
						c-0.6-1.4-1.3-2.9-2-4.5c-0.7-1.5-1.5-3.1-2.3-4.8c-0.6-1.6-1.1-3.2-1.7-4.8c-0.6-1.6-1.2-3.2-1.8-4.8
						c-1.4-4.7-2.4-9.6-3.2-13.8c-0.4-2-0.7-4-1.1-6c-0.8-6.6-0.9-13.5-0.9-20.3c0.2-2.4,0.3-5,0.6-7.5l0.4-3.9l0.5-3.8l0.8-3
						c0.3-1,0.5-2.1,0.7-3.1c0.3-1.8,0.6-3.3,0.7-3.8c1.8-5.1,2.4-7.5,3.1-9.7c1.1-2.5,2-5.4,5.6-12.5c0.1-0.1,0.4-0.8,1-1.8
						s1.4-2.4,2.4-4c1.5-2.1,3.4-4.8,5.3-7.4c1.9-2.6,3.6-5.1,5.2-6.9l1.7-2l3.5-3.7l3.6-3.6c1.2-1.2,2.5-2.3,3.7-3.5
						c1.3-1.1,2.6-2.2,3.9-3.3c0.9-0.7,2.2-1.7,3.8-3.1C55.9,55.1,63,50.5,70,47.3c3.5-1.7,7-2.9,10-4c2.9-1.2,5.4-1.9,6.9-2.3
						l1-0.3c5-1,10-2.4,14.9-3l4.9-0.3l4.9-0.4c1.8-0.1,3.6-0.1,5.3-0.2c1.7,0.1,3.4,0.2,5.1,0.4c1.7,0,3.4,0.1,5.1,0.1
						c1.7,0.2,3.3,0.5,5,0.7l5.1,0.6c3.2,0.6,6.7,1.4,9.9,2.1c1.6,0.5,3.2,1.1,4.8,1.6s3.3,1,4.9,1.5l0.2,0.1
						c4.6,2.1,9.1,4.2,13.7,6.3l2.8,1.8c0.9,0.6,1.9,1.2,2.9,1.7l2.9,1.7c0.9,0.6,1.9,1.3,2.8,1.9c0.5,0.3,1,0.7,1.5,1
						c0.8,0.7,1.7,1.4,2.4,2.1c0.8,0.7,1.7,1.4,2.6,2.1c0.9,0.7,1.9,1.4,2.9,2.2c3.4,3,7.1,6.8,10.8,10.7c3,4,6.5,8,9.4,12.1
						c2.9,4.5,5.3,9.2,7.6,13.3c2.4,5.7,4.4,10.9,5.7,14.2c0.4,1.5,0.7,2.6,0.9,3.5c0.5,2.3,1.2,4.5,1.7,6.4
						c1.7,8.3,2.3,15.1,2.7,23.2C231.2,150.3,233,152.4,232.9,148z"/>
				</g>
			</g>
		</g>
	</g>
	<g>
		<path class="st1" d="M65,79.4C65.5,79.9,65.5,79.9,65,79.4"/>
		<path class="st1" d="M210.3,210C210.8,210.5,210.8,210.5,210.3,210"/>
		<path class="st1" d="M44.9,82.8C45.4,83.3,45.4,83.3,44.9,82.8"/>
		<path class="st1" d="M199.6,97.6C200.1,98.1,200.1,98.1,199.6,97.6"/>
		<path class="st1" d="M69.7,56.9C70.2,57.4,70.2,57.4,69.7,56.9"/>
		<path class="st1" d="M85,71.2C85.5,71.7,85.5,71.7,85,71.2"/>
		<path class="st1" d="M53.7,73.6C54.2,74.1,54.2,74.1,53.7,73.6"/>
		<path class="st1" d="M55.9,92.8C56.4,93.3,56.4,93.3,55.9,92.8"/>
		<path class="st1" d="M61.3,67.3C61.8,67.9,61.8,67.9,61.3,67.3"/>
		<path class="st1" d="M69.9,87.2C70.4,87.7,70.4,87.7,69.9,87.2"/>
		<path class="st1" d="M80.2,60.9C80.7,61.4,80.7,61.4,80.2,60.9"/>
		<path class="st1" d="M77.9,79.6C78.5,80.1,78.5,80.1,77.9,79.6"/>
		<path class="st1" d="M80,120.9C80.5,121.5,80.5,121.5,80,120.9"/>
		<path class="st1" d="M190.5,71C191,71.5,191,71.5,190.5,71"/>
		<path class="st1" d="M93.7,64.7C94.2,65.2,94.2,65.2,93.7,64.7"/>
		<path class="st1" d="M122,49.4C122.5,49.9,122.5,49.9,122,49.4"/>
		<path class="st1" d="M118.6,38.8C119.1,39.3,119.1,39.3,118.6,38.8"/>
		<path class="st1" d="M133.9,53C134.4,53.5,134.4,53.5,133.9,53"/>
		<path class="st1" d="M102.5,55.5C103.1,56,103.1,56,102.5,55.5"/>
		<path class="st1" d="M92.4,53.2C92.9,53.7,92.9,53.7,92.4,53.2"/>
		<path class="st1" d="M104.7,74.7C105.2,75.2,105.2,75.2,104.7,74.7"/>
		<path class="st1" d="M110.1,49.2C110.6,49.7,110.6,49.7,110.1,49.2"/>
		<path class="st1" d="M82.2,46.6C82.7,47.1,82.7,47.1,82.2,46.6"/>
		<path class="st1" d="M101.5,42.5C102,43.1,102,43.1,101.5,42.5"/>
		<path class="st1" d="M118.8,69.1C119.3,69.6,119.3,69.6,118.8,69.1"/>
		<path class="st1" d="M129.1,42.7C129.6,43.2,129.6,43.2,129.1,42.7"/>
		<path class="st1" d="M126.8,61.5C127.3,62,127.3,62,126.8,61.5"/>
		<path class="st1" d="M127,99.4C127.5,99.9,127.5,99.9,127,99.4"/>
		<path class="st1" d="M83.7,92.6C84.2,93.1,84.2,93.1,83.7,92.6"/>
		<path class="st1" d="M153.5,46.4C154.1,47,154.1,47,153.5,46.4"/>
		<path class="st1" d="M143.4,49C143.9,49.5,143.9,49.5,143.4,49"/>
		<path class="st1" d="M128.7,85.8C129.2,86.3,129.2,86.3,128.7,85.8"/>
		<path class="st1" d="M98.5,93.2C99,93.7,99,93.7,98.5,93.2"/>
		<path class="st1" d="M75.7,102.7C76.2,103.2,76.2,103.2,75.7,102.7"/>
		<path class="st1" d="M93.9,80C94.4,80.5,94.4,80.5,93.9,80"/>
		<path class="st1" d="M95,105.6C95.5,106.1,95.5,106.1,95,105.6"/>
		<path class="st1" d="M121.2,79.8C121.7,80.3,121.7,80.3,121.2,79.8"/>
		<path class="st1" d="M111.6,102.5C112.1,103,112.1,103,111.6,102.5"/>
		<path class="st1" d="M157.6,75.9C158.1,76.4,158.1,76.4,157.6,75.9"/>
		<path class="st1" d="M148.2,79.1C148.7,79.6,148.7,79.6,148.2,79.1"/>
		<path class="st1" d="M137.4,79.3C137.9,79.8,137.9,79.8,137.4,79.3"/>
		<path class="st1" d="M165.6,64C166.1,64.5,166.1,64.5,165.6,64"/>
		<path class="st1" d="M162.3,53.4C162.8,53.9,162.8,53.9,162.3,53.4"/>
		<path class="st1" d="M177.5,67.7C178.1,68.2,178.1,68.2,177.5,67.7"/>
		<path class="st1" d="M146.2,70.1C146.7,70.6,146.7,70.6,146.2,70.1"/>
		<path class="st1" d="M136,67.8C136.6,68.4,136.6,68.4,136,67.8"/>
		<path class="st1" d="M148.4,89.3C148.9,89.8,148.9,89.8,148.4,89.3"/>
		<path class="st1" d="M153.8,63.8C154.3,64.3,154.3,64.3,153.8,63.8"/>
		<path class="st1" d="M113.5,87.2C114,87.8,114,87.8,113.5,87.2"/>
		<path class="st1" d="M145.2,57.2C145.7,57.7,145.7,57.7,145.2,57.2"/>
		<path class="st1" d="M162.4,83.7C163,84.2,163,84.2,162.4,83.7"/>
		<path class="st1" d="M172.7,57.4C173.2,57.9,173.2,57.9,172.7,57.4"/>
		<path class="st1" d="M170.5,76.1C171,76.6,171,76.6,170.5,76.1"/>
		<path class="st1" d="M199.1,124.4C198.6,123.9,198.6,123.9,199.1,124.4"/>
		<path class="st1" d="M208.5,121.1C208,120.6,208,120.6,208.5,121.1"/>
		<path class="st1" d="M219.3,120.9C218.8,120.4,218.8,120.4,219.3,120.9"/>
		<path class="st1" d="M191,136.2C190.5,135.7,190.5,135.7,191,136.2"/>
		<path class="st1" d="M179.1,132.6C178.6,132.1,178.6,132.1,179.1,132.6"/>
		<path class="st1" d="M210.5,130.2C209.9,129.7,209.9,129.7,210.5,130.2"/>
		<path class="st1" d="M208.3,111C207.8,110.4,207.8,110.4,208.3,111"/>
		<path class="st1" d="M202.9,136.4C202.3,135.9,202.3,135.9,202.9,136.4"/>
		<path class="st1" d="M194.2,116.6C193.7,116.1,193.7,116.1,194.2,116.6"/>
		<path class="st1" d="M206.7,83.9C206.1,83.4,206.1,83.4,206.7,83.9"/>
		<path class="st1" d="M183.9,142.9C183.4,142.4,183.4,142.4,183.9,142.9"/>
		<path class="st1" d="M186.2,124.2C185.7,123.7,185.7,123.7,186.2,124.2"/>
		<path class="st1" d="M150.2,142.5C149.7,142,149.7,142,150.2,142.5"/>
		<path class="st1" d="M159.6,139.3C159.1,138.8,159.1,138.8,159.6,139.3"/>
		<path class="st1" d="M170.4,139.1C169.9,138.6,169.9,138.6,170.4,139.1"/>
		<path class="st1" d="M186,86C185.5,85.5,185.5,85.5,186,86"/>
		<path class="st1" d="M145.3,134.7C144.8,134.2,144.8,134.2,145.3,134.7"/>
		<path class="st1" d="M137.3,142.3C136.8,141.8,136.8,141.8,137.3,142.3"/>
		<path class="st1" d="M137.1,104.4C136.6,103.9,136.6,103.9,137.1,104.4"/>
		<path class="st1" d="M180.4,111.1C179.9,110.6,179.9,110.6,180.4,111.1"/>
		<path class="st1" d="M110.7,62C110.2,61.5,110.2,61.5,110.7,62"/>
		<path class="st1" d="M84.3,111C83.8,110.4,83.8,110.4,84.3,111"/>
		<path class="st1" d="M63.3,104.4C62.8,103.9,62.8,103.9,63.3,104.4"/>
		<path class="st1" d="M17,124.1C17.5,124.6,17.5,124.6,17,124.1"/>
		<path class="st1" d="M30.1,84.1C30.6,84.6,30.6,84.6,30.1,84.1"/>
		<path class="st1" d="M60.8,117.8C61.3,118.3,61.3,118.3,60.8,117.8"/>
		<path class="st1" d="M21.7,101.7C22.2,102.2,22.2,102.2,21.7,101.7"/>
		<path class="st1" d="M37,115.9C37.5,116.4,37.5,116.4,37,115.9"/>
		<path class="st1" d="M35.9,92.4C36.4,92.9,36.4,92.9,35.9,92.4"/>
		<path class="st1" d="M7.8,137.5C8.3,138.1,8.3,138.1,7.8,137.5"/>
		<path class="st1" d="M19.6,112.3C20.1,112.8,20.1,112.8,19.6,112.3"/>
		<path class="st1" d="M21.9,131.9C22.4,132.4,22.4,132.4,21.9,131.9"/>
		<path class="st1" d="M32.2,105.6C32.7,106.1,32.7,106.1,32.2,105.6"/>
		<path class="st1" d="M29.9,124.3C30.4,124.8,30.4,124.8,29.9,124.3"/>
		<path class="st1" d="M45.7,109.4C46.2,109.9,46.2,109.9,45.7,109.4"/>
		<path class="st1" d="M51.9,101.7C52.4,102.2,52.4,102.2,51.9,101.7"/>
		<path class="st1" d="M35.7,137.3C36.2,137.9,36.2,137.9,35.7,137.3"/>
		<path class="st1" d="M50.4,137.9C50.9,138.4,50.9,138.4,50.4,137.9"/>
		<path class="st1" d="M27.7,147.4C28.2,147.9,28.2,147.9,27.7,147.4"/>
		<path class="st1" d="M45.9,124.7C46.4,125.2,46.4,125.2,45.9,124.7"/>
		<path class="st1" d="M66.2,134.1C66.7,134.6,66.7,134.6,66.2,134.1"/>
		<path class="st1" d="M15.3,149.1C14.8,148.6,14.8,148.6,15.3,149.1"/>
		<path class="st1" d="M135.5,118C134.9,117.5,134.9,117.5,135.5,118"/>
		<path class="st1" d="M165.7,110.6C165.1,110.1,165.1,110.1,165.7,110.6"/>
		<path class="st1" d="M188.4,101.1C187.9,100.6,187.9,100.6,188.4,101.1"/>
		<path class="st1" d="M170.2,123.8C169.7,123.3,169.7,123.3,170.2,123.8"/>
		<path class="st1" d="M169.2,98.2C168.6,97.6,168.6,97.6,169.2,98.2"/>
		<path class="st1" d="M142.9,124C142.4,123.5,142.4,123.5,142.9,124"/>
		<path class="st1" d="M174.6,89.5C174.1,89,174.1,89,174.6,89.5"/>
		<path class="st1" d="M210.7,98.2C210.1,97.6,210.1,97.6,210.7,98.2"/>
		<path class="st1" d="M157.7,127.3C157.2,126.8,157.2,126.8,157.7,127.3"/>
		<path class="st1" d="M152.5,101.3C152,100.8,152,100.8,152.5,101.3"/>
		<path class="st1" d="M106.6,127.9C106.1,127.4,106.1,127.4,106.6,127.9"/>
		<path class="st1" d="M115.9,124.6C115.4,124.1,115.4,124.1,115.9,124.6"/>
		<path class="st1" d="M126.7,124.5C126.2,123.9,126.2,123.9,126.7,124.5"/>
		<path class="st1" d="M98.5,139.7C98,139.2,98,139.2,98.5,139.7"/>
		<path class="st1" d="M86.6,136.1C86.1,135.6,86.1,135.6,86.6,136.1"/>
		<path class="st1" d="M197.4,84.3C196.9,83.8,196.9,83.8,197.4,84.3"/>
		<path class="st1" d="M128.1,135.9C127.6,135.4,127.6,135.4,128.1,135.9"/>
		<path class="st1" d="M121.4,111.3C120.9,110.8,120.9,110.8,121.4,111.3"/>
		<path class="st1" d="M110.3,139.9C109.8,139.4,109.8,139.4,110.3,139.9"/>
		<path class="st1" d="M150.6,116.5C150.1,116,150.1,116,150.6,116.5"/>
		<path class="st1" d="M101.7,120.1C101.2,119.6,101.2,119.6,101.7,120.1"/>
		<path class="st1" d="M93.7,127.7C93.1,127.2,93.1,127.2,93.7,127.7"/>
		<path class="st1" d="M63,147.7C63.5,148.2,63.5,148.2,63,147.7"/>
		<path class="st1" d="M53.7,150.9C54.2,151.4,54.2,151.4,53.7,150.9"/>
		<path class="st1" d="M37.2,160.9C37.7,161.4,37.7,161.4,37.2,160.9"/>
		<path class="st1" d="M12.6,173.7C13.1,174.2,13.1,174.2,12.6,173.7"/>
		<path class="st1" d="M20.9,160.3C21.4,160.8,21.4,160.8,20.9,160.3"/>
		<path class="st1" d="M46.1,171.2C46.6,171.7,46.6,171.7,46.1,171.2"/>
		<path class="st1" d="M198.4,160.9C198.9,161.4,198.9,161.4,198.4,160.9"/>
		<path class="st1" d="M53.8,161.1C54.4,161.6,54.4,161.6,53.8,161.1"/>
		<path class="st1" d="M67.9,155.5C68.4,156,68.4,156,67.9,155.5"/>
		<path class="st1" d="M75.9,147.9C76.5,148.4,76.5,148.4,75.9,147.9"/>
		<path class="st1" d="M78,189.2C78.5,189.7,78.5,189.7,78,189.2"/>
		<path class="st1" d="M125,167.6C125.5,168.2,125.5,168.2,125,167.6"/>
		<path class="st1" d="M81.7,160.9C82.2,161.4,82.2,161.4,81.7,160.9"/>
		<path class="st1" d="M126.7,154.1C127.2,154.6,127.2,154.6,126.7,154.1"/>
		<path class="st1" d="M96.5,161.5C97,162,97,162,96.5,161.5"/>
		<path class="st1" d="M73.7,171C74.2,171.5,74.2,171.5,73.7,171"/>
		<path class="st1" d="M91.9,148.3C92.4,148.8,92.4,148.8,91.9,148.3"/>
		<path class="st1" d="M93,173.9C93.5,174.4,93.5,174.4,93,173.9"/>
		<path class="st1" d="M119.2,148.1C119.7,148.6,119.7,148.6,119.2,148.1"/>
		<path class="st1" d="M109.6,170.8C110.1,171.3,110.1,171.3,109.6,170.8"/>
		<path class="st1" d="M107.2,180.2C107.7,180.8,107.7,180.8,107.2,180.2"/>
		<path class="st1" d="M205.7,148.4C206.2,149,206.2,149,205.7,148.4"/>
		<path class="st1" d="M225.1,138.7C225.6,139.2,225.6,139.2,225.1,138.7"/>
		<path class="st1" d="M136,157.2C136.6,157.7,136.6,157.7,136,157.2"/>
		<path class="st1" d="M146.4,157.6C146.9,158.1,146.9,158.1,146.4,157.6"/>
		<path class="st1" d="M111.5,155.5C112,156,112,156,111.5,155.5"/>
		<path class="st1" d="M46.3,67.2C46.8,67.7,46.8,67.7,46.3,67.2"/>
		<path class="st1" d="M160.4,152C161,152.5,161,152.5,160.4,152"/>
		<path class="st1" d="M221,158.2C220.4,157.6,220.4,157.6,221,158.2"/>
		<path class="st1" d="M206.5,189.4C205.9,188.9,205.9,188.9,206.5,189.4"/>
		<path class="st1" d="M217.3,189.2C216.7,188.7,216.7,188.7,217.3,189.2"/>
		<path class="st1" d="M189,204.5C188.5,204,188.5,204,189,204.5"/>
		<path class="st1" d="M177.1,200.9C176.6,200.4,176.6,200.4,177.1,200.9"/>
		<path class="st1" d="M208.4,198.5C207.9,197.9,207.9,197.9,208.4,198.5"/>
		<path class="st1" d="M206.3,179.2C205.7,178.7,205.7,178.7,206.3,179.2"/>
		<path class="st1" d="M200.9,204.7C200.3,204.2,200.3,204.2,200.9,204.7"/>
		<path class="st1" d="M192.2,184.8C191.7,184.3,191.7,184.3,192.2,184.8"/>
		<path class="st1" d="M181.9,211.2C181.4,210.7,181.4,210.7,181.9,211.2"/>
		<path class="st1" d="M184.2,192.4C183.7,191.9,183.7,191.9,184.2,192.4"/>
		<path class="st1" d="M148.2,210.8C147.7,210.3,147.7,210.3,148.2,210.8"/>
		<path class="st1" d="M157.6,207.5C157.1,207,157.1,207,157.6,207.5"/>
		<path class="st1" d="M168.4,207.3C167.9,206.8,167.9,206.8,168.4,207.3"/>
		<path class="st1" d="M184,154.3C183.5,153.7,183.5,153.7,184,154.3"/>
		<path class="st1" d="M143.3,203C142.8,202.5,142.8,202.5,143.3,203"/>
		<path class="st1" d="M135.3,210.6C134.8,210.1,134.8,210.1,135.3,210.6"/>
		<path class="st1" d="M135.1,172.7C134.6,172.2,134.6,172.2,135.1,172.7"/>
		<path class="st1" d="M178.4,179.4C177.9,178.9,177.9,178.9,178.4,179.4"/>
		<path class="st1" d="M82.3,179.2C81.8,178.7,81.8,178.7,82.3,179.2"/>
		<path class="st1" d="M61.3,172.7C60.8,172.2,60.8,172.2,61.3,172.7"/>
		<path class="st1" d="M27.6,173.8C28.1,174.3,28.1,174.3,27.6,173.8"/>
		<path class="st1" d="M20.1,194C20.6,194.5,20.6,194.5,20.1,194"/>
		<path class="st1" d="M27.8,183.9C28.3,184.5,28.3,184.5,27.8,183.9"/>
		<path class="st1" d="M35.3,195.5C34.8,195,34.8,195,35.3,195.5"/>
		<path class="st1" d="M133.4,186.3C132.9,185.7,132.9,185.7,133.4,186.3"/>
		<path class="st1" d="M163.7,178.8C163.1,178.3,163.1,178.3,163.7,178.8"/>
		<path class="st1" d="M188.5,172.9C188,172.3,188,172.3,188.5,172.9"/>
		<path class="st1" d="M219.5,173.1C219,172.5,219,172.5,219.5,173.1"/>
		<path class="st1" d="M168.2,192.1C167.7,191.5,167.7,191.5,168.2,192.1"/>
		<path class="st1" d="M167.2,166.4C166.6,165.9,166.6,165.9,167.2,166.4"/>
		<path class="st1" d="M140.9,192.3C140.4,191.7,140.4,191.7,140.9,192.3"/>
		<path class="st1" d="M172.6,157.8C172.1,157.3,172.1,157.3,172.6,157.8"/>
		<path class="st1" d="M181.4,165.5C180.9,165,180.9,165,181.4,165.5"/>
		<path class="st1" d="M208.6,166.4C208.1,165.9,208.1,165.9,208.6,166.4"/>
		<path class="st1" d="M213.1,154.1C212.6,153.5,212.6,153.5,213.1,154.1"/>
		<path class="st1" d="M155.7,195.6C155.2,195.1,155.2,195.1,155.7,195.6"/>
		<path class="st1" d="M150.5,169.5C150,169,150,169,150.5,169.5"/>
		<path class="st1" d="M104.6,196.2C104,195.6,104,195.6,104.6,196.2"/>
		<path class="st1" d="M113.9,192.9C113.4,192.4,113.4,192.4,113.9,192.9"/>
		<path class="st1" d="M124.7,192.7C124.2,192.2,124.2,192.2,124.7,192.7"/>
		<path class="st1" d="M96.5,208C96,207.5,96,207.5,96.5,208"/>
		<path class="st1" d="M84.6,204.4C84.1,203.9,84.1,203.9,84.6,204.4"/>
		<path class="st1" d="M195.4,152.5C194.9,152,194.9,152,195.4,152.5"/>
		<path class="st1" d="M215.5,140.1C215,139.6,215,139.6,215.5,140.1"/>
		<path class="st1" d="M126.1,204.2C125.6,203.7,125.6,203.7,126.1,204.2"/>
		<path class="st1" d="M119.4,179.6C118.8,179.1,118.8,179.1,119.4,179.6"/>
		<path class="st1" d="M108.3,208.2C107.8,207.7,107.8,207.7,108.3,208.2"/>
		<path class="st1" d="M148.6,184.8C148.1,184.3,148.1,184.3,148.6,184.8"/>
		<path class="st1" d="M99.7,188.4C99.2,187.8,99.2,187.8,99.7,188.4"/>
		<path class="st1" d="M172.8,236.2C173.3,236.7,173.3,236.7,172.8,236.2"/>
		<path class="st1" d="M174.4,222.6C174.9,223.2,174.9,223.2,174.4,222.6"/>
		<path class="st1" d="M144.2,230.1C144.7,230.6,144.7,230.6,144.2,230.1"/>
		<path class="st1" d="M166.9,216.6C167.4,217.1,167.4,217.1,166.9,216.6"/>
		<path class="st1" d="M157.3,239.3C157.8,239.9,157.8,239.9,157.3,239.3"/>
		<path class="st1" d="M183.8,225.8C184.3,226.3,184.3,226.3,183.8,225.8"/>
		<path class="st1" d="M194.1,226.2C194.6,226.7,194.6,226.7,194.1,226.2"/>
		<path class="st1" d="M159.2,224.1C159.8,224.6,159.8,224.6,159.2,224.1"/>
		<path class="st1" d="M202.5,220.3C203,220.9,203,220.9,202.5,220.3"/>
		<path class="st1" d="M61.7,187.9C61.2,187.4,61.2,187.4,61.7,187.9"/>
		<path class="st1" d="M116.6,244.6C116.1,244.1,116.1,244.1,116.6,244.6"/>
		<path class="st1" d="M127.4,244.4C126.9,243.9,126.9,243.9,127.4,244.4"/>
		<path class="st1" d="M102.4,240C101.8,239.5,101.8,239.5,102.4,240"/>
		<path class="st1" d="M108.5,256.7C108,256.2,108,256.2,108.5,256.7"/>
		<path class="st1" d="M48.8,187.7C48.3,187.2,48.3,187.2,48.8,187.7"/>
		<path class="st1" d="M182.9,241.2C182.3,240.7,182.3,240.7,182.9,241.2"/>
		<path class="st1" d="M142.2,239.5C141.6,239,141.6,239,142.2,239.5"/>
		<path class="st1" d="M122.7,215.9C122.2,215.4,122.2,215.4,122.7,215.9"/>
		<path class="st1" d="M127.2,229.1C126.7,228.6,126.7,228.6,127.2,229.1"/>
		<path class="st1" d="M140.6,221.1C140,220.6,140,220.6,140.6,221.1"/>
		<path class="st1" d="M100,229.3C99.5,228.8,99.5,228.8,100,229.3"/>
		<path class="st1" d="M114.8,232.6C114.2,232.1,114.2,232.1,114.8,232.6"/>
		<path class="st1" d="M196,211.6C195.5,211,195.5,211,196,211.6"/>
		<path class="st1" d="M67.4,198.9C66.8,198.3,66.8,198.3,67.4,198.9"/>
		<path class="st1" d="M133.3,252.3C132.7,251.8,132.7,251.8,133.3,252.3"/>
		<path class="st1" d="M89.5,217.2C89,216.7,89,216.7,89.5,217.2"/>
		<path class="st1" d="M59.3,210.7C58.8,210.2,58.8,210.2,59.3,210.7"/>
		<path class="st1" d="M39.5,181.3C39,180.8,39,180.8,39.5,181.3"/>
		<path class="st1" d="M52.1,202.8C51.6,202.3,51.6,202.3,52.1,202.8"/>
		<path class="st1" d="M167.1,248.2C166.6,247.7,166.6,247.7,167.1,248.2"/>
		<path class="st1" d="M71.1,210.9C70.6,210.4,70.6,210.4,71.1,210.9"/>
		<path class="st1" d="M78.6,221.7C78.1,221.2,78.1,221.2,78.6,221.7"/>
		<path class="st1" d="M87.3,230.7C86.8,230.2,86.8,230.2,87.3,230.7"/>
		<path class="st1" d="M50.2,228.6C49.7,228.1,49.7,228.1,50.2,228.6"/>
		<path class="st1" d="M47.8,217.9C47.3,217.3,47.3,217.3,47.8,217.9"/>
		<path class="st1" d="M35.2,219.2C34.7,218.7,34.7,218.7,35.2,219.2"/>
		<path class="st1" d="M30.7,204.9C30.2,204.4,30.2,204.4,30.7,204.9"/>
		<path class="st1" d="M69,224.4C68.4,223.9,68.4,223.9,69,224.4"/>
		<path class="st1" d="M93.9,250.3C93.4,249.8,93.4,249.8,93.9,250.3"/>
		<path class="st1" d="M73.6,234.5C73.1,234,73.1,234,73.6,234.5"/>
		<path class="st1" d="M82.4,243.5C81.9,243,81.9,243,82.4,243.5"/>
		<path class="st1" d="M64,237.2C63.5,236.7,63.5,236.7,64,237.2"/>
		<path class="st1" d="M42.9,207.2C42.4,206.6,42.4,206.6,42.9,207.2"/>
		<path class="st1" d="M107.6,221.9C107.1,221.3,107.1,221.3,107.6,221.9"/>
		<path class="st1" d="M147.4,256.9C146.9,256.4,146.9,256.4,147.4,256.9"/>
		<path class="st1" d="M91.6,196C91.1,195.4,91.1,195.4,91.6,196"/>
	</g>
	<g id="XMLID_1_">
		<g>
			<path class="st2" d="M152.8,151.8c1.1-4,1.5-7.6,1.7-11.9l0,0c-3.6,2-7.7,3.2-11.8,3.7c-1.6,0.2-3.3,0.3-4.9,0.3
				c-1.8,0-3.5-0.1-5.2-0.3c-3.8-0.5-7.6-1.5-11.3-2.6c-2.4-0.7-4.7-1.6-7.1-2.4c-1.1,3.8-1.6,7.8-1.5,11.8c0,2.1,0.3,4.2,0.7,6.3
				c0.3,1.7,0.8,3.4,1.7,4.9c0.3,0.4,0.6,0.8,0.9,1.2c1.2,1.3,2.8,2.3,4.5,3.2c7.3,3.6,16.5,4.4,23.2-0.1c1.3-0.9,2.6-2,3.6-3.2
				c2.3-2.5,3.9-5.6,5-8.9C152.5,153,152.7,152.4,152.8,151.8z M135.2,75.7c-8.9-5.6-20.5-7.3-30.8-5.3c-6.2,7.6-9.3,17.3-9.5,27.1
				c-0.1,10.1,3.7,28.4,7.1,37.9c2.6-3.2,5.8-5.6,10.3-7.5c0.3-0.1,0.6-0.3,0.9-0.4c1.8-0.7,3.9-1.1,6-1.2c3.6-0.2,9.7,1.2,12.1,3
				l0,0c0,1.3,0.6,2.5,1.4,3.5c1.5,1.6,3.8,2.2,6,2.1c2-0.1,4.1-0.7,5.5-2.1c0.9-0.9,1.6-2.1,1.7-3.4l0.5,0.1c0.7-1.4,1-1.7,2-2.8
				c1-1.1,2.2-2,3.6-2.6c0.5-0.2,1-0.3,1.5-0.4c1.2-0.2,2.4-0.2,3.5,0.1c0.3,0.1,0.6,0.2,0.9,0.3c0.6-12-1.7-35.1-3.3-47
				c-0.3-1.9-0.7-3.9-2.2-4.9c-5.3,1.3-10.5,3-15.6,5l-0.1-0.1l0,0l0,0l0,0l0,0l0,0l0,0C136.4,76.5,135.8,76.1,135.2,75.7z
				 M138.7,210.7l-1.1,1c-8.7,9.2-22.9,12.8-34.9,8.7c-2.5-0.9-6.4-3.2-10.6-9.3c-1.8,0.5-3.7,0.9-5.5,1.1c-8,0.9-16.4-1.1-22.8-5.9
				c-6.5-4.8-10.9-12.3-11.6-20.4c-0.7-8,2.5-16.4,8.6-21.6c0.1-0.1,0.3-0.2,0.3-0.4c0.2-0.4-0.1-0.8-0.4-1.2
				c-6.5-7.6-8.9-18.3-6.8-28c1.9-8.8,3.6-16.8,11-22.1c-0.4-4.9-1.5-9.1-3.5-13.7c-2.3-5-3.1-10.9-1.3-16.1s6.5-9.6,12-10l0.1-1.2
				c0-0.1,0.1-0.2,0.1-0.4c3-12.3,7.3-24.4,13.9-35.2c6.8-11.2,16-21.1,27.5-27.5c5.7-3.2,12-5.5,18.6-5.8
				c13.6-0.8,27.3,7.8,32.5,20.4c4.4,10.7,2.3,23.8-4.8,32.9c3.9-0.9,8.2,1.1,10.6,4.3c2.5,3.5,3.1,8.1,2.3,12.3
				c-0.9,4.2-4.4,11.9-9.7,16.4c0.3,0.3,0.6,0.6,0.8,1c1.6,2.1,2.5,4.8,2.8,7.4c0.3,3.1-0.3,6.2-1.3,9.1c-0.6,1.8-1.3,3.6-2.2,5.3
				c8.5,1.7,14.9,6.3,18.8,14c3.9,7.7,3.2,17.9-2.6,24.3c8,3.6,15.6,10.1,16.5,18.8c0.5,4.2-0.8,8.5-2.8,12.3
				c-3.5,6.6-9.6,12-16.9,13.9l-0.5,0.1c1,5.1-0.4,10.5-3.6,14.6c-3.4,4.3-8.8,6.9-14.3,6.9c-2.5,0-5-0.5-7.5-1.2
				C146.1,214.5,142,213.1,138.7,210.7z M92.3,128.7c-0.7-2.1-2.1-9.1-2-11.3c0.1-3.1-2.1-5.7-3.2-8.7c-0.9-2.5-0.5-5.2-1.1-7.9
				c0,0-3.7-1.1-6.1-0.6c-2.1,0.4-4.1,1.5-5.2,3.3c-0.8,1.4-1,3-1,4.6c-0.1,1.6,0,3.2,0.7,4.7c1.5,3,5.6,4.4,6,7.7
				c0.1,1.1-0.2,2.3-0.3,3.4c-0.1,2.9,1.7,5.8,4.4,6.8C87.2,131.8,90.5,130.9,92.3,128.7z"/>
			<path class="st3" d="M131.5,129.4L131.5,129.4c-2.5-1.8-8.5-3.2-12.2-3c-2.1,0.1-4.2,0.5-6,1.2c-0.3,0.1-0.6,0.2-0.9,0.4
				c-4.5,1.9-7.7,4.3-10.3,7.5c-3.4-9.5-7.2-27.8-7.1-37.9c0.1-9.8,3.3-19.5,9.5-27.2c10.3-2,21.9-0.3,30.8,5.3
				c0.6,0.4,1.2,0.8,1.9,1.2l0,0l0,0l0,0l0,0l0.1,0.1c5.1-2,10.3-3.7,15.6-5c1.5,1,1.9,3.1,2.2,4.9c1.7,11.9,3.9,35,3.3,47
				c-0.3-0.1-0.6-0.2-0.9-0.3c-1.1-0.3-2.3-0.3-3.5-0.1c-0.5,0.1-1,0.2-1.5,0.4c-1.4,0.5-2.6,1.5-3.6,2.6s-1.4,1.4-2,2.8l-0.5-0.1
				c-0.1,1.3-0.8,2.5-1.7,3.4c-1.5,1.4-3.5,2.1-5.5,2.1c-2.2,0.1-4.5-0.5-6-2.1C132.1,131.9,131.5,130.7,131.5,129.4z"/>
			<path class="st4" d="M154.6,139.9L154.6,139.9c-0.3,4.3-0.6,7.9-1.7,11.9c-3.3-0.3-6.7-0.5-10.1-0.7l0.1-1.3c0-2,0-4,0-5.9v-0.3
				C146.9,143,150.9,141.8,154.6,139.9z"/>
			<path class="st5" d="M152.8,151.8c-0.2,0.6-0.4,1.3-0.6,1.9c-1.1,3.2-2.7,6.3-5,8.9l-0.6-0.5c-3.2-4.2-10.1-4.9-14.1-1.4
				c-0.4,0.3-0.8,0.7-1.3,0.6c-0.3-0.1-0.6-0.4-0.8-0.6c-1.9-2-4.7-3-7.4-2.7c-2.7,0.3-5.2,2-6.6,4.3l-0.5,0.4
				c-0.3-0.4-0.7-0.8-0.9-1.2c-0.9-1.5-1.4-3.2-1.7-4.9c-0.4-2.1-0.6-4.1-0.7-6.3h0.6c2.2,0,4.5,0,6.8,0c4,0,8.1,0.1,12.1,0.3
				c3.5,0.1,7.1,0.3,10.6,0.5C146.1,151.3,149.5,151.5,152.8,151.8z"/>
			<path class="st6" d="M146.6,162l0.6,0.5c-1.1,1.2-2.3,2.3-3.6,3.2c-6.8,4.5-16,3.7-23.2,0.1c-1.6-0.8-3.3-1.8-4.5-3.2l0.5-0.4
				c1.4-2.4,3.9-4,6.6-4.3s5.5,0.7,7.4,2.7c0.2,0.3,0.5,0.5,0.8,0.6c0.5,0.1,1-0.3,1.3-0.6C136.5,157.1,143.4,157.8,146.6,162z"/>
			<path class="st4" d="M142.8,143.8c0,2,0,4,0,5.9l-0.1,1.3c-3.5-0.2-7-0.3-10.6-0.5v-1.2c-0.1-1.9,0-3.7,0.3-5.6v-0.3
				c1.7,0.2,3.5,0.3,5.2,0.3c1.6,0,3.3-0.1,4.9-0.3L142.8,143.8z"/>
			<path class="st4" d="M132.5,143.6v0.3c-0.4,1.8-0.5,3.7-0.3,5.6v1.2c-4.1-0.1-8.1-0.2-12.1-0.3v-0.9c0.6-2.3,1.2-6.1,1.2-8.5
				C124.9,142.1,128.7,143.1,132.5,143.6z"/>
			<path class="st4" d="M121.2,140.9c0,2.4-0.6,6.2-1.2,8.5v0.9c-2.3,0-4.5,0-6.8,0h-0.6c-0.1-4,0.4-8,1.5-11.8
				C116.5,139.4,118.8,140.2,121.2,140.9z"/>
			<path class="st3" d="M90.3,117.4c0,2.2,1.3,9.2,2,11.3c-1.8,2.2-5.1,3.1-7.8,2c-2.7-1-4.5-3.9-4.4-6.8c0.1-1.1,0.4-2.3,0.3-3.4
				c-0.4-3.3-4.5-4.7-6-7.7c-0.7-1.4-0.7-3.1-0.7-4.7c0.1-1.6,0.2-3.2,1-4.6c1.1-1.8,3.1-2.9,5.2-3.3c2.4-0.5,6.1,0.6,6.1,0.6
				c0.6,2.8,0.2,5.5,1.1,7.9C88.2,111.6,90.3,114.3,90.3,117.4z"/>
		</g>
	</g>
	<g>
		<g>
			<g>
				<g>
					<g>
						<path d="M164.9,90.8c0.2,0.2,0.5,0.4,0.7,0.6c0.1,0.1,0.3,0.6,0.5,1.1s0.4,0.9,0.5,1.1c0.1,0.3,0.5,0.7,0.7,1
							c0,0.1,0.1,0.1,0.1,0.2c0,0,0,0,0,0.1c0.1,0.2,0.1,0.4,0.1,0.5c0.1,0.3,0.2,0.6,0.2,0.9c0,0.2,0.1,0.4,0.1,0.6s0,0.5,0,0.7
							c0,0.5,0.1,1,0.1,1.3c0,0.2,0.1,0.4,0.2,0.6c0,0.1,0.1,0.2,0.1,0.4c0,0,0,0.1,0,0.2c-0.1,0.2,0,0.4,0.1,0.6
							c0.1,0.5-0.3,0.7-0.2,1.2c0,0.4,0,0.8,0,1.2c0,0.4-0.1,0.8-0.3,1.2c-0.2,0.4-0.3,0.8-0.3,1.1c0,0.4-0.1,0.7-0.2,1
							c-0.1,0.3-0.3,0.7-0.5,1.1s-0.5,0.8-0.6,1.1c-0.3,0.8-0.1,1.4-0.5,2.3c-0.2,0.5-0.5,0.7-0.9,1.2c-0.1,0.1-0.5,0.3,0.2,0.6
							c0.1,0,1.1,0.6,1.1,0.6c0.2-0.1,0.3-0.4,0.5-0.6c0.4-0.4,0.2-1.1,0.6-1.5c0.3-0.4,0.6-0.9,0.8-1.4s0.4-1,0.6-1.5
							c0.2-0.4,0.1-1,0.3-1.4c0.1-0.4,0.5-0.7,0.6-1.1s0-0.9,0-1.3s0-0.6,0.1-1c0.2-0.4,0.4-1,0.5-1.4s0.1-0.8,0.1-1.2
							c0-0.2,0-0.3,0-0.5c-0.1-0.6-0.3-0.4-0.2-1c0,0,0.3-0.6,0.3-0.9s-0.2-0.6-0.3-0.8c-0.2-0.2-0.2-1.3-0.3-1.6
							c-0.1-0.3-0.1-0.6-0.1-1c0-0.6-0.6-1-0.8-1.5c-0.1-0.3-0.2-0.7-0.3-1c0-0.1-0.1-0.1-0.1-0.2c-0.2-0.3-0.6-0.7-0.9-1.2
							c-0.3-0.4-0.6-0.8-0.6-1c-0.1-0.5-0.3-0.7-0.7-0.8C166.1,89.6,164.8,90.7,164.9,90.8z"/>
					</g>
				</g>
			</g>
		</g>
		<g>
			<g>
				<g>
					<g>
						<path d="M162.7,58c0.5-0.1,1.1-0.4,1.6-0.3c0.2,0,0.5,0,0.8,0.1c0.4,0.1,0.8,0.2,1.2,0.3c0.8,0.3,1.6,0.7,1.9,0.9
							c0.2,0.1,0.6,0.2,0.9,0.4c0.3,0.2,0.7,0.3,0.9,0.5c0.1,0.1,0.2,0.2,0.2,0.2l0.1,0.1c0.2,0.2,0.4,0.5,0.7,0.7
							c0.4,0.4,0.7,0.8,1,1.2c0.3,0.5,0.8,1.3,1.1,2.2c0.2,0.4,0.3,0.9,0.4,1.3c0.1,0.2,0.1,0.4,0.2,0.6c0,0.2,0.1,0.3,0.1,0.5
							c0.1,0.4,0.3,0.7,0.4,1.1c0.1,0.2,0.1,0.4,0.2,0.6c0,0.1,0,0.2,0,0.3c0,0.4,0.1,0.8,0.1,1.1c0.1,0.9-0.2,1.3-0.2,2.1
							c-0.1,1.3-0.3,3-0.9,4.2c-0.2,0.3-0.3,0.6-0.4,1c-0.2,0.3-0.3,0.7-0.4,1c-0.2,0.6-0.4,1.3-0.7,1.8c-0.2,0.4-0.6,1.2-1.1,1.8
							c-0.5,0.7-1,1.3-1.2,1.8c-1,1.3-1.1,2.3-2.2,3.6c-0.7,0.8-1.2,1-2,1.7c-0.1,0.1-0.9,0.4-0.4,0.9c0,0,0.2,0.3,0.4,0.5
							s0.4,0.5,0.4,0.5c0.3-0.2,0.8-0.6,1.1-0.8c0.4-0.3,0.7-0.6,1-1s0.5-0.8,0.9-1.1c0.3-0.3,0.7-0.6,1-1s0.6-0.7,0.9-1.1
							c0.6-0.8,1.1-1.6,1.6-2.5c0.5-0.7,0.7-1.6,1.1-2.4c0.4-0.6,0.9-1.1,1.2-1.8c0.1-0.4,0.3-0.7,0.3-1.1c0.1-0.4,0.1-0.8,0.2-1.2
							c0.1-0.7,0.2-1.1,0.5-1.7c0.1-0.4,0.3-0.8,0.5-1.2c0.1-0.5,0.3-0.9,0.4-1.3c0.2-0.7,0.1-1.5,0.1-2.2c0-0.3-0.1-0.6-0.1-0.9
							c-0.1-1.1-0.3-0.7-0.3-1.8c0,0,0.1-1.1,0-1.6s-0.4-1-0.7-1.4c-0.1-0.1-0.1-0.3-0.2-0.5c-0.1-0.2-0.2-0.5-0.4-0.8
							c-0.1-0.3-0.2-0.6-0.4-0.8c-0.1-0.2-0.2-0.4-0.3-0.5c-0.3-0.5-0.5-1-0.9-1.5c-0.3-0.5-0.7-0.8-1.2-1.1s-1-0.6-1.3-0.8
							s-0.5-0.4-0.8-0.6c-0.3-0.2-0.5-0.3-0.8-0.5c-0.1,0-0.2-0.1-0.3-0.1c-0.3-0.2-0.7-0.3-1.2-0.4c-0.5-0.1-0.9-0.3-1.4-0.3
							c-0.9-0.2-1.8-0.2-2.1-0.3c-0.2-0.1-0.4-0.1-0.6-0.2c-0.2,0-0.3,0-0.5,0c-0.3,0.1-0.6,0.2-0.9,0.3
							C162.2,56.4,162.5,58.1,162.7,58z"/>
					</g>
				</g>
			</g>
		</g>
		<g>
			<g>
				<g>
					<g>
						<path d="M161.8,125c0-0.9-0.1-2-0.1-2.9c0.1-1.1,0.2-6.2,0.2-7.3c0-1-0.3-2.6-0.4-3.5c0-0.3,0-0.4,0-0.5s0-0.1,0-0.2
							c0-0.6,0-1.1,0-1.7c0-0.9-0.1-1.8-0.2-2.7c-0.1-2-0.2-6.2-0.4-8.2c-0.1-0.7-0.2-1.3-0.3-2c-0.1-0.4-0.1-0.7-0.2-1.1
							c0-0.1,0-0.4,0-0.5c0-0.7-0.2-1.2-0.3-1.9c-0.2-1.5,0-2.1-0.2-3.5c-0.3-2.1-0.8-4.9-0.9-7c-0.1-1.1-0.2-2.4-0.4-3.5
							c-0.2-1-0.4-2.2-0.7-3.2c-0.1-0.4-0.4-1-0.7-1.6c-0.2-0.3-0.4-0.6-0.9-1l-0.3-0.3l-0.2-0.1l-0.1-0.1h-0.1l-0.8,0.2
							c-1.4,0.3-2.7,0.6-3.4,0.8c-2.6,0.7-3.8,1.4-6.4,2.4c-1.6,0.6-2.4,0.7-4.1,1.2c-0.3,0.1-1.5,0.2-1.2,0.8
							c0,0.1,0.4,1.2,0.4,1.2c0.6-0.1,1.4-0.4,2-0.5c1.3-0.3,2.7-1.2,4-1.6c0.7-0.2,1.4-0.4,2.1-0.6c0.7-0.2,1.4-0.3,2.1-0.5
							c1.4-0.4,2.9-0.8,4.3-1.2l0.5-0.1h0.1l0,0h0.1c0.1-0.1,0.1,0,0.3,0.1c0.3,0.3,0.7,0.8,0.9,1.4c0.3,0.9,0.2,2,0.3,3
							c0.2,1.2,0.5,2.3,0.7,3.4c0.2,1,0.3,1.6,0.4,2.7c0.1,1.2,0.1,2.8,0.1,3.9s0.2,2.2,0.3,3.3c0.1,0.4,0.1,0.9,0.2,1.3
							c0.2,1.6,0.4,1,0.4,2.7c0,0.1-0.2,1.6-0.1,2.4c0.1,0.8,0.2,1.5,0.4,2.2s0.3,3.6,0.3,4.3c0,0.8,0,1.7,0,2.5
							c0,1.5,0.4,3,0.5,4.5c0,0.9,0,1.8,0,2.7c0,0.2,0,0.3,0,0.5c0.2,2,0.5,6.1,0.2,6.9c-0.3,1.1-0.2,1.9,0,2.9
							C160.1,125.2,161.8,125.4,161.8,125z"/>
					</g>
				</g>
			</g>
		</g>
		<g>
			<g>
				<g>
					<g>
						<path d="M150.1,131c0-0.2,0-0.4,0.1-0.5c0.1-0.2,0.8-0.7,0.9-0.8c0.1-0.1,0.1-0.5,0.3-0.6l0.1-0.1l0,0
							c0.1-0.1,0.2-0.1,0.2-0.2c0.1-0.1,0.2-0.3,0.4-0.4c0.3-0.2,0.9-0.6,1.1-0.8c0.1-0.1,0.1-0.2,0.2-0.3c0-0.1,0-0.2,0.1-0.2h0.1
							c0.1,0,0.2-0.2,0.2-0.2c0.2-0.2,0.4,0,0.6-0.2c0.3-0.2,0.6-0.6,1-0.6c0.2,0,0.4,0,0.6-0.1c0.1-0.1,0.3-0.2,0.5-0.2
							c0.2-0.1,0.8,0.2,1.1,0.2c0.5,0,0.7-0.4,1.2-0.3c0.3,0,0.4,0.2,0.7,0.3c0,0,0.3,0.3,0.3-0.4c0-0.1,0.1-0.9,0.1-0.9
							c0-0.5,0-0.3,0-0.4l0,0l0,0c0,0-0.1,0-0.1-0.1c-0.1,0-0.1-0.1-0.2-0.1c-0.2-0.2-0.6,0.2-0.8,0c-0.3-0.1-0.5-0.2-0.8-0.2
							s-0.6,0-0.9,0c-0.3,0-0.6,0.2-0.9,0.2c-0.2,0-0.5-0.2-0.7-0.1s-0.4,0.3-0.6,0.5c-0.2,0.2-0.3,0.2-0.5,0.3c-0.2,0-0.6,0-0.9,0
							c-0.2,0-0.4,0.2-0.6,0.4c-0.1,0.1-0.1,0.1-0.2,0.2c-0.2,0.2,0,0.3-0.4,0.4c0,0-0.5-0.1-0.6,0s-0.2,0.3-0.2,0.5
							s-0.5,0.5-0.6,0.6s-0.3,0.2-0.5,0.2c-0.3,0.1-0.2,0.6-0.4,0.8c-0.1,0.1-0.3,0.2-0.4,0.4c0,0,0,0.1-0.1,0.1
							c-0.2,0.4-0.5,1.3-0.7,1.3c-0.3,0.1-0.4,0.3-0.3,0.5C148.6,130.3,150.1,131.1,150.1,131z"/>
					</g>
				</g>
			</g>
		</g>
		<g>
			<g>
				<g>
					<g>
						<path d="M105.4,135.9c-0.4-1.2-1.1-2.6-1.4-3.9c-0.2-0.8-0.8-3-1.2-5.2c-0.5-2.2-0.9-4.4-1.1-5.2c-0.2-1.4-1-3.6-1.2-5
							c-0.1-0.4-0.1-0.6-0.1-0.8c0-0.1,0-0.2,0-0.3c-0.1-0.8-0.2-1.6-0.4-2.4c-0.2-1.3-0.4-2.6-0.6-4s-0.4-3.7-0.5-6
							c-0.1-1.1,0-2.2-0.1-3.3c0-1,0-1.9,0.1-2.7c0.1-0.9-0.1-1.9,0-2.9c0-0.5,0.1-1.1,0.1-1.6c0-0.2,0.1-0.6,0.1-0.7
							c0.2-0.9,0.3-1.8,0.5-2.7c0.1-0.5,0.2-1,0.3-1.4c0.1-0.4,0.3-0.7,0.4-1.1c0.3-0.7,0.5-1.4,0.8-2.4c0.9-2.9,2.6-6.7,4.4-9.2
							c0.5-0.7,1-1.3,1.5-2l0.4-0.5l0.3-0.4c0-0.1,0.1-0.1,0.1-0.1l0.6-0.1c0.7-0.2,1.5-0.3,2.3-0.4s1.5-0.2,2.2-0.2
							c1.1-0.1,3.1-0.1,5,0.1s3.8,0.5,4.9,0.7c1.9,0.3,3.3,0.6,4.8,0.9c1.4,0.3,2.9,0.7,4.7,1.4c1.1,0.5,2,0.9,2.7,1.4
							c0.8,0.4,1.5,1,2.5,1.7c0.3,0.2,1.6,1.5,1.9,0.8c0-0.1,0.8-1,0.8-1c-0.6-0.6-1.7-1.4-2.4-1.8c-1.7-1.3-4-1.9-5.9-2.8
							c-2-0.9-4.1-1.6-6.2-2.1c-2.2-0.5-4.4-0.8-6.7-1c-2-0.2-4,0-6,0.1c-1.6,0.1-3.3,0-4.9,0.3l-0.7,0.1l-0.6,0.1l-0.3,0.1
							c-0.1,0-0.1,0.1-0.2,0.2l-0.3,0.5l-0.2,0.3l-0.4,0.6c-0.5,0.8-1,1.5-1.4,2.3c-0.7,1.4-1.2,2.2-2,3.5c-0.4,0.8-0.9,1.7-1.4,2.6
							c-0.4,0.9-0.9,1.9-1.3,2.7c-0.4,0.7-0.6,1.6-0.8,2.4c-0.2,0.8-0.5,1.6-0.6,2.4c-0.1,0.7-0.2,1.4-0.4,2c-0.2,1.2-0.2,1.6-0.2,2
							s0,0.8-0.2,2c0,0.1-0.2,0.6-0.3,1.4c-0.1,0.7-0.3,1.6-0.3,2.2c-0.1,1.1,0.1,2.3,0.2,3.4c0.1,1.2,0.4,5.4,0.5,6.5
							c0.1,1.3,0.3,2.5,0.3,3.8c0.1,2.3,1,4.3,1.4,6.6c0.2,1.3,0.5,2.7,0.7,4c0,0.2,0.1,0.5,0.2,0.7c0.4,1.5,1,3.6,1.5,5.6
							c0.6,2,1.1,3.7,1.2,4.4c0.2,1.7,0.7,2.8,1.3,4.1C103.9,136.8,105.6,136.5,105.4,135.9z"/>
					</g>
				</g>
			</g>
		</g>
		<g>
			<g>
				<g>
					<g>
						<path d="M134.5,129.7c-0.4-0.2-1-0.4-1.3-0.6c-0.2-0.2-0.9-0.5-1.6-0.9c-0.7-0.3-1.4-0.6-1.7-0.7c-0.5-0.2-1.3-0.1-1.7-0.2
							c-0.1,0-0.2,0-0.2-0.1h-0.1c-0.3-0.1-0.5-0.2-0.8-0.2c-0.4-0.1-0.9-0.1-1.3-0.2c-0.9-0.2-3-0.5-4.1-0.4c-0.3,0-0.7,0.2-1,0.3
							c-0.2,0.1-0.3,0.1-0.5,0.2c-0.1,0-0.2,0-0.3,0c-0.3,0-0.6,0.1-0.9,0.2c-0.7,0.2-1,0-1.7,0.2c-0.5,0.2-1.1,0.4-1.6,0.6
							c-0.6,0.2-1.1,0.5-1.6,0.6c-0.5,0.1-1.1,0.4-1.5,0.7c-0.4,0.3-0.9,0.6-1.3,0.8c-0.7,0.4-2.4,1.1-3,1.6
							c-1.1,0.8-1.3,1.5-2.3,2.4c-0.6,0.6-1,0.8-1.6,1.3c-0.1,0.1-0.7,0.4-0.1,0.8c0,0,0.3,0.2,0.5,0.4s0.5,0.4,0.5,0.4
							c0.3-0.1,0.5-0.4,0.7-0.6c0.5-0.4,0.7-1.1,1.3-1.5c0.6-0.4,1.1-0.8,1.6-1.1c0.5-0.4,1.1-0.8,1.7-1.2c0.5-0.3,0.9-0.8,1.5-1.1
							c0.5-0.2,1-0.2,1.4-0.5c0.5-0.3,0.9-0.6,1.3-1c0.4-0.3,0.7-0.4,1.1-0.5c0.5-0.1,1.3-0.2,1.8-0.2s1-0.2,1.5-0.4
							c0.2-0.1,0.4-0.1,0.6-0.2c0.7-0.2,0.4-0.3,1.2-0.3c0,0,0.8,0.3,1.1,0.2c0.3,0,0.6-0.1,1-0.2c0.3-0.1,1.6,0.1,1.9,0.1
							c0.4,0.1,0.8,0.2,1.1,0.3c0.7,0.3,1.4,0,2.1,0.1c0.4,0.1,0.8,0.3,1.2,0.4c0.1,0,0.1,0,0.2,0c0.9,0.1,2.8,0.6,3,1
							c0.3,0.5,0.6,0.6,1.1,0.6C133.6,131.1,134.7,129.8,134.5,129.7z"/>
					</g>
				</g>
			</g>
		</g>
		<g>
			<g>
				<g>
					<g>
						<path d="M121.8,80.7c-0.2,0-0.5,0.1-0.7,0s-1.4-0.4-1.6-0.4s-0.6,0.2-0.8,0.3c-0.1,0-0.1,0-0.1,0s0,0-0.1,0s-0.3,0-0.4,0
							c-0.2,0-0.4,0.1-0.6,0.1c-0.4,0.1-1.4,0.2-1.8,0.4c-0.1,0.1-0.2,0.2-0.3,0.3c-0.1,0.1-0.1,0.2-0.2,0.2h-0.1
							c-0.2,0-0.2,0.2-0.3,0.3c-0.3,0.2-0.5,0-0.8,0.3c-0.4,0.3-0.8,0.8-1.2,1c-0.2,0.1-0.5,0.2-0.6,0.5c-0.1,0.2-0.3,0.4-0.4,0.6
							c-0.2,0.2-1,0.7-1.2,1c-0.3,0.5-0.2,1-0.4,1.5c-0.2,0.3-0.4,0.4-0.6,0.8c0,0-0.4,0.2,0.3,0.4c0.1,0,1.2,0.4,1.2,0.4
							c0.2-0.1,0.2-0.2,0.3-0.3c0.2-0.2,0-0.6,0.2-0.8c0.2-0.2,0.4-0.4,0.6-0.6s0.3-0.5,0.5-0.7c0.1-0.2,0.2-0.5,0.4-0.7
							c0.2-0.1,0.5-0.1,0.6-0.2c0.2-0.2,0.2-0.4,0.3-0.7c0.1-0.2,0.2-0.3,0.4-0.4c0.2-0.1,0.6-0.1,0.8-0.1c0.2,0,0.3-0.2,0.5-0.3
							c0.1,0,0.1-0.1,0.2-0.2c0.2-0.2,0.1-0.3,0.4-0.4c0,0,0.4,0.2,0.5,0.1s0.2-0.2,0.3-0.4c0.1-0.2,0.6-0.2,0.8-0.2
							c0.2,0,0.3,0,0.5,0.1c0.3,0.1,0.5-0.4,0.8-0.4c0.2,0,0.3,0.1,0.5,0.1h0.1c0.4-0.1,1.2-0.3,1.3-0.1c0.2,0.3,0.3,0.3,0.5,0.1
							C121.5,82.4,121.9,80.7,121.8,80.7z"/>
					</g>
				</g>
			</g>
		</g>
		<g>
			<g>
				<g>
					<g>
						<path d="M154.1,86.5c-0.1-0.1-0.3-0.3-0.3-0.4c0-0.2-0.1-1.1-0.2-1.3c-0.1-0.2-0.4-0.3-0.5-0.4v-0.1l0,0
							c0-0.1-0.1-0.2-0.1-0.3c-0.1-0.1-0.2-0.2-0.3-0.4c-0.2-0.3-0.6-0.9-0.9-1.1c-0.1-0.1-0.2,0-0.4-0.1c-0.1,0-0.2,0-0.2,0h-0.1
							c-0.1-0.1-0.2-0.1-0.3-0.1c-0.2-0.1-0.2-0.4-0.4-0.4c-0.3-0.1-0.8-0.1-1.1-0.4c-0.1-0.1-0.3-0.2-0.5-0.2s-0.4,0-0.5,0
							c-0.2,0-0.8-0.4-1.1-0.4c-0.5,0-0.7,0.4-1.1,0.5c-0.3,0-0.4-0.1-0.7-0.1c0,0-0.3-0.2-0.1,0.4c0,0.1,0.4,1.2,0.4,1.2
							c0.1,0.1,0.2,0.1,0.3,0.1c0.2,0.1,0.3-0.3,0.5-0.2c0.2,0.1,0.4,0.1,0.5,0.1c0.2,0,0.4,0,0.5,0c0.2,0,0.3-0.2,0.5-0.1
							c0.1,0.1,0.2,0.3,0.3,0.4c0.1,0,0.3-0.1,0.5-0.2c0.2,0,0.2,0,0.3,0.1s0.2,0.4,0.3,0.5s0.2,0.1,0.4,0.2c0.1,0,0.1,0,0.2,0
							c0.2,0.1,0.3-0.1,0.4,0.1v0.4c0.1,0,0.2,0,0.4,0c0.1,0,0.4,0.3,0.4,0.4c0.1,0.1,0.1,0.2,0.1,0.3c0,0.2,0.4,0.1,0.5,0.3
							c0.1,0.1,0.1,0.2,0.1,0.3l0,0c0.2,0.1,0.6,0.5,0.5,0.7c-0.2,0.2-0.1,0.3,0.1,0.3C152.5,86.9,154.2,86.5,154.1,86.5z"/>
					</g>
				</g>
			</g>
		</g>
		<g>
			<g>
				<g>
					<g>
						<path class="st7" d="M159.8,35.5c0.1,0.3,0.2,0.6,0.3,0.9c0.1,0.3,0.1,0.7,0.1,1c0,0.4,0,1.4-0.2,2.5c-0.2,1-0.5,2-0.6,2.4
							c-0.2,0.6-0.3,1.7-0.7,2.3c-0.1,0.2-0.1,0.3-0.2,0.3c0,0,0,0.1-0.1,0.1c-0.2,0.3-0.4,0.7-0.6,1c-0.3,0.5-0.6,1.1-1,1.6
							c-0.8,1.2-2.7,3.3-3.8,4.3c-0.3,0.3-0.6,0.7-0.9,1.1c-0.2,0.2-0.3,0.4-0.5,0.6c-0.1,0.1-0.2,0.2-0.3,0.2
							c-0.4,0.3-0.7,0.6-1,0.9c-0.8,0.7-1.3,0.7-2.1,1.4c-0.6,0.5-1.3,1.1-2,1.7c-0.7,0.6-1.4,1.2-2,1.7c-0.7,0.5-1.3,1.2-1.8,1.8
							c-0.4,0.7-1,1.3-1.4,1.9c-0.4,0.5-1,1.3-1.6,2.1c-0.6,0.8-1.1,1.7-1.4,2.2c-0.4,0.9-0.6,1.7-0.7,2.5c-0.1,0.4-0.1,0.8-0.2,1.2
							c0,0.4-0.2,0.8-0.2,1.4c-0.2,1.3-0.4,1.9-0.4,3.2c0,0.2-0.2,1.2,0.5,1c0,0,0.4,0,0.7-0.1c0.3,0,0.6-0.1,0.6-0.1
							c0.1-0.4,0.1-1,0.1-1.4c0.1-0.5,0-1,0-1.5s0-1,0.1-1.5c0.3-1,0.6-1.9,1-2.8c0.4-1,0.8-1.9,1.3-2.8c0.4-0.8,0.8-1.7,1.4-2.4
							c0.5-0.6,1.2-1,1.6-1.6c0.5-0.6,1-1.3,1.5-2c0.5-0.6,0.8-0.9,1.4-1.3c0.7-0.5,1.7-1,2.4-1.4s1.3-0.9,1.9-1.5
							c0.2-0.2,0.5-0.4,0.8-0.7c0.9-0.8,0.4-0.7,1.4-1.4c0,0,1.1-0.5,1.5-1c0.4-0.4,0.7-0.9,1-1.4c0.1-0.2,0.6-0.8,1-1.3
							s0.8-1.1,1-1.3c0.4-0.5,0.8-1,1.2-1.5c0.8-0.9,0.8-2.1,1.3-3.1c0.3-0.6,0.6-1.3,0.8-1.9c0-0.1,0.1-0.2,0.1-0.4
							c0.1-0.4,0.1-0.9,0.2-1.4c0-0.5,0.1-1.1,0.1-1.6c0-1.1,0-2,0.1-2.3c0.1-0.4,0.1-0.8,0.1-1.2c-0.1-0.4-0.2-0.7-0.4-1
							C161.4,35,159.7,35.2,159.8,35.5z"/>
					</g>
				</g>
			</g>
		</g>
		<g>
			<g>
				<g>
					<g>
						<path d="M139.4,212.2c-0.4,0.5-0.9,1.1-1.4,1.6c-0.3,0.2-1.2,0.9-2.2,1.6c-1,0.6-1.9,1.2-2.3,1.4c-0.6,0.3-1.5,1.2-2.1,1.5
							c-0.2,0.1-0.3,0.1-0.3,0.2c0,0-0.1,0-0.2,0.1c-0.4,0.2-0.7,0.3-1.1,0.5c-0.6,0.3-1.2,0.6-1.8,0.8c-1.4,0.5-4.4,1.3-5.8,1.5
							c-0.5,0.1-0.9,0.3-1.4,0.4c-0.3,0.1-0.5,0.2-0.8,0.2c-0.1,0-0.3,0-0.4,0c-0.5,0-0.9,0.1-1.4,0.2c-0.5,0.1-0.9,0.1-1.3,0
							c-0.4,0-0.8-0.1-1.3-0.1c-1.5,0.1-3.6,0.1-5.1-0.3c-0.8-0.2-1.7-0.5-2.5-0.5c-0.8-0.1-1.5-0.4-2.2-0.6
							c-0.6-0.2-1.4-0.6-2.2-1.1c-0.4-0.3-0.8-0.6-1.1-0.8c-0.3-0.3-0.6-0.5-0.8-0.7c-1.5-1.2-2.5-1.6-3.8-3.1
							c-0.4-0.5-0.7-0.9-0.9-1.2c-0.2-0.4-0.5-0.8-0.8-1.4c-0.1-0.2-0.4-1.1-0.9-0.6c0,0-0.3,0.2-0.6,0.4c-0.3,0.2-0.5,0.3-0.5,0.3
							c0.2,0.4,0.6,1,0.8,1.4c0.5,1,1.6,1.6,2.2,2.5c0.7,0.9,1.4,1.7,2.3,2.5l0.7,0.6l0.7,0.5c0.5,0.4,1,0.7,1.5,1
							c0.9,0.6,2,0.8,2.9,1.2c0.8,0.3,1.5,0.8,2.3,1c0.9,0.2,1.8,0.2,2.7,0.2c0.8,0,1.3,0.1,2.1,0.2c0.9,0.1,2.1,0.4,3,0.5
							s1.7,0,2.6-0.1c0.3,0,0.7-0.1,1.1-0.1c1.2-0.2,0.8-0.3,2.1-0.4c0,0,0.4,0,0.7,0.1c0.4,0,0.8,0,1.1-0.1
							c0.6-0.1,1.1-0.3,1.7-0.6c0.3-0.1,0.9-0.3,1.6-0.5s1.3-0.4,1.6-0.5c0.6-0.2,1.2-0.4,1.9-0.6c0.6-0.2,1.1-0.5,1.6-0.8
							c0.5-0.4,0.9-0.7,1.5-1s1.3-0.7,1.9-1c0.1-0.1,0.2-0.1,0.3-0.2c0.6-0.5,1.5-1.2,2.4-1.9c0.8-0.7,1.5-1.3,1.8-1.5
							c0.8-0.4,1.2-0.9,1.6-1.6C140.7,213.3,139.6,212,139.4,212.2z"/>
					</g>
				</g>
			</g>
		</g>
		<g>
			<g>
				<g>
					<g>
						<path d="M177.1,195.8c0.1,0.6,0.5,1.4,0.5,2.1c0,0.4,0.1,1.6-0.1,2.7c0,0.3-0.1,0.6-0.1,0.8c-0.1,0.3-0.1,0.5-0.2,0.8
							c-0.1,0.5-0.2,0.8-0.2,1c-0.1,0.3-0.2,0.8-0.2,1.3c-0.1,0.5-0.1,0.9-0.3,1.3c-0.1,0.2-0.1,0.3-0.1,0.4c0,0,0,0.1-0.1,0.1
							c-0.2,0.4-0.3,0.8-0.5,1.1c-0.3,0.6-0.6,1.2-1,1.7c-0.2,0.3-0.5,0.7-0.8,1.1c-0.3,0.4-0.8,0.8-1.1,1.2
							c-0.4,0.4-0.9,0.7-1.2,1.1c-0.2,0.2-0.4,0.3-0.6,0.5c-0.2,0.1-0.4,0.2-0.5,0.4c-0.4,0.3-0.7,0.7-1.1,1
							c-0.2,0.2-0.4,0.3-0.6,0.5c-0.1,0.1-0.3,0.1-0.3,0.2c-0.4,0.2-0.8,0.5-1.2,0.7c-0.5,0.2-0.9,0.4-1.2,0.4
							c-0.4,0.1-0.8,0.1-1.3,0.3c-0.4,0.1-0.8,0.2-1.2,0.3s-0.9,0.2-1.3,0.3c-0.9,0.1-1.8,0.2-2.6,0c-0.8-0.1-1.7-0.3-2.6-0.3
							c-0.8,0-1.6-0.2-2.4-0.4c-1.2-0.2-3.9-1.3-5-1.7c-1.9-0.6-3-0.7-4.9-1.6c-0.6-0.3-1-0.5-1.3-0.9c-0.4-0.3-0.7-0.6-1.2-1
							c-0.2-0.1-0.7-0.9-1.1-0.3c0,0-0.2,0.3-0.4,0.5s-0.4,0.5-0.4,0.5c0.3,0.4,0.9,0.8,1.2,1.1c0.4,0.4,1,0.6,1.5,0.9
							c0.6,0.2,1.1,0.4,1.6,0.7s1,0.6,1.5,0.8s1.1,0.5,1.6,0.7c1.1,0.4,2.2,0.8,3.4,1.1c1,0.3,2.1,0.4,3.1,0.6
							c0.8,0.2,1.6,0.7,2.5,0.8s1.9,0.1,2.8,0c0.8,0,1.3-0.1,2.2-0.1c0.5,0,1,0,1.6,0s1.1,0,1.6-0.1c0.9-0.2,1.8-0.4,2.6-0.9
							c0.3-0.2,0.7-0.3,1-0.5c1.2-0.6,0.7-0.6,1.9-1.2c0.1,0,1.3-0.5,1.8-0.8s0.9-0.9,1.3-1.4c0.1-0.1,0.3-0.3,0.5-0.5
							s0.5-0.5,0.7-0.8s0.5-0.5,0.7-0.8c0.2-0.2,0.3-0.5,0.4-0.6c0.4-0.6,0.9-1.1,1.3-1.7c0.4-0.5,0.6-1.1,0.8-1.7
							c0.1-0.6,0.3-1.2,0.5-1.8c0.2-0.7,0.5-1.4,0.7-2.1c0-0.1,0-0.3,0-0.4c0-0.4,0.1-0.9,0.1-1.5c0.1-0.6,0-1.2,0-1.7
							c0-0.6,0-1.1,0-1.5s0-0.8,0-0.9c0.2-1-0.1-1.6-0.4-2.3C178.7,195.2,177,195.5,177.1,195.8z"/>
					</g>
				</g>
			</g>
		</g>
		<g>
			<g>
				<g>
					<g>
						<path d="M179.2,197c0.7-0.3,1.5-0.5,2.2-0.8s1.5-0.7,2.1-1c0.4-0.2,1.2-0.6,2.1-1.1c1-0.5,2-1.3,3-2c0.5-0.4,1-0.8,1.5-1.2
							s0.9-0.8,1.3-1.2c0.7-0.8,1.3-1.4,1.7-1.8c0.5-0.6,1.1-1.5,1.7-2.4c0.5-0.9,1-1.9,1.4-2.6c0.2-0.4,0.3-0.6,0.4-0.8
							c0.1-0.1,0.1-0.2,0.2-0.3c0.2-0.4,0.4-0.8,0.6-1.2c0.2-0.4,0.4-0.8,0.5-1.3c0.6-1.4,0.9-2.9,1.2-4.4c0.3-1.7,0.5-4.4-0.1-7
							c-0.5-2.6-1.8-5-2.7-6.4c-0.3-0.5-0.7-0.9-1-1.3c-0.4-0.4-0.7-0.8-1.2-1.2c-0.4-0.4-0.9-0.8-1.3-1.2c-0.1-0.1-0.5-0.5-0.6-0.6
							c-0.8-0.8-1.6-1.3-2.5-2c-2-1.4-2.7-2.1-4.8-3.3c-0.4-0.2-0.8-0.4-1.2-0.6c-0.1,0-0.3-0.1-0.4-0.2h-0.1l0,0l0.1-0.1l0.1-0.2
							l0.1-0.1l0.2-0.3l0.4-0.7c1.1-1.8,1.9-3.7,2.5-5.3c0.7-1.8,1.1-3.8,1-5.7c0-1.7-0.1-3.6-0.4-5.2c-0.2-1.3-0.7-3.5-1.5-5.6
							c-0.4-1.1-0.9-2-1.4-2.9c-0.2-0.4-0.5-0.9-0.7-1.2c-0.2-0.4-0.5-0.7-0.7-0.9c-0.7-0.9-1.2-1.7-1.9-2.3c-0.3-0.3-0.6-0.6-1-0.9
							c-0.3-0.3-0.6-0.6-1-0.8c-0.7-0.5-1.4-1-2.1-1.6c-0.8-0.5-1.6-1-2.6-1.6c-1.3-0.6-2.2-1.2-3.1-1.6c-0.5-0.2-1-0.4-1.5-0.6
							s-1.1-0.5-1.8-0.6c-0.4-0.1-2.4-0.9-2.4-0.2c0,0.1-0.3,1.2-0.3,1.2c0.8,0.3,2.2,0.7,3,1c1,0.5,2.1,0.7,3.2,1.2
							c1,0.5,2.2,0.8,3,1.5c0.5,0.3,0.9,0.7,1.4,1c0.4,0.3,0.8,0.7,1.3,1.1c0.4,0.4,0.9,0.7,1.2,1.1l1.1,1.2l0.6,0.6l0.5,0.7l1,1.4
							c0.6,1,1.2,2,1.8,3c0.9,1.8,1.7,3.7,2.1,5.8c0.2,1.7,0.1,3.3,0,5c-0.1,1.8-0.2,3.6-0.6,5.4c-0.4,1.6-0.7,2.5-1.6,3.9
							c-0.2,0.4-0.5,0.8-0.8,1.2c-0.2,0.2-0.3,0.4-0.5,0.6c-0.1,0.1-0.2,0.3-0.4,0.4l-0.5,0.5c-0.3,0.4-0.6,0.7-1,1.1l-0.1,0.1
							l0.1,0.1l0.3,0.2c0.2,0.1,0.4,0.2,0.6,0.3c0.4,0.2,0.8,0.4,1.2,0.6l0.3,0.1l0.2,0.1c0.1,0.1,0.2,0.1,0.3,0.2
							c1.5,0.9,3,1.7,4.4,2.7c0.6,0.4,1.2,0.8,1.7,1.2c1.9,1.6,1.5,0.9,3.1,2.8c0.1,0.1,1.4,2.1,1.9,3.1c0.3,0.5,0.6,1,0.9,1.5
							c0.3,0.5,0.6,1,0.8,1.5c0.1,0.2,0.3,0.7,0.5,1.2c0.1,0.6,0.4,1.2,0.4,1.9c0,0.3,0.1,0.7,0.1,1s0,0.6,0,0.9c0,0.6,0,1.1,0,1.3
							c0,1.3-0.3,2.6-0.7,3.8c-0.7,2.2-1.2,4.5-2.4,6.5c-0.4,0.6-0.7,1.2-1.2,1.8l-1.3,1.7c-0.1,0.2-0.3,0.4-0.5,0.6
							c-1,1.2-2.6,3.1-4.3,4.4c-0.4,0.3-0.8,0.7-1.2,1s-0.8,0.5-1.2,0.7c-0.7,0.4-1.3,0.7-1.6,0.8c-0.9,0.2-1.6,0.5-2.2,0.8
							c-0.7,0.2-1.3,0.5-2,0.8C178.5,195.4,178.6,197.2,179.2,197z"/>
					</g>
				</g>
			</g>
		</g>
		<g>
			<g>
				<g>
					<g>
						<path d="M93.1,211.6c-2.4,0.6-5.1,1-7.7,1c-2.7,0-5.4-0.3-7.8-0.9c-1.5-0.4-4.3-1.2-7.4-2.9s-6.4-4.4-8.9-7.8
							c-2.5-3.3-4.2-7.3-5-10.7s-0.6-6.3-0.4-7.8c0.3-2.6,1.1-6,2.6-9.1c0.8-1.6,1.7-3,2.7-4.3c0.5-0.6,1-1.2,1.5-1.8
							c0.3-0.3,0.5-0.5,0.8-0.8c0.2-0.2,0.3-0.3,0.5-0.5c0.2-0.2,0.4-0.4,0.5-0.6c0.2-0.6,0-1.2-0.2-1.7c-0.3-0.5-0.5-0.6-0.6-0.8
							c-0.3-0.4-0.5-0.6-0.7-0.8c-0.2-0.3-0.4-0.6-0.7-1c-1.7-2.5-3-5.2-4-8.1c-1.5-4.7-2-9.8-1.3-14.7c0.1-0.7,0.2-1.4,0.4-2.2
							s0.4-1.6,0.5-2.4c0.4-1.7,0.8-3.5,1.4-5.4c1.1-3.8,2.8-7.7,5.6-10.8c0.7-0.8,1.5-1.5,2.3-2.1c0.1-0.1,0.6-0.5,1-0.7l0.3-0.2
							l0.1-0.1v-0.2l-0.1-0.8l-0.1-1l-0.1-0.8c-0.3-2.2-0.7-4.3-1.3-6.3c-0.6-2-1.3-3.8-2-5.4c-0.7-1.5-1.2-3-1.5-4.3
							c-0.9-3.4-1.1-7.1-0.1-10.5c0.5-1.9,1.4-3.6,2.6-5.1c0.4-0.5,1.4-1.6,1.9-2c1-0.8,2.1-1.5,3.2-2c0.6-0.3,1.2-0.5,1.7-0.6
							c0.3-0.1,0.6-0.1,0.9-0.2c0.5-0.1,1.1-0.2,1.7-0.2c0-0.9,0.1-1.7,0.1-2.6l-1.7-0.2c0,0.2-0.1,0.5-0.1,0.7
							c0,0.4-0.1,0.7-0.1,0.9l1.6,0.3c0.9-3.7,1.7-6.4,2.5-9c0.9-2.7,1.8-5.4,3.1-9.1c2-5.6,4.8-12,8.3-17.9
							c3.5-6,7.8-11.4,11.9-15.5c4.4-4.4,9.9-8.7,15.3-11.8c5-2.9,10.8-5.1,16.3-5.7c2.1-0.3,5.1-0.4,8.3,0.2
							c3.3,0.5,6.8,1.7,10,3.4c3.3,1.7,6.2,4,8.5,6.3s3.9,4.8,5,6.6c1.8,3.2,2.8,6.3,3.4,9.2c0.6,2.9,0.7,5.7,0.5,8.5
							s-0.7,5.5-1.7,8.4c-1,2.9-2.4,5.8-4.6,8.8c-2.9,3.8-5.8,5.8-8.7,7.8c-1.5,1-3,1.9-4.6,3s-3.4,2.3-5.2,4
							c-0.6,0.5-2.2,2-3.3,3.7c-0.6,0.8-1,1.7-1.2,2.3c-0.1,0.3-0.1,0.5-0.1,0.7v0.1l0,0l0,0c0-0.1,0,0,0,0l0,0l0,0
							c-0.1,0,0.3,0.1,0.5,0.3c0.2,0.1,0.2,0.1,0.3,0.1s0.3,0.1,0.2,0.1l-0.2-0.1c-0.1,0-0.1,0-0.3-0.2c-0.2-0.1-0.2-0.1-0.1-0.1
							l0.2,0.1c0,0,0.1,0,0.1,0.1h0.1l0.2,0.1l0,0l-0.1-0.1c-0.1,0-0.1-0.1-0.2-0.1l0,0l0,0l0,0c0,0,0,0,0.1-0.1
							c0.1,0,0.2,0.1,0.2,0.1l0,0l0,0c0,0.1,0.1,0.1,0.1,0.1c0.1,0,0.1,0.1,0.2,0.1c0.1,0.1,0.2,0.1,0.2,0l0,0l0,0v-0.1v-0.1
							c-0.2-0.1,0.4,0.2-0.4-0.6c-1.2,0.1-0.6,0.3-0.8,0.2l-0.1,0.1l0,0l0,0l-0.1,0.1c0,0,0,0,0,0.1l0,0c0.2,0-0.4,0,0.5,0.7
							c0.9,0,0.5-0.2,0.6-0.1h0.1c0.1-0.1,0.1-0.2,0.1-0.1v-0.1l0.1-0.1l0.1-0.3c0.1-0.2,0.2-0.4,0.3-0.6c0.2-0.4,0.4-0.7,0.7-1.1
							c0.5-0.8,1.1-1.5,1.8-2.3c1.3-1.5,2.9-2.7,4.1-3.7c3.1-2.3,6.7-4.4,10-7.1c3.4-2.6,6.2-6,8.2-9.4c4.3-7.1,5.9-15.9,4.3-24.1
							c-0.8-4.3-2.6-8.4-5.1-11.9c-2.5-3.6-5.7-6.6-9.3-9c-6.4-4.3-14.2-6.3-21.9-5.7c-6.3,0.5-12.3,2.4-17.8,5.5
							c-5.9,3.3-11.1,7.6-15.7,12.4c-2.1,2.2-3.6,4-5.1,5.8s-2.9,3.7-4.6,6.2c-1.9,2.7-4,6.1-5.8,9.6c-1.9,3.5-3.5,7.1-4.8,10.1
							c-2.4,5.8-4.2,11.8-5.7,17.9l-0.7,2.9l2,0.4l0.2-1.6l-2-0.2v0.9v0.1h-0.1l-0.3,0.1c-2.4,0.5-3.9,1.4-4.9,2.1s-1.6,1.2-2.2,1.8
							c-0.6,0.6-1.1,1.2-1.8,2.1c-0.7,1-1.6,2.3-2.5,4.6c-0.1,0.2-1,2.5-1.2,5.4c-0.3,2.9,0.3,6.3,1,8.4c0.3,1.1,0.7,2.1,1.2,3.1
							c0.4,0.9,0.8,1.9,1.2,2.9c0.7,1.9,1.4,3.9,1.8,5.9c0.1,0.5,0.2,1.2,0.4,2c0.1,0.4,0.1,0.9,0.2,1.3c0,0.2,0,0.4,0.1,0.6v0.1
							l-0.1,0.1c-0.1,0.1-0.3,0.2-0.4,0.3c-0.2,0.2-0.5,0.4-0.7,0.6c-0.5,0.4-0.9,0.8-1.4,1.3c-0.9,0.9-1.7,2-2.5,3.1
							c-1.5,2.2-2.5,4.6-3.3,6.7c-0.7,2.1-1.2,3.9-1.4,4.9c-0.3,1.2-0.6,2.4-0.8,3.5c-0.3,1.2-0.6,2.3-0.8,3.6
							c-0.4,2.4-0.6,4.9-0.5,7.4c0.2,4.5,1.3,8.8,3.3,12.7c1,2,2.1,3.8,3.5,5.5c0.3,0.4,0.7,0.9,1,1.3l0.2,0.3c0,0,0,0.1,0.1,0.1
							c0,0.1,0.1,0.1,0,0.2c0,0.1-0.2,0.2-0.2,0.2l-0.6,0.5c-0.4,0.4-0.8,0.8-1.2,1.2c-3.6,4-5.9,9-6.8,14.3c-0.1,0.9-0.2,2-0.3,2.9
							c-0.1,3,0.4,6.7,1.8,10.4c1.4,3.7,3.7,7.3,6.5,10.2c2.8,2.9,6,5,8.8,6.3s5.1,2,6.2,2.3c3.2,0.9,6,1.2,8.7,1.2s5.3-0.5,8-1.2
							C94.7,212.9,95.4,211,93.1,211.6z"/>
					</g>
				</g>
			</g>
		</g>
		<g>
			<g>
				<g>
					<g>
						<path d="M94,129.4c-0.5,0.7-1.4,1.4-2.3,1.7c-0.5,0.2-2.2,0.5-3.7,0c-1.5-0.4-2.6-1.7-2.9-2.1c-0.3-0.4-0.7-0.9-1-1.5
							c-0.3-0.6-0.5-1.2-0.5-1.7c0-0.3,0-0.4,0-0.5s0-0.1,0-0.2c0.1-0.6,0.2-1.2,0.3-1.9c0.1-0.6,0.1-1.2,0-1.9
							c-0.1-0.7-0.3-1.3-0.6-1.8c-0.7-1.3-2.2-2.6-3.4-3.8c-0.6-0.6-1.2-1.2-1.5-1.8c-0.2-0.3-0.3-0.6-0.4-0.8
							c-0.1-0.3-0.2-0.5-0.2-0.8c-0.2-0.6-0.3-1.3-0.4-2.1c0-0.4-0.1-0.8-0.1-1.2c0-0.1,0-0.4,0-0.6c0.1-0.7,0.1-1.4,0.3-2
							c0.1-0.4,0.2-0.7,0.3-0.9c0.1-0.1,0.1-0.2,0.2-0.4l0.3-0.3c0.3-0.4,0.7-0.7,1.3-1.2c0.8-0.6,2.1-1.3,3.4-1.5
							c1.2-0.2,2.7,0,3.8,0.3l0.5,0.1l0.2,0.1c0.1,0,0.2,0,0.2,0.1c0.1,0,0.2,0,0.1,0.1c0.1,0.5,0.2,1,0.2,1.6
							c0.2,1.2,0.2,2.5,0.4,3.7c0.1,0.5,0.2,1.1,0.4,1.9c0.2,0.7,0.5,1.5,0.9,2.2c0.7,1.5,1.3,2.9,1.5,3.6c0.3,0.7,0.4,1.3,0.5,1.8
							c0,0.3,0.1,0.5,0.1,0.8s0.1,0.6,0.1,0.9c0.1,0.6,0.2,1.3,0.3,1.9c0.1,0.6,0.3,1.3,0.4,2.1c0.2,1,0.3,1.7,0.4,2.5
							c0.1,0.7,0.1,1.5,0.4,2.5c0.1,0.3,0.2,1.9,0.8,1.5c0.1,0,1.2-0.3,1.2-0.3c-0.1-0.7-0.3-1.6-0.4-2.3c-0.2-1.6-1-3.3-1.1-4.9
							c-0.1-0.8-0.2-1.7-0.2-2.5c0-0.9-0.1-1.7-0.1-2.6c-0.3-2-1.2-3.6-2-5.2c-0.7-1.4-1.5-2.6-1.7-4.1c-0.2-1.2,0.1-2.4,0-3.7
							c0-0.4-0.1-0.7-0.1-1.1c0-0.2-0.1-0.4-0.1-0.5c-0.1-0.3-0.1-0.5-0.2-0.8l-0.1-0.4l-0.1-0.2c-0.1,0-0.1,0-0.2-0.1l-0.9-0.2
							c-0.3-0.1-0.4-0.1-0.6-0.1l-0.6-0.1c-1.3-0.1-2-0.2-3.3-0.3c-1.5-0.1-3.5,0.4-4.9,1.1c-1.3,0.7-2.4,2-2.9,3.4
							c-0.1,0.3-0.2,0.6-0.3,0.9c-0.1,0.3-0.1,0.6-0.2,0.9c-0.1,1-0.1,1.4-0.1,1.7c0,0.3,0,0.7,0,1.6c-0.1,0-0.3,2.1,0,3.1
							c0.2,0.5,0.4,1,0.6,1.5c0.3,0.5,0.6,0.8,1,1.2c0.3,0.4,1.1,1.2,1.9,1.9c0.8,0.7,1.5,1.4,1.8,1.7c0.6,0.7,1,1.4,1.1,2.2
							c0,0.7,0.1,1.3,0,2.3c0,0.9,0,2,0.2,2.9c0.2,1.2,0.7,2.4,1.4,3.4c0.1,0.2,0.3,0.4,0.4,0.5c0.2,0.2,0.5,0.5,0.8,0.8
							c0.3,0.3,0.7,0.5,1.1,0.7s0.8,0.4,1.3,0.6c0.5,0.1,0.9,0.3,1.4,0.3c1.8,0.2,3.4-0.2,3.9-0.3c0.4,0,0.7-0.2,1-0.3
							s0.6-0.3,0.8-0.5c0.3-0.2,0.5-0.4,0.7-0.6c0.2-0.2,0.4-0.5,0.6-0.8C95.5,130.3,94.3,129.1,94,129.4z"/>
					</g>
				</g>
			</g>
		</g>
		<g>
			<g>
				<g>
					<g>
						<path d="M161.9,136.5c-0.6,0.5-1.3,1.2-2,1.7s-1.5,1-2.2,1.5c-0.5,0.3-1.3,0.7-2.4,1.2c-0.5,0.3-1.2,0.5-1.8,0.7
							s-1.3,0.5-2,0.7s-1.4,0.4-2,0.5c-0.7,0.1-1.3,0.2-1.9,0.4c-1.2,0.2-2.2,0.3-2.7,0.4c-0.4,0-1,0.1-1.5,0.2
							c-0.6,0-1.2,0.1-1.7,0.2c-1.2,0.2-2.4,0.1-3.3,0.1c-0.5,0-0.8,0-1,0c-0.1,0-0.3,0-0.4-0.1c-1-0.2-2-0.2-3.1-0.4
							c-0.8-0.2-1.7-0.3-2.5-0.5l-2.5-0.6c-1.8-0.5-4.6-1.4-7.4-2.4c-1.8-0.6-3.5-1.2-5.1-1.8l-0.2-0.1h-0.1v0.1l-0.1,0.5
							c-0.1,0.3-0.2,0.6-0.2,0.9c-0.1,0.5-0.3,0.9-0.4,1.4c-0.2,0.6-0.3,1.1-0.4,1.6c-0.3,1.3-0.3,2.6-0.4,3.9c0,0.7,0,1.4,0,2.1
							c0,0.2,0,0.8,0,1c-0.1,1.3,0.1,2.5,0.2,3.7c0.2,1.4,0.2,2.4,0.4,3.4c0.1,1,0.2,2,0.7,3.5c0.2,0.5,0.4,1,0.6,1.6
							c0.3,0.5,0.6,1.1,1,1.6c0.8,1,1.7,1.9,2.8,2.6c2.1,1.4,4.3,2.3,6.2,3.1c2,0.8,4.5,1.4,6.7,1.5c2.1,0.1,4.2,0.1,6.2-0.3
							c1.5-0.2,4.2-0.8,6.6-2.1c2.4-1.3,4.4-3.1,5.4-4.3c1.7-2.1,2.6-3.9,3.4-5.8c0.2-0.5,0.4-0.9,0.5-1.4c0.2-0.5,0.3-1,0.5-1.5
							c0.3-1,0.6-2.1,0.9-3.4c0.4-1.6,0.6-2.8,0.9-4c0.2-1.2,0.5-2.4,0.6-4.1c0.1-0.5,0.5-2.9-0.2-2.7c-0.1,0-1.2-0.2-1.3-0.1
							c-0.2,1.1-0.3,2.7-0.5,3.8c-0.1,0.6-0.2,1.3-0.3,2c0,0.3-0.1,0.7-0.1,1s-0.1,0.7-0.1,1c-0.1,0.7-0.2,1.4-0.3,2.1
							c-0.1,0.7-0.3,1.3-0.5,1.9c-0.8,2.6-1.9,5-3.3,7.3c-1.5,2.3-3.3,4.4-5.6,5.9c-2,1.3-4.2,2.4-6.7,2.8c-2,0.3-4,0.1-5.9-0.1
							c-2.1-0.2-4.3-0.5-6.4-1.1c-1.9-0.6-3-1-4.6-2c-0.9-0.6-1.9-1.3-2.7-2.2c-0.8-0.9-1.3-2-1.6-2.9c-0.6-1.8-1-3.9-1.3-5.9
							c-0.1-0.8-0.2-1.7-0.2-2.5c-0.1-1.5-0.1-2-0.1-2.5s0-1,0.1-2.5c0-0.1,0.7-3,1-4.3c0.1-0.3,0.1-0.7,0.2-1
							c0-0.1,0.1-0.4,0.1-0.5l0,0v-0.1c0,0,0,0,0.1,0c0,0,0,0,0.2,0c1.3,0.4,6.6,2.2,7.9,2.6c0.8,0.2,1.6,0.5,2.4,0.7
							c0.8,0.2,1.6,0.4,2.4,0.7c2.9,0.7,5.8,0.8,8.8,0.8c0.9,0.1,1.8,0,2.7,0s1.8,0,2.7-0.2c0.3,0,0.7-0.1,1-0.1
							c1-0.1,2.2-0.4,3.5-0.7c0.7-0.1,1.3-0.4,2-0.6c0.7-0.2,1.3-0.4,2-0.7c2.5-1,4.7-2.2,5.4-2.4c1-0.5,1.8-1,2.6-1.5
							c0.7-0.6,1.3-1.2,2-1.9C163.3,137.5,162.4,136,161.9,136.5z"/>
					</g>
				</g>
			</g>
		</g>
		<g>
			<g>
				<g>
					<g>
						<path class="st7" d="M131.2,177c-0.3,0.1-0.7,0.2-1,0.2c-0.2,0-0.8-0.1-1.3-0.1c-0.6-0.1-1.1-0.2-1.3-0.2
							c-0.3,0-0.9,0.2-1.3,0.2c-0.1,0-0.2,0-0.2,0s0,0-0.1,0c-0.2-0.1-0.4-0.1-0.6-0.1c-0.3-0.1-0.6-0.1-1-0.2
							c-0.2,0-0.4-0.1-0.6-0.2c-0.2-0.1-0.5-0.2-0.8-0.3c-0.5-0.2-1-0.4-1.4-0.4c-0.2,0-0.5-0.1-0.7-0.1c-0.1,0-0.3,0-0.4,0
							c0,0-0.1,0-0.2-0.1c-0.2-0.1-0.4-0.1-0.7-0.2c-0.5-0.1-0.6-0.4-1.1-0.6c-0.4-0.1-0.8-0.3-1.2-0.4c-0.2-0.1-0.4-0.2-0.6-0.3
							s-0.3-0.2-0.5-0.4c-0.3-0.3-0.6-0.6-1-0.7c-0.4-0.1-0.7-0.4-1-0.6c-0.4-0.4-1.3-1.4-1.7-1.8c-0.3-0.3-0.7-0.5-0.9-0.7
							c-0.3-0.2-0.6-0.4-0.9-0.8c-0.2-0.2-0.2-0.4-0.3-0.7c0-0.2,0-0.4-0.1-0.7c0-0.1,0.1-0.5-0.6-0.3c-0.1,0-1.2,0.3-1.2,0.3
							c0,0.2,0.1,0.6,0.1,0.8c0,0.7,0.8,1,1,1.5s0.6,1,1,1.5c0.4,0.4,0.8,0.9,1.3,1.2c0.4,0.3,0.9,0.5,1.3,0.9
							c0.2,0.1,0.3,0.3,0.4,0.5s0.3,0.3,0.5,0.4c0.4,0.2,0.9,0.3,1.3,0.5c0.4,0.1,0.6,0.3,0.9,0.5c0.4,0.3,0.8,0.7,1.2,1
							c0.3,0.3,0.8,0.4,1.2,0.5c0.2,0.1,0.3,0.1,0.5,0.1c0.6,0.2,0.5-0.1,1,0.2c0,0,0.5,0.6,0.8,0.6c0.3,0.1,0.6,0.1,0.9,0
							c0.3,0,1.4,0.3,1.6,0.4c0.3,0.1,0.6,0.2,0.9,0.3c0.6,0.2,1.2-0.1,1.8,0c0.4,0,0.7,0.1,1.1,0.1c0.1,0,0.1,0,0.2,0
							c0.4-0.1,1-0.1,1.5-0.1c0.5-0.1,1-0.1,1.2,0c0.5,0.2,0.8,0.2,1.1-0.1C131.5,178.7,131.3,176.9,131.2,177z"/>
					</g>
				</g>
			</g>
		</g>
		<g>
			<g>
				<g>
					<g>
						<path class="st7" d="M120.7,182.5c-0.2,0-0.4,0.1-0.5,0.1c-0.2-0.1-1.1-0.5-1.3-0.6c-0.2-0.1-0.5,0.1-0.7,0.1h-0.1l0,0
							c-0.1-0.1-0.2-0.1-0.3-0.1c-0.2,0-0.3-0.1-0.5-0.1c-0.3-0.1-1-0.5-1.4-0.6c-0.1,0-0.3,0-0.4,0s-0.2,0-0.2,0h-0.1
							c-0.1-0.1-0.2,0-0.4-0.1c-0.3,0-0.3-0.3-0.6-0.4c-0.4-0.1-0.9-0.2-1.2-0.5c-0.1-0.2-0.3-0.3-0.5-0.3s-0.4-0.1-0.6-0.2
							c-0.3-0.1-0.7-0.8-0.9-0.9c-0.4-0.3-0.9-0.1-1.3-0.4c-0.3-0.2-0.3-0.4-0.5-0.7c0,0,0-0.4-0.5,0.2c-0.1,0.1-0.8,1-0.8,1
							c0,0.2,0.2,0.3,0.2,0.4c0.1,0.3,0.6,0.2,0.8,0.4c0.2,0.3,0.4,0.5,0.6,0.7s0.5,0.3,0.8,0.5c0.2,0.1,0.5,0.1,0.8,0.3
							c0.2,0.1,0.2,0.5,0.4,0.6c0.2,0.1,0.5,0.1,0.8,0.1c0.2,0,0.4,0,0.5,0.2c0.2,0.2,0.4,0.5,0.6,0.6c0.2,0.2,0.4,0.2,0.6,0.2
							c0.1,0,0.2,0,0.3,0c0.3,0.1,0.3-0.2,0.6,0.1c0,0,0.2,0.4,0.3,0.5c0.1,0.1,0.3,0,0.5-0.1s0.7,0.2,0.8,0.2
							c0.2,0.1,0.3,0.2,0.4,0.3c0.3,0.2,0.7-0.1,1-0.1c0.2,0,0.3,0.2,0.5,0.2h0.1c0.4,0,1.3-0.1,1.4,0.1c0.2,0.3,0.4,0.3,0.6,0.1
							C120.5,184.2,120.7,182.5,120.7,182.5z"/>
					</g>
				</g>
			</g>
		</g>
		<g>
			<g>
				<g>
					<g>
						<path d="M155.5,151.9c-0.5,0-1.1,0.1-1.6,0c-0.6-0.1-3.5-0.5-4.2-0.6c-0.6-0.1-1.5,0.1-2,0.1c-0.2,0-0.2,0-0.3,0h-0.1
							c-0.3,0-0.6-0.1-0.9-0.1c-0.5,0-1-0.1-1.6-0.1c-1.1-0.1-3.6-0.4-4.7-0.5c-0.4,0-0.8,0.1-1.2,0.1c-0.2,0-0.4,0.1-0.6,0.1
							c-0.1,0-0.2,0-0.3,0c-0.4-0.1-0.7,0-1.1,0c-0.8,0-1.2-0.3-2-0.2c-1.2,0.1-2.9,0.2-4.1,0c-0.6-0.1-1.4-0.2-2-0.1
							c-0.6,0.1-1.2,0.1-1.8,0.1c-0.9,0-3.1-0.3-4-0.3c-1.5,0-2.3,0.4-3.9,0.3c-1,0-1.4-0.2-2.4-0.3c-0.2,0-0.9-0.3-0.8,0.4
							c0,0,0,0.4,0,0.7s0,0.6,0,0.6c0.3,0.1,0.8,0.1,1.2,0.2c0.8,0.2,1.7-0.2,2.5-0.1c0.8,0.1,1.7,0.2,2.5,0.2c0.9,0,1.7,0,2.6,0
							c0.8,0,1.5-0.2,2.3-0.1c0.6,0.1,1.2,0.3,1.9,0.3s1.3-0.2,2-0.3c0.6-0.1,1-0.1,1.6,0c0.7,0.1,1.6,0.3,2.2,0.4
							c0.6,0.1,1.3,0,1.9,0c0.3,0,0.5,0,0.8,0c0.9,0,0.6-0.2,1.5-0.1c0,0,0.9,0.4,1.3,0.4c0.4,0,0.9-0.1,1.3-0.1
							c0.4-0.1,2.1,0.1,2.5,0.1c0.5,0,1,0.1,1.4,0.3c0.9,0.2,1.7-0.2,2.6-0.1c0.5,0,1,0.1,1.6,0.2c0.1,0,0.2,0,0.3,0
							c1.2,0,3.5-0.1,4,0.1c0.6,0.3,1.1,0.3,1.7,0.1C155.5,153.6,155.8,151.9,155.5,151.9z"/>
					</g>
				</g>
			</g>
		</g>
		<g>
			<g>
				<g>
					<g>
						<path d="M124,150.7c0-0.1-0.1-0.3-0.1-0.4c0.1-0.1,0.4-0.7,0.4-0.9c0-0.1-0.2-0.3-0.2-0.5v-0.1l0,0c0-0.1,0.1-0.1,0.1-0.2
							c0-0.1,0-0.2,0-0.3c0-0.2,0.3-0.8,0.3-1c0-0.1-0.1-0.2-0.2-0.3l-0.1-0.1c0,0,0,0,0-0.1c0.1-0.1,0-0.2-0.1-0.2
							c-0.1-0.2,0.2-0.3,0.2-0.4c-0.1-0.3-0.3-0.6-0.1-0.9c0.1-0.1,0.1-0.3,0-0.4c-0.1-0.1-0.1-0.3-0.1-0.4c0-0.2,0.3-0.7,0.3-0.9
							c0-0.3-0.4-0.5-0.5-0.8c0-0.2,0.1-0.3,0.2-0.6c0,0,0.3-0.2-0.4-0.1c-0.1,0-1.3,0.1-1.3,0.1c-0.1,0.1-0.1,0.2-0.2,0.3
							c-0.2,0.2,0.3,0.3,0.2,0.5c-0.1,0.2-0.1,0.4-0.2,0.5c0,0.2,0,0.4,0,0.5c0,0.2,0.2,0.3,0.1,0.5c0,0.1-0.3,0.3-0.3,0.4
							c0,0.1,0.2,0.3,0.3,0.4c0.1,0.1,0.1,0.2,0.1,0.3c-0.1,0.1-0.2,0.3-0.3,0.5c-0.1,0.1,0,0.3,0,0.4c0,0.1,0,0.1,0,0.2
							c0,0.2,0.2,0.1,0.1,0.3c0,0-0.4,0.2-0.4,0.3s0.1,0.2,0.2,0.3s0,0.4,0,0.5s-0.1,0.2-0.2,0.3c-0.2,0.2,0.3,0.4,0.2,0.6
							c0,0.1-0.1,0.2-0.1,0.3c0,0,0,0,0,0.1c0.1,0.2,0.3,0.8,0,0.8c-0.3,0.1-0.2,0.2,0,0.3C122.3,150.5,124,150.7,124,150.7z"/>
					</g>
				</g>
			</g>
		</g>
		<g>
			<g>
				<g>
					<g>
						<path d="M147.6,152.3c0-0.1-0.1-0.2-0.1-0.3c0.1-0.1,0.4-0.6,0.4-0.8c0-0.1-0.2-0.3-0.2-0.4c0,0,0,0,0-0.1l0,0
							c0-0.1,0.1-0.1,0.1-0.2c0-0.1,0-0.2,0-0.3c0-0.2,0.3-0.7,0.3-0.9c0-0.1-0.1-0.2-0.2-0.2l-0.1-0.1c0,0,0,0,0-0.1
							c0.1-0.1,0-0.1-0.1-0.2c-0.1-0.2,0.2-0.2,0.2-0.4c-0.1-0.2-0.3-0.6-0.1-0.8c0.1-0.1,0.1-0.3,0-0.4c-0.1-0.1-0.1-0.2-0.1-0.3
							c0-0.2,0.3-0.6,0.3-0.8c0-0.3-0.4-0.4-0.4-0.7c0-0.2,0.1-0.3,0.2-0.5c0,0,0.3-0.2-0.4-0.1c-0.1,0-1.3,0.1-1.3,0.1
							c-0.1,0.1-0.1,0.2-0.2,0.2c-0.2,0.2,0.3,0.3,0.2,0.4c-0.1,0.2-0.1,0.3-0.2,0.5c0,0.2,0,0.3,0,0.5c0,0.1,0.2,0.3,0.2,0.4
							c0,0.1-0.3,0.2-0.3,0.3s0.2,0.2,0.3,0.4c0.1,0.1,0.1,0.2,0.1,0.3c-0.1,0.1-0.2,0.3-0.3,0.4c-0.1,0.1,0,0.2,0,0.3v0.1
							c0,0.2,0.2,0.1,0.1,0.3l-0.4,0.2c0,0.1,0.1,0.2,0.2,0.2c0.1,0.1,0,0.4,0,0.5s-0.1,0.2-0.2,0.3c-0.2,0.1,0.3,0.3,0.2,0.5
							c0,0.1-0.1,0.2-0.1,0.3c0,0,0,0,0,0.1c0.1,0.2,0.3,0.7,0.1,0.7c-0.3,0.1-0.2,0.2,0,0.3C145.9,152.1,147.6,152.3,147.6,152.3z"
							/>
					</g>
				</g>
			</g>
		</g>
		<g>
			<g>
				<g>
					<g>
						<path d="M136,151.6c0-0.1-0.2-0.2-0.1-0.3c0.1-0.1,0.4-0.5,0.4-0.6s-0.2-0.3-0.2-0.4l0,0l0,0c0,0,0.1-0.1,0.1-0.2
							c0-0.1,0-0.2,0-0.3c0-0.2,0.3-0.6,0.3-0.8c0-0.1-0.1-0.1-0.2-0.2l-0.1-0.1l0,0c0.1-0.1,0-0.1-0.1-0.2
							c-0.1-0.1,0.2-0.2,0.2-0.3c-0.1-0.2-0.3-0.5-0.1-0.7c0.1-0.1,0.1-0.2,0-0.3s-0.1-0.2-0.1-0.3c0-0.2,0.3-0.5,0.2-0.7
							c0-0.3-0.4-0.4-0.4-0.6c0-0.2,0.1-0.3,0.2-0.4c0,0,0.3-0.2-0.4-0.1c-0.1,0-1.3,0.1-1.3,0.1c-0.1,0.1-0.1,0.1-0.2,0.2
							c-0.2,0.1,0.3,0.2,0.2,0.4c-0.1,0.1-0.1,0.3-0.2,0.4c0,0.1,0,0.3,0,0.4c0,0.1,0.2,0.2,0.2,0.4c0,0.1-0.3,0.2-0.3,0.3
							s0.2,0.2,0.3,0.3s0.1,0.1,0.1,0.2c-0.1,0.1-0.2,0.2-0.3,0.3s0,0.2,0,0.3v0.1c0,0.1,0.2,0.1,0.1,0.2c0,0-0.4,0.1-0.4,0.2
							c0,0.1,0.1,0.1,0.2,0.2c0.1,0.1,0,0.3,0,0.4c0,0.1-0.1,0.1-0.2,0.2c-0.2,0.1,0.3,0.3,0.2,0.4c0,0.1-0.1,0.2-0.1,0.2l0,0
							c0.1,0.2,0.3,0.6,0.1,0.6c-0.3,0.1-0.2,0.1,0,0.3C134.3,151.4,136,151.6,136,151.6z"/>
					</g>
				</g>
			</g>
		</g>
		<g>
			<g>
				<g>
					<g>
						<path d="M149.8,162.4c-0.3-0.4-0.8-0.7-1.2-1c-0.2-0.2-0.8-0.8-1.5-1.3s-1.4-0.9-1.7-1c-0.5-0.2-1.4-0.2-1.9-0.3
							c-0.1,0-0.2,0-0.3-0.1h-0.1c-0.3-0.1-0.6-0.1-0.9-0.2c-0.5-0.1-1,0-1.5,0s-1.4,0-2.2,0.2s-1.7,0.4-2.2,0.7
							c-0.3,0.2-0.6,0.4-0.9,0.7c-0.2,0.1-0.3,0.3-0.4,0.4c0,0-0.2,0.1-0.2,0.2c-0.1,0.1-0.3,0.2-0.4,0.3c0,0.1-0.1,0.2-0.2,0.2
							c-0.2,0.2-0.4,0.2-0.6,0.1h-0.1l0,0c0,0,0,0,0,0.1l0,0l0,0l0,0c0.2,0.1-0.5-0.2,0.5,0.2l0,0l0,0l0,0l0,0
							c-0.1-0.1-0.2-0.3-0.4-0.4c-0.9-0.8-2.3-1.4-3.2-2c-0.5-0.3-1.1-0.6-1.7-0.7c-0.6-0.1-1.1-0.2-1.7-0.3c-0.4,0-1.2-0.2-1.9-0.1
							c-0.7,0-1.5,0.2-1.9,0.3c-1.4,0.6-1.9,1.3-3,2.2c-0.7,0.6-1.1,0.8-1.7,1.5c-0.1,0.1-0.7,0.6-0.1,0.9c0,0,0.3,0.2,0.6,0.3
							c0.3,0.2,0.5,0.3,0.5,0.3c0.2-0.2,0.5-0.5,0.7-0.6c0.5-0.4,0.7-1.2,1.3-1.5c0.6-0.3,1.2-0.6,1.7-0.9c0.6-0.3,1.2-0.5,1.9-0.6
							c0.6-0.1,1.1-0.3,1.7-0.2c0.5,0.1,0.9,0.4,1.4,0.6c0.5,0.1,1.1,0.1,1.6,0.3c0.5,0.1,0.8,0.2,1.1,0.5c0.4,0.3,0.9,0.9,1.2,1.3
							c0.1,0.1,0.2,0.2,0.2,0.3l0.1,0.1l0.1,0.1l0,0l0.6,0.3l0,0l0,0l0,0l0,0l0,0h0.1h0.1c0.6,0,0.9-0.1,1.3-0.3
							c0.3-0.1,0.5-0.3,0.8-0.5s0.3-0.3,0.4-0.4c0.1-0.1,0.1-0.1,0.1-0.2c0.1-0.1,0.2-0.2,0.5-0.4c0,0,0.8-0.1,1.1-0.2
							c0.3-0.1,0.6-0.4,0.8-0.6c0.3-0.2,1.6-0.4,1.9-0.4c0.4,0,0.8,0,1.1,0.1c0.7,0.2,1.4-0.2,2,0c0.4,0.1,0.8,0.3,1.2,0.4
							c0.1,0,0.1,0.1,0.2,0.1c0.4,0.1,1.1,0.3,1.7,0.6c0.6,0.3,1,0.7,1.1,0.9c0.2,0.5,0.5,0.7,0.9,1
							C148.5,163.5,150,162.6,149.8,162.4z"/>
					</g>
				</g>
			</g>
		</g>
		<g>
			<g>
				<g>
					<g>
						<path class="st7" d="M145.4,29.5c0,0.6,0.2,1.3,0.1,1.9c0,0.4-0.2,1.4-0.4,2.4s-0.5,2-0.6,2.4c-0.1,0.6-0.2,1.7-0.4,2.3
							c0,0.2-0.1,0.3-0.1,0.3s0,0.1-0.1,0.1c-0.1,0.4-0.3,0.7-0.4,1c-0.2,0.6-0.4,1.2-0.7,1.7c-0.6,1.2-2,3.7-2.8,4.7
							c-0.2,0.4-0.4,0.8-0.6,1.2c-0.1,0.2-0.2,0.5-0.4,0.7c0,0.1-0.2,0.2-0.2,0.3c-0.3,0.3-0.5,0.7-0.8,1c-0.6,0.8-1,1-1.7,1.7
							c-0.9,1.1-2.1,2.7-3.2,3.7c-0.6,0.5-1.2,1.2-1.6,1.8c-0.4,0.6-0.9,1.2-1.3,1.8c-0.3,0.5-0.9,1.2-1.4,2c-0.6,0.8-1,1.7-1.2,2.2
							s-0.3,0.9-0.4,1.3c-0.1,0.4-0.2,0.8-0.2,1.1c0,0.4-0.1,0.8-0.1,1.1c0,0.4,0,0.8-0.1,1.3c-0.1,0.6-0.1,1.1-0.1,1.6
							c0,0.2,0,0.5,0,0.7c0,0.3,0,0.5,0.1,0.9c0,0.2,0,1.2,0.6,0.9c0,0,0.3-0.1,0.6-0.2s0.6-0.2,0.6-0.2c0-0.4-0.1-0.9-0.1-1.3
							c0-0.9-0.4-1.9-0.2-2.8c0.1-0.5,0.2-0.9,0.4-1.4c0.1-0.5,0.2-0.9,0.4-1.3c0.3-0.9,0.7-1.8,1.2-2.7c0.2-0.4,0.4-0.8,0.6-1.2
							c0.2-0.4,0.4-0.8,0.7-1.1c0.4-0.6,1.1-1,1.6-1.5c0.5-0.6,0.8-1.4,1.3-2c0.4-0.6,0.7-0.9,1.2-1.4c0.6-0.6,1.5-1.2,2.1-1.8
							c0.6-0.5,1.1-1.1,1.5-1.8c0.2-0.3,0.4-0.5,0.6-0.8c0.7-0.9,0.3-0.7,1.1-1.6c0,0,0.9-0.8,1.2-1.2s0.5-1,0.7-1.5
							c0.1-0.3,0.4-0.8,0.7-1.4c0.3-0.6,0.6-1.1,0.7-1.4c0.3-0.5,0.6-1.1,0.9-1.6c0.5-1,0.5-2.1,0.8-3.2c0.2-0.6,0.4-1.2,0.6-1.9
							c0-0.1,0-0.2,0-0.4c0.2-1.4,0.3-4.4,0.5-4.9c0.3-0.8,0.2-1.4,0-2.1C147.1,29.4,145.4,29.3,145.4,29.5z"/>
					</g>
				</g>
			</g>
		</g>
		<g>
			<g>
				<g>
					<g>
						<path class="st7" d="M125.2,42.8c0.1,0.3,0.4,0.6,0.3,0.9c0,0.2,0,0.8-0.2,1.3c-0.1,0.5-0.4,1.1-0.4,1.3
							c-0.1,0.3-0.1,1-0.3,1.3c0,0.1-0.1,0.2-0.1,0.2s0,0-0.1,0.1c-0.1,0.2-0.2,0.4-0.4,0.5c-0.2,0.3-0.3,0.6-0.5,0.9
							c-0.4,0.7-1.6,2-2,2.7c-0.1,0.2-0.2,0.5-0.3,0.8c0,0.2-0.1,0.3-0.1,0.5l-0.1,0.2c-0.2,0.2-0.2,0.5-0.3,0.8
							c-0.2,0.6-0.6,0.7-0.8,1.3c-0.1,0.4-0.3,0.9-0.4,1.5c-0.1,0.5-0.3,1-0.5,1.4s-0.4,0.9-0.4,1.4s-0.2,0.9-0.2,1.3
							c0,0.3-0.2,0.9-0.3,1.5c-0.2,0.6-0.2,1.1-0.2,1.5c-0.1,1.2,0.4,1.8,0.4,2.9c0.1,0.7,0,1.1,0,1.8c0,0.1-0.2,0.7,0.5,0.5
							c0,0,0.4-0.1,0.7-0.1c0.3,0,0.6-0.1,0.6-0.1c0.1-0.2,0-0.6,0.1-0.8c0.1-0.6-0.4-1.1-0.3-1.7s0.1-1.2,0.1-1.7
							c0.1-0.6,0.1-1.2,0.1-1.8c0.1-0.5,0-1.1,0.1-1.6c0.1-0.4,0.5-0.8,0.5-1.2c0.1-0.5,0-1,0-1.4s0.1-0.7,0.3-1.1
							c0.2-0.4,0.6-1,0.9-1.3c0.3-0.4,0.3-0.8,0.5-1.2c0.1-0.2,0.1-0.3,0.2-0.5c0.3-0.6,0-0.5,0.4-1c0,0,0.6-0.4,0.8-0.6
							c0.2-0.3,0.2-0.6,0.3-0.9c0.1-0.3,0.8-1.3,1-1.5c0.2-0.3,0.5-0.6,0.7-0.8c0.5-0.5,0.4-1.3,0.7-1.9c0.2-0.4,0.4-0.7,0.5-1.1
							c0-0.1,0-0.1,0-0.2c0.1-0.5,0.2-1.2,0.2-1.8s0-1.2,0-1.4c0.2-0.6,0-1-0.3-1.3C126.8,42.1,125.2,42.7,125.2,42.8z"/>
					</g>
				</g>
			</g>
		</g>
		<g>
			<g>
				<g>
					<g>
						<path class="st7" d="M119.9,20.8c0.4-0.2,0.9-0.4,1.3-0.5c0.3,0,1-0.1,1.7-0.2c0.7,0,1.5-0.1,1.7-0.1c0.4,0,1.2-0.3,1.6-0.3
							c0.1,0,0.2,0,0.2,0h0.1c0.3,0,0.5,0.1,0.8,0.1c0.4,0,0.8,0.1,1.2,0.2c0.1,0,0.2,0.1,0.4,0.1c0.1,0.1,0.3,0.1,0.4,0.2
							c0.3,0.1,0.6,0.3,0.9,0.4c0.6,0.4,1.2,0.7,1.5,1c0.2,0.2,0.5,0.3,0.8,0.4c0.1,0.1,0.3,0.2,0.4,0.3c0,0,0.1,0.1,0.2,0.2
							c0.2,0.2,0.4,0.4,0.6,0.6c0.5,0.5,0.3,0.9,0.7,1.5c0.3,0.4,0.5,0.9,0.7,1.5s0.4,1.1,0.3,1.6c0,0.3,0,0.5,0,0.8s0,0.5,0.1,0.8
							c0.2,0.5,0.1,1,0,1.5c0,0.4-0.1,1-0.3,1.6c-0.2,0.6-0.4,1.2-0.4,1.6c-0.1,0.6-0.1,1.1-0.2,1.6c0,0.5-0.1,1-0.2,1.6
							c-0.2,0.8-0.5,1.1-0.9,1.9c-0.1,0.1-0.5,0.6,0.2,0.8c0,0,0.3,0.1,0.6,0.2c0.3,0.1,0.6,0.2,0.6,0.2c0.2-0.2,0.3-0.7,0.5-0.9
							c0.4-0.6,0.3-1.5,0.5-2.1c0.3-0.7,0.5-1.4,0.8-2.1c0.2-0.8,0.3-1.5,0.4-2.3c0.1-0.3,0.1-0.7,0-1c0-0.3,0-0.7,0-1
							c0.1-0.6,0.4-1.1,0.3-1.7c0-0.3-0.1-0.6-0.2-0.9c-0.1-0.3-0.2-0.6-0.3-0.9c-0.2-0.5-0.3-0.8-0.4-1.4c-0.1-0.6-0.2-1.5-0.4-2.1
							s-0.5-1.1-0.9-1.6c-0.1-0.2-0.3-0.4-0.5-0.6c-0.6-0.7-0.6-0.3-1.1-1c0-0.1-0.4-0.8-0.8-1.1c-0.3-0.3-0.8-0.4-1.2-0.5
							c-0.2,0-0.6-0.3-1.1-0.5c-0.5-0.2-0.9-0.4-1.1-0.4c-0.4-0.2-0.9-0.3-1.3-0.5c-0.8-0.4-1.6,0.1-2.4,0c-0.5,0-1,0-1.5,0
							c-0.1,0-0.2,0-0.3,0c-0.5,0.1-1.3,0.3-2,0.5c-0.7,0.2-1.3,0.3-1.5,0.3c-0.6-0.1-1,0.1-1.4,0.4
							C119.3,19.2,119.7,20.9,119.9,20.8z"/>
					</g>
				</g>
			</g>
		</g>
		<g>
			<g>
				<g>
					<g>
						<path d="M137.9,125.9c-0.9-0.2-1.8,0.2-2.5,0.5c-0.2,0.1-0.6,0.3-1,0.7c-0.2,0.2-0.4,0.4-0.5,0.7c-0.2,0.3-0.3,0.5-0.4,0.8
							c-0.5,1.2-0.4,2.5-0.3,2.9c0.1,0.8,0.9,1.9,1.3,2.5c0.1,0.2,0.2,0.3,0.3,0.3l0.1,0.1c0.3,0.3,0.6,0.6,0.9,0.9
							c0.6,0.4,1.2,0.8,1.8,1c0.7,0.3,1.8,0.7,3,0.8s2.3,0,3.1-0.2c0.5-0.1,0.9-0.4,1.4-0.6c0.2-0.1,0.5-0.3,0.7-0.4
							c0.1-0.1,0.3-0.1,0.3-0.2c0.5-0.2,0.8-0.5,1.2-0.9c0.8-0.8,1.3-1,1.8-2c0.8-1.5,0.8-3.9,0.1-5.4c-0.3-0.9-0.9-1.6-1.4-2.1
							s-1-1-1.4-1.5c-0.3-0.4-0.7-1.2-1.1-1.9c-0.3-0.8-0.7-1.6-0.9-2s-0.3-0.7-0.5-1c-0.1-0.3-0.3-0.6-0.4-0.9
							c-0.3-0.6-0.5-1.2-0.8-2.1c-0.1-0.5-0.1-1-0.1-1.4s0-0.8,0-1.4c0-0.2,0.2-1-0.5-0.9c0,0-0.4,0-0.7,0s-0.6,0-0.6,0
							c-0.1,0.4-0.1,1-0.1,1.4c-0.1,0.5,0.1,1,0.2,1.5c0.1,0.5,0.3,1,0.4,1.5c0.1,1,0.4,2,0.7,2.9c0.2,0.5,0.4,1,0.6,1.5
							c0.2,0.5,0.5,0.9,0.7,1.4c0.2,0.4,0.5,0.8,0.8,1.1c0.3,0.4,0.5,0.7,0.8,1.1c0.4,0.6,0.7,1.4,1.2,1.9c0.5,0.6,1.1,1,1.5,1.6
							c0.1,0.1,0.2,0.2,0.2,0.3c0.1,0.1,0.1,0.2,0.1,0.3c0.1,0.2,0.1,0.5,0.1,0.8c0,0.7-0.4,1.5-0.8,2.1c-0.3,0.5-0.6,1-1,1.5
							c-0.2,0.2-0.3,0.4-0.6,0.5c-0.4,0.3-0.5,0.4-0.6,0.5s-0.3,0.2-0.7,0.3c0,0-1,0-1.4,0.1s-0.9,0.2-1.3,0.4
							c-0.2,0.1-0.8,0.1-1.3,0s-1.1-0.2-1.3-0.3c-0.5-0.1-0.9-0.4-1.3-0.7c-0.7-0.5-1.6-0.7-2-1.4c-0.3-0.4-0.4-0.9-0.5-1.4
							c0-0.1,0-0.2-0.1-0.3c-0.1-0.5-0.2-1.4,0.1-2.1s0.8-1.1,1-1.1c0.6,0,0.8-0.1,1.2-0.2C137.5,127.5,138.3,125.9,137.9,125.9z"/>
					</g>
				</g>
			</g>
		</g>
		<g>
			<g>
				<g>
					<g>
						<path class="st7" d="M145.3,20.9c-0.1-0.2-0.3-0.3-0.3-0.5s0-1.2-0.1-1.4c-0.1-0.2-0.4-0.4-0.5-0.5v-0.1l0,0
							c0-0.1,0-0.2-0.1-0.3c-0.1-0.2-0.2-0.3-0.2-0.5c-0.2-0.3-0.4-1.1-0.7-1.4c-0.1-0.1-0.2-0.1-0.4-0.2c-0.1,0-0.2,0-0.2-0.1
							l-0.1-0.1c0-0.1-0.2-0.2-0.3-0.2c-0.2-0.2-0.1-0.4-0.3-0.6c-0.4-0.2-0.9-0.4-1-0.8c-0.1-0.2-0.3-0.4-0.5-0.4s-0.4-0.2-0.5-0.3
							c-0.2-0.2-0.7-0.7-1-0.9c-0.5-0.2-0.8,0-1.3-0.1c-0.3-0.1-0.4-0.3-0.7-0.5c0,0-0.2-0.4-0.4,0.3c0,0.1-0.3,1.2-0.3,1.2
							c0.1,0.1,0.2,0.2,0.3,0.3c0.2,0.2,0.5-0.1,0.7,0.1c0.2,0.2,0.4,0.3,0.6,0.4c0.2,0.1,0.4,0.2,0.6,0.3c0.2,0.1,0.5,0,0.6,0.2
							c0.1,0.1,0.1,0.5,0.3,0.5c0.2,0.1,0.4,0.1,0.6,0.1c0.2,0,0.3,0.1,0.4,0.2c0.1,0.2,0.2,0.5,0.2,0.7c0.1,0.2,0.3,0.2,0.4,0.4
							c0.1,0,0.1,0.1,0.2,0.1c0.2,0.2,0.3,0,0.4,0.2c0,0-0.1,0.4,0,0.5s0.2,0.1,0.4,0.2c0.2,0,0.3,0.5,0.4,0.6
							c0.1,0.1,0.1,0.3,0.1,0.4c0,0.3,0.4,0.3,0.5,0.5c0.1,0.1,0,0.3,0.1,0.4c0,0,0,0,0,0.1c0.3,0.2,0.6,0.8,0.5,1
							c-0.2,0.2-0.1,0.3,0.1,0.4C143.7,21.3,145.4,20.9,145.3,20.9z"/>
					</g>
				</g>
			</g>
		</g>
		<g>
			<g>
				<g>
					<g>
						<path class="st7" d="M97.7,59.2c0.2,0.1,0.5,0.1,0.6,0.2c0.2,0.2,1.1,0.9,1.2,1.1c0.2,0.2,0.6,0.2,0.7,0.3l0.1,0.1l0,0
							c0.1,0.1,0.2,0.2,0.3,0.3c0.2,0.1,0.3,0.3,0.4,0.4c0.3,0.3,0.9,1.1,1.1,1.5c0.1,0.1,0.3,0.2,0.4,0.2s0.2,0.1,0.2,0.1l0.1,0.1
							c0,0.2,0.2,0.2,0.3,0.3c0.3,0.2,0.1,0.5,0.3,0.7c0.3,0.4,0.8,0.8,0.9,1.3c0,0.3,0.1,0.6,0.3,0.7c0.2,0.2,0.3,0.4,0.4,0.6
							c0.2,0.3,0.1,1.2,0.2,1.6c0.2,0.6,0.6,0.8,0.7,1.4c0.1,0.4-0.1,0.6-0.1,1c0,0.1-0.3,0.3,0.4,0.3c0.1,0,1.3-0.1,1.3-0.1
							c0.1-0.1,0.1-0.4,0.1-0.5c0.1-0.4-0.3-0.7-0.3-1.1c0.1-0.4,0.1-0.8,0-1.1c-0.1-0.4-0.2-0.7-0.3-1.1c-0.1-0.3-0.4-0.6-0.5-0.9
							s0.1-0.6,0-0.9s-0.4-0.5-0.6-0.7c-0.2-0.2-0.3-0.3-0.4-0.6c-0.1-0.3-0.1-0.7-0.2-1s-0.3-0.5-0.5-0.7c-0.1-0.1-0.2-0.2-0.3-0.2
							c-0.3-0.3-0.4-0.1-0.5-0.5c0,0,0-0.5-0.1-0.7s-0.3-0.2-0.5-0.3s-0.7-0.6-0.8-0.8c-0.1-0.2-0.2-0.4-0.3-0.6
							c-0.2-0.4-0.8-0.3-1.1-0.5c-0.2-0.1-0.3-0.3-0.5-0.5c0,0-0.1,0-0.1-0.1c-0.5-0.2-1.5-0.5-1.6-0.8c-0.1-0.4-0.3-0.4-0.6-0.4
							C98.4,57.7,97.6,59.2,97.7,59.2z"/>
					</g>
				</g>
			</g>
		</g>
		<g>
			<g>
				<g>
					<g>
						<path d="M114.7,108.3c0.1,0.4,0.2,0.8,0.2,1.2c0,0.5,0,2.7,0.1,3.2c0.1,0.4,0.5,1,0.6,1.4c0,0.1,0.1,0.2,0.1,0.2v0.1
							c0.1,0.2,0.1,0.5,0.2,0.7c0.2,0.4,0.3,0.7,0.5,1.1s0.5,1.1,0.8,1.7c0.4,0.6,0.8,1.2,1.2,1.5c0.2,0.2,0.6,0.3,0.9,0.5
							c0.2,0.1,0.3,0.1,0.5,0.2c0.1,0,0.2,0.1,0.2,0.1c0.3,0.2,0.6,0.2,0.9,0.2c0.7,0.1,1,0.3,1.8,0.2c1.1-0.3,2.2-1.2,2.9-1.8
							c0.4-0.3,0.8-0.7,1-1.2s0.4-0.9,0.6-1.3c0.3-0.6,1.2-2.1,1.3-2.8c0.3-1.2,0-1.8,0.2-2.9c0-0.7,0.3-1.1,0.4-1.8
							c0-0.1,0.3-0.7-0.4-0.6c0,0-0.4,0-0.7,0s-0.6,0-0.6,0c-0.1,0.2-0.1,0.6-0.2,0.8c-0.2,0.5,0.2,1.2,0,1.7
							c-0.2,0.6-0.3,1.1-0.5,1.7s-0.3,1.1-0.5,1.7c-0.2,0.5-0.2,1-0.5,1.5c-0.2,0.4-0.7,0.6-0.8,0.9c-0.2,0.4-0.3,0.8-0.6,1.2
							c-0.2,0.3-0.4,0.5-0.7,0.7c-0.4,0.2-0.9,0.3-1.3,0.2c-0.3,0-0.6,0.1-0.9,0.1c-0.1,0-0.3,0-0.4,0c-0.2,0-0.3,0-0.4,0
							s-0.2,0-0.4-0.2c0,0-0.3-0.6-0.4-0.8c-0.2-0.1-0.4-0.3-0.7-0.4c-0.1-0.1-0.3-0.3-0.5-0.6c-0.2-0.3-0.3-0.6-0.4-0.7
							c-0.1-0.3-0.2-0.6-0.3-0.9c-0.1-0.6-0.7-1-0.8-1.5c-0.1-0.4-0.1-0.7-0.2-1.1c0-0.1,0-0.1-0.1-0.2c-0.3-0.7-0.7-2.4-0.5-2.7
							c0.2-0.5,0.2-0.8,0-1.2C116.4,108.2,114.7,108.1,114.7,108.3z"/>
					</g>
				</g>
			</g>
		</g>
		<g>
			<g>
				<g>
					<g>
						<path d="M142.5,106.9c0.1,0.4,0.2,0.8,0.2,1.1c0,0.4,0,2.5,0.1,3c0.1,0.4,0.5,1,0.6,1.3c0,0.1,0.1,0.2,0.1,0.2v0.1
							c0,0.2,0.1,0.4,0.2,0.7c0.1,0.4,0.3,0.7,0.4,1c0.2,0.4,0.4,1,0.8,1.6c0.3,0.6,0.8,1.1,1.2,1.4c0.2,0.2,0.5,0.3,0.8,0.4
							c0.2,0.1,0.3,0.1,0.5,0.2c0.1,0,0.2,0.1,0.2,0.1c0.3,0.2,0.6,0.2,0.9,0.2c0.7,0.1,1,0.3,1.7,0.2c1.1-0.3,2-1.2,2.7-1.7
							c0.4-0.3,0.8-0.7,1-1.1c0.1-0.4,0.4-0.8,0.6-1.2c0.3-0.6,1.1-1.9,1.3-2.6c0.3-1.1,0-1.7,0.1-2.8c0-0.7,0.3-1,0.4-1.7
							c0-0.1,0.3-0.6-0.4-0.6c-0.1,0-1.3,0-1.3,0c-0.1,0.2-0.1,0.5-0.2,0.7c-0.2,0.5,0.2,1.1,0,1.6s-0.3,1-0.5,1.5
							c-0.1,0.5-0.3,1-0.4,1.6c-0.1,0.5-0.2,1-0.4,1.4c-0.2,0.3-0.6,0.5-0.8,0.8s-0.3,0.8-0.5,1.1c-0.2,0.3-0.3,0.5-0.6,0.6
							c-0.3,0.2-0.9,0.2-1.2,0.2s-0.6,0.1-0.9,0.1c-0.1,0-0.2,0-0.4,0c-0.4-0.1-0.4,0.1-0.8-0.2c0,0-0.2-0.6-0.4-0.7
							s-0.4-0.3-0.7-0.4c-0.1-0.1-0.3-0.3-0.5-0.6c-0.2-0.3-0.3-0.6-0.3-0.7c-0.1-0.3-0.2-0.6-0.2-0.9c-0.1-0.5-0.7-0.9-0.8-1.4
							c-0.1-0.3-0.1-0.7-0.2-1c0-0.1,0-0.1-0.1-0.2c-0.3-0.7-0.7-2.2-0.5-2.5c0.2-0.4,0.2-0.7,0-1.1
							C144.2,106.8,142.5,106.7,142.5,106.9z"/>
					</g>
				</g>
			</g>
		</g>
	</g>
</g>
</svg>
